<svg width="40" height="40" viewBox="0 0 40 40" fill="none" xmlns="http://www.w3.org/2000/svg">
<path d="M19.9997 9.92969C22.2162 9.92969 24.3418 10.8102 25.9091 12.3774C27.4764 13.9447 28.3569 16.0704 28.3569 18.2868C28.3569 21.8183 25.8754 25.6668 20.9769 29.8737C20.7045 30.1077 20.3572 30.2362 19.9981 30.2359C19.639 30.2356 19.292 30.1064 19.02 29.872L18.696 29.5908C14.0143 25.4937 11.6426 21.7394 11.6426 18.2868C11.6426 16.0704 12.5231 13.9447 14.0903 12.3774C15.6576 10.8102 17.7833 9.92969 19.9997 9.92969ZM19.9997 11.2154C18.1243 11.2154 16.3256 11.9604 14.9995 13.2866C13.6733 14.6127 12.9283 16.4114 12.9283 18.2868C12.9283 21.2885 15.1123 24.7471 19.5403 28.6214L19.86 28.8983C19.8989 28.9317 19.9485 28.9501 19.9997 28.9501C20.051 28.9501 20.1006 28.9317 20.1394 28.8983C24.7817 24.9108 27.0711 21.3597 27.0711 18.2868C27.0711 17.3582 26.8882 16.4387 26.5329 15.5807C26.1775 14.7228 25.6566 13.9432 25 13.2866C24.3433 12.6299 23.5638 12.1091 22.7058 11.7537C21.8479 11.3983 20.9284 11.2154 19.9997 11.2154ZM19.9997 15.0725C20.8522 15.0725 21.6698 15.4112 22.2726 16.014C22.8754 16.6168 23.214 17.4343 23.214 18.2868C23.214 19.1393 22.8754 19.9569 22.2726 20.5597C21.6698 21.1625 20.8522 21.5011 19.9997 21.5011C19.1472 21.5011 18.3297 21.1625 17.7269 20.5597C17.1241 19.9569 16.7854 19.1393 16.7854 18.2868C16.7854 17.4343 17.1241 16.6168 17.7269 16.014C18.3297 15.4112 19.1472 15.0725 19.9997 15.0725ZM19.9997 16.3583C19.4882 16.3583 18.9977 16.5614 18.636 16.9231C18.2743 17.2848 18.0711 17.7753 18.0711 18.2868C18.0711 18.7983 18.2743 19.2889 18.636 19.6505C18.9977 20.0122 19.4882 20.2154 19.9997 20.2154C20.5112 20.2154 21.0017 20.0122 21.3634 19.6505C21.7251 19.2889 21.9283 18.7983 21.9283 18.2868C21.9283 17.7753 21.7251 17.2848 21.3634 16.9231C21.0017 16.5614 20.5112 16.3583 19.9997 16.3583Z" fill="#717171"/>
<rect x="0.5" y="0.5" width="39" height="39" rx="19.5" stroke="#DEDEDE"/>
</svg>
