<svg width="44" height="44" viewBox="0 0 44 44" fill="none" xmlns="http://www.w3.org/2000/svg">
<rect width="44" height="44" rx="22" fill="#F7F7F7"/>
<path d="M37.55 29.1579H32.3497C32.5118 28.9031 32.5982 28.6123 32.6 28.3158H33.7316C34.5758 28.3158 35.401 28.0816 36.103 27.6427C36.8049 27.2039 37.352 26.5802 37.6751 25.8504C37.9982 25.1206 38.0827 24.3176 37.918 23.5428C37.7533 22.7681 37.3467 22.0565 36.7498 21.4979L30.4498 15.6032C29.9078 15.0933 29.2632 14.6891 28.5531 14.4139C27.8431 14.1387 27.0817 13.998 26.3132 14H11.45C11.3307 14 11.2162 14.0444 11.1318 14.1233C11.0474 14.2023 11 14.3094 11 14.4211C11 14.5327 11.0474 14.6398 11.1318 14.7188C11.2162 14.7978 11.3307 14.8421 11.45 14.8421H26.3132C26.9635 14.8404 27.6077 14.9594 28.2085 15.1923C28.8094 15.4251 29.3548 15.7672 29.8134 16.1986L30.1637 16.5263H28.1C27.8614 16.5266 27.6326 16.6154 27.4639 16.7733C27.2952 16.9311 27.2003 17.1452 27.2 17.3684V19.6182C27.1992 19.8948 27.2571 20.1687 27.3702 20.4242C27.4834 20.6796 27.6496 20.9115 27.8592 21.1065L28.3407 21.558C28.6326 21.8324 28.9797 22.05 29.3621 22.1982C29.7444 22.3463 30.1543 22.4221 30.5682 22.4211H36.4144C36.8112 22.9084 37.0457 23.4942 37.0887 24.1054H26.3V17.3413C26.2997 17.1252 26.2079 16.9181 26.0446 16.7653C25.8813 16.6125 25.6599 16.5266 25.429 16.5263H19.971C19.7401 16.5266 19.5187 16.6125 19.3554 16.7653C19.1921 16.9181 19.1002 17.1252 19.1 17.3413V24.1053H11.45C11.3307 24.1053 11.2162 24.1496 11.1318 24.2286C11.0474 24.3076 11 24.4147 11 24.5263C11 24.638 11.0474 24.7451 11.1318 24.8241C11.2162 24.903 11.3307 24.9474 11.45 24.9474H19.1V27.4737H11.45C11.3307 27.4737 11.2162 27.518 11.1318 27.597C11.0474 27.676 11 27.7831 11 27.8947C11 28.0064 11.0474 28.1135 11.1318 28.1925C11.2162 28.2714 11.3307 28.3158 11.45 28.3158H12.8C12.8018 28.6123 12.8882 28.9031 13.0503 29.1579H11.45C11.3307 29.1579 11.2162 29.2023 11.1318 29.2812C11.0474 29.3602 11 29.4673 11 29.5789C11 29.6906 11.0474 29.7977 11.1318 29.8767C11.2162 29.9556 11.3307 30 11.45 30H37.55C37.6693 30 37.7838 29.9556 37.8682 29.8767C37.9526 29.7977 38 29.6906 38 29.5789C38 29.4673 37.9526 29.3602 37.8682 29.2812C37.7838 29.2023 37.6693 29.1579 37.55 29.1579ZM28.9771 20.9626L28.4956 20.5113C28.2432 20.274 28.1011 19.9531 28.1 19.6182V17.3684H31.0637L35.5637 21.579H30.5684C30.2728 21.5797 29.98 21.5255 29.7069 21.4197C29.4337 21.314 29.1857 21.1586 28.9771 20.9626ZM30.8 29.1579C30.5614 29.1576 30.3326 29.0688 30.1639 28.911C29.9952 28.7531 29.9003 28.5391 29.9 28.3158H31.7C31.6997 28.5391 31.6048 28.7531 31.4361 28.911C31.2674 29.0688 31.0386 29.1576 30.8 29.1579ZM19.1 28.3158H20.9C20.9 28.5391 20.8052 28.7533 20.6364 28.9112C20.4676 29.0692 20.2387 29.1579 20 29.1579C19.7613 29.1579 19.5324 29.0692 19.3636 28.9112C19.1948 28.7533 19.1 28.5391 19.1 28.3158ZM21.8 28.3158H23.6C23.6018 28.6123 23.6882 28.9031 23.8503 29.1579H21.5497C21.7118 28.9031 21.7982 28.6123 21.8 28.3158ZM24.5 28.3158H26.3C26.3 28.5391 26.2052 28.7533 26.0364 28.9112C25.8676 29.0692 25.6387 29.1579 25.4 29.1579C25.1613 29.1579 24.9324 29.0692 24.7636 28.9112C24.5948 28.7533 24.5 28.5391 24.5 28.3158ZM27.2 28.3158H29C29.0018 28.6123 29.0882 28.9031 29.2503 29.1579H26.9497C27.1118 28.9031 27.1982 28.6123 27.2 28.3158ZM37.0329 24.9474C36.8777 25.6598 36.4645 26.3003 35.863 26.7606C35.2615 27.2209 34.5086 27.4728 33.7316 27.4737H26.3V24.9474H37.0329ZM19.971 17.3684L25.4 17.3413V27.4737H19.9988L19.971 17.3684ZM18.4503 29.1579H16.1497C16.3118 28.9031 16.3982 28.6123 16.4 28.3158H18.2C18.2018 28.6123 18.2882 28.9031 18.4503 29.1579ZM13.7 28.3158H15.5C15.5 28.5391 15.4052 28.7533 15.2364 28.9112C15.0676 29.0692 14.8387 29.1579 14.6 29.1579C14.3613 29.1579 14.1324 29.0692 13.9636 28.9112C13.7948 28.7533 13.7 28.5391 13.7 28.3158ZM23.9063 18.2105H21.4937C21.3363 18.2107 21.1854 18.2692 21.0741 18.3733C20.9628 18.4774 20.9002 18.6186 20.9 18.7658V23.2632C20.9 23.3748 20.9474 23.4819 21.0318 23.5609C21.1162 23.6399 21.2307 23.6842 21.35 23.6842H24.05C24.1693 23.6842 24.2838 23.6399 24.3682 23.5609C24.4526 23.4819 24.5 23.3748 24.5 23.2632V18.7658C24.4998 18.6186 24.4372 18.4774 24.3259 18.3733C24.2146 18.2692 24.0637 18.2107 23.9063 18.2105ZM23.6 22.8421H21.8V19.0526H23.6V22.8421ZM17.3 21.579V17.3684H11.45C11.3307 17.3684 11.2162 17.3241 11.1318 17.2451C11.0474 17.1662 11 17.0591 11 16.9474C11 16.8357 11.0474 16.7286 11.1318 16.6497C11.2162 16.5707 11.3307 16.5263 11.45 16.5263H17.3C17.5386 16.5266 17.7674 16.6154 17.9361 16.7733C18.1048 16.9311 18.1997 17.1452 18.2 17.3684V21.579C18.1997 21.8022 18.1048 22.0163 17.9361 22.1741C17.7674 22.332 17.5386 22.4208 17.3 22.4211H11.45C11.3307 22.4211 11.2162 22.3767 11.1318 22.2977C11.0474 22.2188 11 22.1117 11 22C11 21.8883 11.0474 21.7812 11.1318 21.7023C11.2162 21.6233 11.3307 21.579 11.45 21.579H17.3Z" fill="#707070"/>
</svg>
