<svg width="60" height="47" viewBox="0 0 60 47" fill="none" xmlns="http://www.w3.org/2000/svg">
<mask id="path-1-inside-1_246_4978" fill="white">
<path d="M59.3114 16.6703C58.7266 16.5029 58.1192 16.4286 57.5114 16.4503C56.2811 16.4958 55.1044 16.9657 54.1814 17.7803C53.8742 18.0927 53.5902 18.4269 53.3314 18.7803C53.2714 18.1303 53.1914 17.4803 53.0814 16.8403L52.9914 16.5803L53.5814 16.4803C54.1888 16.3619 54.7667 16.1241 55.2817 15.7808C55.7966 15.4375 56.2384 14.9955 56.5814 14.4803C57.2983 13.2301 57.5863 11.7796 57.4014 10.3503C57.3521 9.82934 57.272 9.31177 57.1614 8.80031C57.1105 8.53339 57.0334 8.27213 56.9314 8.0203C56.8468 7.83013 56.705 7.67107 56.5258 7.56531C56.3465 7.45955 56.1387 7.41235 55.9314 7.43031C55.3504 7.51294 54.7865 7.68852 54.2614 7.95031C53.1895 8.46761 52.323 9.3306 51.8014 10.4003C51.6143 10.7763 51.4701 11.1721 51.3714 11.5803C51.0241 10.8592 50.6368 10.1581 50.2114 9.48031C50.4817 9.34895 50.7423 9.19858 50.9914 9.0303C51.9608 8.34187 52.6214 7.30062 52.8314 6.13031C52.9735 4.76726 52.698 3.3932 52.0414 2.19031C51.7071 1.58246 51.3224 1.00376 50.8914 0.460306C50.7423 0.276495 50.5329 0.151505 50.3003 0.107561C50.0678 0.0636162 49.8272 0.103566 49.6214 0.220306C49.1538 0.508947 48.738 0.874019 48.3914 1.30031C47.6626 2.16515 47.2313 3.2415 47.1614 4.37031C47.1571 4.78838 47.1839 5.20618 47.2414 5.62031C46.8914 5.26031 46.5114 4.91031 46.1214 4.57031C46.0779 4.17697 45.9976 3.78859 45.8814 3.41031C45.5466 2.25755 44.8083 1.2637 43.8014 0.610305L43.6814 0.540305C42.6205 0.00879973 41.4076 -0.136189 40.2514 0.130306C39.7018 0.244823 39.1703 0.4332 38.6714 0.690306C38.4614 0.80502 38.2996 0.991188 38.2152 1.21503C38.1308 1.43887 38.1294 1.68555 38.2114 1.91031C38.4047 2.40058 38.6354 2.8753 38.9014 3.33031L39.0514 3.56031C39.4787 4.35834 40.1146 5.0254 40.8914 5.49031C41.7102 5.95376 42.641 6.18215 43.5814 6.15031H43.9914C44.3214 6.15031 44.6014 6.15031 44.8314 6.15031C47.2909 8.30322 49.1623 11.0464 50.2697 14.1218C51.377 17.1971 51.6839 20.5037 51.1614 23.7303C51.108 23.957 51.068 24.187 51.0414 24.4203C50.9944 24.7581 50.9242 25.0922 50.8314 25.4203L50.3614 27.0503L49.7314 28.6403C49.6043 28.9381 49.4607 29.2285 49.3014 29.5103C49.1914 29.7203 49.0814 29.9203 49.0114 30.0803C46.858 33.9957 43.422 37.0503 39.2814 38.7303C38.1014 39.2003 36.7314 39.9003 35.2814 40.6403C33.6214 41.4803 31.7814 42.4103 30.0014 43.1203C28.2214 42.4103 26.3814 41.4803 24.7214 40.6403C23.2614 39.9003 21.8914 39.2003 20.7214 38.7303C16.586 37.0672 13.1498 34.0301 10.9914 30.1303L10.6714 29.5203C10.5099 29.2362 10.3663 28.9423 10.2414 28.6403L9.61136 27.0603L9.13136 25.3903C9.04412 25.0885 8.9773 24.7811 8.93136 24.4703C8.93136 24.2403 8.86136 24.0103 8.82136 23.8403C8.27685 20.5926 8.57371 17.2595 9.68361 14.1592C10.7935 11.0588 12.6794 8.29458 15.1614 6.13031C15.3914 6.13031 15.6814 6.13031 16.0114 6.13031H16.4014C17.3417 6.16215 18.2726 5.93376 19.0914 5.47031C19.8681 5.0054 20.504 4.33834 20.9314 3.54031L21.1014 3.28031C21.3592 2.83441 21.5832 2.36977 21.7714 1.89031C21.8533 1.66555 21.8519 1.41887 21.7675 1.19503C21.6831 0.971188 21.5213 0.78502 21.3114 0.670306C20.8219 0.420152 20.3003 0.238452 19.7614 0.130306C18.5933 -0.137293 17.3684 0.0149427 16.3014 0.560306L16.1814 0.630306C15.1839 1.27805 14.4499 2.26016 14.1114 3.40031C13.9892 3.78782 13.9055 4.18641 13.8614 4.59031C13.4714 4.93031 13.0914 5.28031 12.7414 5.64031C12.7988 5.22618 12.8256 4.80838 12.8214 4.39031C12.7514 3.2615 12.3202 2.18515 11.5914 1.32031C11.2447 0.894018 10.8289 0.528947 10.3614 0.240305C10.1555 0.123565 9.91491 0.0836157 9.68238 0.12756C9.44984 0.171504 9.24042 0.296495 9.09136 0.480306C8.65054 1.03863 8.25907 1.6342 7.92136 2.26031C7.27346 3.45516 7.00487 4.81901 7.15136 6.17031C7.37 7.32642 8.02988 8.35211 8.99136 9.0303C9.22763 9.20788 9.47853 9.36511 9.74136 9.50031C9.31587 10.1781 8.9286 10.8792 8.58136 11.6003C8.48265 11.1921 8.33841 10.7963 8.15136 10.4203C7.63033 9.35358 6.76809 8.49133 5.70136 7.97031C5.17243 7.7091 4.60536 7.53358 4.02136 7.45031C3.81401 7.43235 3.60622 7.47955 3.42696 7.58531C3.24771 7.69107 3.10592 7.85013 3.02136 8.04031C2.91928 8.29213 2.84224 8.55339 2.79136 8.82031C2.68271 9.31824 2.60588 9.8226 2.56136 10.3303C2.36445 11.7792 2.65279 13.2525 3.38136 14.5203C3.72474 15.0351 4.16661 15.4769 4.68149 15.8201C5.19637 16.1634 5.77409 16.4013 6.38136 16.5203L6.97136 16.6203L6.91136 16.8603C6.80136 17.5103 6.72136 18.1603 6.66136 18.8103C6.40255 18.4569 6.11847 18.1227 5.81136 17.8103C4.8909 16.9978 3.71818 16.528 2.49136 16.4803C1.88013 16.456 1.26898 16.5303 0.68136 16.7003C0.474379 16.7699 0.295862 16.9053 0.173074 17.0859C0.0502863 17.2664 -0.0100221 17.4822 0.00135996 17.7003C0.00135996 17.7003 0.0013599 17.9603 0.0613599 18.3403C0.133806 18.9154 0.264477 19.4816 0.45136 20.0303C0.672254 20.7026 0.963887 21.3496 1.32136 21.9603C1.72733 22.5996 2.25788 23.1505 2.88136 23.5803C3.6065 24.0522 4.45636 24.296 5.32136 24.2803C5.70205 24.2677 6.08056 24.2174 6.45136 24.1303C6.58614 24.1072 6.71965 24.0771 6.85136 24.0403C6.85677 24.0734 6.85677 24.1072 6.85136 24.1403C6.89857 24.3315 6.9353 24.5251 6.96136 24.7203C7.01445 25.1236 7.10142 25.5216 7.22136 25.9103L7.29136 26.1603C6.97382 25.9438 6.63941 25.7532 6.29136 25.5903C5.43405 25.2091 4.4975 25.0401 3.56101 25.0975C2.62452 25.1549 1.71566 25.4372 0.91136 25.9203C0.723126 26.0513 0.585628 26.243 0.521907 26.4633C0.458187 26.6836 0.472116 26.9191 0.56136 27.1303C0.884998 27.8499 1.26624 28.5421 1.70136 29.2003C2.11148 29.8521 2.62096 30.4358 3.21136 30.9303C3.79033 31.4562 4.47102 31.8579 5.21136 32.1103C5.62415 32.2296 6.05168 32.2902 6.48136 32.2903C7.35946 32.2792 8.22139 32.0526 8.99136 31.6303L9.44136 31.3703C9.78136 31.9603 10.1514 32.5303 10.5414 33.0903C10.1041 32.9898 9.65924 32.9262 9.21136 32.9003C7.99134 32.8703 6.8016 33.2823 5.86136 34.0603C5.38449 34.4346 4.97524 34.8878 4.65136 35.4003C4.54386 35.582 4.4966 35.793 4.51636 36.0032C4.53612 36.2133 4.62188 36.4119 4.76136 36.5703C5.31171 37.1535 5.94521 37.6523 6.64136 38.0503C7.23383 38.4209 7.86829 38.7197 8.53136 38.9403C9.06142 39.0933 9.6097 39.174 10.1614 39.1803C10.351 39.1959 10.5417 39.1959 10.7314 39.1803C11.3429 39.0915 11.9305 38.8812 12.4594 38.5617C12.9884 38.2423 13.4481 37.8202 13.8114 37.3203L14.0514 36.9903C14.6338 37.4876 15.2413 37.9549 15.8714 38.3903C15.5064 38.4093 15.1445 38.4663 14.7914 38.5603C13.8999 38.7927 13.0767 39.2341 12.3898 39.848C11.7029 40.4619 11.1721 41.2305 10.8414 42.0903C10.7638 42.3161 10.7695 42.5622 10.8575 42.7841C10.9456 43.006 11.1101 43.1891 11.3214 43.3003C12.019 43.6533 12.7449 43.9477 13.4914 44.1803C14.197 44.3882 14.9261 44.5059 15.6614 44.5303H15.9914C16.6784 44.5358 17.3593 44.3996 17.9914 44.1303C19.1777 43.622 20.1156 42.6661 20.6014 41.4703C20.6843 41.2842 20.7578 41.0939 20.8214 40.9003C21.7314 41.3103 22.7614 41.8403 23.8214 42.3803C24.8814 42.9203 26.0014 43.4803 27.1214 44.0003C26.0399 44.2855 24.9029 44.2855 23.8214 44.0003C23.5726 43.9293 23.3059 43.9575 23.0775 44.079C22.849 44.2004 22.6765 44.4057 22.5963 44.6517C22.516 44.8977 22.5342 45.1652 22.647 45.398C22.7599 45.6309 22.9586 45.8109 23.2014 45.9003C23.8746 46.1101 24.5762 46.2147 25.2814 46.2103C26.9037 46.1504 28.5036 45.8121 30.0114 45.2103C31.5191 45.8121 33.119 46.1504 34.7414 46.2103C35.4465 46.2147 36.1481 46.1101 36.8214 45.9003C36.9507 45.8634 37.0712 45.8008 37.1758 45.7162C37.2803 45.6317 37.3667 45.5269 37.4299 45.4082C37.493 45.2894 37.5315 45.1592 37.5432 45.0252C37.5548 44.8913 37.5393 44.7563 37.4976 44.6285C37.4559 44.5006 37.3888 44.3825 37.3004 44.2812C37.212 44.1799 37.104 44.0974 36.983 44.0388C36.862 43.9802 36.7304 43.9465 36.5961 43.9399C36.4618 43.9333 36.3275 43.9538 36.2014 44.0003C35.1199 44.2855 33.9829 44.2855 32.9014 44.0003C34.0214 43.4803 35.1214 42.9303 36.2014 42.3803C37.2814 41.8303 38.3014 41.3103 39.2014 40.9003C39.2648 41.0972 39.3383 41.2908 39.4214 41.4803C39.8971 42.6667 40.8201 43.6185 41.9914 44.1303C42.6244 44.3945 43.3055 44.5239 43.9914 44.5103H44.3314C45.0679 44.4762 45.7971 44.3485 46.5014 44.1303C47.2479 43.8977 47.9737 43.6033 48.6714 43.2503C48.8826 43.1391 49.0472 42.956 49.1352 42.7341C49.2232 42.5122 49.229 42.2661 49.1514 42.0403C48.9354 41.4792 48.6316 40.956 48.2514 40.4903C47.4912 39.5198 46.4396 38.8187 45.2514 38.4903C44.8982 38.3963 44.5363 38.3393 44.1714 38.3203C44.8007 37.8946 45.4082 37.4374 45.9914 36.9503L46.2314 37.2803C46.9592 38.271 48.0476 38.9355 49.2614 39.1303C49.4479 39.1405 49.6348 39.1405 49.8214 39.1303C50.3901 39.1234 50.9553 39.0393 51.5014 38.8803C52.1454 38.6603 52.7626 38.3685 53.3414 38.0103C54.0408 37.6087 54.6776 37.1067 55.2314 36.5203C55.3708 36.3619 55.4566 36.1633 55.4764 35.9532C55.4961 35.743 55.4489 35.532 55.3414 35.3503C55.0205 34.8415 54.6146 34.3916 54.1414 34.0203C53.2027 33.2315 52.0069 32.8152 50.7814 32.8503C50.3302 32.8764 49.882 32.9399 49.4414 33.0403C49.8314 32.4803 50.2014 31.9103 50.5414 31.3203L51.0014 31.5803C51.7594 31.9951 52.6073 32.2182 53.4714 32.2303C53.9109 32.2301 54.3483 32.1695 54.7714 32.0503C55.5119 31.8032 56.193 31.4048 56.7714 30.8803C57.3499 30.4063 57.8524 29.8465 58.2614 29.2203C58.7036 28.556 59.0916 27.857 59.4214 27.1303C59.5139 26.9145 59.5276 26.6729 59.4599 26.448C59.3923 26.2232 59.2477 26.0292 59.0514 25.9003C58.5216 25.5809 57.9444 25.348 57.3414 25.2103C56.1111 24.9337 54.8244 25.0599 53.6714 25.5703C53.3222 25.731 52.9876 25.9217 52.6714 26.1403L52.7314 25.9303C52.8497 25.5412 52.9367 25.1433 52.9914 24.7403C52.9914 24.5403 53.0514 24.3503 53.1114 24.1003C53.2414 24.1003 53.3714 24.1703 53.5114 24.1903C53.8865 24.2677 54.2683 24.3079 54.6514 24.3103C55.519 24.3238 56.3701 24.0726 57.0914 23.5903C57.7327 23.1524 58.2773 22.5874 58.6914 21.9303C59.0271 21.3362 59.3018 20.7097 59.5114 20.0603C59.702 19.523 59.8328 18.9663 59.9014 18.4003C59.9014 17.9803 59.9714 17.7203 59.9714 17.7203C59.9956 17.4966 59.9436 17.2712 59.8238 17.0806C59.704 16.8901 59.5235 16.7455 59.3114 16.6703Z"/>
</mask>
<path d="M59.3114 16.6703C58.7266 16.5029 58.1192 16.4286 57.5114 16.4503C56.2811 16.4958 55.1044 16.9657 54.1814 17.7803C53.8742 18.0927 53.5902 18.4269 53.3314 18.7803C53.2714 18.1303 53.1914 17.4803 53.0814 16.8403L52.9914 16.5803L53.5814 16.4803C54.1888 16.3619 54.7667 16.1241 55.2817 15.7808C55.7966 15.4375 56.2384 14.9955 56.5814 14.4803C57.2983 13.2301 57.5863 11.7796 57.4014 10.3503C57.3521 9.82934 57.272 9.31177 57.1614 8.80031C57.1105 8.53339 57.0334 8.27213 56.9314 8.0203C56.8468 7.83013 56.705 7.67107 56.5258 7.56531C56.3465 7.45955 56.1387 7.41235 55.9314 7.43031C55.3504 7.51294 54.7865 7.68852 54.2614 7.95031C53.1895 8.46761 52.323 9.3306 51.8014 10.4003C51.6143 10.7763 51.4701 11.1721 51.3714 11.5803C51.0241 10.8592 50.6368 10.1581 50.2114 9.48031C50.4817 9.34895 50.7423 9.19858 50.9914 9.0303C51.9608 8.34187 52.6214 7.30062 52.8314 6.13031C52.9735 4.76726 52.698 3.3932 52.0414 2.19031C51.7071 1.58246 51.3224 1.00376 50.8914 0.460306C50.7423 0.276495 50.5329 0.151505 50.3003 0.107561C50.0678 0.0636162 49.8272 0.103566 49.6214 0.220306C49.1538 0.508947 48.738 0.874019 48.3914 1.30031C47.6626 2.16515 47.2313 3.2415 47.1614 4.37031C47.1571 4.78838 47.1839 5.20618 47.2414 5.62031C46.8914 5.26031 46.5114 4.91031 46.1214 4.57031C46.0779 4.17697 45.9976 3.78859 45.8814 3.41031C45.5466 2.25755 44.8083 1.2637 43.8014 0.610305L43.6814 0.540305C42.6205 0.00879973 41.4076 -0.136189 40.2514 0.130306C39.7018 0.244823 39.1703 0.4332 38.6714 0.690306C38.4614 0.80502 38.2996 0.991188 38.2152 1.21503C38.1308 1.43887 38.1294 1.68555 38.2114 1.91031C38.4047 2.40058 38.6354 2.8753 38.9014 3.33031L39.0514 3.56031C39.4787 4.35834 40.1146 5.0254 40.8914 5.49031C41.7102 5.95376 42.641 6.18215 43.5814 6.15031H43.9914C44.3214 6.15031 44.6014 6.15031 44.8314 6.15031C47.2909 8.30322 49.1623 11.0464 50.2697 14.1218C51.377 17.1971 51.6839 20.5037 51.1614 23.7303C51.108 23.957 51.068 24.187 51.0414 24.4203C50.9944 24.7581 50.9242 25.0922 50.8314 25.4203L50.3614 27.0503L49.7314 28.6403C49.6043 28.9381 49.4607 29.2285 49.3014 29.5103C49.1914 29.7203 49.0814 29.9203 49.0114 30.0803C46.858 33.9957 43.422 37.0503 39.2814 38.7303C38.1014 39.2003 36.7314 39.9003 35.2814 40.6403C33.6214 41.4803 31.7814 42.4103 30.0014 43.1203C28.2214 42.4103 26.3814 41.4803 24.7214 40.6403C23.2614 39.9003 21.8914 39.2003 20.7214 38.7303C16.586 37.0672 13.1498 34.0301 10.9914 30.1303L10.6714 29.5203C10.5099 29.2362 10.3663 28.9423 10.2414 28.6403L9.61136 27.0603L9.13136 25.3903C9.04412 25.0885 8.9773 24.7811 8.93136 24.4703C8.93136 24.2403 8.86136 24.0103 8.82136 23.8403C8.27685 20.5926 8.57371 17.2595 9.68361 14.1592C10.7935 11.0588 12.6794 8.29458 15.1614 6.13031C15.3914 6.13031 15.6814 6.13031 16.0114 6.13031H16.4014C17.3417 6.16215 18.2726 5.93376 19.0914 5.47031C19.8681 5.0054 20.504 4.33834 20.9314 3.54031L21.1014 3.28031C21.3592 2.83441 21.5832 2.36977 21.7714 1.89031C21.8533 1.66555 21.8519 1.41887 21.7675 1.19503C21.6831 0.971188 21.5213 0.78502 21.3114 0.670306C20.8219 0.420152 20.3003 0.238452 19.7614 0.130306C18.5933 -0.137293 17.3684 0.0149427 16.3014 0.560306L16.1814 0.630306C15.1839 1.27805 14.4499 2.26016 14.1114 3.40031C13.9892 3.78782 13.9055 4.18641 13.8614 4.59031C13.4714 4.93031 13.0914 5.28031 12.7414 5.64031C12.7988 5.22618 12.8256 4.80838 12.8214 4.39031C12.7514 3.2615 12.3202 2.18515 11.5914 1.32031C11.2447 0.894018 10.8289 0.528947 10.3614 0.240305C10.1555 0.123565 9.91491 0.0836157 9.68238 0.12756C9.44984 0.171504 9.24042 0.296495 9.09136 0.480306C8.65054 1.03863 8.25907 1.6342 7.92136 2.26031C7.27346 3.45516 7.00487 4.81901 7.15136 6.17031C7.37 7.32642 8.02988 8.35211 8.99136 9.0303C9.22763 9.20788 9.47853 9.36511 9.74136 9.50031C9.31587 10.1781 8.9286 10.8792 8.58136 11.6003C8.48265 11.1921 8.33841 10.7963 8.15136 10.4203C7.63033 9.35358 6.76809 8.49133 5.70136 7.97031C5.17243 7.7091 4.60536 7.53358 4.02136 7.45031C3.81401 7.43235 3.60622 7.47955 3.42696 7.58531C3.24771 7.69107 3.10592 7.85013 3.02136 8.04031C2.91928 8.29213 2.84224 8.55339 2.79136 8.82031C2.68271 9.31824 2.60588 9.8226 2.56136 10.3303C2.36445 11.7792 2.65279 13.2525 3.38136 14.5203C3.72474 15.0351 4.16661 15.4769 4.68149 15.8201C5.19637 16.1634 5.77409 16.4013 6.38136 16.5203L6.97136 16.6203L6.91136 16.8603C6.80136 17.5103 6.72136 18.1603 6.66136 18.8103C6.40255 18.4569 6.11847 18.1227 5.81136 17.8103C4.8909 16.9978 3.71818 16.528 2.49136 16.4803C1.88013 16.456 1.26898 16.5303 0.68136 16.7003C0.474379 16.7699 0.295862 16.9053 0.173074 17.0859C0.0502863 17.2664 -0.0100221 17.4822 0.00135996 17.7003C0.00135996 17.7003 0.0013599 17.9603 0.0613599 18.3403C0.133806 18.9154 0.264477 19.4816 0.45136 20.0303C0.672254 20.7026 0.963887 21.3496 1.32136 21.9603C1.72733 22.5996 2.25788 23.1505 2.88136 23.5803C3.6065 24.0522 4.45636 24.296 5.32136 24.2803C5.70205 24.2677 6.08056 24.2174 6.45136 24.1303C6.58614 24.1072 6.71965 24.0771 6.85136 24.0403C6.85677 24.0734 6.85677 24.1072 6.85136 24.1403C6.89857 24.3315 6.9353 24.5251 6.96136 24.7203C7.01445 25.1236 7.10142 25.5216 7.22136 25.9103L7.29136 26.1603C6.97382 25.9438 6.63941 25.7532 6.29136 25.5903C5.43405 25.2091 4.4975 25.0401 3.56101 25.0975C2.62452 25.1549 1.71566 25.4372 0.91136 25.9203C0.723126 26.0513 0.585628 26.243 0.521907 26.4633C0.458187 26.6836 0.472116 26.9191 0.56136 27.1303C0.884998 27.8499 1.26624 28.5421 1.70136 29.2003C2.11148 29.8521 2.62096 30.4358 3.21136 30.9303C3.79033 31.4562 4.47102 31.8579 5.21136 32.1103C5.62415 32.2296 6.05168 32.2902 6.48136 32.2903C7.35946 32.2792 8.22139 32.0526 8.99136 31.6303L9.44136 31.3703C9.78136 31.9603 10.1514 32.5303 10.5414 33.0903C10.1041 32.9898 9.65924 32.9262 9.21136 32.9003C7.99134 32.8703 6.8016 33.2823 5.86136 34.0603C5.38449 34.4346 4.97524 34.8878 4.65136 35.4003C4.54386 35.582 4.4966 35.793 4.51636 36.0032C4.53612 36.2133 4.62188 36.4119 4.76136 36.5703C5.31171 37.1535 5.94521 37.6523 6.64136 38.0503C7.23383 38.4209 7.86829 38.7197 8.53136 38.9403C9.06142 39.0933 9.6097 39.174 10.1614 39.1803C10.351 39.1959 10.5417 39.1959 10.7314 39.1803C11.3429 39.0915 11.9305 38.8812 12.4594 38.5617C12.9884 38.2423 13.4481 37.8202 13.8114 37.3203L14.0514 36.9903C14.6338 37.4876 15.2413 37.9549 15.8714 38.3903C15.5064 38.4093 15.1445 38.4663 14.7914 38.5603C13.8999 38.7927 13.0767 39.2341 12.3898 39.848C11.7029 40.4619 11.1721 41.2305 10.8414 42.0903C10.7638 42.3161 10.7695 42.5622 10.8575 42.7841C10.9456 43.006 11.1101 43.1891 11.3214 43.3003C12.019 43.6533 12.7449 43.9477 13.4914 44.1803C14.197 44.3882 14.9261 44.5059 15.6614 44.5303H15.9914C16.6784 44.5358 17.3593 44.3996 17.9914 44.1303C19.1777 43.622 20.1156 42.6661 20.6014 41.4703C20.6843 41.2842 20.7578 41.0939 20.8214 40.9003C21.7314 41.3103 22.7614 41.8403 23.8214 42.3803C24.8814 42.9203 26.0014 43.4803 27.1214 44.0003C26.0399 44.2855 24.9029 44.2855 23.8214 44.0003C23.5726 43.9293 23.3059 43.9575 23.0775 44.079C22.849 44.2004 22.6765 44.4057 22.5963 44.6517C22.516 44.8977 22.5342 45.1652 22.647 45.398C22.7599 45.6309 22.9586 45.8109 23.2014 45.9003C23.8746 46.1101 24.5762 46.2147 25.2814 46.2103C26.9037 46.1504 28.5036 45.8121 30.0114 45.2103C31.5191 45.8121 33.119 46.1504 34.7414 46.2103C35.4465 46.2147 36.1481 46.1101 36.8214 45.9003C36.9507 45.8634 37.0712 45.8008 37.1758 45.7162C37.2803 45.6317 37.3667 45.5269 37.4299 45.4082C37.493 45.2894 37.5315 45.1592 37.5432 45.0252C37.5548 44.8913 37.5393 44.7563 37.4976 44.6285C37.4559 44.5006 37.3888 44.3825 37.3004 44.2812C37.212 44.1799 37.104 44.0974 36.983 44.0388C36.862 43.9802 36.7304 43.9465 36.5961 43.9399C36.4618 43.9333 36.3275 43.9538 36.2014 44.0003C35.1199 44.2855 33.9829 44.2855 32.9014 44.0003C34.0214 43.4803 35.1214 42.9303 36.2014 42.3803C37.2814 41.8303 38.3014 41.3103 39.2014 40.9003C39.2648 41.0972 39.3383 41.2908 39.4214 41.4803C39.8971 42.6667 40.8201 43.6185 41.9914 44.1303C42.6244 44.3945 43.3055 44.5239 43.9914 44.5103H44.3314C45.0679 44.4762 45.7971 44.3485 46.5014 44.1303C47.2479 43.8977 47.9737 43.6033 48.6714 43.2503C48.8826 43.1391 49.0472 42.956 49.1352 42.7341C49.2232 42.5122 49.229 42.2661 49.1514 42.0403C48.9354 41.4792 48.6316 40.956 48.2514 40.4903C47.4912 39.5198 46.4396 38.8187 45.2514 38.4903C44.8982 38.3963 44.5363 38.3393 44.1714 38.3203C44.8007 37.8946 45.4082 37.4374 45.9914 36.9503L46.2314 37.2803C46.9592 38.271 48.0476 38.9355 49.2614 39.1303C49.4479 39.1405 49.6348 39.1405 49.8214 39.1303C50.3901 39.1234 50.9553 39.0393 51.5014 38.8803C52.1454 38.6603 52.7626 38.3685 53.3414 38.0103C54.0408 37.6087 54.6776 37.1067 55.2314 36.5203C55.3708 36.3619 55.4566 36.1633 55.4764 35.9532C55.4961 35.743 55.4489 35.532 55.3414 35.3503C55.0205 34.8415 54.6146 34.3916 54.1414 34.0203C53.2027 33.2315 52.0069 32.8152 50.7814 32.8503C50.3302 32.8764 49.882 32.9399 49.4414 33.0403C49.8314 32.4803 50.2014 31.9103 50.5414 31.3203L51.0014 31.5803C51.7594 31.9951 52.6073 32.2182 53.4714 32.2303C53.9109 32.2301 54.3483 32.1695 54.7714 32.0503C55.5119 31.8032 56.193 31.4048 56.7714 30.8803C57.3499 30.4063 57.8524 29.8465 58.2614 29.2203C58.7036 28.556 59.0916 27.857 59.4214 27.1303C59.5139 26.9145 59.5276 26.6729 59.4599 26.448C59.3923 26.2232 59.2477 26.0292 59.0514 25.9003C58.5216 25.5809 57.9444 25.348 57.3414 25.2103C56.1111 24.9337 54.8244 25.0599 53.6714 25.5703C53.3222 25.731 52.9876 25.9217 52.6714 26.1403L52.7314 25.9303C52.8497 25.5412 52.9367 25.1433 52.9914 24.7403C52.9914 24.5403 53.0514 24.3503 53.1114 24.1003C53.2414 24.1003 53.3714 24.1703 53.5114 24.1903C53.8865 24.2677 54.2683 24.3079 54.6514 24.3103C55.519 24.3238 56.3701 24.0726 57.0914 23.5903C57.7327 23.1524 58.2773 22.5874 58.6914 21.9303C59.0271 21.3362 59.3018 20.7097 59.5114 20.0603C59.702 19.523 59.8328 18.9663 59.9014 18.4003C59.9014 17.9803 59.9714 17.7203 59.9714 17.7203C59.9956 17.4966 59.9436 17.2712 59.8238 17.0806C59.704 16.8901 59.5235 16.7455 59.3114 16.6703Z" stroke="#707070" stroke-width="4" mask="url(#path-1-inside-1_246_4978)"/>
<path d="M31.4014 33.3376L32.2765 33.3901L32.7517 32.6535C32.9299 32.3773 33.117 32.0557 33.2988 31.7431C33.3449 31.6639 33.3906 31.5853 33.4358 31.5081L33.436 31.5077C34.6137 29.4946 36.3507 26.4226 37.7975 23.3915C38.5205 21.8768 39.1827 20.348 39.6672 18.9513C40.1402 17.5877 40.4913 16.219 40.4913 15.0703V14.9995L40.4846 14.9291C40.2385 12.3271 39.0308 9.91045 37.0977 8.15154C35.1645 6.39263 32.6449 5.41791 30.0313 5.41791C27.4177 5.41791 24.8981 6.39263 22.9649 8.15154C21.0318 9.91045 19.8241 12.3271 19.578 14.9291L19.5713 14.9995V15.0703C19.5713 16.2168 19.9187 17.584 20.3879 18.9477C20.8683 20.3441 21.5253 21.8729 22.2433 23.3877C23.6801 26.4193 25.4072 29.4917 26.5866 31.5077L26.5868 31.5081C26.6319 31.5853 26.6777 31.6639 26.7237 31.7431C26.9056 32.0557 27.0927 32.3773 27.2708 32.6535L27.7139 33.3403H28.5313C28.8065 33.3403 29.086 33.3265 29.3254 33.3146L29.348 33.3135C29.6064 33.3007 29.8245 33.2903 30.0313 33.2903C30.4898 33.2903 30.917 33.3086 31.4014 33.3376ZM27.4913 16.0403C27.4913 15.5459 27.6379 15.0625 27.9126 14.6514C28.1873 14.2403 28.5778 13.9198 29.0346 13.7306C29.4914 13.5414 29.9941 13.4919 30.479 13.5884C30.964 13.6848 31.4094 13.9229 31.7591 14.2726C32.1087 14.6222 32.3468 15.0676 32.4433 15.5526C32.5397 16.0375 32.4902 16.5402 32.301 16.997C32.1118 17.4538 31.7913 17.8443 31.3802 18.119C30.9691 18.3937 30.4857 18.5403 29.9913 18.5403C29.3282 18.5403 28.6924 18.2769 28.2235 17.8081C27.7547 17.3392 27.4913 16.7034 27.4913 16.0403Z" stroke="#707070" stroke-width="3"/>
<path d="M31.9912 16.0403C31.9912 15.6447 31.8739 15.258 31.6542 14.9291C31.4344 14.6002 31.122 14.3439 30.7566 14.1925C30.3911 14.0411 29.989 14.0015 29.601 14.0787C29.2131 14.1559 28.8567 14.3464 28.577 14.6261C28.2973 14.9058 28.1068 15.2621 28.0296 15.6501C27.9525 16.0381 27.9921 16.4402 28.1435 16.8057C28.2948 17.1711 28.5512 17.4835 28.8801 17.7032C29.209 17.923 29.5956 18.0403 29.9912 18.0403C30.5216 18.0403 31.0304 17.8296 31.4054 17.4545C31.7805 17.0794 31.9912 16.5707 31.9912 16.0403Z" fill="#FC8019"/>
<path d="M32.2605 33.407L32.2622 33.4043C32.4152 33.1641 32.7151 32.6889 33.1184 32.0203C34.7496 32.1413 36.1331 32.3401 37.1145 32.6268C37.6384 32.7798 38.0114 32.9478 38.2432 33.1168C38.4718 33.2835 38.5 33.4005 38.5 33.4628C38.5 33.4521 38.5046 33.4897 38.431 33.5803C38.358 33.6703 38.2315 33.7823 38.0365 33.9062C37.6473 34.1536 37.0576 34.4032 36.3047 34.6107C34.8038 35.0242 32.7426 35.2461 30.5552 35.0031L30.5028 34.9972L30.4502 35.0025C28.0116 35.2463 25.9531 34.9761 24.52 34.5417C23.801 34.3238 23.257 34.0698 22.9046 33.8321C22.7277 33.7129 22.6149 33.6083 22.5513 33.5284C22.5199 33.489 22.5067 33.4637 22.5015 33.4519C22.504 33.4413 22.5108 33.423 22.5291 33.3954C22.5613 33.3468 22.6235 33.2788 22.7343 33.1975C22.9587 33.0328 23.3195 32.859 23.824 32.6948C24.7694 32.387 26.1169 32.1454 27.7359 32.0203C27.9418 32.3357 28.1502 32.6078 28.3288 32.831C28.4175 32.9417 28.4925 33.0334 28.5554 33.1102C28.6682 33.2478 28.7419 33.3377 28.7843 33.4043L28.7843 33.4043L28.786 33.407C28.972 33.695 29.23 33.9303 29.5339 34.0926C29.8376 34.2548 30.178 34.3394 30.5232 34.3394C30.8684 34.3394 31.2089 34.2548 31.5126 34.0926C31.8165 33.9303 32.0745 33.695 32.2605 33.407Z" stroke="#707070"/>
</svg>
