<svg xmlns="http://www.w3.org/2000/svg" width="34" height="34" viewBox="0 0 34 34" fill="none">
  <g clip-path="url(#clip0_2191_18335)">
    <path d="M21.2794 11.1089C21.1599 11.2143 20.7625 11.5709 20.6558 11.6774L18.4266 13.7491C18.4154 13.7603 18.4013 13.7682 18.3859 13.7718C18.3705 13.7755 18.3544 13.7748 18.3393 13.7699L8.89945 12.2478C8.83956 12.2356 8.77773 12.2365 8.71824 12.2506C8.65876 12.2646 8.60303 12.2914 8.55492 12.3291L7.60947 13.1627L15.1672 16.5604C15.1848 16.568 15.2001 16.58 15.2116 16.5952C15.2231 16.6105 15.2304 16.6285 15.2329 16.6474C15.2354 16.6664 15.2328 16.6856 15.2256 16.7033C15.2184 16.721 15.2067 16.7365 15.1916 16.7483L10.9688 20.584C10.9255 20.6246 10.8732 20.6545 10.8162 20.6711C10.7591 20.6877 10.699 20.6906 10.6406 20.6796L7.9447 20.2445C7.71832 20.2003 7.45562 20.3007 7.28368 20.4523L6.62056 21.037C6.57521 21.077 6.6194 21.1136 6.66952 21.1457L9.58116 23.0418C9.75246 23.1297 9.88422 23.2792 9.95007 23.4602L11.459 26.5792C11.4987 26.6661 11.5337 26.7008 11.6143 26.6298L12.2443 26.0743C12.5305 25.822 12.5367 25.7503 12.5205 25.4371L12.4293 22.6615C12.4262 22.6023 12.4369 22.5432 12.4605 22.4888C12.4841 22.4344 12.5199 22.3862 12.5653 22.3479L16.8921 18.7017C16.9079 18.6885 16.9266 18.6792 16.9468 18.6749C16.9669 18.6705 16.9878 18.6711 17.0076 18.6766C17.0275 18.6822 17.0457 18.6925 17.0606 18.7066C17.0756 18.7208 17.0869 18.7384 17.0935 18.7579L19.5137 26.6642L20.4503 25.8383C20.4937 25.7954 20.5272 25.7436 20.5485 25.6864C20.5699 25.6293 20.5786 25.5682 20.5741 25.5073L20.2586 15.946C20.2537 15.9128 20.301 15.8523 20.3253 15.8309L22.6247 13.9098C22.7469 13.8145 23.147 13.468 23.2669 13.3623C24.8234 11.9899 25.4306 10.694 24.8128 9.99326C24.195 9.29252 22.8405 9.73243 21.2794 11.1089Z" stroke="#707070" stroke-linecap="round" stroke-linejoin="round"/>
  </g>
  <defs>
    <clipPath id="clip0_2191_18335">
      <rect width="24" height="24" fill="white" transform="translate(0 15.873) rotate(-41.4026)"/>
    </clipPath>
  </defs>
</svg>