<svg width="34" height="34" viewBox="0 0 34 34" fill="none" xmlns="http://www.w3.org/2000/svg">
<g clip-path="url(#clip0_246_4022)">
<path d="M21.2794 11.1086C21.1599 11.214 20.7625 11.5706 20.6558 11.6772L18.4266 13.7489C18.4154 13.7601 18.4013 13.7679 18.3859 13.7716C18.3705 13.7752 18.3544 13.7746 18.3393 13.7696L8.89945 12.2476C8.83956 12.2353 8.77773 12.2363 8.71824 12.2503C8.65876 12.2644 8.60303 12.2912 8.55492 12.3289L7.60947 13.1625L15.1672 16.5602C15.1848 16.5678 15.2001 16.5797 15.2116 16.595C15.2231 16.6102 15.2304 16.6282 15.2329 16.6472C15.2354 16.6661 15.2328 16.6854 15.2256 16.7031C15.2184 16.7208 15.2067 16.7363 15.1916 16.748L10.9688 20.5838C10.9255 20.6244 10.8732 20.6542 10.8162 20.6708C10.7591 20.6874 10.699 20.6904 10.6406 20.6794L7.9447 20.2442C7.71832 20.2001 7.45562 20.3005 7.28368 20.4521L6.62056 21.0367C6.57521 21.0767 6.6194 21.1134 6.66952 21.1454L9.58116 23.0415C9.75246 23.1295 9.88422 23.2789 9.95007 23.4599L11.459 26.579C11.4987 26.6658 11.5337 26.7006 11.6143 26.6296L12.2443 26.0741C12.5305 25.8217 12.5367 25.75 12.5205 25.4368L12.4293 22.6613C12.4262 22.6021 12.4369 22.5429 12.4605 22.4885C12.4841 22.4341 12.5199 22.3859 12.5653 22.3477L16.8921 18.7015C16.9079 18.6882 16.9266 18.679 16.9468 18.6746C16.9669 18.6702 16.9878 18.6709 17.0076 18.6764C17.0275 18.6819 17.0457 18.6922 17.0606 18.7064C17.0756 18.7205 17.0869 18.7381 17.0935 18.7577L19.5137 26.6639L20.4503 25.8381C20.4937 25.7951 20.5272 25.7433 20.5485 25.6862C20.5699 25.629 20.5786 25.5679 20.5741 25.5071L20.2586 15.9457C20.2537 15.9125 20.301 15.8521 20.3253 15.8307L22.6247 13.9095C22.7469 13.8143 23.147 13.4678 23.2669 13.3621C24.8234 11.9897 25.4306 10.6938 24.8128 9.99302C24.195 9.29228 22.8405 9.73219 21.2794 11.1086Z" stroke="#707070" stroke-linecap="round" stroke-linejoin="round"/>
</g>
<defs>
<clipPath id="clip0_246_4022">
<rect width="24" height="24" fill="white" transform="translate(0 15.8723) rotate(-41.4026)"/>
</clipPath>
</defs>
</svg>
