<svg width="12" height="13" viewBox="0 0 12 13" fill="none" xmlns="http://www.w3.org/2000/svg">
<path fill-rule="evenodd" clip-rule="evenodd" d="M10.86 3.36003C10.9222 3.29831 10.9959 3.24943 11.0769 3.2162C11.158 3.18296 11.2448 3.16602 11.3324 3.16633C11.42 3.16663 11.5067 3.18419 11.5875 3.218C11.6683 3.25181 11.7416 3.3012 11.8034 3.36336C11.8651 3.42552 11.914 3.49923 11.9472 3.58028C11.9804 3.66132 11.9974 3.74812 11.9971 3.83572C11.9968 3.92332 11.9792 4.00999 11.9454 4.0908C11.9116 4.17161 11.8622 4.24497 11.8 4.3067L6.46669 9.64003C6.34179 9.7642 6.17282 9.83389 5.9967 9.83389C5.82057 9.83389 5.6516 9.7642 5.5267 9.64003L0.193363 4.3067C0.131204 4.24497 0.08181 4.17161 0.0480022 4.0908C0.0141945 4.00999 -0.00336552 3.92332 -0.00367546 3.83572C-0.00398445 3.74812 0.0129623 3.66132 0.0461979 3.58028C0.0794344 3.49923 0.128307 3.42552 0.190029 3.36336C0.25175 3.3012 0.32511 3.25181 0.40592 3.218C0.486731 3.18419 0.573409 3.16663 0.661005 3.16632C0.748602 3.16602 0.835402 3.18296 0.916449 3.2162C0.997496 3.24943 1.0712 3.29831 1.13336 3.36003L5.99336 8.22003L10.86 3.36003Z" fill="#222222"/>
</svg>
