<svg xmlns="http://www.w3.org/2000/svg" width="36" height="35" viewBox="0 0 36 35" fill="none">
  <path d="M34.8387 32.551H28.008C27.5017 31.3311 27.6579 29.9282 28.4615 28.8348L29.3964 27.5618C29.6118 27.2677 29.6704 26.8912 29.5531 26.5491L28.9899 24.9063C28.6909 24.0342 28.7193 23.0835 29.0712 22.2305L29.2378 21.8252H34.8387C35.4797 21.8252 36 21.3194 36 20.6962C36 20.073 35.4797 19.5672 34.8387 19.5672H28.4516H25.2616C25.2784 18.6261 25.0973 17.6964 24.7181 16.8281L28.3611 17.4497C28.9963 17.5581 29.5944 17.1471 29.7053 16.5335C30.0815 14.4561 29.6031 12.36 28.357 10.632C27.45 9.37431 26.2156 8.42141 24.7872 7.85464L26.9826 6.44731C27.2398 6.28247 27.4193 6.02505 27.4808 5.7315C27.5424 5.43796 27.4826 5.13256 27.313 4.88304C25.1977 1.76523 20.8685 0.903221 17.6627 2.95805C17.4549 3.09128 17.2557 3.2341 17.0653 3.38595C15.8256 1.29725 13.5123 0 11.0266 0C9.8049 0 8.60181 0.314434 7.54678 0.908867C6.99227 1.22161 6.80298 1.91144 7.12349 2.45055L8.09549 4.08538C4.42989 3.98038 1.09004 6.32424 0.0483636 9.7277C-0.133958 10.325 0.215008 10.9533 0.829328 11.1316L4.37821 12.1619C2.84996 13.4354 1.93952 15.3175 1.93952 17.3148C1.93952 18.5025 2.26293 19.6727 2.87377 20.6979C3.18964 21.2274 3.88235 21.4165 4.43454 21.1224L9.25329 18.5652C8.8991 19.833 8.58439 21.1105 8.31207 22.3971C7.12407 22.3547 5.95756 22.7488 5.06105 23.5154C4.05886 24.374 3.48402 25.6097 3.48402 26.9267C3.48635 27.4529 3.24422 27.9304 2.81803 28.2381C2.54396 28.4368 2.28268 28.6564 2.04171 28.8907C0.724812 30.171 0.000170357 31.8713 0.000170357 33.68C0.000170357 34.3032 0.520426 34.809 1.16146 34.809H34.8387C35.4797 34.809 36 34.3032 36 33.68C36 33.0568 35.4797 32.551 34.8387 32.551ZM4.26209 17.3148C4.26209 15.7019 5.15163 14.2009 6.58407 13.3987C6.92607 13.2068 7.30291 13.0566 7.70413 12.9522C8.20581 12.8212 8.55768 12.3826 8.56465 11.8774C8.57161 11.3721 8.23368 10.9245 7.73549 10.7794L2.71932 9.32294C3.7157 7.52384 5.6835 6.34005 7.83826 6.34005C8.40149 6.34005 8.95948 6.41908 9.49309 6.57376C9.63883 6.61666 9.77703 6.66803 9.91696 6.71997L9.97793 6.74255C10.4355 6.90964 10.9552 6.77981 11.2722 6.4157C11.5898 6.05158 11.6374 5.53336 11.3918 5.1207L9.78922 2.42289C10.1899 2.31451 10.6068 2.25862 11.0266 2.25862C12.6855 2.25862 14.2294 3.12345 15.0562 4.51949C15.2815 4.89602 15.4458 5.29909 15.5434 5.71626C15.6467 6.15489 16.0079 6.49247 16.4631 6.57489C16.9195 6.65674 17.3805 6.46876 17.6389 6.09562C17.985 5.59602 18.4228 5.17546 18.9401 4.84409C20.7436 3.6874 23.0784 3.91547 24.6119 5.26239L21.1872 7.45779C20.7622 7.73045 20.5694 8.24077 20.7117 8.71609C20.8539 9.19141 21.2981 9.52108 21.8074 9.52899C22.1325 9.53407 22.4257 9.56003 22.7056 9.60858C24.2339 9.86995 25.5659 10.6941 26.456 11.9282C27.1197 12.8478 27.4785 13.9136 27.5069 15.011L22.3468 14.1303C21.837 14.0411 21.3272 14.2957 21.1007 14.7507C20.8748 15.2052 20.9863 15.7505 21.3742 16.0858C21.6906 16.3596 21.9543 16.6526 22.1761 16.9766C22.8595 17.9837 23.0981 19.1884 22.849 20.3699C22.6772 21.1851 22.287 21.9218 21.7214 22.5184L15.4679 13.839C15.2432 13.5274 14.8838 13.3575 14.5157 13.3575C14.3269 13.3575 14.1359 13.4021 13.96 13.4958L4.43976 18.5482C4.32189 18.1485 4.26209 17.7331 4.26209 17.3148ZM3.68377 30.4871C3.84518 30.3302 4.02112 30.1823 4.20402 30.0502C5.22827 29.3107 5.8124 28.1687 5.80659 26.9058C5.80659 26.2583 6.09459 25.6402 6.59627 25.2106C6.96265 24.8973 7.4051 24.7138 7.87833 24.6653C7.46084 27.0808 7.18039 29.519 7.0544 31.9678L7.02478 32.551H2.46848C2.67287 31.777 3.08687 31.0674 3.68377 30.4871ZM9.35026 32.551L9.37406 32.0807C9.43387 30.9173 9.53374 29.7566 9.66206 28.5994H11.613C12.254 28.5994 12.7743 28.0936 12.7743 27.4704C12.7743 26.8471 12.254 26.3413 11.613 26.3413H9.9518C10.4239 23.193 11.1526 20.0826 12.1257 17.041L14.1603 15.9611L14.8002 16.849C14.673 18.1282 14.5958 19.4119 14.5604 20.6962H13.9356C13.2946 20.6962 12.7743 21.202 12.7743 21.8252C12.7743 22.4484 13.2946 22.9542 13.9356 22.9542H14.5453C14.5807 25.4629 14.7833 27.9688 15.1666 30.4527L15.4905 32.551H9.35026ZM17.8387 32.551L17.463 30.1174C16.9358 26.6992 16.7569 23.2365 16.9172 19.7868L20.5445 24.8211C20.7697 25.1344 21.1297 25.3026 21.4967 25.3026C21.7162 25.3026 21.9386 25.2422 22.1348 25.1163C23.3861 24.3142 24.3105 23.1659 24.8215 21.8252H26.7562C26.3567 23.0576 26.3648 24.3881 26.7875 25.6204L27.1632 26.7179L26.5721 27.5229C25.4846 29.0024 25.1443 30.8416 25.5722 32.551H17.8387Z" fill="#707070"/>
  <path d="M33.6776 25.7776C34.3186 25.7776 34.8388 25.2718 34.8388 24.6486C34.8388 24.0253 34.3186 23.5195 33.6776 23.5195H32.5163C31.8752 23.5195 31.355 24.0253 31.355 24.6486C31.355 25.2718 31.8752 25.7776 32.5163 25.7776H33.6776Z" fill="#707070"/>
  <path d="M33.0968 30.8577H34.2581C34.8991 30.8577 35.4194 30.3519 35.4194 29.7286C35.4194 29.1054 34.8991 28.5996 34.2581 28.5996H33.0968C32.4558 28.5996 31.9355 29.1054 31.9355 29.7286C31.9355 30.3519 32.4558 30.8577 33.0968 30.8577Z" fill="#707070"/>
  <path d="M20.9152 27.4707H20.9094C20.2683 27.4707 19.751 27.9765 19.751 28.5997C19.751 29.223 20.2736 29.7288 20.9152 29.7288C21.5568 29.7288 22.0764 29.223 22.0764 28.5997C22.0764 27.9765 21.5568 27.4707 20.9152 27.4707Z" fill="#707070"/>
</svg>