<svg xmlns="http://www.w3.org/2000/svg" width="26" height="26" viewBox="0 0 26 26" fill="none">
  <mask id="path-1-inside-1_2191_18205" fill="white">
    <path d="M19.9061 10.5625H18.6873V10.271C19.097 9.80773 19.3658 9.23703 19.4621 8.6261C19.5584 8.01517 19.4782 7.38945 19.231 6.82256C18.9837 6.25567 18.5796 5.77121 18.0663 5.42619C17.5531 5.08117 16.9519 4.88995 16.3336 4.87503C16.0744 3.97012 15.5927 3.14453 14.9325 2.47359C14.4166 1.94553 13.7999 1.52641 13.119 1.24109C12.4381 0.955763 11.7068 0.810031 10.9686 0.812532C9.44969 0.812532 8.03441 1.43613 6.95684 2.57363C6.42796 2.40511 5.86132 2.39507 5.3268 2.54472C4.79228 2.69438 4.31324 2.99719 3.94876 3.41583C3.58427 3.83447 3.35027 4.35063 3.27561 4.90066C3.20095 5.45069 3.28889 6.01055 3.52859 6.5112C3.14393 6.85262 2.84591 7.28056 2.65911 7.75977C2.47232 8.23897 2.40209 8.75571 2.45421 9.26739C2.50634 9.77907 2.67932 10.271 2.95892 10.7027C3.23851 11.1344 3.6167 11.4935 4.0623 11.7503V22.3438C4.06311 23.0977 4.36298 23.8206 4.89611 24.3537C5.42924 24.8869 6.15209 25.1867 6.90606 25.1875H15.8436C16.5975 25.1867 17.3204 24.8869 17.8535 24.3537C18.3866 23.8206 18.6865 23.0977 18.6873 22.3438V21.9375H19.9061C20.8754 21.9365 21.8048 21.5509 22.4902 20.8655C23.1757 20.18 23.5612 19.2506 23.5623 18.2813V14.2188C23.5612 13.2494 23.1757 12.3201 22.4902 11.6346C21.8048 10.9492 20.8754 10.5636 19.9061 10.5625ZM8.93731 21.125C8.93731 21.3405 8.8517 21.5472 8.69933 21.6996C8.54696 21.8519 8.34029 21.9375 8.12481 21.9375C7.90932 21.9375 7.70265 21.8519 7.55028 21.6996C7.39791 21.5472 7.31231 21.3405 7.31231 21.125V13C7.31231 12.7845 7.39791 12.5779 7.55028 12.4255C7.70265 12.2731 7.90932 12.1875 8.12481 12.1875C8.34029 12.1875 8.54696 12.2731 8.69933 12.4255C8.8517 12.5779 8.93731 12.7845 8.93731 13V21.125ZM12.1873 21.125C12.1873 21.3405 12.1017 21.5472 11.9493 21.6996C11.797 21.8519 11.5903 21.9375 11.3748 21.9375C11.1593 21.9375 10.9527 21.8519 10.8003 21.6996C10.6479 21.5472 10.5623 21.3405 10.5623 21.125V13C10.5623 12.7845 10.6479 12.5779 10.8003 12.4255C10.9527 12.2731 11.1593 12.1875 11.3748 12.1875C11.5903 12.1875 11.797 12.2731 11.9493 12.4255C12.1017 12.5779 12.1873 12.7845 12.1873 13V21.125ZM15.4373 21.125C15.4373 21.3405 15.3517 21.5472 15.1993 21.6996C15.047 21.8519 14.8403 21.9375 14.6248 21.9375C14.4093 21.9375 14.2027 21.8519 14.0503 21.6996C13.8979 21.5472 13.8123 21.3405 13.8123 21.125V13C13.8123 12.7845 13.8979 12.5779 14.0503 12.4255C14.2027 12.2731 14.4093 12.1875 14.6248 12.1875C14.8403 12.1875 15.047 12.2731 15.1993 12.4255C15.3517 12.5779 15.4373 12.7845 15.4373 13V21.125ZM16.2498 9.75003C15.8268 9.75003 15.2063 9.48699 14.8945 9.1757C14.7422 9.0233 14.5356 8.93763 14.3201 8.93753H8.12481C7.95835 8.93791 7.79603 8.98939 7.6598 9.08503C7.52357 9.18067 7.41999 9.31584 7.36309 9.47226C7.01625 10.4209 6.16465 10.5625 5.68731 10.5625C5.25633 10.5625 4.843 10.3913 4.53826 10.0866C4.23351 9.78183 4.0623 9.36851 4.0623 8.93753C4.0623 8.50656 4.23351 8.09323 4.53826 7.78848C4.843 7.48374 5.25633 7.31253 5.68731 7.31253C5.69188 7.31253 6.15043 7.3298 6.52012 7.60706C6.60548 7.67108 6.70261 7.71766 6.80597 7.74414C6.90933 7.77062 7.0169 7.77649 7.12252 7.7614C7.22815 7.74631 7.32977 7.71056 7.42158 7.6562C7.51339 7.60184 7.5936 7.52992 7.65762 7.44456C7.72164 7.3592 7.76822 7.26207 7.7947 7.15871C7.82118 7.05535 7.82704 6.94778 7.81195 6.84216C7.79686 6.73653 7.76112 6.63491 7.70675 6.5431C7.65239 6.45129 7.58048 6.37108 7.49512 6.30706C6.96867 5.92317 6.33856 5.70723 5.68731 5.68753C5.4481 5.68768 5.20966 5.71442 4.97637 5.76726C4.89575 5.58184 4.86252 5.37928 4.87968 5.17783C4.89684 4.97638 4.96386 4.78236 5.07468 4.61325C5.1855 4.44414 5.33665 4.30527 5.51452 4.20913C5.69238 4.11299 5.89137 4.06261 6.09356 4.06253C6.2855 4.06161 6.4749 4.10646 6.64605 4.19336C6.81721 4.28026 6.96518 4.40671 7.0777 4.56222C7.16926 4.68852 7.24931 4.82278 7.31688 4.96339C7.33892 5.17045 7.43963 5.36115 7.59821 5.49611C7.75678 5.63107 7.96112 5.7 8.16905 5.68866C8.37697 5.67732 8.57261 5.58659 8.71557 5.43518C8.85853 5.28378 8.9379 5.08326 8.93731 4.87503C8.93731 4.53124 8.75399 4.10468 8.3909 3.6055C8.36754 3.57351 8.34012 3.54202 8.31727 3.51105C9.05867 2.81534 9.98543 2.43753 10.9686 2.43753C11.491 2.43603 12.0085 2.53944 12.4903 2.74164C12.972 2.94383 13.4083 3.2407 13.7732 3.61464C14.2296 4.08291 14.5665 4.65418 14.7555 5.28015C14.9445 5.90612 14.9799 6.56839 14.8589 7.21097C14.839 7.3158 14.8399 7.42354 14.8615 7.52803C14.8832 7.63251 14.9253 7.7317 14.9853 7.81993C15.0454 7.90816 15.1222 7.9837 15.2114 8.04224C15.3006 8.10077 15.4005 8.14116 15.5054 8.16109C15.5556 8.17052 15.6066 8.17528 15.6577 8.17531C15.8466 8.17511 16.0296 8.1091 16.1751 7.98862C16.3206 7.86813 16.4195 7.70071 16.455 7.51515C16.5168 7.18996 16.5501 6.85998 16.5545 6.52898C16.9517 6.60496 17.3062 6.82629 17.5489 7.14974C17.7916 7.47318 17.905 7.87549 17.8669 8.27806C17.8288 8.68064 17.642 9.05455 17.343 9.32675C17.044 9.59895 16.6542 9.74987 16.2498 9.75003ZM21.9373 18.2813C21.9373 18.82 21.7233 19.3367 21.3424 19.7176C20.9614 20.0985 20.4448 20.3125 19.9061 20.3125H18.6873V12.1875H19.9061C20.4448 12.1875 20.9614 12.4015 21.3424 12.7825C21.7233 13.1634 21.9373 13.6801 21.9373 14.2188V18.2813Z"/>
  </mask>
  <path d="M19.9061 10.5625H18.6873V10.271C19.097 9.80773 19.3658 9.23703 19.4621 8.6261C19.5584 8.01517 19.4782 7.38945 19.231 6.82256C18.9837 6.25567 18.5796 5.77121 18.0663 5.42619C17.5531 5.08117 16.9519 4.88995 16.3336 4.87503C16.0744 3.97012 15.5927 3.14453 14.9325 2.47359C14.4166 1.94553 13.7999 1.52641 13.119 1.24109C12.4381 0.955763 11.7068 0.810031 10.9686 0.812532C9.44969 0.812532 8.03441 1.43613 6.95684 2.57363C6.42796 2.40511 5.86132 2.39507 5.3268 2.54472C4.79228 2.69438 4.31324 2.99719 3.94876 3.41583C3.58427 3.83447 3.35027 4.35063 3.27561 4.90066C3.20095 5.45069 3.28889 6.01055 3.52859 6.5112C3.14393 6.85262 2.84591 7.28056 2.65911 7.75977C2.47232 8.23897 2.40209 8.75571 2.45421 9.26739C2.50634 9.77907 2.67932 10.271 2.95892 10.7027C3.23851 11.1344 3.6167 11.4935 4.0623 11.7503V22.3438C4.06311 23.0977 4.36298 23.8206 4.89611 24.3537C5.42924 24.8869 6.15209 25.1867 6.90606 25.1875H15.8436C16.5975 25.1867 17.3204 24.8869 17.8535 24.3537C18.3866 23.8206 18.6865 23.0977 18.6873 22.3438V21.9375H19.9061C20.8754 21.9365 21.8048 21.5509 22.4902 20.8655C23.1757 20.18 23.5612 19.2506 23.5623 18.2813V14.2188C23.5612 13.2494 23.1757 12.3201 22.4902 11.6346C21.8048 10.9492 20.8754 10.5636 19.9061 10.5625ZM8.93731 21.125C8.93731 21.3405 8.8517 21.5472 8.69933 21.6996C8.54696 21.8519 8.34029 21.9375 8.12481 21.9375C7.90932 21.9375 7.70265 21.8519 7.55028 21.6996C7.39791 21.5472 7.31231 21.3405 7.31231 21.125V13C7.31231 12.7845 7.39791 12.5779 7.55028 12.4255C7.70265 12.2731 7.90932 12.1875 8.12481 12.1875C8.34029 12.1875 8.54696 12.2731 8.69933 12.4255C8.8517 12.5779 8.93731 12.7845 8.93731 13V21.125ZM12.1873 21.125C12.1873 21.3405 12.1017 21.5472 11.9493 21.6996C11.797 21.8519 11.5903 21.9375 11.3748 21.9375C11.1593 21.9375 10.9527 21.8519 10.8003 21.6996C10.6479 21.5472 10.5623 21.3405 10.5623 21.125V13C10.5623 12.7845 10.6479 12.5779 10.8003 12.4255C10.9527 12.2731 11.1593 12.1875 11.3748 12.1875C11.5903 12.1875 11.797 12.2731 11.9493 12.4255C12.1017 12.5779 12.1873 12.7845 12.1873 13V21.125ZM15.4373 21.125C15.4373 21.3405 15.3517 21.5472 15.1993 21.6996C15.047 21.8519 14.8403 21.9375 14.6248 21.9375C14.4093 21.9375 14.2027 21.8519 14.0503 21.6996C13.8979 21.5472 13.8123 21.3405 13.8123 21.125V13C13.8123 12.7845 13.8979 12.5779 14.0503 12.4255C14.2027 12.2731 14.4093 12.1875 14.6248 12.1875C14.8403 12.1875 15.047 12.2731 15.1993 12.4255C15.3517 12.5779 15.4373 12.7845 15.4373 13V21.125ZM16.2498 9.75003C15.8268 9.75003 15.2063 9.48699 14.8945 9.1757C14.7422 9.0233 14.5356 8.93763 14.3201 8.93753H8.12481C7.95835 8.93791 7.79603 8.98939 7.6598 9.08503C7.52357 9.18067 7.41999 9.31584 7.36309 9.47226C7.01625 10.4209 6.16465 10.5625 5.68731 10.5625C5.25633 10.5625 4.843 10.3913 4.53826 10.0866C4.23351 9.78183 4.0623 9.36851 4.0623 8.93753C4.0623 8.50656 4.23351 8.09323 4.53826 7.78848C4.843 7.48374 5.25633 7.31253 5.68731 7.31253C5.69188 7.31253 6.15043 7.3298 6.52012 7.60706C6.60548 7.67108 6.70261 7.71766 6.80597 7.74414C6.90933 7.77062 7.0169 7.77649 7.12252 7.7614C7.22815 7.74631 7.32977 7.71056 7.42158 7.6562C7.51339 7.60184 7.5936 7.52992 7.65762 7.44456C7.72164 7.3592 7.76822 7.26207 7.7947 7.15871C7.82118 7.05535 7.82704 6.94778 7.81195 6.84216C7.79686 6.73653 7.76112 6.63491 7.70675 6.5431C7.65239 6.45129 7.58048 6.37108 7.49512 6.30706C6.96867 5.92317 6.33856 5.70723 5.68731 5.68753C5.4481 5.68768 5.20966 5.71442 4.97637 5.76726C4.89575 5.58184 4.86252 5.37928 4.87968 5.17783C4.89684 4.97638 4.96386 4.78236 5.07468 4.61325C5.1855 4.44414 5.33665 4.30527 5.51452 4.20913C5.69238 4.11299 5.89137 4.06261 6.09356 4.06253C6.2855 4.06161 6.4749 4.10646 6.64605 4.19336C6.81721 4.28026 6.96518 4.40671 7.0777 4.56222C7.16926 4.68852 7.24931 4.82278 7.31688 4.96339C7.33892 5.17045 7.43963 5.36115 7.59821 5.49611C7.75678 5.63107 7.96112 5.7 8.16905 5.68866C8.37697 5.67732 8.57261 5.58659 8.71557 5.43518C8.85853 5.28378 8.9379 5.08326 8.93731 4.87503C8.93731 4.53124 8.75399 4.10468 8.3909 3.6055C8.36754 3.57351 8.34012 3.54202 8.31727 3.51105C9.05867 2.81534 9.98543 2.43753 10.9686 2.43753C11.491 2.43603 12.0085 2.53944 12.4903 2.74164C12.972 2.94383 13.4083 3.2407 13.7732 3.61464C14.2296 4.08291 14.5665 4.65418 14.7555 5.28015C14.9445 5.90612 14.9799 6.56839 14.8589 7.21097C14.839 7.3158 14.8399 7.42354 14.8615 7.52803C14.8832 7.63251 14.9253 7.7317 14.9853 7.81993C15.0454 7.90816 15.1222 7.9837 15.2114 8.04224C15.3006 8.10077 15.4005 8.14116 15.5054 8.16109C15.5556 8.17052 15.6066 8.17528 15.6577 8.17531C15.8466 8.17511 16.0296 8.1091 16.1751 7.98862C16.3206 7.86813 16.4195 7.70071 16.455 7.51515C16.5168 7.18996 16.5501 6.85998 16.5545 6.52898C16.9517 6.60496 17.3062 6.82629 17.5489 7.14974C17.7916 7.47318 17.905 7.87549 17.8669 8.27806C17.8288 8.68064 17.642 9.05455 17.343 9.32675C17.044 9.59895 16.6542 9.74987 16.2498 9.75003ZM21.9373 18.2813C21.9373 18.82 21.7233 19.3367 21.3424 19.7176C20.9614 20.0985 20.4448 20.3125 19.9061 20.3125H18.6873V12.1875H19.9061C20.4448 12.1875 20.9614 12.4015 21.3424 12.7825C21.7233 13.1634 21.9373 13.6801 21.9373 14.2188V18.2813Z" stroke="#707070" stroke-width="2" mask="url(#path-1-inside-1_2191_18205)"/>
</svg>