<svg width="55" height="25" viewBox="0 0 55 25" fill="none" xmlns="http://www.w3.org/2000/svg">
<mask id="path-1-inside-1_246_4953" fill="white">
<path d="M16.4294 25H20.3631C20.3686 25 20.3759 25 20.3814 24.9982H16.4111C16.4166 25 16.4239 25 16.4294 25Z"/>
</mask>
<path d="M20.3814 24.9982L21.9599 29.7425L20.3814 19.9982V24.9982ZM16.4111 24.9982V19.9982L14.8329 29.7426L16.4111 24.9982ZM16.4294 30H20.3631V20H16.4294V30ZM20.3631 30C20.3632 30 20.3641 30 20.3652 30C20.3664 30 20.3683 30 20.3704 30C20.3748 30 20.3814 30 20.3895 30C20.4055 29.9999 20.4301 29.9997 20.46 29.9991C20.5178 29.9981 20.6123 29.9954 20.7284 29.9871C20.9126 29.9739 21.3873 29.933 21.9599 29.7425L18.8029 20.2539C19.3701 20.0652 19.8384 20.0252 20.0162 20.0125C20.2181 19.9981 20.3889 20 20.3631 20V30ZM20.3814 19.9982H16.4111V29.9982H20.3814V19.9982ZM14.8329 29.7426C15.4063 29.9333 15.8815 29.9741 16.0647 29.9871C16.1807 29.9954 16.275 29.9981 16.3326 29.9991C16.3626 29.9997 16.3871 29.9999 16.4031 30C16.4111 30 16.4178 30 16.4221 30C16.4243 30 16.4261 30 16.4273 30C16.4284 30 16.4294 30 16.4294 30V20C16.4038 20 16.5742 19.9981 16.7758 20.0125C16.9526 20.0251 17.4215 20.0649 17.9893 20.2538L14.8329 29.7426Z" fill="#707070" mask="url(#path-1-inside-1_246_4953)"/>
<mask id="path-3-inside-2_246_4953" fill="white">
<path d="M33.8874 25H37.8193C37.8248 25 37.8321 25 37.8376 24.9982H33.8691C33.8746 25 33.8819 25 33.8874 25Z"/>
</mask>
<path d="M37.8376 24.9982L39.4155 29.7427L37.8376 19.9982V24.9982ZM33.8691 24.9982V19.9982L32.2907 29.7425L33.8691 24.9982ZM33.8874 30H37.8193V20H33.8874V30ZM37.8193 30C37.8193 30 37.8203 30 37.8214 30C37.8226 30 37.8244 30 37.8266 30C37.8309 30 37.8376 30 37.8457 30C37.8616 29.9999 37.8862 29.9997 37.9162 29.9991C37.974 29.9981 38.0684 29.9954 38.1845 29.9871C38.3689 29.9739 38.8433 29.933 39.4155 29.7427L36.2596 20.2537C36.8264 20.0652 37.2944 20.0252 37.4723 20.0125C37.6743 19.9981 37.845 20 37.8193 20V30ZM37.8376 19.9982H33.8691V29.9982H37.8376V19.9982ZM32.2907 29.7425C32.8642 29.9333 33.3396 29.9741 33.5228 29.9871C33.6387 29.9954 33.733 29.9981 33.7907 29.9991C33.8206 29.9997 33.8451 29.9999 33.8611 30C33.8692 30 33.8758 30 33.8801 30C33.8823 30 33.8841 30 33.8853 30C33.8864 30 33.8874 30 33.8874 30V20C33.8618 20 34.0322 19.9981 34.2338 20.0125C34.4106 20.0251 34.8796 20.0649 35.4476 20.2539L32.2907 29.7425Z" fill="#707070" mask="url(#path-3-inside-2_246_4953)"/>
<mask id="path-5-inside-3_246_4953" fill="white">
<path d="M54.248 22.8441H0V24.4501H54.248V22.8441Z"/>
</mask>
<path d="M0 22.8441V17.8441H-5V22.8441H0ZM54.248 22.8441H59.248V17.8441H54.248V22.8441ZM54.248 24.4501V29.4501H59.248V24.4501H54.248ZM0 24.4501H-5V29.4501H0V24.4501ZM0 27.8441H54.248V17.8441H0V27.8441ZM49.248 22.8441V24.4501H59.248V22.8441H49.248ZM54.248 19.4501H0V29.4501H54.248V19.4501ZM5 24.4501V22.8441H-5V24.4501H5Z" fill="#707070" mask="url(#path-5-inside-3_246_4953)"/>
<mask id="path-7-inside-4_246_4953" fill="white">
<path d="M10.8818 20.584C10.3245 21.1358 9.78916 21.7094 9.28125 22.2959H10.4086C10.7539 21.9177 11.1138 21.5432 11.4756 21.1851C12.9208 19.7508 14.4957 18.4883 16.1547 17.4304C16.1968 17.4012 16.2406 17.3756 16.2826 17.3482C16.4215 17.2605 16.5622 17.1728 16.7029 17.0887C17.3752 16.6813 18.064 16.3068 18.751 15.976C19.1968 15.7623 19.6463 15.5632 20.0885 15.3859C20.1469 15.3622 20.2054 15.3384 20.262 15.3165C20.3862 15.2672 20.5123 15.2196 20.6366 15.174C21.3236 14.9182 22.016 14.7026 22.7012 14.5272C22.7706 14.5089 22.8419 14.4906 22.9113 14.4742C23.0246 14.4468 23.136 14.4212 23.2493 14.3956C24.4552 14.1289 25.6629 13.9845 26.8505 13.9645C26.9418 13.9626 27.0332 13.9626 27.1246 13.9626C27.2159 13.9626 27.3073 13.9626 27.3986 13.9645C28.5862 13.9845 29.7921 14.1289 30.998 14.3956C31.1094 14.4212 31.2227 14.4468 31.336 14.4742C31.4054 14.4906 31.4767 14.5089 31.5461 14.5272C32.2331 14.7007 32.9255 14.9182 33.6125 15.174C33.7386 15.2196 33.8628 15.2672 33.9871 15.3165C34.0455 15.3402 34.1022 15.3622 34.1607 15.3877C34.6065 15.5668 35.0541 15.7641 35.4962 15.976C36.1851 16.3068 36.872 16.6813 37.5444 17.0887C37.6851 17.1728 37.8258 17.2605 37.9646 17.3482C38.0067 17.3756 38.0505 17.4012 38.0925 17.4304C39.7497 18.4865 41.3228 19.749 42.7717 21.1851C43.1298 21.5395 43.4879 21.9123 43.8387 22.2959H44.9678C44.4526 21.7003 43.9136 21.1266 43.3673 20.584C41.7339 18.9707 39.9635 17.5747 38.0925 16.4347C37.9555 16.3506 37.8185 16.2684 37.6796 16.188C37.6339 16.1624 37.5901 16.135 37.5444 16.1113C36.9926 15.7879 36.4281 15.4882 35.8617 15.216C35.2953 14.9438 34.7234 14.6953 34.1607 14.4797C34.0382 14.4322 33.9158 14.3847 33.7934 14.3408C33.7331 14.3189 33.6728 14.297 33.6125 14.2769C32.9255 14.0302 32.2331 13.8238 31.5461 13.6575C31.4346 13.6301 31.3232 13.6045 31.2117 13.5789C31.1405 13.5625 31.0692 13.5479 30.998 13.5333C29.7976 13.2774 28.5881 13.1386 27.3986 13.1222C27.3073 13.1185 27.2159 13.1185 27.1246 13.1185C27.0332 13.1185 26.9418 13.1185 26.8505 13.1222C25.6611 13.1386 24.4515 13.2774 23.2493 13.5333C23.178 13.5479 23.1068 13.5625 23.0355 13.5789C22.9241 13.6045 22.8126 13.6301 22.7012 13.6575C22.016 13.8238 21.3236 14.032 20.6366 14.2769C20.5763 14.297 20.5178 14.3189 20.4575 14.3408C20.3351 14.3847 20.2127 14.4322 20.0885 14.4778C19.5202 14.6971 18.9502 14.9438 18.3856 15.216C17.832 15.4791 17.2674 15.7806 16.7029 16.1076C16.6572 16.1332 16.6133 16.1587 16.5677 16.1862C16.4288 16.2684 16.2918 16.3506 16.1547 16.4347C14.2801 17.5784 12.5097 18.9743 10.8818 20.584Z"/>
</mask>
<path d="M10.8818 20.584L7.36625 17.0285L7.36369 17.0311L10.8818 20.584ZM9.28125 22.2959L5.5016 19.0227L-1.66325 27.2959H9.28125V22.2959ZM10.4086 22.2959V27.2959H12.6141L14.1011 25.6671L10.4086 22.2959ZM11.4756 21.1851L14.9931 24.7386L14.9976 24.7341L11.4756 21.1851ZM16.1547 17.4304L18.8429 21.6463L18.9287 21.5916L19.0122 21.5335L16.1547 17.4304ZM16.2826 17.3482L13.6118 13.1213L13.582 13.1402L13.5524 13.1594L16.2826 17.3482ZM16.7029 17.0887L19.2669 21.3813L19.2805 21.3731L19.2941 21.3649L16.7029 17.0887ZM18.751 15.976L16.5892 11.4675L16.5822 11.4709L18.751 15.976ZM20.0885 15.3859L21.949 20.0268L21.9591 20.0228L21.9691 20.0187L20.0885 15.3859ZM20.262 15.3165L22.0681 19.9789L22.0878 19.9713L22.1075 19.9635L20.262 15.3165ZM20.6366 15.174L22.3618 19.8669L22.3715 19.8633L22.3812 19.8597L20.6366 15.174ZM22.7012 14.5272L23.9411 19.371L23.9565 19.367L23.9719 19.363L22.7012 14.5272ZM22.9113 14.4742L24.0647 19.3393L24.0755 19.3368L24.0863 19.3341L22.9113 14.4742ZM23.2493 14.3956L22.1694 9.51365L22.1581 9.51613L22.1469 9.51866L23.2493 14.3956ZM26.8505 13.9645L26.935 18.9637L26.944 18.9636L26.953 18.9634L26.8505 13.9645ZM27.3986 13.9645L27.2961 18.9634L27.3051 18.9636L27.3141 18.9637L27.3986 13.9645ZM30.998 14.3956L32.1175 9.52258L32.0977 9.51803L32.0779 9.51364L30.998 14.3956ZM31.336 14.4742L30.1609 19.3341L30.1718 19.3368L30.1826 19.3393L31.336 14.4742ZM31.5461 14.5272L30.2754 19.363L30.2983 19.369L30.3213 19.3749L31.5461 14.5272ZM33.6125 15.174L31.868 19.8597L31.8885 19.8674L31.9092 19.8749L33.6125 15.174ZM33.9871 15.3165L35.8677 10.6837L35.85 10.6765L35.8322 10.6694L33.9871 15.3165ZM34.1607 15.3877L32.1582 19.9692L32.2271 19.9993L32.2968 20.0273L34.1607 15.3877ZM35.4962 15.976L37.6604 11.4686L37.6573 11.4672L35.4962 15.976ZM37.5444 17.0887L34.9532 21.3649L34.9667 21.3731L34.9804 21.3813L37.5444 17.0887ZM37.9646 17.3482L40.695 13.1595L40.6654 13.1402L40.6354 13.1213L37.9646 17.3482ZM38.0925 17.4304L35.235 21.5334L35.319 21.592L35.4054 21.647L38.0925 17.4304ZM42.7717 21.1851L39.2518 24.7362L39.2544 24.7388L42.7717 21.1851ZM43.8387 22.2959L40.1487 25.6699L41.6355 27.2959H43.8387V22.2959ZM44.9678 22.2959V27.2959H55.904L48.7494 19.0248L44.9678 22.2959ZM43.3673 20.584L46.891 17.0366L46.8809 17.0267L43.3673 20.584ZM38.0925 16.4347L35.4776 20.6964L35.4842 20.7004L35.4908 20.7044L38.0925 16.4347ZM37.6796 16.188L40.1849 11.8609L40.1548 11.8435L40.1244 11.8265L37.6796 16.188ZM37.5444 16.1113L35.0161 20.4249L35.1261 20.4894L35.2393 20.5482L37.5444 16.1113ZM35.8617 15.216L33.6956 19.7225L33.6957 19.7225L35.8617 15.216ZM34.1607 14.4797L32.3519 19.141L32.3617 19.1449L32.3716 19.1486L34.1607 14.4797ZM33.7934 14.3408L32.0866 19.0405L32.0969 19.0442L32.1072 19.0479L33.7934 14.3408ZM33.6125 14.2769L31.9228 18.9827L31.9777 19.0024L32.033 19.0208L33.6125 14.2769ZM31.5461 13.6575L30.3529 18.513L30.3613 18.5151L30.3697 18.5171L31.5461 13.6575ZM31.2117 13.5789L30.086 18.4506L30.0943 18.4525L31.2117 13.5789ZM30.998 13.5333L29.9558 18.4234L29.9741 18.4273L29.9924 18.4311L30.998 13.5333ZM27.3986 13.1222L27.1986 18.1182L27.264 18.1208L27.3294 18.1217L27.3986 13.1222ZM26.8505 13.1222L26.9197 18.1217L26.9851 18.1208L27.0505 18.1182L26.8505 13.1222ZM23.2493 13.5333L24.2549 18.4311L24.2724 18.4275L24.2899 18.4238L23.2493 13.5333ZM23.0355 13.5789L24.1534 18.4524L24.1605 18.4507L23.0355 13.5789ZM22.7012 13.6575L23.8805 18.5164L23.8874 18.5147L23.8944 18.513L22.7012 13.6575ZM20.6366 14.2769L22.2156 19.021L22.2656 19.0044L22.3152 18.9867L20.6366 14.2769ZM20.4575 14.3408L22.1435 19.048L22.1542 19.0441L22.1649 19.0403L20.4575 14.3408ZM20.0885 14.4778L18.363 9.78501L18.3257 9.79871L18.2887 9.813L20.0885 14.4778ZM18.3856 15.216L20.5317 19.732L20.5445 19.7259L20.5573 19.7198L18.3856 15.216ZM16.7029 16.1076L19.1444 20.471L19.1769 20.4528L19.2092 20.4341L16.7029 16.1076ZM16.5677 16.1862L19.1149 20.4887L19.1285 20.4806L19.1421 20.4725L16.5677 16.1862ZM16.1547 16.4347L18.7589 20.703L18.7697 20.6964L16.1547 16.4347ZM7.36369 17.0311C6.71339 17.675 6.09094 18.3422 5.5016 19.0227L13.0609 25.5692C13.4874 25.0767 13.9356 24.5965 14.3998 24.1369L7.36369 17.0311ZM9.28125 27.2959H10.4086V17.2959H9.28125V27.2959ZM14.1011 25.6671C14.389 25.3518 14.6906 25.038 14.9931 24.7386L7.95804 17.6316C7.53702 18.0484 7.11869 18.4837 6.71599 18.9248L14.1011 25.6671ZM14.9976 24.7341C16.1966 23.5442 17.4932 22.5069 18.8429 21.6463L13.4665 13.2146C11.4982 14.4696 9.645 15.9575 7.95352 17.6361L14.9976 24.7341ZM19.0122 21.5335C18.9688 21.5637 18.9336 21.587 18.9114 21.6014C18.9001 21.6087 18.8911 21.6144 18.8854 21.6181C18.8825 21.6199 18.8803 21.6213 18.8788 21.6223C18.8773 21.6232 18.8764 21.6238 18.8764 21.6238C18.8764 21.6238 18.8769 21.6235 18.8783 21.6226C18.8799 21.6216 18.8815 21.6206 18.8845 21.6187C18.8872 21.617 18.891 21.6146 18.8951 21.6121C18.8993 21.6095 18.9044 21.6063 18.91 21.6028C18.9211 21.5958 18.9359 21.5865 18.9528 21.5757C18.9698 21.5649 18.9901 21.5518 19.0128 21.537L13.5524 13.1594C13.5646 13.1515 13.5744 13.1452 13.5808 13.1412C13.5871 13.1371 13.5912 13.1346 13.5917 13.1343C13.5917 13.1342 13.5908 13.1348 13.585 13.1384C13.5807 13.1411 13.5711 13.1471 13.561 13.1535C13.5247 13.1762 13.4204 13.2417 13.2973 13.3274L19.0122 21.5335ZM18.9534 21.5751C19.0776 21.4967 19.1782 21.4343 19.2669 21.3813L14.1388 12.7962C13.9461 12.9113 13.7654 13.0243 13.6118 13.1213L18.9534 21.5751ZM19.2941 21.3649C19.8354 21.0369 20.3834 20.7394 20.9198 20.4812L16.5822 11.4709C15.7447 11.8741 14.9151 12.3257 14.1116 12.8126L19.2941 21.3649ZM20.9128 20.4846C21.2703 20.3131 21.6191 20.1591 21.949 20.0268L18.2279 10.745C17.6735 10.9672 17.1233 11.2115 16.5892 11.4675L20.9128 20.4846ZM21.9691 20.0187C22.035 19.992 22.0555 19.9838 22.0681 19.9789L18.4559 10.6541C18.3552 10.6931 18.2589 10.7323 18.2078 10.7531L21.9691 20.0187ZM22.1075 19.9635C22.1784 19.9353 22.2615 19.9038 22.3618 19.8669L18.9114 10.481C18.7632 10.5355 18.5941 10.599 18.4166 10.6695L22.1075 19.9635ZM22.3812 19.8597C22.9007 19.6663 23.4246 19.5032 23.9411 19.371L21.4612 9.68337C20.6074 9.90193 19.7464 10.1701 18.892 10.4882L22.3812 19.8597ZM23.9719 19.363C24.0261 19.3488 24.0527 19.3422 24.0647 19.3393L21.7579 9.60903C21.631 9.63911 21.5151 9.66909 21.4305 9.69133L23.9719 19.363ZM24.0863 19.3341C24.1636 19.3155 24.2467 19.2963 24.3516 19.2726L22.1469 9.51866C22.0253 9.54616 21.8856 9.57811 21.7363 9.61421L24.0863 19.3341ZM24.3292 19.2776C25.22 19.0806 26.0943 18.978 26.935 18.9637L26.766 8.96518C25.2315 8.99111 23.6903 9.1772 22.1694 9.51365L24.3292 19.2776ZM26.953 18.9634C26.9846 18.9628 27.0247 18.9626 27.1246 18.9626V8.96259C27.0417 8.96259 26.8991 8.96241 26.748 8.96551L26.953 18.9634ZM27.1246 18.9626C27.2244 18.9626 27.2646 18.9628 27.2961 18.9634L27.5011 8.96551C27.35 8.96241 27.2074 8.96259 27.1246 8.96259V18.9626ZM27.3141 18.9637C28.1542 18.9779 29.0266 19.0804 29.9181 19.2776L32.0779 9.51364C30.5575 9.17733 29.0182 8.99112 27.4831 8.96518L27.3141 18.9637ZM29.8784 19.2687C30.0156 19.3002 30.0841 19.3156 30.1609 19.3341L32.511 9.61421C32.3613 9.57801 32.2033 9.54228 32.1175 9.52258L29.8784 19.2687ZM30.1826 19.3393C30.1945 19.3422 30.2212 19.3488 30.2754 19.363L32.8168 9.69133C32.7321 9.66909 32.6163 9.63911 32.4894 9.60903L30.1826 19.3393ZM30.3213 19.3749C30.8218 19.5013 31.3408 19.6635 31.868 19.8597L35.3571 10.4882C34.5103 10.1729 33.6443 9.90018 32.7708 9.6795L30.3213 19.3749ZM31.9092 19.8749C31.9804 19.9007 32.0568 19.9298 32.1419 19.9636L35.8322 10.6694C35.6688 10.6045 35.4968 10.5386 35.3159 10.473L31.9092 19.8749ZM32.1064 19.9493C32.1318 19.9596 32.1551 19.969 32.1693 19.9747C32.1863 19.9815 32.1925 19.984 32.198 19.9862C32.2077 19.9901 32.189 19.9827 32.1582 19.9692L36.1631 10.8062C36.0738 10.7672 35.9976 10.736 35.9497 10.7166C35.821 10.6645 35.9519 10.7178 35.8677 10.6837L32.1064 19.9493ZM32.2968 20.0273C32.639 20.1648 32.9876 20.3183 33.3352 20.4849L37.6573 11.4672C37.1206 11.2099 36.5739 10.9688 36.0246 10.7481L32.2968 20.0273ZM33.3321 20.4834C33.8641 20.7388 34.4086 21.0349 34.9532 21.3649L40.1356 12.8126C39.3354 12.3277 38.5061 11.8747 37.6604 11.4686L33.3321 20.4834ZM34.9804 21.3813C35.0691 21.4343 35.1697 21.4967 35.2938 21.5751L40.6354 13.1213C40.4818 13.0243 40.3011 12.9113 40.1084 12.7962L34.9804 21.3813ZM35.2343 21.5369C35.257 21.5517 35.2774 21.5648 35.2944 21.5756C35.3113 21.5864 35.3261 21.5957 35.3372 21.6027C35.3429 21.6063 35.348 21.6095 35.3521 21.6121C35.3562 21.6146 35.3601 21.617 35.3627 21.6187C35.3657 21.6206 35.3674 21.6216 35.369 21.6226C35.3704 21.6235 35.3709 21.6238 35.3709 21.6238C35.3708 21.6238 35.3699 21.6232 35.3685 21.6223C35.367 21.6213 35.3647 21.6199 35.3618 21.6181C35.3561 21.6144 35.3471 21.6087 35.3358 21.6014C35.3136 21.5869 35.2784 21.5637 35.235 21.5334L40.9501 13.3275C40.827 13.2417 40.7225 13.1762 40.6863 13.1535C40.6762 13.1471 40.6666 13.1411 40.6623 13.1384C40.6565 13.1348 40.6556 13.1343 40.6556 13.1343C40.6561 13.1346 40.6602 13.1372 40.6666 13.1412C40.673 13.1453 40.6828 13.1516 40.695 13.1595L35.2343 21.5369ZM35.4054 21.647C36.7505 22.5042 38.0461 23.5412 39.2518 24.7362L46.2915 17.634C44.5995 15.9568 42.7488 14.4688 40.7796 13.2139L35.4054 21.647ZM39.2544 24.7388C39.552 25.0334 39.8526 25.3461 40.1487 25.6699L47.5287 18.9219C47.1232 18.4784 46.7075 18.0457 46.289 17.6314L39.2544 24.7388ZM43.8387 27.2959H44.9678V17.2959H43.8387V27.2959ZM48.7494 19.0248C48.1455 18.3268 47.5197 17.6611 46.8909 17.0366L39.8437 24.1314C40.3075 24.5921 40.7597 25.0738 41.1863 25.567L48.7494 19.0248ZM46.8809 17.0267C44.9895 15.1585 42.9159 13.5187 40.6943 12.1649L35.4908 20.7044C37.011 21.6308 38.4783 22.7828 39.8537 24.1413L46.8809 17.0267ZM40.7075 12.173C40.5425 12.0718 40.3682 11.9671 40.1849 11.8609L35.1744 20.5151C35.2687 20.5697 35.3684 20.6294 35.4776 20.6964L40.7075 12.173ZM40.1244 11.8265C40.1355 11.8327 40.1442 11.8376 40.1497 11.8408C40.1525 11.8424 40.1547 11.8437 40.1561 11.8445C40.1568 11.8449 40.1573 11.8452 40.1577 11.8454C40.158 11.8456 40.1582 11.8457 40.1582 11.8457C40.1583 11.8457 40.1581 11.8456 40.1578 11.8454C40.1574 11.8452 40.1569 11.845 40.1562 11.8446C40.1547 11.8437 40.153 11.8426 40.15 11.8409C40.1452 11.8381 40.1353 11.8324 40.1248 11.8262C40.0877 11.8047 39.9817 11.743 39.8495 11.6743L35.2393 20.5482C35.2158 20.536 35.1951 20.525 35.1776 20.5155C35.1602 20.506 35.1454 20.4979 35.1339 20.4914C35.1225 20.485 35.1135 20.4799 35.1079 20.4767C35.105 20.475 35.1028 20.4737 35.1014 20.4729C35.1007 20.4725 35.1001 20.4722 35.0997 20.472C35.0994 20.4718 35.0992 20.4716 35.0992 20.4716C35.0992 20.4716 35.0993 20.4717 35.0997 20.4719C35.1001 20.4721 35.1006 20.4724 35.1013 20.4729C35.1029 20.4738 35.1046 20.4748 35.1076 20.4766C35.1103 20.4781 35.1141 20.4804 35.1182 20.4827C35.1224 20.4852 35.1275 20.4881 35.133 20.4914C35.1441 20.4978 35.1587 20.5063 35.1754 20.5159C35.1923 20.5255 35.2123 20.5369 35.2349 20.5496L40.1244 11.8265ZM40.0727 11.7976C39.4006 11.4037 38.7151 11.0399 38.0277 10.7095L33.6957 19.7225C34.141 19.9365 34.5846 20.1721 35.0161 20.4249L40.0727 11.7976ZM38.0277 10.7095C37.3494 10.3835 36.6517 10.0797 35.9497 9.8107L32.3716 19.1486C32.7951 19.3109 33.2411 19.504 33.6956 19.7225L38.0277 10.7095ZM35.9694 9.81831C35.8576 9.77492 35.674 9.70337 35.4797 9.63373L32.1072 19.0479C32.1576 19.0659 32.2188 19.0894 32.3519 19.141L35.9694 9.81831ZM35.5003 9.64116C35.4545 9.62456 35.3283 9.57829 35.1921 9.53295L32.033 19.0208C32.02 19.0165 32.0157 19.0149 32.0258 19.0185C32.0306 19.0202 32.0375 19.0227 32.0479 19.0264C32.0589 19.0304 32.07 19.0344 32.0866 19.0405L35.5003 9.64116ZM35.3022 9.57105C34.4454 9.26337 33.5814 9.00577 32.7224 8.79783L30.3697 18.5171C30.8847 18.6418 31.4057 18.7971 31.9228 18.9827L35.3022 9.57105ZM32.7393 8.80195C32.5845 8.7639 32.4365 8.73 32.3292 8.70539L30.0943 18.4525C30.2099 18.479 30.2848 18.4963 30.3529 18.513L32.7393 8.80195ZM32.3374 8.70729C32.1954 8.67448 32.062 8.64742 32.0036 8.63542L29.9924 18.4311C30.0319 18.4392 30.0521 18.4434 30.0706 18.4473C30.0869 18.4507 30.0903 18.4515 30.086 18.4506L32.3374 8.70729ZM32.0401 8.64306C30.5327 8.32182 28.9973 8.1438 27.4678 8.12263L27.3294 18.1217C28.1788 18.1334 29.0624 18.233 29.9558 18.4234L32.0401 8.64306ZM27.5986 8.12616C27.3907 8.11783 27.1993 8.1185 27.1246 8.1185V18.1185C27.1484 18.1185 27.165 18.1185 27.1806 18.1185C27.1954 18.1186 27.205 18.1186 27.2116 18.1187C27.2253 18.1188 27.2182 18.1189 27.1986 18.1182L27.5986 8.12616ZM27.1246 8.1185C27.0498 8.1185 26.8585 8.11783 26.6505 8.12616L27.0505 18.1182C27.0309 18.1189 27.0239 18.1188 27.0376 18.1187C27.0441 18.1186 27.0537 18.1186 27.0685 18.1185C27.0841 18.1185 27.1007 18.1185 27.1246 18.1185V8.1185ZM26.7813 8.12263C25.2516 8.1438 23.7167 8.32185 22.2086 8.64275L24.2899 18.4238C25.1863 18.233 26.0705 18.1334 26.9197 18.1217L26.7813 8.12263ZM22.2437 8.63542C22.1849 8.6475 22.0521 8.67445 21.9105 8.70713L24.1605 18.4507C24.1566 18.4516 24.1602 18.4507 24.1767 18.4473C24.1952 18.4434 24.2155 18.4392 24.2549 18.4311L22.2437 8.63542ZM21.9176 8.70549C21.811 8.72996 21.6627 8.76391 21.5079 8.80195L23.8944 18.513C23.9625 18.4963 24.0372 18.479 24.1534 18.4524L21.9176 8.70549ZM21.5219 8.79855C20.6588 9.00802 19.7997 9.26708 18.958 9.56708L22.3152 18.9867C22.8474 18.797 23.3732 18.6395 23.8805 18.5164L21.5219 8.79855ZM19.0575 9.53277C18.9704 9.56177 18.8963 9.58823 18.8471 9.60603C18.8224 9.61493 18.7997 9.62323 18.7846 9.62877C18.767 9.63522 18.7586 9.63828 18.7502 9.64135L22.1649 19.0403C22.1866 19.0324 22.2081 19.0245 22.2203 19.02C22.235 19.0147 22.242 19.0121 22.247 19.0103C22.2572 19.0066 22.2424 19.0121 22.2156 19.021L19.0575 9.53277ZM18.7716 9.63363C18.6721 9.66925 18.5807 9.70346 18.5162 9.7277C18.4416 9.75569 18.4042 9.76986 18.363 9.78501L21.8139 19.1707C22.0846 19.0711 22.0127 19.0948 22.1435 19.048L18.7716 9.63363ZM18.2887 9.813C17.5936 10.0812 16.8996 10.3816 16.2139 10.7122L20.5573 19.7198C21.0008 19.5059 21.4468 19.313 21.8882 19.1427L18.2887 9.813ZM16.2395 10.7C15.5418 11.0315 14.856 11.3991 14.1965 11.7812L19.2092 20.4341C19.6788 20.162 20.1221 19.9266 20.5317 19.732L16.2395 10.7ZM14.2613 11.7443C14.1644 11.7985 14.0759 11.8502 13.9933 11.8999L19.1421 20.4725C19.147 20.4696 19.1489 20.4684 19.1486 20.4686C19.1482 20.4688 19.1466 20.4697 19.1444 20.471L14.2613 11.7443ZM14.0205 11.8837C13.8652 11.9755 13.7048 12.0717 13.5398 12.173L18.7697 20.6964C18.8787 20.6295 18.9924 20.5612 19.1149 20.4887L14.0205 11.8837ZM13.5506 12.1664C11.3278 13.5225 9.25411 15.1619 7.36625 17.0285L14.3973 24.1394C15.7653 22.7867 17.2325 21.6343 18.7589 20.703L13.5506 12.1664Z" fill="#707070" mask="url(#path-7-inside-4_246_4953)"/>
<mask id="path-9-inside-5_246_4953" fill="white">
<path d="M34.1611 15.9779V22.2959H37.5449V17.7319C36.7976 17.2641 36.0284 16.8402 35.2592 16.4712C34.8956 16.2958 34.5284 16.1314 34.1611 15.9779Z"/>
</mask>
<path d="M34.1611 15.9779L36.0888 11.3644L29.1611 8.46986V15.9779H34.1611ZM34.1611 22.2959H29.1611V27.2959H34.1611V22.2959ZM37.5449 22.2959V27.2959H42.5449V22.2959H37.5449ZM37.5449 17.7319H42.5449V14.9628L40.1977 13.4937L37.5449 17.7319ZM35.2592 16.4712L33.0864 20.9745L33.0964 20.9792L35.2592 16.4712ZM29.1611 15.9779V22.2959H39.1611V15.9779H29.1611ZM34.1611 27.2959H37.5449V17.2959H34.1611V27.2959ZM42.5449 22.2959V17.7319H32.5449V22.2959H42.5449ZM40.1977 13.4937C39.2959 12.9292 38.3633 12.4148 37.422 11.9632L33.0964 20.9792C33.6935 21.2657 34.2993 21.5991 34.892 21.9701L40.1977 13.4937ZM37.432 11.968C36.9832 11.7515 36.534 11.5505 36.0888 11.3644L32.2335 20.5914C32.5227 20.7122 32.808 20.8401 33.0865 20.9744L37.432 11.968Z" fill="#707070" mask="url(#path-9-inside-5_246_4953)"/>
<mask id="path-11-inside-6_246_4953" fill="white">
<path d="M16.7031 22.2959H20.0887V15.9779C19.7233 16.1295 19.3542 16.294 18.9888 16.4712C18.2196 16.8421 17.4522 17.2641 16.7031 17.7319V22.2959Z"/>
</mask>
<path d="M16.7031 22.2959H11.7031V27.2959H16.7031V22.2959ZM20.0887 22.2959V27.2959H25.0887V22.2959H20.0887ZM20.0887 15.9779H25.0887V8.49005L18.1725 11.3596L20.0887 15.9779ZM18.9888 16.4712L21.1605 20.975L21.1707 20.97L18.9888 16.4712ZM16.7031 17.7319L14.0549 13.4908L11.7031 14.9593V17.7319H16.7031ZM16.7031 27.2959H20.0887V17.2959H16.7031V27.2959ZM25.0887 22.2959V15.9779H15.0887V22.2959H25.0887ZM18.1725 11.3596C17.7265 11.5447 17.2681 11.7487 16.8069 11.9724L21.1707 20.97C21.4403 20.8393 21.7201 20.7143 22.0049 20.5962L18.1725 11.3596ZM16.8171 11.9675C15.8845 12.4171 14.9581 12.9268 14.0549 13.4908L19.3513 21.973C19.9464 21.6014 20.5547 21.2671 21.1605 20.975L16.8171 11.9675ZM11.7031 17.7319V22.2959H21.7031V17.7319H11.7031Z" fill="#707070" mask="url(#path-11-inside-6_246_4953)"/>
<path d="M19.2031 1.69188C19.2031 1.69249 19.2031 1.6931 19.2031 1.69371L19.2031 1.69188Z" stroke="#707070" stroke-width="5"/>
<path d="M35.0449 1.69188V1.69371C35.0449 1.6931 35.0449 1.69249 35.0449 1.69188Z" stroke="#707070" stroke-width="5"/>
<mask id="path-15-inside-7_246_4953" fill="white">
<path d="M16.1552 6.67068L9.53564 15.4188C11.6094 13.6593 13.8567 12.1739 16.1552 11.0484V6.67068Z"/>
</mask>
<path d="M16.1552 6.67068H21.1552V-8.22344L12.168 3.65366L16.1552 6.67068ZM9.53564 15.4188L5.54847 12.4018L12.7705 19.2314L9.53564 15.4188ZM16.1552 11.0484L18.3541 15.5389L21.1552 14.1673V11.0484H16.1552ZM12.168 3.65366L5.54847 12.4018L13.5228 18.4358L20.1423 9.68771L12.168 3.65366ZM12.7705 19.2314C14.5501 17.7214 16.4525 16.4701 18.3541 15.5389L13.9563 6.55784C11.2609 7.87771 8.66863 9.59717 6.30079 11.6062L12.7705 19.2314ZM21.1552 11.0484V6.67068H11.1552V11.0484H21.1552Z" fill="#707070" mask="url(#path-15-inside-7_246_4953)"/>
<mask id="path-17-inside-8_246_4953" fill="white">
<path d="M7.6298 17.9328L7.62797 17.9347C6.27776 19.3086 5.0591 20.7721 3.99756 22.2959H8.56161C9.16639 21.5742 9.81865 20.8671 10.4965 20.1947C12.2377 18.4718 14.1397 16.9918 16.155 15.7933V11.6604C13.122 13.1806 10.1859 15.3384 7.64258 17.92C7.63892 17.9237 7.63346 17.9292 7.6298 17.9328Z"/>
</mask>
<path d="M7.6298 17.9328L4.09377 14.3978L4.09377 14.3978L7.6298 17.9328ZM7.62797 17.9347L4.09194 14.3996L4.07678 14.4148L4.06175 14.4301L7.62797 17.9347ZM3.99756 22.2959L-0.105062 19.4378L-5.57932 27.2959H3.99756V22.2959ZM8.56161 22.2959V27.2959H10.8951L12.3939 25.5073L8.56161 22.2959ZM10.4965 20.1947L6.97969 16.6406L6.97542 16.6448L10.4965 20.1947ZM16.155 15.7933L18.7108 20.0907L21.155 18.637V15.7933H16.155ZM16.155 11.6604H21.155V3.56153L13.9146 7.19045L16.155 11.6604ZM7.64258 17.92L11.1775 21.4562L11.191 21.4426L11.2045 21.429L7.64258 17.92ZM4.09377 14.3978L4.09194 14.3996L11.164 21.4697L11.1658 21.4679L4.09377 14.3978ZM4.06175 14.4301C2.52284 15.9961 1.12317 17.6747 -0.105062 19.4378L8.10018 25.1539C8.99504 23.8694 10.0327 22.6212 11.1942 21.4392L4.06175 14.4301ZM3.99756 27.2959H8.56161V17.2959H3.99756V27.2959ZM12.3939 25.5073C12.8961 24.908 13.444 24.3136 14.0176 23.7447L6.97542 16.6448C6.19329 17.4206 5.43666 18.2403 4.72931 19.0844L12.3939 25.5073ZM14.0133 23.7489C15.4791 22.2985 17.0609 21.072 18.7108 20.0907L13.5991 11.4959C11.2185 12.9117 8.99632 14.6451 6.97969 16.6406L14.0133 23.7489ZM21.155 15.7933V11.6604H11.155V15.7933H21.155ZM13.9146 7.19045C10.3602 8.97192 6.98358 11.4644 4.0807 14.411L11.2045 21.429C13.3882 19.2124 15.8838 17.3892 18.3954 16.1304L13.9146 7.19045ZM4.10768 14.3839C4.10504 14.3865 4.10267 14.3889 4.10101 14.3905C4.09931 14.3922 4.09767 14.3939 4.09653 14.395C4.0952 14.3964 4.09448 14.3971 4.09381 14.3977C4.09313 14.3984 4.09324 14.3983 4.09377 14.3978L11.1658 21.4679C11.1682 21.4655 11.1704 21.4633 11.1718 21.4618C11.1733 21.4603 11.1749 21.4588 11.1759 21.4578C11.177 21.4567 11.1776 21.456 11.1781 21.4556C11.1786 21.4551 11.1783 21.4554 11.1775 21.4562L4.10768 14.3839Z" fill="#707070" mask="url(#path-17-inside-8_246_4953)"/>
<mask id="path-19-inside-9_246_4953" fill="white">
<path d="M7.22199 17.5656L7.22746 17.5583L16.1546 5.76266V3.41672L1.86865 22.2959H3.33395C4.45762 20.6406 5.76398 19.051 7.22199 17.5656Z"/>
</mask>
<path d="M7.22199 17.5656L10.7903 21.0681L11.0262 20.8277L11.2278 20.5578L7.22199 17.5656ZM7.22746 17.5583L3.24054 14.541L3.23104 14.5535L3.22162 14.5661L7.22746 17.5583ZM16.1546 5.76266L20.1415 8.78003L21.1546 7.44142V5.76266H16.1546ZM16.1546 3.41672H21.1546V-11.4771L12.1675 0.399642L16.1546 3.41672ZM1.86865 22.2959L-2.11848 19.2789L-8.18503 27.2959H1.86865V22.2959ZM3.33395 22.2959V27.2959H5.98306L7.47088 25.1041L3.33395 22.2959ZM11.2278 20.5578L11.2333 20.5505L3.22162 14.5661L3.21615 14.5734L11.2278 20.5578ZM11.2144 20.5757L20.1415 8.78003L12.1677 2.7453L3.24054 14.541L11.2144 20.5757ZM21.1546 5.76266V3.41672H11.1546V5.76266H21.1546ZM12.1675 0.399642L-2.11848 19.2789L5.85579 25.313L20.1417 6.43379L12.1675 0.399642ZM1.86865 27.2959H3.33395V17.2959H1.86865V27.2959ZM7.47088 25.1041C8.41972 23.7063 9.53402 22.348 10.7903 21.0681L3.65372 14.0632C1.99395 15.7541 0.495512 17.5749 -0.802974 19.4878L7.47088 25.1041Z" fill="#707070" mask="url(#path-19-inside-9_246_4953)"/>
<mask id="path-21-inside-10_246_4953" fill="white">
<path d="M38.0933 6.66705V11.0484C40.3936 12.1739 42.6409 13.6593 44.7146 15.4188L38.0933 6.66705Z"/>
</mask>
<path d="M38.0933 6.66705L42.0806 3.6503L33.0933 -8.22871V6.66705H38.0933ZM38.0933 11.0484H33.0933V14.1684L35.8958 15.5396L38.0933 11.0484ZM44.7146 15.4188L41.4798 19.2314L48.702 12.4021L44.7146 15.4188ZM33.0933 6.66705V11.0484H43.0933V6.66705H33.0933ZM35.8958 15.5396C37.7983 16.4705 39.7002 17.7215 41.4798 19.2314L47.9495 11.6062C45.5815 9.59712 42.9888 7.87732 40.2908 6.55719L35.8958 15.5396ZM48.702 12.4021L42.0806 3.6503L34.1059 9.68381L40.7273 18.4356L48.702 12.4021Z" fill="#707070" mask="url(#path-21-inside-10_246_4953)"/>
<mask id="path-23-inside-11_246_4953" fill="white">
<path d="M45.6903 22.2959H50.2525C49.191 20.7721 47.9705 19.3086 46.6221 17.9364L46.6203 17.9347C44.0733 15.3456 41.1335 13.1824 38.0933 11.6604V15.7969C40.1031 16.9882 42.0069 18.4681 43.7536 20.1947C44.4205 20.8562 45.0727 21.5614 45.6903 22.2959Z"/>
</mask>
<path d="M45.6903 22.2959L41.8632 25.5136L43.3617 27.2959H45.6903V22.2959ZM50.2525 22.2959V27.2959H59.8293L54.3552 19.4379L50.2525 22.2959ZM46.6221 17.9364L50.1884 14.432L50.151 14.3939L50.1128 14.3566L46.6221 17.9364ZM46.6203 17.9347L43.0559 21.4411L43.0923 21.4782L43.1296 21.5145L46.6203 17.9347ZM38.0933 11.6604L40.3315 7.18938L33.0933 3.56589V11.6604H38.0933ZM38.0933 15.7969H33.0933V18.6456L35.5438 20.0981L38.0933 15.7969ZM43.7536 20.1947L47.2746 16.6447L47.2686 16.6388L43.7536 20.1947ZM45.6903 27.2959H50.2525V17.2959H45.6903V27.2959ZM54.3552 19.4379C53.1256 17.6729 51.7238 15.9944 50.1884 14.432L43.0558 21.4409C44.2172 22.6228 45.2563 23.8713 46.1499 25.1539L54.3552 19.4379ZM50.1128 14.3566L50.111 14.3549L43.1296 21.5145L43.1314 21.5162L50.1128 14.3566ZM50.1846 14.4282C47.2783 11.4738 43.8966 8.97408 40.3315 7.18938L35.855 16.1315C38.3705 17.3907 40.8684 19.2175 43.0559 21.4411L50.1846 14.4282ZM33.0933 11.6604V15.7969H43.0933V11.6604H33.0933ZM35.5438 20.0981C37.184 21.0703 38.7663 22.2954 40.2386 23.7507L47.2686 16.6388C45.2474 14.6409 43.0222 12.9061 40.6427 11.4957L35.5438 20.0981ZM40.2326 23.7447C40.7964 24.3039 41.3461 24.8986 41.8632 25.5136L49.5173 19.0782C48.7994 18.2242 48.0445 17.4084 47.2746 16.6447L40.2326 23.7447Z" fill="#707070" mask="url(#path-23-inside-11_246_4953)"/>
<mask id="path-25-inside-12_246_4953" fill="white">
<path d="M47.0314 17.5711C48.4875 19.0528 49.7921 20.6424 50.9157 22.2959H52.3811L38.0933 3.41302V5.7608L47.0277 17.5656L47.0314 17.5711Z"/>
</mask>
<path d="M47.0314 17.5711L42.8804 20.3584L43.1394 20.7442L43.4652 21.0756L47.0314 17.5711ZM50.9157 22.2959L46.7803 25.1062L48.2683 27.2959H50.9157V22.2959ZM52.3811 22.2959V27.2959H62.4344L56.3683 19.279L52.3811 22.2959ZM38.0933 3.41302L42.0805 0.396072L33.0933 -11.4815V3.41302H38.0933ZM38.0933 5.7608H33.0933V7.43961L34.1064 8.77825L38.0933 5.7608ZM47.0277 17.5656L51.1787 14.7783L51.0999 14.6609L51.0146 14.5482L47.0277 17.5656ZM43.4652 21.0756C44.7163 22.3488 45.8292 23.7067 46.7803 25.1062L55.0512 19.4856C53.7549 17.5781 52.2588 15.7569 50.5976 14.0665L43.4652 21.0756ZM50.9157 27.2959H52.3811V17.2959H50.9157V27.2959ZM56.3683 19.279L42.0805 0.396072L34.106 6.42998L48.3938 25.3129L56.3683 19.279ZM33.0933 3.41302V5.7608H43.0933V3.41302H33.0933ZM34.1064 8.77825L43.0409 20.5831L51.0146 14.5482L42.0801 2.74336L34.1064 8.77825ZM42.8767 20.3529L42.8804 20.3584L51.1824 14.7837L51.1787 14.7783L42.8767 20.3529Z" fill="#707070" mask="url(#path-25-inside-12_246_4953)"/>
<mask id="path-27-inside-13_246_4953" fill="white">
<path d="M22.7018 8.07754V7.08179C21.7846 6.34002 21.0812 5.39905 20.6372 4.34482V6.00383C21.1872 6.81504 21.8942 7.52576 22.7018 8.07754Z"/>
</mask>
<path d="M22.7018 8.07754L19.8811 12.2059L27.7018 17.5495V8.07754H22.7018ZM22.7018 7.08179H27.7018V4.69498L25.846 3.19408L22.7018 7.08179ZM20.6372 4.34482L25.2453 2.40423L15.6372 4.34482H20.6372ZM20.6372 6.00383H15.6372V7.53892L16.4986 8.80954L20.6372 6.00383ZM27.7018 8.07754V7.08179H17.7018V8.07754H27.7018ZM25.846 3.19408C25.5671 2.96858 25.3679 2.6955 25.2453 2.40423L16.0292 6.28541C16.7944 8.10259 18.0021 9.71146 19.5576 10.9695L25.846 3.19408ZM15.6372 4.34482V6.00383H25.6372V4.34482H15.6372ZM16.4986 8.80954C17.3991 10.1378 18.5523 11.2981 19.8811 12.2059L25.5225 3.94916C25.2361 3.75346 24.9753 3.49232 24.7758 3.19811L16.4986 8.80954Z" fill="#707070" mask="url(#path-27-inside-13_246_4953)"/>
<mask id="path-29-inside-14_246_4953" fill="white">
<path d="M22.7018 9.38391C22.0093 9.52094 21.3187 9.69085 20.6372 9.89002V13.6958C21.3242 13.4565 22.0166 13.2555 22.7018 13.0929V9.38391Z"/>
</mask>
<path d="M22.7018 9.38391H27.7018V3.29748L21.7312 4.47903L22.7018 9.38391ZM20.6372 9.89002L19.2346 5.09077L15.6372 6.14212V9.89002H20.6372ZM20.6372 13.6958H15.6372V20.7323L22.282 18.4175L20.6372 13.6958ZM22.7018 13.0929L23.8563 17.9578L27.7018 17.0452V13.0929H22.7018ZM21.7312 4.47903C20.8884 4.64582 20.0536 4.85142 19.2346 5.09077L22.0398 14.6893C22.5838 14.5303 23.1303 14.3961 23.6724 14.2888L21.7312 4.47903ZM15.6372 9.89002V13.6958H25.6372V9.89002H15.6372ZM22.282 18.4175C22.8057 18.2351 23.3344 18.0816 23.8563 17.9578L21.5473 8.228C20.6989 8.42934 19.8427 8.67788 18.9924 8.97409L22.282 18.4175ZM27.7018 13.0929V9.38391H17.7018V13.0929H27.7018Z" fill="#707070" mask="url(#path-29-inside-14_246_4953)"/>
<mask id="path-31-inside-15_246_4953" fill="white">
<path d="M22.7018 8.73164C21.9235 8.24931 21.2219 7.63173 20.6372 6.91919V9.31996C21.3187 9.12445 22.0093 8.9582 22.7018 8.82665V8.73164Z"/>
</mask>
<path d="M22.7018 8.73164H27.7018V5.94788L25.3355 4.48154L22.7018 8.73164ZM20.6372 6.91919L24.5026 3.74759L15.6372 -7.05695V6.91919H20.6372ZM20.6372 9.31996H15.6372V15.9561L22.016 14.1261L20.6372 9.31996ZM22.7018 8.82665L23.635 13.7388L27.7018 12.9662V8.82665H22.7018ZM25.3355 4.48154C25.0332 4.29419 24.7455 4.04368 24.5026 3.74759L16.7719 10.0908C17.6982 11.2198 18.8137 12.2044 20.0681 12.9817L25.3355 4.48154ZM15.6372 6.91919V9.31996H25.6372V6.91919H15.6372ZM22.016 14.1261C22.5598 13.9701 23.1017 13.8401 23.635 13.7388L21.7686 3.91451C20.917 4.07628 20.0776 4.27881 19.2584 4.51382L22.016 14.1261ZM27.7018 8.82665V8.73164H17.7018V8.82665H27.7018Z" fill="#707070" mask="url(#path-31-inside-15_246_4953)"/>
<mask id="path-33-inside-16_246_4953" fill="white">
<path d="M33.6133 6.00013V4.34296C33.1693 5.39902 32.4659 6.33999 31.5469 7.08175V8.0775C32.3581 7.52394 33.0652 6.81318 33.6133 6.00013Z"/>
</mask>
<path d="M33.6133 6.00013L37.7592 8.79513L38.6133 7.52815V6.00013H33.6133ZM33.6133 4.34296H38.6133L29.0041 2.40513L33.6133 4.34296ZM31.5469 7.08175L28.4065 3.19095L26.5469 4.69192V7.08175H31.5469ZM31.5469 8.0775H26.5469V17.5427L34.3652 12.2075L31.5469 8.0775ZM38.6133 6.00013V4.34296H28.6133V6.00013H38.6133ZM29.0041 2.40513C28.8817 2.69629 28.684 2.96701 28.4065 3.19095L34.6872 10.9726C36.2478 9.71298 37.457 8.10174 38.2225 6.28078L29.0041 2.40513ZM26.5469 7.08175V8.0775H36.5469V7.08175H26.5469ZM34.3652 12.2075C35.6984 11.2978 36.8563 10.1343 37.7592 8.79513L29.4675 3.20514C29.2741 3.49203 29.0178 3.75009 28.7286 3.94747L34.3652 12.2075Z" fill="#707070" mask="url(#path-33-inside-16_246_4953)"/>
<mask id="path-35-inside-17_246_4953" fill="white">
<path d="M33.6133 9.89002C32.93 9.69085 32.2375 9.52094 31.5469 9.38391V13.0929C32.2339 13.2555 32.9263 13.4565 33.6133 13.6958V9.89002Z"/>
</mask>
<path d="M33.6133 9.89002H38.6133V6.1393L35.0124 5.08976L33.6133 9.89002ZM31.5469 9.38391L32.52 4.47951L26.5469 3.29439V9.38391H31.5469ZM31.5469 13.0929H26.5469V17.0477L30.3953 17.9585L31.5469 13.0929ZM33.6133 13.6958L31.9685 18.4175L38.6133 20.7323V13.6958H33.6133ZM35.0124 5.08976C34.1923 4.85071 33.3577 4.64573 32.52 4.47951L30.5738 14.2883C31.1174 14.3962 31.6677 14.531 32.2142 14.6903L35.0124 5.08976ZM26.5469 9.38391V13.0929H36.5469V9.38391H26.5469ZM30.3953 17.9585C30.9173 18.082 31.4451 18.2352 31.9685 18.4175L35.2582 8.97409C34.4076 8.6778 33.5504 8.42896 32.6984 8.22731L30.3953 17.9585ZM38.6133 13.6958V9.89002H28.6133V13.6958H38.6133Z" fill="#707070" mask="url(#path-35-inside-17_246_4953)"/>
<mask id="path-37-inside-18_246_4953" fill="white">
<path d="M33.6133 6.91736C33.0305 7.63173 32.327 8.24931 31.5469 8.73347V8.82665C32.2375 8.96003 32.93 9.12444 33.6133 9.31813V6.91736Z"/>
</mask>
<path d="M33.6133 6.91736H38.6133V-7.12012L29.7392 3.75649L33.6133 6.91736ZM31.5469 8.73347L28.9104 4.48507L26.5469 5.95182V8.73347H31.5469ZM31.5469 8.82665H26.5469V12.9535L30.5988 13.7359L31.5469 8.82665ZM33.6133 9.31813L32.2498 14.1286L38.6133 15.9323V9.31813H33.6133ZM29.7392 3.75649C29.5061 4.04216 29.221 4.29232 28.9104 4.48507L34.1834 12.9819C35.4331 12.2063 36.5548 11.2213 37.4875 10.0782L29.7392 3.75649ZM26.5469 8.73347V8.82665H36.5469V8.73347H26.5469ZM30.5988 13.7359C31.1501 13.8424 31.704 13.9739 32.2498 14.1286L34.9768 4.50763C34.156 4.27497 33.3249 4.07763 32.4949 3.91736L30.5988 13.7359ZM38.6133 9.31813V6.91736H28.6133V9.31813H38.6133Z" fill="#707070" mask="url(#path-37-inside-18_246_4953)"/>
<mask id="path-39-inside-19_246_4953" fill="white">
<path d="M23.7684 8.69143C24.7368 9.15368 25.7727 9.40397 26.8507 9.4405V8.64209C25.5535 8.59276 24.322 8.19812 23.2495 7.4837V8.42102C23.414 8.51603 23.582 8.60373 23.7501 8.68411C23.7556 8.68594 23.7611 8.6896 23.7684 8.69143Z"/>
</mask>
<path d="M23.7684 8.69143L25.9224 4.17917L25.4706 3.9635L24.985 3.84169L23.7684 8.69143ZM26.8507 9.4405L26.6814 14.4376L31.8507 14.6128V9.4405H26.8507ZM26.8507 8.64209H31.8507V3.82863L27.0407 3.6457L26.8507 8.64209ZM23.2495 7.4837L26.0215 3.32242L18.2495 -1.85469V7.4837H23.2495ZM23.2495 8.42102H18.2495V11.3067L20.7481 12.7503L23.2495 8.42102ZM23.7501 8.68411L21.5932 13.195L21.8736 13.329L22.1685 13.4273L23.7501 8.68411ZM21.6144 13.2037C23.2135 13.967 24.9261 14.3782 26.6814 14.4376L27.0201 4.44337C26.6193 4.42979 26.2601 4.34038 25.9224 4.17917L21.6144 13.2037ZM31.8507 9.4405V8.64209H21.8507V9.4405H31.8507ZM27.0407 3.6457C26.6516 3.6309 26.3159 3.51857 26.0215 3.32242L20.4776 11.645C22.3281 12.8777 24.4554 13.5546 26.6607 13.6385L27.0407 3.6457ZM18.2495 7.4837V8.42102H28.2495V7.4837H18.2495ZM20.7481 12.7503C21.0354 12.9164 21.3194 13.064 21.5932 13.195L25.907 4.17326C25.8447 4.14343 25.7925 4.11571 25.7509 4.09171L20.7481 12.7503ZM22.1685 13.4273C21.9433 13.3523 21.7734 13.2772 21.7053 13.2466C21.6688 13.2303 21.6405 13.217 21.6367 13.2152C21.6227 13.2087 21.6455 13.2193 21.661 13.2265C21.7377 13.2619 22.0828 13.4235 22.5518 13.5412L24.985 3.84169C25.4467 3.95752 25.7855 4.11635 25.8561 4.14901C25.8702 4.15551 25.8915 4.1655 25.8761 4.15831C25.8709 4.15585 25.8411 4.1419 25.8033 4.1249C25.7324 4.09304 25.5597 4.01685 25.3318 3.94087L22.1685 13.4273Z" fill="#707070" mask="url(#path-39-inside-19_246_4953)"/>
<mask id="path-41-inside-20_246_4953" fill="white">
<path d="M26.8507 9.98866C25.6978 9.95396 24.5888 9.68721 23.5528 9.19574C23.551 9.19574 23.551 9.19391 23.5492 9.19391C23.5418 9.19208 23.5364 9.19025 23.5309 9.18659C23.4377 9.14274 23.3445 9.09524 23.2513 9.0459C23.2513 9.04224 23.2513 9.03859 23.2495 9.03497V9.0459V9.07512V12.9723C24.4536 12.7238 25.6613 12.5905 26.8507 12.5722V9.98866Z"/>
</mask>
<path d="M26.8507 9.98866H31.8507V5.1369L27.0011 4.99093L26.8507 9.98866ZM23.5528 9.19574L25.696 4.67834L24.6787 4.19574H23.5528V9.19574ZM23.5492 9.19391L22.3362 14.0445L22.9335 14.1939H23.5492V9.19391ZM23.5309 9.18659L26.3124 5.03168L26 4.82253L25.6598 4.66245L23.5309 9.18659ZM23.2513 9.0459H18.2513V12.0562L20.9117 13.4648L23.2513 9.0459ZM23.2495 9.03497L27.7103 6.77643L18.2495 9.03497H23.2495ZM23.2495 12.9723H18.2495V19.1094L24.26 17.8691L23.2495 12.9723ZM26.8507 12.5722L26.9276 17.5716L31.8507 17.4959V12.5722H26.8507ZM27.0011 4.99093C26.5347 4.97689 26.1045 4.87217 25.696 4.67834L21.4097 13.7131C23.073 14.5023 24.8609 14.931 26.7003 14.9864L27.0011 4.99093ZM23.5528 4.19574C23.6571 4.19574 23.7645 4.199 23.8746 4.20611C23.9847 4.21321 24.097 4.22412 24.2112 4.23929C24.3253 4.25446 24.4404 4.27377 24.5562 4.29749C24.6719 4.32121 24.7872 4.34912 24.9017 4.38122C25.0163 4.41334 25.1289 4.44931 25.2393 4.4889C25.3498 4.5285 25.4569 4.57128 25.5606 4.61675C25.6642 4.66222 25.7633 4.70991 25.858 4.75912C25.9526 4.80831 26.042 4.85862 26.1261 4.90914C26.2944 5.01022 26.4398 5.11101 26.5621 5.20324C26.6231 5.24929 26.6786 5.29332 26.7283 5.3342C26.7779 5.37504 26.8223 5.41315 26.861 5.44734C26.8997 5.48148 26.9335 5.51242 26.9618 5.53882C26.99 5.56515 27.0139 5.58805 27.0323 5.60589C27.0505 5.62357 27.0651 5.638 27.0739 5.64672C27.0784 5.65117 27.082 5.65478 27.0842 5.65695C27.0862 5.65892 27.0879 5.66062 27.0875 5.6603C27.0875 5.66029 27.0875 5.66026 27.0875 5.66023C27.0874 5.6602 27.0873 5.66011 27.0873 5.66005C27.0871 5.65991 27.0869 5.65967 27.0866 5.65938C27.086 5.65881 27.0851 5.65788 27.084 5.65674C27.0817 5.6545 27.078 5.65083 27.0735 5.6463C27.0646 5.63744 27.0498 5.62288 27.0315 5.60506C27.0129 5.58709 26.9889 5.56407 26.9605 5.53762C26.9321 5.51109 26.8981 5.48005 26.8593 5.4458C26.8205 5.4115 26.7759 5.37329 26.7262 5.33237C26.6764 5.2914 26.6208 5.2473 26.5596 5.20119C26.437 5.10883 26.2914 5.00797 26.1229 4.90686C26.0387 4.85632 25.9493 4.80602 25.8546 4.75683C25.7598 4.70763 25.6606 4.65995 25.5569 4.61451C25.4532 4.56906 25.3461 4.52631 25.2356 4.48675C25.1251 4.44719 25.0125 4.41125 24.8979 4.37917C24.7834 4.3471 24.6681 4.31923 24.5524 4.29553C24.4366 4.27184 24.3216 4.25256 24.2074 4.23741C24.0933 4.22226 23.981 4.21136 23.8709 4.20426C23.7608 4.19717 23.6534 4.19391 23.5492 4.19391V14.1939C23.445 14.1939 23.3377 14.1906 23.2277 14.1836C23.1177 14.1765 23.0055 14.1656 22.8915 14.1504C22.7775 14.1353 22.6625 14.116 22.5469 14.0924C22.4312 14.0687 22.316 14.0408 22.2016 14.0088C22.0871 13.9767 21.9746 13.9408 21.8642 13.9013C21.7538 13.8618 21.6468 13.8191 21.5431 13.7736C21.4395 13.7282 21.3404 13.6806 21.2457 13.6314C21.1511 13.5823 21.0617 13.532 20.9775 13.4815C20.8092 13.3805 20.6638 13.2797 20.5413 13.1875C20.4802 13.1414 20.4247 13.0974 20.3749 13.0564C20.3252 13.0156 20.2808 12.9774 20.242 12.9432C20.2032 12.909 20.1693 12.878 20.1409 12.8515C20.1126 12.8251 20.0886 12.8022 20.0702 12.7842C20.0519 12.7665 20.0372 12.752 20.0283 12.7432C20.0238 12.7387 20.0201 12.735 20.0179 12.7328C20.0168 12.7317 20.0159 12.7308 20.0153 12.7302C20.015 12.7299 20.0148 12.7297 20.0147 12.7296C20.0146 12.7295 20.0145 12.7294 20.0145 12.7294C20.0145 12.7294 20.0144 12.7293 20.0144 12.7293C20.0141 12.729 20.0159 12.7308 20.0179 12.7328C20.0201 12.735 20.0237 12.7386 20.0282 12.7431C20.0371 12.7519 20.0517 12.7664 20.07 12.7841C20.0885 12.802 20.1124 12.8249 20.1407 12.8513C20.1691 12.8778 20.2029 12.9088 20.2417 12.943C20.2805 12.9772 20.3249 13.0154 20.3746 13.0563C20.4243 13.0972 20.4798 13.1413 20.541 13.1874C20.6634 13.2797 20.8089 13.3806 20.9773 13.4818C21.0615 13.5323 21.151 13.5827 21.2457 13.6319C21.3404 13.6811 21.4396 13.7289 21.5434 13.7744C21.6471 13.8199 21.7543 13.8627 21.8648 13.9023C21.9753 13.942 22.088 13.978 22.2027 14.0101C22.3173 14.0422 22.4327 14.0701 22.5485 14.0939C22.6644 14.1176 22.7796 14.137 22.8938 14.1521C23.008 14.1673 23.1204 14.1782 23.2307 14.1854C23.3409 14.1925 23.4484 14.1957 23.5528 14.1957V4.19574ZM24.7622 4.34327C24.9382 4.38729 25.5981 4.5535 26.3124 5.03168L20.7494 13.3415C21.4746 13.827 22.1455 13.9969 22.3362 14.0445L24.7622 4.34327ZM25.6598 4.66245C25.6613 4.66317 25.6567 4.66103 25.6447 4.65497C25.6326 4.64888 25.6153 4.63994 25.5909 4.62705L20.9117 13.4648C21.0475 13.5366 21.2147 13.6226 21.402 13.7107L25.6598 4.66245ZM28.2513 9.0459C28.2513 9.0459 28.2513 9.04553 28.2513 9.04512C28.2513 9.04467 28.2513 9.04397 28.2513 9.04312C28.2513 9.04144 28.2513 9.03875 28.2513 9.03545C28.2513 9.02898 28.2513 9.01843 28.2512 9.00545C28.251 8.98002 28.2505 8.93829 28.2489 8.88682C28.2457 8.78559 28.2376 8.62047 28.2123 8.41826C28.159 7.99356 28.0303 7.40842 27.7103 6.77643L18.7887 11.2935C18.1752 10.0819 18.2513 8.90517 18.2513 9.0459H28.2513ZM18.2495 9.03497V9.0459H28.2495V9.03497H18.2495ZM18.2495 9.0459V9.07512H28.2495V9.0459H18.2495ZM18.2495 9.07512V12.9723H28.2495V9.07512H18.2495ZM24.26 17.8691C25.1637 17.6827 26.0589 17.5849 26.9276 17.5716L26.7738 7.57277C25.2637 7.59599 23.7434 7.76504 22.239 8.07547L24.26 17.8691ZM31.8507 12.5722V9.98866H21.8507V12.5722H31.8507Z" fill="#707070" mask="url(#path-41-inside-20_246_4953)"/>
<mask id="path-43-inside-21_246_4953" fill="white">
<path d="M30.494 8.6878C30.4958 8.68597 30.4995 8.68414 30.5013 8.68414C30.6657 8.60559 30.832 8.5179 30.9983 8.42105V7.48557C29.9258 8.19816 28.6961 8.59279 27.3989 8.64212V9.44054C28.4769 9.404 29.5147 9.15372 30.483 8.69146C30.4867 8.68963 30.4903 8.6878 30.494 8.6878Z"/>
</mask>
<path d="M30.494 8.6878V13.6878H32.5651L34.0295 12.2233L30.494 8.6878ZM30.5013 8.68414V13.6841H31.6343L32.6567 13.1957L30.5013 8.68414ZM30.9983 8.42105L33.5147 12.7416L35.9983 11.2951V8.42105H30.9983ZM30.9983 7.48557H35.9983V-1.83957L28.2312 3.321L30.9983 7.48557ZM27.3989 8.64212L27.2089 3.64574L22.3989 3.82867V8.64212H27.3989ZM27.3989 9.44054H22.3989V14.6129L27.5683 14.4377L27.3989 9.44054ZM30.483 8.69146L32.637 13.2037L32.6782 13.184L32.7191 13.1636L30.483 8.69146ZM34.0295 12.2233C33.5363 12.7166 33.0436 13.0024 32.7344 13.1571C32.5495 13.2495 32.3079 13.3561 32.0161 13.449C31.7842 13.5228 31.2299 13.6841 30.5013 13.6841V3.68414C29.2864 3.68414 28.4147 4.13655 28.2609 4.21349C27.949 4.3695 27.4535 4.65718 26.9585 5.15227L34.0295 12.2233ZM32.6567 13.1957C32.9438 13.0586 33.2305 12.9072 33.5147 12.7416L28.4818 4.10047C28.4335 4.12861 28.3877 4.15261 28.3459 4.17256L32.6567 13.1957ZM35.9983 8.42105V7.48557H25.9983V8.42105H35.9983ZM28.2312 3.321C27.933 3.51914 27.5968 3.63098 27.2089 3.64574L27.5889 13.6385C29.7955 13.5546 31.9185 12.8772 33.7653 11.6501L28.2312 3.321ZM22.3989 8.64212V9.44054H32.3989V8.64212H22.3989ZM27.5683 14.4377C29.322 14.3782 31.0368 13.9676 32.637 13.2037L28.329 4.17923C27.9926 4.33982 27.6317 4.42978 27.2296 4.44341L27.5683 14.4377ZM32.7191 13.1636C32.7688 13.1387 32.5321 13.2626 32.2446 13.3704C31.9356 13.4863 31.3114 13.6878 30.494 13.6878V3.6878C29.6729 3.6878 29.045 3.89021 28.7325 4.00746C28.566 4.06989 28.4361 4.12881 28.3632 4.16299C28.3251 4.18088 28.2945 4.19581 28.2762 4.20482C28.2668 4.20944 28.2592 4.21323 28.2545 4.21555C28.2521 4.21673 28.2502 4.2177 28.249 4.21831C28.2484 4.21862 28.2479 4.21887 28.2475 4.21903C28.2472 4.21918 28.247 4.21932 28.247 4.21932L32.7191 13.1636Z" fill="#707070" mask="url(#path-43-inside-21_246_4953)"/>
<mask id="path-45-inside-22_246_4953" fill="white">
<path d="M30.9983 9.04773C30.9051 9.09706 30.8119 9.14274 30.7206 9.18659C30.7151 9.18842 30.7114 9.19025 30.7077 9.19208C30.7059 9.19391 30.7023 9.19391 30.7005 9.19573C29.6627 9.68721 28.5536 9.95396 27.3989 9.98866V12.5722C28.5884 12.5905 29.796 12.7238 30.9983 12.9723V9.04773Z"/>
</mask>
<path d="M30.9983 9.04773H35.9983V0.743022L28.6587 4.62884L30.9983 9.04773ZM30.7206 9.18659L32.3017 13.93L32.6003 13.8305L32.8842 13.6942L30.7206 9.18659ZM30.7077 9.19208L28.4737 4.71893L27.7468 5.08199L27.1722 5.65654L30.7077 9.19208ZM30.7005 9.19573L32.8405 13.7146L33.6234 13.3438L34.236 12.7313L30.7005 9.19573ZM27.3989 9.98866L27.2487 4.99092L22.3989 5.13667V9.98866H27.3989ZM27.3989 12.5722H22.3989V17.4959L27.3221 17.5716L27.3989 12.5722ZM30.9983 12.9723L29.9863 17.8688L35.9983 19.1113V12.9723H30.9983ZM28.6587 4.62884C28.6569 4.62981 28.6487 4.6341 28.6315 4.64268C28.6138 4.65145 28.5907 4.66276 28.5569 4.67895L32.8842 13.6942C32.9968 13.6402 33.1585 13.5615 33.3378 13.4666L28.6587 4.62884ZM29.1394 4.44317C28.7767 4.56409 28.5065 4.70254 28.4737 4.71893L32.9418 13.6652C32.9545 13.6589 32.8599 13.707 32.7441 13.7584C32.6124 13.8169 32.4646 13.8757 32.3017 13.93L29.1394 4.44317ZM27.1722 5.65654C27.4649 5.36386 27.7555 5.14598 28.004 4.98628C28.1285 4.9063 28.2449 4.83928 28.3492 4.78355C28.4533 4.72785 28.5484 4.68177 28.6307 4.64423C28.713 4.60671 28.7861 4.57605 28.8465 4.55185C28.9069 4.52768 28.9586 4.50831 28.9979 4.49404C29.0178 4.48682 29.0354 4.48055 29.0502 4.47537C29.065 4.4702 29.0776 4.46585 29.0873 4.46253C29.0969 4.45924 29.1047 4.45662 29.1093 4.45505C29.1136 4.45363 29.1172 4.45241 29.1165 4.45265C29.1165 4.45265 29.1164 4.45267 29.1164 4.4527C29.1163 4.45273 29.1161 4.45277 29.116 4.45282C29.1157 4.45293 29.1151 4.4531 29.1145 4.45331C29.1133 4.45372 29.1113 4.4544 29.1088 4.45522C29.104 4.45685 29.0961 4.45953 29.0863 4.46288C29.0764 4.46626 29.0636 4.47066 29.0487 4.47589C29.0337 4.48113 29.0159 4.48746 28.9959 4.49474C28.9563 4.50914 28.9042 4.52862 28.8435 4.55293C28.7827 4.57726 28.7093 4.60805 28.6267 4.64571C28.5441 4.6834 28.4487 4.72963 28.3443 4.78548C28.2397 4.84137 28.123 4.90857 27.9982 4.98873C27.7492 5.14878 27.4581 5.36706 27.1649 5.6602L34.236 12.7313C33.9433 13.024 33.6527 13.2418 33.4042 13.4015C33.2798 13.4815 33.1633 13.5485 33.059 13.6043C32.9549 13.66 32.8598 13.706 32.7775 13.7436C32.6953 13.7811 32.6221 13.8118 32.5617 13.836C32.5014 13.8601 32.4496 13.8795 32.4103 13.8938C32.3904 13.901 32.3728 13.9073 32.358 13.9124C32.3433 13.9176 32.3306 13.922 32.3209 13.9253C32.3113 13.9286 32.3035 13.9312 32.2989 13.9328C32.2946 13.9342 32.291 13.9354 32.2917 13.9352C32.2917 13.9352 32.2918 13.9351 32.2919 13.9351C32.2919 13.9351 32.2921 13.935 32.2922 13.935C32.2925 13.9349 32.2931 13.9347 32.2937 13.9345C32.2949 13.9341 32.2969 13.9334 32.2994 13.9326C32.3042 13.931 32.3121 13.9283 32.3219 13.9249C32.3318 13.9216 32.3446 13.9171 32.3595 13.9119C32.3745 13.9067 32.3923 13.9004 32.4123 13.8931C32.452 13.8787 32.5041 13.8592 32.5647 13.8349C32.6255 13.8106 32.6989 13.7798 32.7815 13.7421C32.8641 13.7044 32.9595 13.6582 33.0639 13.6023C33.1685 13.5464 33.2852 13.4792 33.41 13.3991C33.6591 13.239 33.9501 13.0208 34.2433 12.7276L27.1722 5.65654ZM28.5604 4.67686C28.1481 4.87212 27.7168 4.97685 27.2487 4.99092L27.5491 14.9864C29.3905 14.9311 31.1772 14.5023 32.8405 13.7146L28.5604 4.67686ZM22.3989 9.98866V12.5722H32.3989V9.98866H22.3989ZM27.3221 17.5716C28.191 17.585 29.0856 17.6827 29.9863 17.8688L32.0102 8.07577C30.5064 7.765 28.9858 7.59599 27.4758 7.57277L27.3221 17.5716ZM35.9983 12.9723V9.04773H25.9983V12.9723H35.9983Z" fill="#707070" mask="url(#path-45-inside-22_246_4953)"/>
</svg>
