<svg width="96" height="120" viewBox="0 0 96 120" fill="none" xmlns="http://www.w3.org/2000/svg">
<rect x="25" y="35" width="44" height="44" rx="22" fill="#F7F7F7"/>
<path d="M59.9748 54.5067L58.4148 51.0456C58.2745 50.7344 58.0474 50.4702 57.7608 50.2848C57.4742 50.0994 57.1402 50.0005 56.7989 50H40.9892C40.9151 50 40.844 50.0295 40.7915 50.0819C40.7391 50.1343 40.7097 50.2054 40.7097 50.2796C40.7097 50.3537 40.7391 50.4248 40.7915 50.4773C40.844 50.5297 40.9151 50.5591 40.9892 50.5591H56.7989C57.0165 50.5602 57.2299 50.6196 57.4168 50.7312C57.6037 50.8428 57.7571 51.0026 57.8612 51.1938H35.5991C35.5313 51.1938 35.4642 51.2072 35.4016 51.2332C35.339 51.2592 35.2822 51.2973 35.2344 51.3454C35.1866 51.3935 35.1488 51.4505 35.1231 51.5132C35.0974 51.576 35.0844 51.6432 35.0847 51.711V54.6297C35.0847 54.7661 35.1389 54.8969 35.2354 54.9934C35.3319 55.0899 35.4627 55.1441 35.5991 55.1441H53.17L53.8801 55.8961C53.9061 55.9234 53.9374 55.9451 53.9719 55.96C54.0065 55.9749 54.0438 55.9826 54.0814 55.9828H59.4408V61.3393C59.4408 61.4782 59.3858 61.6115 59.2878 61.71C59.1899 61.8085 59.0569 61.8642 58.918 61.8649H57.8333C57.8333 61.8649 57.8333 61.8397 57.8333 61.8286C57.8444 61.4983 57.789 61.1692 57.6703 60.8608C57.5516 60.5525 57.372 60.2711 57.1423 60.0336C56.9127 59.796 56.6375 59.6071 56.3333 59.4781C56.0291 59.3491 55.7021 59.2826 55.3717 59.2826C55.0412 59.2826 54.7142 59.3491 54.41 59.4781C54.1058 59.6071 53.8306 59.796 53.601 60.0336C53.3713 60.2711 53.1917 60.5525 53.073 60.8608C52.9543 61.1692 52.8989 61.4983 52.91 61.8286C52.91 61.8286 52.91 61.8509 52.91 61.8649H41.4897C41.4897 61.8649 41.4897 61.8397 41.4897 61.8286C41.5008 61.4983 41.4454 61.1692 41.3267 60.8608C41.208 60.5525 41.0284 60.2711 40.7987 60.0336C40.5691 59.796 40.2939 59.6071 39.9897 59.4781C39.6855 59.3491 39.3585 59.2826 39.028 59.2826C38.6976 59.2826 38.3706 59.3491 38.0664 59.4781C37.7622 59.6071 37.487 59.796 37.2574 60.0336C37.0277 60.2711 36.8481 60.5525 36.7294 60.8608C36.6107 61.1692 36.5553 61.4983 36.5664 61.8286C36.5664 61.8286 36.5664 61.8509 36.5664 61.8649H35.4733C35.2311 61.8642 34.999 61.7676 34.8277 61.5963C34.6564 61.425 34.5599 61.1929 34.5591 60.9507V51.4733C34.5599 51.2311 34.6564 50.999 34.8277 50.8277C34.999 50.6564 35.2311 50.5599 35.4733 50.5591H38.6492C38.7234 50.5591 38.7945 50.5297 38.8469 50.4773C38.8993 50.4248 38.9288 50.3537 38.9288 50.2796C38.9288 50.2054 38.8993 50.1343 38.8469 50.0819C38.7945 50.0295 38.7234 50 38.6492 50H35.4733C35.0828 50.0007 34.7085 50.1562 34.4323 50.4323C34.1562 50.7085 34.0007 51.0828 34 51.4733V60.9507C34.0007 61.3415 34.1561 61.7161 34.4322 61.9927C34.7082 62.2693 35.0825 62.4254 35.4733 62.4268H36.6559C36.7879 62.9409 37.082 63.3987 37.4946 63.7324H36.9355C36.8613 63.7324 36.7902 63.7619 36.7378 63.8143C36.6854 63.8667 36.6559 63.9378 36.6559 64.012C36.6559 64.0861 36.6854 64.1573 36.7378 64.2097C36.7902 64.2621 36.8613 64.2916 36.9355 64.2916H39.0322C39.579 64.2882 40.1092 64.1032 40.5394 63.7657C40.9695 63.4281 41.2753 62.9571 41.4086 62.4268H52.9883C53.1203 62.9409 53.4144 63.3987 53.827 63.7324H53.2679C53.1937 63.7324 53.1226 63.7619 53.0702 63.8143C53.0178 63.8667 52.9883 63.9378 52.9883 64.012C52.9883 64.0861 53.0178 64.1573 53.0702 64.2097C53.1226 64.2621 53.1937 64.2916 53.2679 64.2916H55.387C55.9353 64.2901 56.4674 64.1059 56.8992 63.7682C57.3311 63.4305 57.6381 62.9585 57.7717 62.4268H58.9292C59.2149 62.4232 59.4877 62.3069 59.6881 62.1032C59.8886 61.8996 60.0007 61.6251 59.9999 61.3393V54.6297C60.001 54.5873 59.9924 54.5452 59.9748 54.5067ZM39.0322 63.7324C38.6555 63.733 38.287 63.6217 37.9735 63.4127C37.6599 63.2037 37.4155 62.9064 37.271 62.5584C37.1266 62.2104 37.0887 61.8274 37.162 61.4578C37.2354 61.0883 37.4168 60.7488 37.6832 60.4823C37.9496 60.2159 38.2891 60.0345 38.6587 59.9611C39.0283 59.8878 39.4113 59.9257 39.7593 60.0702C40.1073 60.2146 40.4046 60.4591 40.6136 60.7726C40.8226 61.0861 40.9339 61.4546 40.9333 61.8314C40.9318 62.3351 40.7311 62.8178 40.3749 63.174C40.0187 63.5302 39.536 63.731 39.0322 63.7324ZM55.3758 63.7324C54.9991 63.733 54.6306 63.6217 54.3171 63.4127C54.0035 63.2037 53.7591 62.9064 53.6146 62.5584C53.4702 62.2104 53.4323 61.8274 53.5056 61.4578C53.579 61.0883 53.7604 60.7488 54.0268 60.4823C54.2932 60.2159 54.6327 60.0345 55.0023 59.9611C55.3719 59.8878 55.7549 59.9257 56.1029 60.0702C56.4509 60.2146 56.7482 60.4591 56.9572 60.7726C57.1662 61.0861 57.2775 61.4546 57.2769 61.8314C57.2762 62.3334 57.0772 62.8148 56.7232 63.1709C56.3693 63.5269 55.8891 63.7287 55.387 63.7324H55.3758ZM53.0107 54.5793H47.2795V51.7529H53.0107V54.5793ZM46.7204 54.5793H40.9892V51.7529H46.7204V54.5793ZM35.6439 51.7529H40.4301V54.5793H35.6439V51.7529ZM54.2017 55.418L53.5698 54.7471V51.7529H58.1212L59.4408 54.6828V55.418H54.2017ZM39.5383 50.2796C39.5383 50.2243 39.5547 50.1702 39.5854 50.1242C39.6161 50.0783 39.6598 50.0424 39.7108 50.0213C39.7619 50.0001 39.8181 49.9946 39.8724 50.0054C39.9266 50.0162 39.9764 50.0428 40.0155 50.0819C40.0546 50.121 40.0812 50.1708 40.092 50.225C40.1028 50.2793 40.0973 50.3355 40.0761 50.3866C40.055 50.4376 40.0191 50.4813 39.9732 50.512C39.9272 50.5427 39.8731 50.5591 39.8178 50.5591C39.7437 50.5591 39.6726 50.5297 39.6201 50.4773C39.5677 50.4248 39.5383 50.3537 39.5383 50.2796ZM39.0322 60.6572C38.8 60.6572 38.573 60.726 38.3799 60.8551C38.1868 60.9841 38.0363 61.1675 37.9474 61.382C37.8586 61.5966 37.8353 61.8327 37.8806 62.0604C37.9259 62.2882 38.0378 62.4974 38.202 62.6616C38.3662 62.8259 38.5754 62.9377 38.8032 62.983C39.0309 63.0283 39.267 63.005 39.4816 62.9162C39.6961 62.8273 39.8795 62.6768 40.0085 62.4837C40.1376 62.2906 40.2064 62.0636 40.2064 61.8314C40.2064 61.5199 40.0827 61.2213 39.8625 61.0011C39.6423 60.7809 39.3437 60.6572 39.0322 60.6572ZM39.0322 62.4464C38.9106 62.4464 38.7917 62.4103 38.6905 62.3428C38.5894 62.2752 38.5106 62.1791 38.464 62.0667C38.4175 61.9543 38.4053 61.8307 38.429 61.7114C38.4527 61.5921 38.5113 61.4825 38.5973 61.3965C38.6834 61.3104 38.7929 61.2519 38.9123 61.2281C39.0316 61.2044 39.1552 61.2166 39.2676 61.2631C39.38 61.3097 39.4761 61.3885 39.5436 61.4897C39.6112 61.5908 39.6473 61.7097 39.6473 61.8314C39.6488 61.9131 39.634 61.9942 39.6037 62.0702C39.5735 62.1461 39.5284 62.2152 39.4712 62.2735C39.4139 62.3318 39.3456 62.3781 39.2702 62.4097C39.1949 62.4413 39.114 62.4576 39.0322 62.4576V62.4464ZM55.387 60.6572C55.1547 60.6566 54.9274 60.725 54.7339 60.8537C54.5405 60.9824 54.3895 61.1656 54.3002 61.3801C54.2109 61.5946 54.1873 61.8308 54.2323 62.0587C54.2773 62.2867 54.3889 62.4962 54.553 62.6606C54.7171 62.8251 54.9263 62.9372 55.1541 62.9828C55.382 63.0283 55.6182 63.0052 55.8329 62.9164C56.0476 62.8276 56.2312 62.6771 56.3603 62.484C56.4895 62.2908 56.5584 62.0637 56.5584 61.8314C56.5584 61.5204 56.4351 61.2222 56.2155 61.0021C55.9959 60.7819 55.698 60.6579 55.387 60.6572ZM55.387 62.4576C55.2653 62.4581 55.1461 62.4225 55.0446 62.3553C54.9431 62.2881 54.8638 62.1922 54.8168 62.0799C54.7698 61.9675 54.7572 61.8438 54.7807 61.7243C54.8041 61.6048 54.8624 61.4949 54.9483 61.4086C55.0342 61.3223 55.1438 61.2635 55.2632 61.2395C55.3826 61.2156 55.5064 61.2276 55.6189 61.274C55.7315 61.3205 55.8277 61.3993 55.8954 61.5005C55.9631 61.6018 55.9993 61.7208 55.9993 61.8425C55.9993 62.0052 55.9349 62.1612 55.8201 62.2765C55.7054 62.3917 55.5497 62.4569 55.387 62.4576ZM50.4946 60.5509C50.4393 60.5509 50.3852 60.5345 50.3392 60.5038C50.2933 60.4731 50.2574 60.4294 50.2363 60.3784C50.2151 60.3273 50.2096 60.2711 50.2204 60.2168C50.2312 60.1626 50.2578 60.1128 50.2969 60.0737C50.336 60.0346 50.3858 60.008 50.44 59.9972C50.4943 59.9864 50.5505 59.9919 50.6016 60.0131C50.6526 60.0342 50.6963 60.0701 50.727 60.116C50.7577 60.162 50.7741 60.2161 50.7741 60.2714C50.7741 60.3455 50.7447 60.4166 50.6923 60.469C50.6398 60.5215 50.5687 60.5509 50.4946 60.5509ZM47.6989 60.5509C47.6436 60.5509 47.5895 60.5345 47.5436 60.5038C47.4976 60.4731 47.4618 60.4294 47.4406 60.3784C47.4194 60.3273 47.4139 60.2711 47.4247 60.2168C47.4355 60.1626 47.4621 60.1128 47.5012 60.0737C47.5403 60.0346 47.5901 60.008 47.6443 59.9972C47.6986 59.9864 47.7548 59.9919 47.8059 60.0131C47.857 60.0342 47.9006 60.0701 47.9313 60.116C47.9621 60.162 47.9784 60.2161 47.9784 60.2714C47.9784 60.3455 47.949 60.4166 47.8966 60.469C47.8441 60.5215 47.773 60.5509 47.6989 60.5509ZM49.0967 60.5509C49.0414 60.5509 48.9874 60.5345 48.9414 60.5038C48.8954 60.4731 48.8596 60.4294 48.8384 60.3784C48.8173 60.3273 48.8117 60.2711 48.8225 60.2168C48.8333 60.1626 48.8599 60.1128 48.899 60.0737C48.9381 60.0346 48.988 60.008 49.0422 59.9972C49.0964 59.9864 49.1526 59.9919 49.2037 60.0131C49.2548 60.0342 49.2985 60.0701 49.3292 60.116C49.3599 60.162 49.3763 60.2161 49.3763 60.2714C49.3763 60.3455 49.3468 60.4166 49.2944 60.469C49.242 60.5215 49.1709 60.5509 49.0967 60.5509ZM51.8924 60.5509C51.8371 60.5509 51.7831 60.5345 51.7371 60.5038C51.6911 60.4731 51.6553 60.4294 51.6341 60.3784C51.613 60.3273 51.6074 60.2711 51.6182 60.2168C51.629 60.1626 51.6556 60.1128 51.6947 60.0737C51.7338 60.0346 51.7836 60.008 51.8379 59.9972C51.8921 59.9864 51.9483 59.9919 51.9994 60.0131C52.0505 60.0342 52.0941 60.0701 52.1249 60.116C52.1556 60.162 52.172 60.2161 52.172 60.2714C52.172 60.3455 52.1425 60.4166 52.0901 60.469C52.0377 60.5215 51.9666 60.5509 51.8924 60.5509ZM44.9032 60.5509C44.8479 60.5509 44.7938 60.5345 44.7479 60.5038C44.7019 60.4731 44.6661 60.4294 44.6449 60.3784C44.6237 60.3273 44.6182 60.2711 44.629 60.2168C44.6398 60.1626 44.6664 60.1128 44.7055 60.0737C44.7446 60.0346 44.7944 60.008 44.8486 59.9972C44.9029 59.9864 44.9591 59.9919 45.0102 60.0131C45.0613 60.0342 45.1049 60.0701 45.1356 60.116C45.1664 60.162 45.1828 60.2161 45.1828 60.2714C45.1828 60.3455 45.1533 60.4166 45.1009 60.469C45.0484 60.5215 44.9773 60.5509 44.9032 60.5509ZM43.5053 60.5509C43.4501 60.5509 43.396 60.5345 43.35 60.5038C43.3041 60.4731 43.2682 60.4294 43.2471 60.3784C43.2259 60.3273 43.2204 60.2711 43.2311 60.2168C43.2419 60.1626 43.2686 60.1128 43.3077 60.0737C43.3468 60.0346 43.3966 60.008 43.4508 59.9972C43.505 59.9864 43.5612 59.9919 43.6123 60.0131C43.6634 60.0342 43.7071 60.0701 43.7378 60.116C43.7685 60.162 43.7849 60.2161 43.7849 60.2714C43.7849 60.3455 43.7555 60.4166 43.703 60.469C43.6506 60.5215 43.5795 60.5509 43.5053 60.5509ZM46.301 60.5509C46.2457 60.5509 46.1917 60.5345 46.1457 60.5038C46.0997 60.4731 46.0639 60.4294 46.0427 60.3784C46.0216 60.3273 46.0161 60.2711 46.0268 60.2168C46.0376 60.1626 46.0643 60.1128 46.1033 60.0737C46.1424 60.0346 46.1923 60.008 46.2465 59.9972C46.3007 59.9864 46.3569 59.9919 46.408 60.0131C46.4591 60.0342 46.5028 60.0701 46.5335 60.116C46.5642 60.162 46.5806 60.2161 46.5806 60.2714C46.5806 60.3455 46.5511 60.4166 46.4987 60.469C46.4463 60.5215 46.3752 60.5509 46.301 60.5509ZM42.1075 60.5509C42.0522 60.5509 41.9982 60.5345 41.9522 60.5038C41.9062 60.4731 41.8704 60.4294 41.8492 60.3784C41.8281 60.3273 41.8225 60.2711 41.8333 60.2168C41.8441 60.1626 41.8707 60.1128 41.9098 60.0737C41.9489 60.0346 41.9987 60.008 42.053 59.9972C42.1072 59.9864 42.1634 59.9919 42.2145 60.0131C42.2656 60.0342 42.3092 60.0701 42.34 60.116C42.3707 60.162 42.3871 60.2161 42.3871 60.2714C42.3871 60.3455 42.3576 60.4166 42.3052 60.469C42.2528 60.5215 42.1816 60.5509 42.1075 60.5509Z" fill="#707070"/>
</svg>
