<svg width="27" height="28" viewBox="0 0 27 28" fill="none" xmlns="http://www.w3.org/2000/svg">
<path d="M26.8312 21.4882C26.7995 21.7044 26.7468 21.9153 26.6677 22.0788C26.5253 22.3688 26.3882 22.3952 25.8503 22.3688C25.1542 22.3372 24.1575 22.3688 23.1028 22.411C23.1028 22.701 23.1134 22.8382 23.1134 22.8382C23.1819 23.6344 23.5405 23.6608 23.6829 23.6608H25.9505C26.1509 23.6608 26.3354 23.6608 26.4778 23.5659C26.6624 23.4446 26.7415 23.0913 26.8101 22.4743C26.8206 22.3846 26.8259 22.2686 26.8312 22.1315V22.1262C26.8312 22.0841 26.8364 22.0313 26.8364 21.9733V21.9153C26.8364 21.7729 26.8364 21.6147 26.8312 21.4882ZM0.158105 21.4882C0.189746 21.7044 0.24248 21.9153 0.321582 22.0788C0.463965 22.3688 0.601074 22.3952 1.13896 22.3688C1.83506 22.3372 2.83174 22.3688 3.88643 22.411C3.88643 22.701 3.87588 22.8382 3.87588 22.8382C3.80732 23.6344 3.44873 23.6608 3.30635 23.6608H1.03877C0.838379 23.6608 0.669629 23.6608 0.511426 23.5659C0.321582 23.4552 0.247754 23.0913 0.179199 22.4743C0.168652 22.3846 0.163379 22.2686 0.158105 22.1315V22.1262C0.158105 22.0841 0.152832 22.0313 0.152832 21.9733V21.9153C0.158105 21.7729 0.158105 21.6147 0.158105 21.4882Z" fill="#707070"/>
<path d="M3.40483 10.7735L3.4397 10.7847L3.22992 11.2869L3.2277 11.2922C3.18816 11.3869 3.14317 11.4946 3.08372 11.5915C3.01291 11.707 2.9307 11.7949 2.82983 11.8776C2.74089 11.9505 2.62924 12.0256 2.50235 12.1098C2.47781 12.1261 2.45207 12.1432 2.42496 12.1611C2.30463 12.2408 2.15744 12.3383 1.97006 12.4664C1.86753 12.5367 1.77177 12.6029 1.68251 12.6653C2.46362 12.6865 3.3237 12.8256 4.64412 13.1968C5.52618 13.4448 6.21355 13.8071 6.6827 14.1095C6.9175 14.2608 7.09854 14.3977 7.22299 14.4988C7.28525 14.5493 7.33346 14.591 7.36727 14.6212C7.38418 14.6363 7.3975 14.6485 7.40719 14.6575L7.41899 14.6687L7.42284 14.6723L7.42425 14.6737L7.42483 14.6743L7.42508 14.6745C7.4252 14.6746 7.42532 14.6747 7.07695 15.0334L7.42532 14.6747L8.27862 15.5035L7.09255 15.5332C7.09251 15.5332 7.09247 15.5332 7.09243 15.5332L7.07641 15.5342C7.0595 15.5355 7.03023 15.5382 6.98925 15.5436C6.90731 15.5544 6.77838 15.576 6.6076 15.6187C6.50859 15.6434 6.44036 15.6718 6.34451 15.7116C6.29374 15.7327 6.23521 15.757 6.16026 15.7857C5.96097 15.8621 5.72165 15.932 5.40244 15.9289M3.40483 10.7735L5.40527 15.4289M3.40483 10.7735C3.44198 10.6807 3.48161 10.5749 3.52332 10.4597C3.52748 10.4975 3.53677 10.5542 3.56096 10.6168C3.56539 10.6282 3.57032 10.6399 3.57581 10.6517L3.40483 10.7735ZM5.40244 15.9289C5.40153 15.9289 5.40063 15.9289 5.39972 15.9289L5.40527 15.4289M5.40244 15.9289C5.40339 15.9289 5.40433 15.9289 5.40527 15.9289V15.4289M5.40244 15.9289C5.12387 15.9285 4.64883 15.8686 4.2487 15.8151C4.14494 15.8012 4.04648 15.7878 3.95519 15.7754C3.65791 15.735 3.43661 15.7049 3.35578 15.7018C3.33843 15.7011 3.29661 15.707 3.20567 15.749C3.17448 15.7634 3.14993 15.7758 3.11999 15.791C3.10319 15.7995 3.08468 15.8089 3.06236 15.82C3.01764 15.8421 2.93321 15.8838 2.8413 15.9076C2.72027 15.939 2.60613 15.9335 2.52437 15.9238C2.4385 15.9136 2.35173 15.894 2.27162 15.8729C2.15328 15.8418 2.01102 15.7968 1.86266 15.7498C1.8165 15.7352 1.76974 15.7204 1.72293 15.7058C1.66246 15.6869 1.61915 15.6754 1.5697 15.6624C1.53552 15.6534 1.49842 15.6436 1.45069 15.6301C1.35574 15.6031 1.22894 15.5631 1.10462 15.4885C0.815717 15.3152 0.666671 15.0372 0.580968 14.6835M5.40527 15.4289C5.11657 15.4289 4.52932 15.3489 4.05184 15.2839C3.74437 15.242 3.48241 15.2063 3.375 15.2021C3.19034 15.195 3.02004 15.2812 2.88501 15.3495C2.81952 15.3826 2.76232 15.4116 2.71582 15.4236C2.59127 15.4559 2.36181 15.3833 2.02391 15.2764C1.97553 15.261 1.92492 15.245 1.87207 15.2285C1.80441 15.2074 1.74123 15.1906 1.68226 15.1749C1.37354 15.0928 1.18035 15.0414 1.06523 14.5588M0.580968 14.6835C0.581074 14.6822 0.58118 14.681 0.581286 14.6798L1.06523 14.5588M0.580968 14.6835C0.53451 15.2275 0.5 15.8692 0.5 16.5152C0.5 17.3135 0.528611 18.0733 0.55748 18.7012C0.565123 18.8674 0.572911 19.0265 0.580207 19.1755C0.599903 19.5777 0.616016 19.9067 0.616016 20.1064C0.616016 20.3243 0.616575 20.6714 0.658774 20.9977M0.580968 14.6835L0.658774 20.9977M1.06523 14.5588L0.581771 14.6741M1.06523 14.5588L0.581771 14.6741M0.581771 14.6741C0.591847 14.5567 0.602475 14.4439 0.613428 14.3367C0.644374 14.0337 0.677523 13.7787 0.707315 13.5922C0.722284 13.4985 0.735732 13.4263 0.746776 13.376C0.747008 13.3749 0.747238 13.3739 0.747464 13.3729C0.749132 13.3713 0.750878 13.3696 0.752706 13.3678C0.797103 13.3255 0.868581 13.2643 0.975492 13.1805C0.983789 13.174 0.992254 13.1674 1.00089 13.1607C0.572647 13.0861 0.572639 13.0861 0.572626 13.0862L0.572597 13.0864L0.57253 13.0868L0.572356 13.0878L0.57186 13.0907L0.570306 13.1L0.565226 13.132C0.561072 13.1589 0.555503 13.197 0.549388 13.244C0.548877 13.2479 0.548362 13.2519 0.547844 13.256C0.547577 13.2581 0.54731 13.2602 0.547041 13.2623C0.535367 13.3544 0.522004 13.4783 0.512881 13.6195C0.494188 13.9089 0.489853 14.3167 0.579493 14.6774L0.581771 14.6741ZM0.658774 20.9977C0.688404 21.1986 0.726483 21.3408 0.771264 21.4275L0.775878 21.4365L0.775787 21.4365C0.778464 21.442 0.780953 21.4469 0.783253 21.4513C0.794533 21.4523 0.808509 21.4532 0.825599 21.4538C0.893808 21.4563 0.985754 21.454 1.12009 21.4475L1.12163 21.4474C1.84284 21.4146 2.8717 21.4474 3.90614 21.4894C4.60183 21.5158 5.30983 21.542 5.93838 21.5577C6.71329 21.5732 6.9163 21.5129 6.99249 21.4851C7.01353 21.4774 7.02977 21.4704 7.05794 21.4583C7.06365 21.4559 7.06986 21.4532 7.07669 21.4503C7.11414 21.4342 7.16827 21.4115 7.23476 21.3917C7.37532 21.3497 7.52744 21.3331 7.72812 21.3362C7.92083 21.3392 8.2586 21.3497 8.69768 21.3633C9.85823 21.3994 11.7266 21.4574 13.4947 21.4574C15.2664 21.4574 17.1419 21.3991 18.3014 21.3631C18.7368 21.3496 19.0712 21.3392 19.2613 21.3362L19.2613 21.3362C19.462 21.3331 19.6141 21.3497 19.7547 21.3917C19.8212 21.4115 19.8753 21.4342 19.9128 21.4503C19.9196 21.4532 19.9258 21.4559 19.9315 21.4583C19.9597 21.4704 19.9759 21.4774 19.997 21.4851C20.0732 21.5129 20.2763 21.5732 21.0521 21.5577L21.0538 21.5577C21.5503 21.5494 22.0955 21.528 22.6498 21.5063C22.7942 21.5006 22.9391 21.4949 23.084 21.4894L23.0852 21.4894L23.1536 21.4869C24.1603 21.4511 25.1677 21.4153 25.868 21.4474L25.8694 21.4475C26.0037 21.454 26.0956 21.4563 26.1639 21.4538C26.1809 21.4532 26.1949 21.4523 26.2062 21.4513C26.2083 21.4472 26.2106 21.4427 26.2131 21.4377C26.2606 21.3388 26.3033 21.1847 26.3311 20.9945L0.658774 20.9977ZM23.4911 10.4993C23.4856 10.5331 23.4764 10.5731 23.4606 10.6152C23.4605 10.6155 23.4604 10.6159 23.4603 10.6162C23.4602 10.6167 23.4487 10.6677 23.432 10.7136C23.4112 10.7709 23.3733 10.8511 23.3003 10.9272C23.2274 11.0033 23.1441 11.0498 23.0681 11.0781C22.9371 11.1269 22.7937 11.1335 22.6774 11.1338C22.5473 11.1341 22.379 11.1248 22.1627 11.1075M23.4911 10.4993L22.1627 11.1075M23.4911 10.4993C23.5268 10.5973 23.561 10.6879 23.5933 10.7687M23.4911 10.4993L23.5933 10.7687M22.1627 11.1075C22.1622 11.1075 22.1617 11.1074 22.1612 11.1074L22.2012 10.609M22.1627 11.1075C22.1631 11.1075 22.1636 11.1076 22.164 11.1076L22.2012 10.609M22.2012 10.609C22.9329 10.6677 22.945 10.6181 22.9732 10.5033C22.9779 10.484 22.9831 10.4629 22.9922 10.4402C23.0555 10.282 22.718 9.12187 22.4648 8.53125C22.2117 7.94062 21.5578 6.87012 21.0832 6.54316L22.2012 10.609ZM23.5933 10.7687L23.5638 10.7778L23.768 11.2819L23.769 11.2842C23.8079 11.3803 23.8525 11.4905 23.9133 11.5902C23.9846 11.7073 24.0679 11.7958 24.1691 11.8784C24.2583 11.9512 24.3706 12.0262 24.4975 12.1102C24.5192 12.1246 24.5418 12.1395 24.5655 12.1552C24.6877 12.2359 24.8381 12.3352 25.0303 12.4667L25.0313 12.4674C25.1397 12.5411 25.2404 12.6103 25.3339 12.6754C24.5486 12.6951 23.6859 12.8334 22.3568 13.2071C21.4715 13.4525 20.7836 13.8151 20.3146 14.1186C20.0798 14.2705 19.899 14.4081 19.7747 14.5098C19.7125 14.5607 19.6644 14.6027 19.6307 14.6332C19.6138 14.6484 19.6005 14.6608 19.5908 14.6699L19.579 14.6811L19.5751 14.6849L19.5737 14.6863L19.5731 14.6868L19.5728 14.6871C19.5727 14.6872 19.5726 14.6873 19.923 15.0439L19.5726 14.6873L18.7008 15.544L19.919 15.5439L19.9331 15.5446C19.949 15.5455 19.9773 15.5476 20.0172 15.5523C20.097 15.5618 20.2237 15.5818 20.3924 15.6239C20.4927 15.649 20.5626 15.6776 20.6596 15.7174C20.7101 15.7381 20.768 15.7619 20.8414 15.7897C21.0399 15.8649 21.2774 15.9342 21.5947 15.9342C21.8729 15.9342 22.3498 15.874 22.7513 15.8203C22.8551 15.8065 22.9535 15.7931 23.0448 15.7807C23.3347 15.7412 23.5523 15.7117 23.6379 15.7073C23.6601 15.7078 23.705 15.7169 23.7943 15.7582C23.826 15.7729 23.8466 15.7832 23.8711 15.7954C23.8902 15.805 23.9117 15.8158 23.9427 15.8307C23.9892 15.853 24.0776 15.8952 24.1757 15.917C24.379 15.9622 24.5948 15.9107 24.7263 15.8768C24.8564 15.8432 25.0124 15.7941 25.177 15.7424C25.2101 15.732 25.2435 15.7215 25.2771 15.711C25.3384 15.6919 25.3794 15.6809 25.4256 15.6686C25.4607 15.6592 25.4989 15.649 25.5514 15.6338C25.6468 15.6061 25.7726 15.5653 25.8959 15.4903C26.1821 15.3163 26.331 15.0396 26.4194 14.6872C26.4656 15.2304 26.5 15.8707 26.5 16.5152C26.5 17.6306 26.4468 18.6201 26.4091 19.3205C26.3915 19.6477 26.3773 19.9118 26.3735 20.0961L26.3734 20.0961V20.1064C26.3734 20.1233 26.3735 20.1407 26.3735 20.1587C26.3738 20.3835 26.3742 20.6969 26.3312 20.9938L23.5933 10.7687ZM6.66495 17.1908C6.40811 17.4637 6.28365 17.7877 6.29923 18.1256C6.31413 18.4487 6.45432 18.7325 6.62752 18.9553C6.9643 19.3884 7.52334 19.7169 8.04602 19.7849L8.0481 19.7851L18.954 19.7849C18.9542 19.7849 18.9544 19.7848 18.9546 19.7848C19.4771 19.7166 20.0358 19.3882 20.3725 18.9553C20.5457 18.7325 20.6859 18.4487 20.7008 18.1256C20.7164 17.7874 20.5917 17.4631 20.3344 17.1901L19.9705 17.533L20.3355 17.1912C20.2747 17.1264 20.2169 17.0635 20.1612 17.0029C19.8298 16.6426 19.5701 16.3602 19.1796 16.1859C18.9535 16.0849 18.6988 16.0236 18.3892 15.9702C18.0943 15.9193 17.7174 15.8706 17.2285 15.8073L17.1554 15.7979L17.1539 15.7977C15.2918 15.5623 13.8723 15.5459 13.5 15.5459C13.1238 15.5459 11.7086 15.5569 9.84467 15.7979L9.84465 15.7979L9.77145 15.8073C9.28257 15.8706 8.90568 15.9193 8.61075 15.9702C8.30116 16.0236 8.04653 16.0849 7.82038 16.1859C7.42987 16.3602 7.17017 16.6426 6.8388 17.0029C6.78319 17.0634 6.72555 17.1261 6.66495 17.1908ZM6.66495 17.1908C6.66517 17.1906 6.6654 17.1903 6.66562 17.1901L7.02949 17.533M6.66495 17.1908C6.66481 17.1909 6.66468 17.1911 6.66454 17.1912L7.02949 17.533M7.02949 17.533C6.33867 18.266 7.34063 19.1889 8.11055 19.2891L13.5 16.0459C13.1361 16.0459 11.7439 16.0564 9.90879 16.2937C8.66497 16.4546 8.21084 16.5102 7.85939 16.73C7.61185 16.8848 7.41524 17.1211 7.02949 17.533ZM1.99325 10.5333C1.95222 10.5539 1.92334 10.5726 1.90915 10.5817C1.90512 10.5843 1.90227 10.5862 1.90067 10.5871C1.8817 10.5977 1.87337 10.6011 1.86223 10.6042C1.84917 10.6079 1.81621 10.6152 1.75078 10.6152C1.57484 10.6152 1.27342 10.5907 0.995556 10.5438C0.857277 10.5204 0.73808 10.4937 0.65026 10.4664C0.608845 10.4536 0.584623 10.4436 0.572874 10.4385C0.5457 10.4119 0.525512 10.3916 0.509694 10.3748C0.510588 10.3696 0.511662 10.3639 0.512953 10.3575C0.519831 10.3235 0.530885 10.2825 0.546287 10.2392C0.572998 10.164 0.604762 10.1041 0.632747 10.065C0.642985 10.0602 0.658817 10.0534 0.681635 10.045C0.753368 10.0188 0.85349 9.99191 0.977616 9.96581C1.19528 9.92005 1.43823 9.88612 1.65172 9.85631C1.68233 9.85204 1.71234 9.84785 1.74157 9.84372C1.82759 9.83158 1.88971 9.82583 1.9344 9.8237C1.94859 9.89927 1.96061 9.99416 1.96996 10.0986C1.9814 10.2261 1.98757 10.3525 1.99084 10.4481C1.99196 10.4809 1.99273 10.5098 1.99325 10.5333ZM19.9184 15.5439C19.9177 15.5439 19.9178 15.5439 19.9186 15.5439L19.9184 15.5439ZM25.0909 10.5817C25.0767 10.5726 25.048 10.554 25.0071 10.5335C25.0077 10.5103 25.0086 10.4821 25.0098 10.4501C25.0135 10.3543 25.0201 10.2277 25.0319 10.0998C25.0414 9.99627 25.0534 9.90176 25.0675 9.82588C25.1136 9.82783 25.177 9.83321 25.2641 9.8445C25.4913 9.87389 25.7746 9.91113 26.0212 9.96359C26.1449 9.98989 26.245 10.0171 26.3167 10.0437C26.3403 10.0524 26.3565 10.0595 26.3668 10.0644C26.3949 10.1035 26.4269 10.1636 26.4537 10.2392C26.4691 10.2825 26.4802 10.3235 26.487 10.3575C26.4882 10.3631 26.4892 10.3683 26.49 10.3731C26.4736 10.3907 26.4532 10.4116 26.4258 10.439C26.4137 10.4443 26.3897 10.454 26.3497 10.4664C26.2619 10.4937 26.1427 10.5204 26.0044 10.5438C25.7266 10.5907 25.4252 10.6152 25.2492 10.6152C25.1838 10.6152 25.1508 10.6079 25.1378 10.6042C25.1266 10.6011 25.1183 10.5977 25.0993 10.5871C25.0977 10.5862 25.0949 10.5843 25.0909 10.5817ZM24.9669 9.84579L24.9692 9.84429C24.9684 9.84479 24.9677 9.84529 24.9669 9.84579Z" stroke="#707070"/>
</svg>
