<svg width="12" height="8" viewBox="0 0 12 8" fill="none" xmlns="http://www.w3.org/2000/svg">
<path d="M6.0208 7.5625C5.87381 7.4125 5.72981 7.26251 5.58381 7.11951L2.11781 3.65149L0.401802 1.93848C0.186844 1.73187 0.062769 1.44836 0.0568616 1.15027C0.0509542 0.85218 0.163704 0.563957 0.370308 0.348999C0.576911 0.134041 0.860442 0.00993586 1.15853 0.00402832C1.45662 -0.00187922 1.74484 0.110901 1.9598 0.317505L4.5868 2.94446L5.80981 4.16443C5.83487 4.19873 5.86768 4.22661 5.90556 4.24585C5.94344 4.26509 5.98532 4.27515 6.02781 4.27515C6.07029 4.27515 6.11217 4.26509 6.15005 4.24585C6.18793 4.22661 6.22075 4.19873 6.24581 4.16443L8.5828 1.82751C9.0768 1.33351 9.57114 0.839769 10.0658 0.346436C10.2721 0.14057 10.5504 0.0230374 10.8418 0.0185547C11.1332 0.0140719 11.4149 0.122965 11.6275 0.322388C11.84 0.521811 11.9667 0.796052 11.9807 1.08716C11.9948 1.37826 11.8951 1.66347 11.7028 1.88245C11.2878 2.30745 10.8638 2.72441 10.4438 3.14441L7.6688 5.91943L6.08381 7.50452C6.06781 7.51952 6.0478 7.5385 6.0208 7.5625Z" fill="black"/>
</svg>
