<svg xmlns="http://www.w3.org/2000/svg" width="26" height="26" viewBox="0 0 26 26" fill="none">
  <path d="M19.5 9.25H19V9.75V13.8119C18.9987 14.972 18.5373 16.0842 17.717 16.9045C16.8967 17.7248 15.7845 18.1862 14.6244 18.1875H8.93807C7.77801 18.1862 6.66583 17.7248 5.84554 16.9045C5.0253 16.0842 4.56388 14.9721 4.5625 13.8121C4.5625 13.8121 4.5625 13.812 4.5625 13.8119L4.5625 4.0625C4.5625 3.97962 4.59542 3.90013 4.65403 3.84153C4.71263 3.78292 4.79212 3.75 4.875 3.75H21.9375C22.2359 3.75 22.522 3.86853 22.733 4.0795C22.944 4.29048 23.0625 4.57663 23.0625 4.875V6.601C23.0617 7.30331 22.7824 7.97664 22.2858 8.47325C21.7892 8.96977 21.1161 9.2491 20.4139 9.25C20.4138 9.25 20.4136 9.25 20.4135 9.25L19.5 9.25ZM19 8.125V8.625H19.5H20.4141C20.9507 8.625 21.4654 8.41182 21.8448 8.03235C22.2243 7.65288 22.4375 7.13821 22.4375 6.60156V4.875V4.375H21.9375H19.5H19V4.875V8.125ZM20.5335 20.904L20.887 20.5505L20.5335 20.904C20.5921 20.9626 20.625 21.0421 20.625 21.125C20.625 21.2079 20.5921 21.2874 20.5335 21.346L20.887 21.6995L20.5335 21.346C20.4749 21.4046 20.3954 21.4375 20.3125 21.4375H3.25C3.16712 21.4375 3.08763 21.4046 3.02903 21.346C2.97042 21.2874 2.9375 21.2079 2.9375 21.125C2.9375 21.0421 2.97042 20.9626 3.02903 20.904C3.08763 20.8454 3.16712 20.8125 3.25 20.8125H20.3125C20.3954 20.8125 20.4749 20.8454 20.5335 20.904Z" stroke="#707070"/>
</svg>