<svg width="16" height="16" viewBox="0 0 16 16" fill="none" xmlns="http://www.w3.org/2000/svg">
<g id="Group 1">
<path id="Vector" d="M2.44922 2.96436L14.0359 14.746" stroke="#6A6A6A" stroke-width="1.21881" stroke-linecap="round" stroke-linejoin="round"/>
<path id="Vector_2" d="M3.67599 1.4917L6.24064 4.09934C6.59462 4.46075 6.79337 4.95003 6.79337 5.46008C6.79337 5.97013 6.59462 6.45941 6.24064 6.82082C5.88522 7.18055 5.40414 7.3825 4.90264 7.3825C4.40115 7.3825 3.92007 7.18055 3.56465 6.82082L1 4.21318" stroke="#6A6A6A" stroke-width="1.21881" stroke-linecap="round" stroke-linejoin="round"/>
<path id="Vector_3" d="M9.69128 6.8916L1.9668 14.746" stroke="#6A6A6A" stroke-width="1.21881" stroke-linecap="round" stroke-linejoin="round"/>
<path id="Vector_4" d="M10.6005 2.74575L9.86757 3.49106C9.05727 4.31499 9.05718 5.65074 9.86736 6.47456C10.6776 7.29837 11.9912 7.29828 12.8015 6.47435L13.5345 5.72904C14.3448 4.90512 14.3449 3.56936 13.5347 2.74555C12.7245 1.92173 11.4108 1.92182 10.6005 2.74575Z" stroke="#6A6A6A" stroke-width="1.21881" stroke-linecap="round" stroke-linejoin="round"/>
</g>
</svg>
