<svg width="44" height="44" viewBox="0 0 44 44" fill="none" xmlns="http://www.w3.org/2000/svg">
<rect width="44" height="44" rx="8" fill="#EDF1F3"/>
<g clip-path="url(#clip0_2567_76764)">
<path d="M27 27.105V10C27 7.238 24.762 5 22 5C19.238 5 17 7.238 17 10V27.105C15.764 28.368 15 30.094 15 32C15 35.866 18.134 39 22 39C25.866 39 29 35.866 29 32C29 30.094 28.236 28.368 27 27.105ZM22 37C19.243 37 17 34.757 17 32C17 30.687 17.508 29.446 18.429 28.505L19 27.922V27.106V10C19 8.346 20.346 7 22 7C23.654 7 25 8.346 25 10V27.105V27.921L25.571 28.504C26.492 29.446 27 30.688 27 32C27 34.757 24.757 37 22 37Z" fill="#222222"/>
<path d="M23.0002 29.176V14H21.0002V29.176C19.8332 29.589 18.9922 30.691 18.9922 32C18.9922 33.662 20.3392 35.008 22.0002 35.008C23.6622 35.008 25.0082 33.662 25.0082 32C25.0082 30.691 24.1682 29.589 23.0002 29.176ZM22.0002 33.008C21.4442 33.008 20.9922 32.556 20.9922 32C20.9922 31.444 21.4442 30.992 22.0002 30.992C22.5562 30.992 23.0082 31.444 23.0082 32C23.0082 32.556 22.5562 33.008 22.0002 33.008Z" fill="#222222"/>
</g>
<defs>
<clipPath id="clip0_2567_76764">
<rect width="14" height="34" fill="white" transform="translate(15 5)"/>
</clipPath>
</defs>
</svg>
