<svg width="44" height="44" viewBox="0 0 44 44" fill="none" xmlns="http://www.w3.org/2000/svg">
<rect width="44" height="44" rx="8" fill="#EDF1F3"/>
<g clip-path="url(#clip0_2567_78058)">
<path d="M25.4072 30.4868L21.5112 24.7266L20.584 25.3987L24.48 31.1589L25.1095 32.09L27.077 34.9988L28.0042 34.3273L26.0372 31.4179L25.4072 30.4868Z" fill="#222222"/>
<path d="M29.9371 30.4856L26.0405 24.7266L25.1133 25.3993L29.011 31.1583L29.5799 31.9998L31.6086 34.9971L32.5357 34.3255L30.5071 31.3276L29.9371 30.4856Z" fill="#222222"/>
<path d="M20.8798 30.4868L16.9838 24.7266L16.0566 25.3993L19.9527 31.1589L20.6229 32.1509L22.5502 34.9994L23.4768 34.3273L21.5506 31.4782L20.8798 30.4868Z" fill="#222222"/>
<path d="M31.6951 16.6348C30.7917 12.2721 27.0496 9 22.5666 9C18.9309 9 15.7872 11.1552 14.2447 14.2943C14.0942 14.2838 13.9447 14.2709 13.7919 14.2709C10.0408 14.2709 7 17.4188 7 21.3027C7 25.1743 10.0226 28.3139 13.7574 28.3333V28.335H14.9245V27.1631H14.0166L13.7636 27.1613C10.6583 27.1455 8.13208 24.5168 8.13208 21.3027C8.13208 18.0716 10.6708 15.4429 13.7919 15.4429C13.8909 15.4429 13.9883 15.4511 14.0862 15.4575L14.17 15.4634L14.9149 15.5149L15.2534 14.8258C16.664 11.9551 19.4664 10.172 22.5666 10.172C26.41 10.172 29.7836 12.9929 30.5885 16.8803L30.7679 17.7487L31.6249 17.8044C34.004 17.9579 35.8679 20.0094 35.8679 22.4752C35.8679 25.0518 33.85 27.1496 31.364 27.1631C31.3357 27.1613 31.3113 27.1602 31.2864 27.159L30.696 27.1631H30.7736V28.335H31.2621V28.3309C31.2881 28.3315 31.3136 28.335 31.3396 28.335C34.4647 28.335 37 25.7116 37 22.4752C37 19.3637 34.6538 16.8252 31.6951 16.6348Z" fill="#222222"/>
</g>
<defs>
<clipPath id="clip0_2567_78058">
<rect width="30" height="26" fill="white" transform="translate(7 9)"/>
</clipPath>
</defs>
</svg>
