<svg width="44" height="44" viewBox="0 0 44 44" fill="none" xmlns="http://www.w3.org/2000/svg">
<rect width="44" height="44" rx="8" fill="#EDF1F3"/>
<g clip-path="url(#clip0_2567_78845)">
<path d="M31.6951 17.465C30.7917 12.628 27.0496 9 22.5666 9C18.9309 9 15.7872 11.3896 14.2447 14.8701C14.0942 14.8584 13.9447 14.8441 13.7919 14.8441C10.0408 14.8441 7 18.3343 7 22.6406C7 26.9332 10.0226 30.4144 13.7574 30.4358V30.4378H14.9245V29.1383H14.0166L13.7636 29.1364C10.6583 29.1188 8.13208 26.2043 8.13208 22.6406C8.13208 19.0581 10.6708 16.1435 13.7919 16.1435C13.8909 16.1435 13.9883 16.1526 14.0862 16.1598L14.17 16.1663L14.9149 16.2234L15.2534 15.4594C16.664 12.2765 19.4664 10.2994 22.5666 10.2994C26.41 10.2994 29.7836 13.4271 30.5885 17.7373L30.7679 18.7001L31.6249 18.7619C34.004 18.9321 35.8679 21.2067 35.8679 23.9407C35.8679 26.7974 33.85 29.1234 31.364 29.1383C31.3357 29.1364 31.3113 29.1351 31.2864 29.1338L30.13 29.1383H28.5094V30.4378H31.2621V30.4332C31.2881 30.4339 31.3136 30.4378 31.3396 30.4378C34.4647 30.4378 37 27.529 37 23.9407C37 20.4907 34.6538 17.6762 31.6951 17.465Z" fill="#222222"/>
<path d="M17.4721 27.2382C17.941 27.2382 18.3212 26.8019 18.3212 26.2636C18.3212 25.7254 17.941 25.2891 17.4721 25.2891C17.0032 25.2891 16.623 25.7254 16.623 26.2636C16.623 26.8019 17.0032 27.2382 17.4721 27.2382Z" fill="#222222"/>
<path d="M19.7358 31.0819C20.2047 31.0819 20.5848 30.6456 20.5848 30.1074C20.5848 29.5691 20.2047 29.1328 19.7358 29.1328C19.2669 29.1328 18.8867 29.5691 18.8867 30.1074C18.8867 30.6456 19.2669 31.0819 19.7358 31.0819Z" fill="#222222"/>
<path d="M24.2651 31.0819C24.734 31.0819 25.1141 30.6456 25.1141 30.1074C25.1141 29.5691 24.734 29.1328 24.2651 29.1328C23.7962 29.1328 23.416 29.5691 23.416 30.1074C23.416 30.6456 23.7962 31.0819 24.2651 31.0819Z" fill="#222222"/>
<path d="M21.9994 27.2382C22.4684 27.2382 22.8485 26.8019 22.8485 26.2636C22.8485 25.7254 22.4684 25.2891 21.9994 25.2891C21.5305 25.2891 21.1504 25.7254 21.1504 26.2636C21.1504 26.8019 21.5305 27.2382 21.9994 27.2382Z" fill="#222222"/>
<path d="M26.5287 27.2382C26.9977 27.2382 27.3778 26.8019 27.3778 26.2636C27.3778 25.7254 26.9977 25.2891 26.5287 25.2891C26.0598 25.2891 25.6797 25.7254 25.6797 26.2636C25.6797 26.8019 26.0598 27.2382 26.5287 27.2382Z" fill="#222222"/>
<path d="M17.4721 34.996C17.941 34.996 18.3212 34.5597 18.3212 34.0214C18.3212 33.4832 17.941 33.0469 17.4721 33.0469C17.0032 33.0469 16.623 33.4832 16.623 34.0214C16.623 34.5597 17.0032 34.996 17.4721 34.996Z" fill="#222222"/>
<path d="M21.9994 34.996C22.4684 34.996 22.8485 34.5597 22.8485 34.0214C22.8485 33.4832 22.4684 33.0469 21.9994 33.0469C21.5305 33.0469 21.1504 33.4832 21.1504 34.0214C21.1504 34.5597 21.5305 34.996 21.9994 34.996Z" fill="#222222"/>
<path d="M26.5287 34.996C26.9977 34.996 27.3778 34.5597 27.3778 34.0214C27.3778 33.4832 26.9977 33.0469 26.5287 33.0469C26.0598 33.0469 25.6797 33.4832 25.6797 34.0214C25.6797 34.5597 26.0598 34.996 26.5287 34.996Z" fill="#222222"/>
</g>
<defs>
<clipPath id="clip0_2567_78845">
<rect width="30" height="26" fill="white" transform="translate(7 9)"/>
</clipPath>
</defs>
</svg>
