<svg width="45" height="44" viewBox="0 0 45 44" fill="none" xmlns="http://www.w3.org/2000/svg">
<path d="M22.6667 41.25C33.2981 41.25 41.9167 32.6313 41.9167 22C41.9167 11.3685 33.2981 2.75 22.6667 2.75C12.0352 2.75 3.41675 11.3685 3.41675 22C3.41675 32.6313 12.0352 41.25 22.6667 41.25Z" stroke="black" stroke-width="2.75" stroke-miterlimit="10" stroke-linecap="round" stroke-linejoin="round"/>
<path d="M22.6659 21.9784C25.5447 21.9784 27.8787 19.6444 27.8787 16.7655C27.8787 13.8866 25.5447 11.5527 22.6659 11.5527C19.7869 11.5527 17.4531 13.8866 17.4531 16.7655C17.4531 19.6444 19.7869 21.9784 22.6659 21.9784Z" stroke="black" stroke-width="2.75" stroke-miterlimit="10" stroke-linecap="round" stroke-linejoin="round"/>
<path d="M31.4026 30.088C30.2613 26.3485 26.7266 23.5449 22.6662 23.5449C18.6057 23.5449 15.071 26.3485 13.9297 30.088" stroke="black" stroke-width="2.75" stroke-miterlimit="10" stroke-linecap="round" stroke-linejoin="round"/>
</svg>
