<svg width="80" height="80" viewBox="0 0 80 80" fill="none" xmlns="http://www.w3.org/2000/svg">
<path d="M33.849 3.5293L26.6663 6.97012L22.0212 5.6368C16.6019 4.04542 16.1718 4.04542 13.5912 5.16369C10.8386 6.32496 10.9246 7.44323 13.9783 9.67976C15.2686 10.626 16.3439 11.4862 16.3439 11.6152C16.3439 11.9163 10.9246 14.6259 10.3224 14.6259C10.1074 14.6259 9.03214 13.4647 7.95688 12.0883C6.83862 10.669 5.67734 9.4217 5.33326 9.29267C4.98918 9.16364 3.65587 9.46471 2.36556 9.93782C0.387092 10.669 0 10.9701 0 11.8733C0 13.5507 4.86015 23.357 6.23648 24.4322C6.88163 24.9484 8.21494 25.5935 9.20418 25.8516C10.7956 26.2817 11.3977 26.1957 16.0858 24.5613C18.9245 23.6151 21.29 22.8409 21.333 22.9269C21.3761 22.9699 20.9029 25.0344 20.3438 27.443C19.6557 30.2816 19.3976 32.0451 19.6557 32.3031C20.2148 32.8622 24.8169 31.1848 26.1072 30.0236C26.6233 29.5505 28.7308 26.5828 30.8383 23.443L34.6232 17.7227L41.0747 14.884C47.3972 12.1313 56.2573 7.44323 57.7627 6.15292C58.1498 5.76583 58.4938 4.86262 58.4938 4.04542C58.4938 2.02394 57.5046 1.63685 53.2036 1.98093C49.9348 2.239 49.5477 2.15298 47.7413 1.12073C46.279 0.303539 45.2037 0.00246811 43.4403 0.00246811C41.3758 0.0454788 40.1715 0.475578 33.849 3.5293ZM45.3757 3.18522C47.2252 3.9594 47.2682 4.38951 45.5048 5.33573C44.3865 5.93787 43.8274 5.98088 42.9242 5.6368C41.4618 5.07767 41.4188 4.47552 42.7091 3.40027C43.8704 2.45405 43.6123 2.45405 45.3757 3.18522ZM39.2683 5.76583C39.4403 6.15292 38.8812 6.62603 37.7629 7.14216C36.3006 7.78731 35.9995 7.83032 35.6985 7.27119C35.3974 6.84109 35.6554 6.497 36.6877 5.93787C38.3651 5.03466 38.9672 4.99165 39.2683 5.76583ZM33.2899 8.38945C33.4619 8.81955 32.9888 9.29267 31.8705 9.89481C30.9673 10.3249 30.1071 10.583 29.9351 10.4539C29.3329 9.8518 29.763 9.16364 31.0964 8.47547C32.8598 7.61527 32.9888 7.61527 33.2899 8.38945ZM27.3975 11.4862C27.6125 12.0453 24.6448 13.4647 24.0427 13.0776C23.3545 12.6475 23.6126 12.0883 24.8599 11.4432C26.1932 10.712 27.1394 10.712 27.3975 11.4862ZM21.5051 14.6689C21.5051 15.056 18.1503 16.3033 17.8922 16.0023C17.2471 15.4001 17.7632 14.6689 19.2686 14.0668C20.7739 13.4647 21.4621 13.6367 21.5051 14.6689ZM15.3976 17.1205C15.5697 17.7227 12.645 19.099 12.0429 18.7119C11.2687 18.2388 11.6127 17.5936 13.0321 16.9915C14.5374 16.3033 15.1396 16.3463 15.3976 17.1205Z" fill="#A6A6A6"/>
<path d="M41.5915 18.3234C36.8604 19.4417 35.054 20.5169 33.3336 23.0975C32.4734 24.3878 31.8712 25.5491 32.0003 25.6781C32.1293 25.8072 32.7745 25.5061 33.5056 24.99C35.3551 23.6567 39.0539 22.1083 42.1937 21.2911C45.3764 20.4739 51.828 20.3879 54.7527 21.1191C56.9892 21.6782 57.2472 22.0653 55.8279 22.8395C54.9247 23.3126 54.0215 23.3126 44.6023 22.5384C41.4625 22.2373 41.2044 22.3233 40.1722 23.2696C39.355 24.0007 38.5808 24.3018 37.2905 24.3018C35.6991 24.3018 35.3981 24.4739 34.1938 26.1082C33.2906 27.3555 32.3874 28.0437 31.0971 28.4308C30.0218 28.7749 29.0756 29.42 28.7745 29.9792C28.1294 31.1834 25.5057 33.2479 24.5595 33.334C24.1724 33.377 23.1402 33.635 22.28 33.9361C20.8606 34.4092 20.6026 34.7103 19.6133 37.549C17.9789 42.065 17.6779 44.0005 17.6349 48.8606C17.5919 66.3658 31.2691 80 48.8173 80C66.4084 80 79.9996 66.4088 79.9996 48.8176C79.9996 34.2802 70.4944 22.0653 56.4301 18.4524C52.5591 17.4632 45.3764 17.3772 41.5915 18.3234ZM63.9998 33.721C64.645 34.0651 65.6342 34.8393 66.2364 35.4845C67.5267 36.8608 69.2901 37.85 70.4944 37.85C70.9675 37.85 71.5696 38.2371 71.8277 38.7102C72.4298 39.7855 73.5481 39.8285 73.8492 38.7532C74.1933 37.3339 75.2255 38.2371 75.9137 40.5597C76.7309 43.3553 76.7739 44.7747 75.9567 44.4736C75.5696 44.3446 75.1395 44.6456 74.7954 45.2478C74.5373 45.8069 74.0212 46.409 73.7201 46.5811C73.075 46.9682 72.903 48.6026 73.4621 48.6026C73.6341 48.6026 74.0212 48.3875 74.2793 48.1295C75.4406 46.9682 75.3975 55.9143 74.1933 58.796C72.946 61.7207 70.3223 63.7422 69.4621 62.3658C69.3331 62.1078 68.731 61.9357 68.1288 61.9357C66.3654 61.9357 66.9675 60.8605 69.6772 59.1831C72.1288 57.6777 73.5481 55.9143 73.5481 54.4089C73.5481 53.3767 72.989 53.6348 71.2686 55.3982C69.9783 56.7315 69.4191 57.0326 68.4299 56.8605C67.5267 56.7315 66.8385 57.0326 65.7633 57.9788C64.9461 58.667 63.4407 59.6562 62.4515 60.1293L60.559 61.0325L60.8171 60.0003C60.9891 59.3981 60.9031 58.925 60.6881 58.925C60.473 58.925 59.9569 58.6239 59.6128 58.2368C59.0967 57.7207 59.0107 57.3766 59.3978 56.7315C59.9139 55.7423 59.5698 54.4089 58.9246 54.839C58.6666 55.0111 58.1935 54.452 57.8494 53.6348C57.4193 52.6025 56.9032 52.0864 56.043 51.9144C55.1397 51.7423 54.7096 51.3122 54.4086 50.237C54.0645 49.0757 53.7204 48.7746 52.4731 48.5596C51.6129 48.4305 50.7097 48.1725 50.4086 48.0004C49.6344 47.5273 50.2796 46.7961 51.1828 47.0972C52.6021 47.5273 53.7634 46.5811 53.7204 45.0327C53.6774 44.2585 53.7634 43.0543 53.9785 42.3231C54.2365 41.1618 54.1075 40.8607 53.0753 40.0435C52.086 39.2694 51.3979 39.0973 49.6775 39.2263C47.742 39.3554 47.5269 39.2694 47.3979 38.4092C47.3119 37.807 47.57 37.2909 48.2581 36.9468C48.8173 36.6457 49.5054 36.0436 49.8495 35.5705C50.3226 34.9253 50.7527 34.7963 52.2151 35.0114C53.5914 35.1834 54.4516 35.0114 56.129 34.1942C58.5806 32.9899 62.1504 32.7748 63.9998 33.721ZM22.28 45.1618C23.1832 46.366 26.0649 48.1725 27.0971 48.1725C27.3122 48.1725 27.5272 47.9144 27.5272 47.5703C27.5272 46.8822 32.6024 44.0005 33.3336 44.2155C33.5486 44.3016 34.2368 44.4306 34.8389 44.4736C35.6131 44.5596 36.1292 45.0757 36.6884 46.151C37.2475 47.3553 37.6776 47.7424 38.4948 47.7424C40.5593 47.7424 41.5915 50.9681 40.1722 53.1186C39.7851 53.7208 39.5701 54.667 39.6991 55.3122C39.8281 56.1294 39.6131 56.5595 38.7529 57.1186C38.1507 57.5057 37.5486 57.8498 37.4626 57.9358C37.3765 57.9788 37.1615 58.753 37.0325 59.6562C36.8174 60.9465 36.5593 61.2906 35.4841 61.5916C33.8927 61.9787 33.1185 63.011 33.1185 64.6454C33.1185 65.2905 32.9035 66.2367 32.6884 66.7099C32.2583 67.484 32.1293 67.484 30.925 66.8389C28.6455 65.6776 26.1939 63.14 24.9466 60.6884C24.3014 59.3551 23.3552 57.8928 22.8391 57.4627C22.237 56.9465 21.9359 56.1294 21.9359 55.1831C21.9359 54.3659 21.7208 53.2907 21.4628 52.8176C21.1617 52.3014 20.9467 51.0972 20.9036 50.1509C20.8606 49.1617 20.7746 48.1725 20.6886 47.9574C20.3875 47.0972 20.6456 43.8714 20.9897 43.8714C21.2047 43.8714 21.7638 44.4306 22.28 45.1618ZM67.9568 69.7206C65.2901 72.0861 60.9891 74.5807 57.6343 75.742C52.7742 77.4194 40.3873 77.2904 40.9894 75.57C41.3335 74.4517 43.441 74.2796 49.6775 74.8388L55.9569 75.3979L57.3333 74.3657C58.2365 73.6775 59.2687 73.3334 60.43 73.3334C61.8923 73.3334 62.2794 73.1184 63.4407 71.57C64.1289 70.6238 65.2041 69.6345 65.8063 69.3765C67.0966 68.8604 69.3761 68.0432 69.6772 68.0002C69.8062 68.0002 69.032 68.7743 67.9568 69.7206Z" fill="#ED885C"/>
<path d="M7.09586 31.1843C2.92387 36.6896 2.75183 37.2917 5.11739 37.6788C6.8378 37.9369 6.88081 37.9799 6.66576 39.5282C5.1604 51.7431 7.61198 61.0763 14.3216 68.6461C16.5151 71.0977 20.472 74.1084 23.5688 75.6568C26.1494 76.9471 25.8053 76.1299 22.9666 74.1945C15.956 69.3773 10.7517 59.528 10.7517 51.055C10.7517 49.8077 11.1818 46.5389 11.6979 43.7432L12.6442 38.668L14.4076 38.9691C15.8269 39.1412 16.257 39.0551 16.4721 38.539C16.6011 38.1949 15.6979 35.3993 14.4506 32.3886C12.7302 28.2596 11.999 26.8402 11.3539 26.7972C10.7517 26.7112 9.59045 27.9155 7.09586 31.1843Z" fill="#A6A6A6"/>
<path d="M37.4196 27.6406C38.5318 27.6406 39.5984 28.0824 40.3848 28.8689C41.1712 29.6553 41.6131 30.7219 41.6131 31.8341C41.6131 33.6061 40.3679 35.5373 37.9099 37.6482C37.7732 37.7656 37.5989 37.8301 37.4188 37.83C37.2386 37.8298 37.0644 37.765 36.928 37.6474L36.7654 37.5063C34.4162 35.4504 33.2261 33.5666 33.2261 31.8341C33.2261 30.7219 33.6679 29.6553 34.4543 28.8689C35.2408 28.0824 36.3074 27.6406 37.4196 27.6406ZM37.4196 30.2212C36.9918 30.2212 36.5816 30.3912 36.2791 30.6936C35.9766 30.9961 35.8067 31.4064 35.8067 31.8341C35.8067 32.2619 35.9766 32.6721 36.2791 32.9746C36.5816 33.2771 36.9918 33.447 37.4196 33.447C37.8473 33.447 38.2576 33.2771 38.56 32.9746C38.8625 32.6721 39.0324 32.2619 39.0324 31.8341C39.0324 31.4064 38.8625 30.9961 38.56 30.6936C38.2576 30.3912 37.8473 30.2212 37.4196 30.2212Z" fill="#CD0B0B"/>
<path d="M56.7745 18.6016C57.8867 18.6016 58.9534 19.0434 59.7398 19.8298C60.5262 20.6162 60.968 21.6829 60.968 22.7951C60.968 24.5671 59.7229 26.4982 57.2649 28.6092C57.1282 28.7266 56.9539 28.7911 56.7737 28.7909C56.5936 28.7908 56.4194 28.726 56.2829 28.6083L56.1204 28.4672C53.7711 26.4113 52.5811 24.5275 52.5811 22.7951C52.5811 21.6829 53.0229 20.6162 53.8093 19.8298C54.5957 19.0434 55.6624 18.6016 56.7745 18.6016ZM56.7745 21.1822C56.3468 21.1822 55.9365 21.3521 55.6341 21.6546C55.3316 21.957 55.1617 22.3673 55.1617 22.7951C55.1617 23.2228 55.3316 23.6331 55.6341 23.9355C55.9365 24.238 56.3468 24.4079 56.7745 24.4079C57.2023 24.4079 57.6126 24.238 57.915 23.9355C58.2175 23.6331 58.3874 23.2228 58.3874 22.7951C58.3874 22.3673 58.2175 21.957 57.915 21.6546C57.6126 21.3521 57.2023 21.1822 56.7745 21.1822Z" fill="#CD0B0B"/>
<path d="M49.0314 48.2812C50.1436 48.2812 51.2102 48.7231 51.9966 49.5095C52.7831 50.2959 53.2249 51.3626 53.2249 52.4747C53.2249 54.2468 51.9797 56.1779 49.5217 58.2889C49.385 58.4063 49.2108 58.4708 49.0306 58.4706C48.8504 58.4704 48.6762 58.4056 48.5398 58.288L48.3772 58.1469C46.028 56.091 44.8379 54.2072 44.8379 52.4747C44.8379 51.3626 45.2797 50.2959 46.0661 49.5095C46.8526 48.7231 47.9192 48.2812 49.0314 48.2812ZM49.0314 50.8619C48.6036 50.8619 48.1934 51.0318 47.8909 51.3343C47.5884 51.6367 47.4185 52.047 47.4185 52.4747C47.4185 52.9025 47.5884 53.3127 47.8909 53.6152C48.1934 53.9177 48.6036 54.0876 49.0314 54.0876C49.4591 54.0876 49.8694 53.9177 50.1719 53.6152C50.4743 53.3127 50.6443 52.9025 50.6443 52.4747C50.6443 52.047 50.4743 51.6367 50.1719 51.3343C49.8694 51.0318 49.4591 50.8619 49.0314 50.8619Z" fill="#CD0B0B"/>
</svg>
