<svg width="36" height="36" viewBox="0 0 36 36" fill="none" xmlns="http://www.w3.org/2000/svg">
<mask id="path-1-inside-1_145_1100" fill="white">
<path d="M35.8442 22.7348C35.7273 22.6565 35.6104 22.6565 35.4936 22.6957L34.9482 22.8522C34.9871 22.6174 35.0261 22.4217 35.065 22.187V22.1478C35.104 21.7174 35.1429 21.3652 35.1429 21.0913C35.1429 19.3304 33.9742 17.8043 32.338 17.1783C32.5328 17.1 32.7276 16.9826 32.9224 16.8652C33.7794 16.3174 34.7923 15.2609 34.6365 13.2261C34.6365 13.1087 34.5586 12.9913 34.4807 12.9522C34.4028 12.8739 34.2859 12.8739 34.169 12.8739C34.1301 12.8739 33.0392 13.1478 31.9874 13.9696C31.9095 12.6783 31.3251 11.8174 31.2862 11.7783V11.5826H31.481C32.4938 11.5826 33.312 10.7609 33.312 9.74348V7.98261C33.312 7.94348 33.312 7.90435 33.273 7.86522C33.273 7.86522 33.273 7.86522 33.273 7.82609L29.3773 0.313044C29.3773 0.0782609 29.2214 0 29.1046 0H4.36672C4.21089 0 4.09402 0.0782609 4.01611 0.195652L0.120384 7.7087C0.120384 7.7087 0.120384 7.7087 0.120384 7.74783C0.120384 7.78696 0.0814272 7.82609 0.0814272 7.86522V9.62609C0.0814272 10.6435 0.899529 11.4652 1.91242 11.4652H2.1072V14.087L0.0814272 16.6304C0.00351275 16.7478 -0.0354445 16.9043 0.04247 17.0609C0.120384 17.2174 0.237256 17.2957 0.393085 17.2957H2.14616V30.0522H1.44493C1.21119 30.0522 1.05536 30.2087 1.05536 30.4435V32.4783C1.05536 32.713 1.21119 32.8696 1.44493 32.8696H17.3395V33.9652C17.3395 35.1 18.2355 36 19.3653 36H33.9742C35.104 36 36 35.1 36 33.9652V23.0478C36 22.8913 35.961 22.7739 35.8442 22.7348ZM34.3638 21.0522C34.3638 21.0913 34.3638 21.1304 34.3638 21.1696H31.1303C30.8966 21.1696 30.7408 21.3261 30.7408 21.5609C30.7408 21.7957 30.8966 21.9522 31.1303 21.9522H34.2859V21.9913C34.2469 22.3435 34.208 22.6957 34.1301 23.0478L33.3509 23.2826L31.2472 22.6565C31.1693 22.6174 31.0914 22.6174 31.0135 22.6565L28.9098 23.3217L27.0398 22.7348C26.923 21.9913 26.884 21.4435 26.884 21.0522C26.884 20.8957 26.884 20.7 26.923 20.5435H29.1435C29.3773 20.5435 29.5331 20.387 29.5331 20.1522C29.5331 19.9174 29.3773 19.7609 29.1435 19.7609H27.1567C27.1957 19.6826 27.2346 19.6043 27.2736 19.5261C27.3905 19.2913 27.5463 19.0957 27.7411 18.8609C28.4423 18.0391 29.4941 17.5696 30.6239 17.5696H30.7018C30.7797 17.5696 30.8576 17.5696 30.9745 17.5696C32.8445 17.7652 34.3638 19.2913 34.3638 21.0522ZM22.326 22.6565C22.2481 22.6174 22.1702 22.6174 22.0923 22.6565L21.1183 22.9696C21.0794 22.9696 21.0404 22.9696 21.0015 23.0087L20.2613 23.2826L19.9886 23.3609L19.4042 23.1652C19.4042 22.1478 19.56 21.1304 19.8717 20.4261C19.9886 20.113 20.1834 19.8391 20.3781 19.6043C21.3131 18.4304 22.9104 18.0391 24.2349 18.7043C24.6634 18.9 25.0141 19.213 25.3257 19.6043C26.0269 20.5043 26.2996 21.7174 26.0269 22.8522L24.5076 23.3609L22.326 22.6565ZM16.5993 25.787H17.3784V26.5696H16.1708V25.787H16.5993ZM17.4953 22.7348C17.3784 22.813 17.3395 22.9304 17.3395 23.0478V25.0043H16.9499V19.7609H19.2873C19.2094 19.8783 19.1705 19.9957 19.0926 20.113C18.7809 20.8565 18.5861 21.8739 18.5472 22.9304L17.807 22.6957C17.7291 22.6174 17.6122 22.6565 17.4953 22.7348ZM27.3904 14.2435C27.3515 14.087 27.3515 13.9304 27.3515 13.7739C27.7411 13.9304 28.2865 14.1652 28.7929 14.6348C28.8319 14.6739 28.8708 14.713 28.9098 14.713C29.0656 14.8304 29.1825 14.987 29.2604 15.1043L29.2994 15.1435C29.3773 15.2217 29.4162 15.3 29.4941 15.4174C29.5331 15.4565 29.5331 15.4565 29.5331 15.4957L29.5721 15.5348C29.7279 15.7696 29.8448 16.0043 29.9616 16.3174C30.0006 16.3565 30.0006 16.4348 30.0395 16.4739C30.0785 16.5522 30.0785 16.6304 30.1175 16.7087V16.7478C29.9227 16.7087 29.65 16.6304 29.4162 16.5522C29.1825 16.4739 28.9877 16.3565 28.8319 16.2783C28.0917 15.8478 27.6242 15.2217 27.4294 14.4V14.3609L27.3904 14.2435ZM29.9616 14.7522C29.9616 14.6739 29.9616 14.5565 29.9616 14.4783C29.9616 14.4391 29.9616 14.4391 29.9616 14.3609C30.0395 13.7348 30.3512 13.1478 30.8966 12.6C31.0914 13.0696 31.3251 13.8522 31.2472 14.7522L31.2083 14.7913L31.1693 14.8696C31.1303 14.9478 31.0524 15.0261 31.0135 15.1043C30.9745 15.1435 30.9356 15.1826 30.9356 15.2217C30.8576 15.3391 30.7797 15.4957 30.7408 15.613C30.7408 15.6522 30.7018 15.6913 30.7018 15.7304C30.7018 15.7696 30.6629 15.8087 30.6629 15.8478C30.6239 15.7696 30.5849 15.6913 30.546 15.613C30.507 15.5739 30.507 15.5348 30.4681 15.4957C30.3902 15.3391 30.3122 15.2217 30.2343 15.1043L30.1954 15.0652C30.1564 15.0261 30.1175 14.987 30.1175 14.9478C30.0395 14.8696 30.0006 14.8304 29.9616 14.7522ZM33.8963 13.7739C33.8574 14.8304 33.3899 15.6522 32.5328 16.1609C32.2991 16.3174 32.0653 16.4348 31.8316 16.513C31.5589 16.6304 31.3251 16.6696 31.1303 16.7087V16.6696V16.6304V16.5913L31.1693 16.513C31.1693 16.4739 31.2083 16.4348 31.2083 16.3957V16.3565C31.2862 16.1217 31.403 15.887 31.5589 15.613C31.5589 15.5739 31.5978 15.5739 31.5978 15.5348C31.5978 15.5348 31.5978 15.4957 31.6368 15.4957C31.6757 15.4565 31.7147 15.3783 31.7537 15.3391L31.7926 15.2609C31.7926 15.2609 31.7926 15.2217 31.8316 15.2217C31.8316 15.1826 31.8705 15.1826 31.8705 15.1435C32.5718 14.4 33.3899 13.9696 33.8963 13.7739ZM32.5718 9.70435C32.5718 10.2913 32.1043 10.7609 31.5199 10.7609H30.3512C29.7668 10.7609 29.2994 10.2913 29.2994 9.70435V8.33478H32.5718V9.70435ZM16.3266 9.70435C16.3266 10.2913 15.8591 10.7609 15.2748 10.7609H14.106C13.5217 10.7609 13.0542 10.2913 13.0542 9.70435V8.33478H16.3266V9.70435ZM12.275 9.70435C12.275 10.2913 11.8076 10.7609 11.2232 10.7609H10.0545C9.47012 10.7609 9.00264 10.2913 9.00264 9.70435V8.33478H12.275V9.70435ZM8.22349 9.70435C8.22349 10.2913 7.756 10.7609 7.17164 10.7609H6.00293C5.41857 10.7609 4.95108 10.2913 4.95108 9.70435V8.33478H8.22349V9.70435ZM25.2088 7.55217L24.3128 0.782609H27.1178L28.4033 7.51304H25.2088V7.55217ZM24.3907 7.55217H21.1573L20.7288 0.782609H23.5337L24.3907 7.55217ZM20.3781 7.55217H17.1057V0.782609H19.9496L20.3781 7.55217ZM16.3266 7.55217H13.0542L13.5217 0.782609H16.3266V7.55217ZM12.314 7.55217H9.04159L9.93761 0.782609H12.7425L12.314 7.55217ZM8.26245 7.55217H5.029L6.31459 0.782609H9.11951L8.26245 7.55217ZM17.1057 8.33478H20.3781V9.70435C20.3781 10.2913 19.9107 10.7609 19.3263 10.7609H18.1576C17.5732 10.7609 17.1057 10.2913 17.1057 9.70435V8.33478ZM21.1963 8.33478H24.4687V9.70435C24.4687 10.2913 24.0012 10.7609 23.4168 10.7609H22.2481C21.6637 10.7609 21.1963 10.2913 21.1963 9.70435V8.33478ZM25.2478 8.33478H28.5202V9.70435C28.5202 10.2913 28.0527 10.7609 27.4684 10.7609H26.2996C25.7153 10.7609 25.2478 10.2913 25.2478 9.70435V8.33478ZM32.338 7.55217H29.2214L27.9359 0.782609H28.8708L32.338 7.55217ZM4.60047 0.782609H5.53544L4.24985 7.51304H1.13327L4.60047 0.782609ZM0.860572 9.70435V8.33478H4.13298V9.70435C4.13298 10.2913 3.66549 10.7609 3.08113 10.7609H1.91242C1.36702 10.7609 0.860572 10.2913 0.860572 9.70435ZM3.12009 11.5435C3.70445 11.5435 4.21089 11.2696 4.56151 10.8391C4.91212 11.2696 5.41857 11.5435 6.00293 11.5435H7.17164C7.756 11.5435 8.26245 11.2696 8.61306 10.8391C8.96368 11.2696 9.47012 11.5435 10.0545 11.5435H11.2232C11.8076 11.5435 12.314 11.2696 12.6646 10.8391C13.0152 11.2696 13.5217 11.5435 14.106 11.5435H15.2748C15.8591 11.5435 16.3656 11.2696 16.7162 10.8391C17.0668 11.2696 17.5732 11.5435 18.1576 11.5435H19.3263C19.9107 11.5435 20.4171 11.2696 20.7677 10.8391C21.1183 11.2696 21.6248 11.5435 22.2091 11.5435H23.3779C23.9622 11.5435 24.4687 11.2696 24.8193 10.8391C25.1699 11.2696 25.6763 11.5435 26.2607 11.5435H27.4294C28.0138 11.5435 28.5202 11.2696 28.8708 10.8391C29.2214 11.2696 29.7279 11.5435 30.3122 11.5435H30.507V11.8957C29.8058 12.5217 29.3383 13.2652 29.1825 14.0087C28.1306 13.1087 27.0009 12.8739 26.9619 12.8348C26.845 12.7957 26.7282 12.8348 26.6503 12.913C26.5723 12.9913 26.4944 13.0696 26.4944 13.187C26.4944 13.4217 26.4944 13.6957 26.4944 13.8913H2.92531V11.5043H3.12009V11.5435ZM2.69156 14.713H26.6892C26.884 15.4174 27.2736 16.0435 27.819 16.513H1.21119L2.69156 14.713ZM2.92531 17.2957H28.5981C28.0527 17.5696 27.5463 17.9217 27.1567 18.3913C26.923 18.6652 26.7282 18.9 26.6113 19.1739C26.4944 19.3696 26.4165 19.5652 26.3776 19.7609C26.2607 19.5261 26.1049 19.3304 25.949 19.0957C25.5984 18.6261 25.1309 18.2739 24.6245 18C23.0272 17.1783 21.1183 17.5696 19.9496 18.9391H16.6772C16.4435 18.9391 16.2876 19.0957 16.2876 19.3304V24.9652H15.8591C15.6254 24.9652 15.4695 25.1217 15.4695 25.3565V26.9217C15.4695 27.1565 15.6254 27.313 15.8591 27.313H17.4564V29.9739H13.1711V19.3696C13.1711 19.1348 13.0152 18.9783 12.7815 18.9783H5.37961C5.14587 18.9783 4.99004 19.1348 4.99004 19.3696V30.0522H3.00322V17.2957H2.92531ZM5.65231 30.0522V19.7609H8.57411V30.0522H5.65231ZM9.35325 19.7609H12.275V30.0522H9.35325V19.7609ZM1.8345 32.087V30.8348H2.53573H5.3017H12.7036H17.3784V32.087H1.8345ZM35.2209 33.9652C35.2209 34.6696 34.6755 35.2174 33.9742 35.2174H19.3653C18.664 35.2174 18.1186 34.6696 18.1186 33.9652V32.4783V30.4435V27V25.4348V23.5957L18.8588 23.8304L19.8327 24.1435C19.9107 24.1826 19.9886 24.1826 20.0665 24.1435L20.4171 24.0261H20.4561H20.495L21.2352 23.7913L22.1702 23.4783L24.2739 24.1435C24.3518 24.1826 24.4297 24.1826 24.5076 24.1435L26.6113 23.4783L28.715 24.1435C28.7929 24.1826 28.8708 24.1826 28.9487 24.1435L31.0524 23.4783L33.1561 24.1435C33.234 24.1826 33.312 24.1826 33.3899 24.1435L35.104 23.5957V33.9652H35.2209Z"/>
</mask>
<path d="M35.8442 22.7348C35.7273 22.6565 35.6104 22.6565 35.4936 22.6957L34.9482 22.8522C34.9871 22.6174 35.0261 22.4217 35.065 22.187V22.1478C35.104 21.7174 35.1429 21.3652 35.1429 21.0913C35.1429 19.3304 33.9742 17.8043 32.338 17.1783C32.5328 17.1 32.7276 16.9826 32.9224 16.8652C33.7794 16.3174 34.7923 15.2609 34.6365 13.2261C34.6365 13.1087 34.5586 12.9913 34.4807 12.9522C34.4028 12.8739 34.2859 12.8739 34.169 12.8739C34.1301 12.8739 33.0392 13.1478 31.9874 13.9696C31.9095 12.6783 31.3251 11.8174 31.2862 11.7783V11.5826H31.481C32.4938 11.5826 33.312 10.7609 33.312 9.74348V7.98261C33.312 7.94348 33.312 7.90435 33.273 7.86522C33.273 7.86522 33.273 7.86522 33.273 7.82609L29.3773 0.313044C29.3773 0.0782609 29.2214 0 29.1046 0H4.36672C4.21089 0 4.09402 0.0782609 4.01611 0.195652L0.120384 7.7087C0.120384 7.7087 0.120384 7.7087 0.120384 7.74783C0.120384 7.78696 0.0814272 7.82609 0.0814272 7.86522V9.62609C0.0814272 10.6435 0.899529 11.4652 1.91242 11.4652H2.1072V14.087L0.0814272 16.6304C0.00351275 16.7478 -0.0354445 16.9043 0.04247 17.0609C0.120384 17.2174 0.237256 17.2957 0.393085 17.2957H2.14616V30.0522H1.44493C1.21119 30.0522 1.05536 30.2087 1.05536 30.4435V32.4783C1.05536 32.713 1.21119 32.8696 1.44493 32.8696H17.3395V33.9652C17.3395 35.1 18.2355 36 19.3653 36H33.9742C35.104 36 36 35.1 36 33.9652V23.0478C36 22.8913 35.961 22.7739 35.8442 22.7348ZM34.3638 21.0522C34.3638 21.0913 34.3638 21.1304 34.3638 21.1696H31.1303C30.8966 21.1696 30.7408 21.3261 30.7408 21.5609C30.7408 21.7957 30.8966 21.9522 31.1303 21.9522H34.2859V21.9913C34.2469 22.3435 34.208 22.6957 34.1301 23.0478L33.3509 23.2826L31.2472 22.6565C31.1693 22.6174 31.0914 22.6174 31.0135 22.6565L28.9098 23.3217L27.0398 22.7348C26.923 21.9913 26.884 21.4435 26.884 21.0522C26.884 20.8957 26.884 20.7 26.923 20.5435H29.1435C29.3773 20.5435 29.5331 20.387 29.5331 20.1522C29.5331 19.9174 29.3773 19.7609 29.1435 19.7609H27.1567C27.1957 19.6826 27.2346 19.6043 27.2736 19.5261C27.3905 19.2913 27.5463 19.0957 27.7411 18.8609C28.4423 18.0391 29.4941 17.5696 30.6239 17.5696H30.7018C30.7797 17.5696 30.8576 17.5696 30.9745 17.5696C32.8445 17.7652 34.3638 19.2913 34.3638 21.0522ZM22.326 22.6565C22.2481 22.6174 22.1702 22.6174 22.0923 22.6565L21.1183 22.9696C21.0794 22.9696 21.0404 22.9696 21.0015 23.0087L20.2613 23.2826L19.9886 23.3609L19.4042 23.1652C19.4042 22.1478 19.56 21.1304 19.8717 20.4261C19.9886 20.113 20.1834 19.8391 20.3781 19.6043C21.3131 18.4304 22.9104 18.0391 24.2349 18.7043C24.6634 18.9 25.0141 19.213 25.3257 19.6043C26.0269 20.5043 26.2996 21.7174 26.0269 22.8522L24.5076 23.3609L22.326 22.6565ZM16.5993 25.787H17.3784V26.5696H16.1708V25.787H16.5993ZM17.4953 22.7348C17.3784 22.813 17.3395 22.9304 17.3395 23.0478V25.0043H16.9499V19.7609H19.2873C19.2094 19.8783 19.1705 19.9957 19.0926 20.113C18.7809 20.8565 18.5861 21.8739 18.5472 22.9304L17.807 22.6957C17.7291 22.6174 17.6122 22.6565 17.4953 22.7348ZM27.3904 14.2435C27.3515 14.087 27.3515 13.9304 27.3515 13.7739C27.7411 13.9304 28.2865 14.1652 28.7929 14.6348C28.8319 14.6739 28.8708 14.713 28.9098 14.713C29.0656 14.8304 29.1825 14.987 29.2604 15.1043L29.2994 15.1435C29.3773 15.2217 29.4162 15.3 29.4941 15.4174C29.5331 15.4565 29.5331 15.4565 29.5331 15.4957L29.5721 15.5348C29.7279 15.7696 29.8448 16.0043 29.9616 16.3174C30.0006 16.3565 30.0006 16.4348 30.0395 16.4739C30.0785 16.5522 30.0785 16.6304 30.1175 16.7087V16.7478C29.9227 16.7087 29.65 16.6304 29.4162 16.5522C29.1825 16.4739 28.9877 16.3565 28.8319 16.2783C28.0917 15.8478 27.6242 15.2217 27.4294 14.4V14.3609L27.3904 14.2435ZM29.9616 14.7522C29.9616 14.6739 29.9616 14.5565 29.9616 14.4783C29.9616 14.4391 29.9616 14.4391 29.9616 14.3609C30.0395 13.7348 30.3512 13.1478 30.8966 12.6C31.0914 13.0696 31.3251 13.8522 31.2472 14.7522L31.2083 14.7913L31.1693 14.8696C31.1303 14.9478 31.0524 15.0261 31.0135 15.1043C30.9745 15.1435 30.9356 15.1826 30.9356 15.2217C30.8576 15.3391 30.7797 15.4957 30.7408 15.613C30.7408 15.6522 30.7018 15.6913 30.7018 15.7304C30.7018 15.7696 30.6629 15.8087 30.6629 15.8478C30.6239 15.7696 30.5849 15.6913 30.546 15.613C30.507 15.5739 30.507 15.5348 30.4681 15.4957C30.3902 15.3391 30.3122 15.2217 30.2343 15.1043L30.1954 15.0652C30.1564 15.0261 30.1175 14.987 30.1175 14.9478C30.0395 14.8696 30.0006 14.8304 29.9616 14.7522ZM33.8963 13.7739C33.8574 14.8304 33.3899 15.6522 32.5328 16.1609C32.2991 16.3174 32.0653 16.4348 31.8316 16.513C31.5589 16.6304 31.3251 16.6696 31.1303 16.7087V16.6696V16.6304V16.5913L31.1693 16.513C31.1693 16.4739 31.2083 16.4348 31.2083 16.3957V16.3565C31.2862 16.1217 31.403 15.887 31.5589 15.613C31.5589 15.5739 31.5978 15.5739 31.5978 15.5348C31.5978 15.5348 31.5978 15.4957 31.6368 15.4957C31.6757 15.4565 31.7147 15.3783 31.7537 15.3391L31.7926 15.2609C31.7926 15.2609 31.7926 15.2217 31.8316 15.2217C31.8316 15.1826 31.8705 15.1826 31.8705 15.1435C32.5718 14.4 33.3899 13.9696 33.8963 13.7739ZM32.5718 9.70435C32.5718 10.2913 32.1043 10.7609 31.5199 10.7609H30.3512C29.7668 10.7609 29.2994 10.2913 29.2994 9.70435V8.33478H32.5718V9.70435ZM16.3266 9.70435C16.3266 10.2913 15.8591 10.7609 15.2748 10.7609H14.106C13.5217 10.7609 13.0542 10.2913 13.0542 9.70435V8.33478H16.3266V9.70435ZM12.275 9.70435C12.275 10.2913 11.8076 10.7609 11.2232 10.7609H10.0545C9.47012 10.7609 9.00264 10.2913 9.00264 9.70435V8.33478H12.275V9.70435ZM8.22349 9.70435C8.22349 10.2913 7.756 10.7609 7.17164 10.7609H6.00293C5.41857 10.7609 4.95108 10.2913 4.95108 9.70435V8.33478H8.22349V9.70435ZM25.2088 7.55217L24.3128 0.782609H27.1178L28.4033 7.51304H25.2088V7.55217ZM24.3907 7.55217H21.1573L20.7288 0.782609H23.5337L24.3907 7.55217ZM20.3781 7.55217H17.1057V0.782609H19.9496L20.3781 7.55217ZM16.3266 7.55217H13.0542L13.5217 0.782609H16.3266V7.55217ZM12.314 7.55217H9.04159L9.93761 0.782609H12.7425L12.314 7.55217ZM8.26245 7.55217H5.029L6.31459 0.782609H9.11951L8.26245 7.55217ZM17.1057 8.33478H20.3781V9.70435C20.3781 10.2913 19.9107 10.7609 19.3263 10.7609H18.1576C17.5732 10.7609 17.1057 10.2913 17.1057 9.70435V8.33478ZM21.1963 8.33478H24.4687V9.70435C24.4687 10.2913 24.0012 10.7609 23.4168 10.7609H22.2481C21.6637 10.7609 21.1963 10.2913 21.1963 9.70435V8.33478ZM25.2478 8.33478H28.5202V9.70435C28.5202 10.2913 28.0527 10.7609 27.4684 10.7609H26.2996C25.7153 10.7609 25.2478 10.2913 25.2478 9.70435V8.33478ZM32.338 7.55217H29.2214L27.9359 0.782609H28.8708L32.338 7.55217ZM4.60047 0.782609H5.53544L4.24985 7.51304H1.13327L4.60047 0.782609ZM0.860572 9.70435V8.33478H4.13298V9.70435C4.13298 10.2913 3.66549 10.7609 3.08113 10.7609H1.91242C1.36702 10.7609 0.860572 10.2913 0.860572 9.70435ZM3.12009 11.5435C3.70445 11.5435 4.21089 11.2696 4.56151 10.8391C4.91212 11.2696 5.41857 11.5435 6.00293 11.5435H7.17164C7.756 11.5435 8.26245 11.2696 8.61306 10.8391C8.96368 11.2696 9.47012 11.5435 10.0545 11.5435H11.2232C11.8076 11.5435 12.314 11.2696 12.6646 10.8391C13.0152 11.2696 13.5217 11.5435 14.106 11.5435H15.2748C15.8591 11.5435 16.3656 11.2696 16.7162 10.8391C17.0668 11.2696 17.5732 11.5435 18.1576 11.5435H19.3263C19.9107 11.5435 20.4171 11.2696 20.7677 10.8391C21.1183 11.2696 21.6248 11.5435 22.2091 11.5435H23.3779C23.9622 11.5435 24.4687 11.2696 24.8193 10.8391C25.1699 11.2696 25.6763 11.5435 26.2607 11.5435H27.4294C28.0138 11.5435 28.5202 11.2696 28.8708 10.8391C29.2214 11.2696 29.7279 11.5435 30.3122 11.5435H30.507V11.8957C29.8058 12.5217 29.3383 13.2652 29.1825 14.0087C28.1306 13.1087 27.0009 12.8739 26.9619 12.8348C26.845 12.7957 26.7282 12.8348 26.6503 12.913C26.5723 12.9913 26.4944 13.0696 26.4944 13.187C26.4944 13.4217 26.4944 13.6957 26.4944 13.8913H2.92531V11.5043H3.12009V11.5435ZM2.69156 14.713H26.6892C26.884 15.4174 27.2736 16.0435 27.819 16.513H1.21119L2.69156 14.713ZM2.92531 17.2957H28.5981C28.0527 17.5696 27.5463 17.9217 27.1567 18.3913C26.923 18.6652 26.7282 18.9 26.6113 19.1739C26.4944 19.3696 26.4165 19.5652 26.3776 19.7609C26.2607 19.5261 26.1049 19.3304 25.949 19.0957C25.5984 18.6261 25.1309 18.2739 24.6245 18C23.0272 17.1783 21.1183 17.5696 19.9496 18.9391H16.6772C16.4435 18.9391 16.2876 19.0957 16.2876 19.3304V24.9652H15.8591C15.6254 24.9652 15.4695 25.1217 15.4695 25.3565V26.9217C15.4695 27.1565 15.6254 27.313 15.8591 27.313H17.4564V29.9739H13.1711V19.3696C13.1711 19.1348 13.0152 18.9783 12.7815 18.9783H5.37961C5.14587 18.9783 4.99004 19.1348 4.99004 19.3696V30.0522H3.00322V17.2957H2.92531ZM5.65231 30.0522V19.7609H8.57411V30.0522H5.65231ZM9.35325 19.7609H12.275V30.0522H9.35325V19.7609ZM1.8345 32.087V30.8348H2.53573H5.3017H12.7036H17.3784V32.087H1.8345ZM35.2209 33.9652C35.2209 34.6696 34.6755 35.2174 33.9742 35.2174H19.3653C18.664 35.2174 18.1186 34.6696 18.1186 33.9652V32.4783V30.4435V27V25.4348V23.5957L18.8588 23.8304L19.8327 24.1435C19.9107 24.1826 19.9886 24.1826 20.0665 24.1435L20.4171 24.0261H20.4561H20.495L21.2352 23.7913L22.1702 23.4783L24.2739 24.1435C24.3518 24.1826 24.4297 24.1826 24.5076 24.1435L26.6113 23.4783L28.715 24.1435C28.7929 24.1826 28.8708 24.1826 28.9487 24.1435L31.0524 23.4783L33.1561 24.1435C33.234 24.1826 33.312 24.1826 33.3899 24.1435L35.104 23.5957V33.9652H35.2209Z" stroke="#707070" stroke-width="2" mask="url(#path-1-inside-1_145_1100)"/>
</svg>
