<svg xmlns="http://www.w3.org/2000/svg" width="26" height="26" viewBox="0 0 26 26" fill="none">
  <g clip-path="url(#clip0_2191_18212)">
    <path d="M12.9999 5.1875C12.5364 5.18748 12.0833 5.05002 11.6979 4.79251C11.3125 4.53497 11.0121 4.16893 10.8347 3.74067C10.6573 3.3124 10.6109 2.84115 10.7013 2.38651C10.7917 1.93187 11.0149 1.51425 11.3427 1.18647C11.6705 0.85869 12.0881 0.63547 12.5428 0.545036C12.9974 0.454602 13.4687 0.501016 13.8969 0.678409C14.3252 0.855801 14.6912 1.15621 14.9488 1.54163C15.2063 1.92703 15.3437 2.38012 15.3438 2.84363C15.343 3.46502 15.0958 4.06074 14.6564 4.50014C14.217 4.93954 13.6213 5.18673 12.9999 5.1875Z" stroke="#707070"/>
    <path d="M22.0276 6.22223L22.0277 6.22241L22.0407 6.21839L22.0525 6.21472L22.064 6.21165C22.0643 6.21158 22.0646 6.21151 22.0648 6.21144C22.3306 6.14194 22.5505 6.22812 22.7351 6.43868C22.9338 6.66533 23.0615 7.01442 23.0615 7.35153C23.0615 7.62001 22.9502 7.81805 22.7325 8.00052C22.4967 8.19811 22.1586 8.35568 21.7609 8.50481L21.7599 8.5052C21.7486 8.50944 21.7372 8.51312 21.7256 8.51622L21.7072 8.52111L21.6892 8.52739L17.1555 10.1123L17.1554 10.1121L17.1447 10.1162C16.823 10.2369 16.5779 10.3657 16.397 10.4891C16.2318 10.6016 16.0771 10.7387 15.9929 10.8946L15.9869 10.9056C15.9864 10.9067 15.9858 10.9077 15.9852 10.9087L15.983 10.9129L15.9829 10.9132C15.8446 11.1741 15.706 11.7558 15.9176 13.0849L16.2106 15.3626L16.2124 15.3767L16.215 15.3906L17.872 24.2636L17.8737 24.2726L17.8757 24.2815C17.8883 24.3377 17.8989 24.3943 17.9075 24.4513C17.9465 24.7182 17.8687 24.971 17.6958 25.1589C17.5247 25.3449 17.229 25.4999 16.7771 25.4999C16.4104 25.4999 16.1914 25.3807 16.0355 25.2063C15.8625 25.0127 15.7301 24.7079 15.643 24.2828L15.6428 24.2818L15.6396 24.2643L15.6271 24.1967C15.6161 24.1376 15.5999 24.0511 15.5791 23.9411C15.5374 23.7212 15.4772 23.4073 15.4027 23.0307C15.2537 22.2779 15.0474 21.2727 14.8185 20.2663C14.5903 19.2627 14.3369 18.2463 14.0932 17.4758C13.9723 17.0937 13.8477 16.7522 13.7225 16.4987C13.6611 16.3744 13.5877 16.2466 13.4993 16.1425C13.4289 16.0596 13.2531 15.8764 12.9766 15.8764C12.722 15.8764 12.5511 16.0294 12.4707 16.1163C12.3794 16.215 12.3057 16.3354 12.2457 16.45C12.1237 16.6832 12.0062 16.995 11.8944 17.3417C11.6687 18.0415 11.4381 18.9724 11.2271 19.9176C10.9083 21.3453 10.6237 22.8555 10.4649 23.698C10.4139 23.9685 10.3759 24.1702 10.3539 24.2782C10.2668 24.7057 10.1341 25.0121 9.9604 25.2063C9.80452 25.3807 9.58549 25.4999 9.21883 25.4999C8.76826 25.4999 8.47287 25.3456 8.30176 25.1603C8.13047 24.9748 8.05216 24.7261 8.08762 24.4633L8.09751 24.4087L8.09761 24.4087L8.09923 24.3986C8.1021 24.3806 8.10527 24.3634 8.10871 24.3469L8.10886 24.3469L8.11108 24.3348L9.74573 15.3876L9.74809 15.3747L9.74977 15.3617L10.0433 13.084C10.0736 12.8947 10.1326 12.5191 10.157 12.1181C10.1803 11.7351 10.1796 11.2373 10.0319 10.8576C9.97739 10.7163 9.88849 10.5556 9.71682 10.4004C9.55388 10.253 9.33732 10.1295 9.05401 10.0209L9.03922 10.0152L9.0241 10.0105L4.42348 8.57361L4.21589 8.49542C3.82331 8.34755 3.49108 8.19048 3.26018 7.99462C3.04705 7.81382 2.9375 7.61711 2.9375 7.35051C2.9375 7.01322 3.06522 6.66454 3.26387 6.43834C3.44855 6.22806 3.6688 6.14198 3.93525 6.2121L3.93639 6.21239C4.0558 6.24352 4.17333 6.28143 4.28843 6.32593L4.3099 6.33423L4.33204 6.34052C5.65937 6.71781 9.89528 7.8561 12.9777 7.8561C16.2916 7.8561 20.9453 6.5403 21.8812 6.26572L21.8812 6.26578L21.8885 6.26352C21.9365 6.24864 21.9827 6.23482 22.0276 6.22223Z" stroke="#707070"/>
  </g>
  <defs>
    <clipPath id="clip0_2191_18212">
      <rect width="26" height="26" fill="white"/>
    </clipPath>
  </defs>
</svg>