<svg width="24" height="24" viewBox="0 0 24 24" fill="none" xmlns="http://www.w3.org/2000/svg">
<rect y="24" width="24" height="24" rx="12" transform="rotate(-90 0 24)" fill="#171717" fill-opacity="0.8"/>
<path d="M12 18C15 15.6335 18 13 18 9.5C18 8.604 17.7073 7.7085 17.1214 7.025C16.5356 6.342 15.768 6 15 6C14.2324 6 13.4644 6.342 12.879 7.025L12 8.0505L11.1214 7.025C10.5356 6.342 9.768 6 9 6C8.23243 6 7.46443 6.342 6.879 7.025C6.29314 7.7085 6 8.604 6 9.5C6 13 9 15.6335 12 18Z" stroke="#FAFAFA" stroke-width="1.5"/>
</svg>
