<svg width="42" height="60" viewBox="0 0 42 60" fill="none" xmlns="http://www.w3.org/2000/svg">
<g id="Group">
<path id="Vector" d="M22.2304 19.5968L20.9516 17L19.7579 19.6414L17 20.111L19.0334 22.1134L18.6093 25L21.0584 23.5964L23.5526 24.911L23.0334 22.0418L25 19.9678L22.2304 19.5968Z" fill="#FC8019"/>
<path id="Vector_2" d="M21 11C15.486 11 11 15.4852 11 20.9995C11 26.5138 15.486 31 21 31C26.514 31 31 26.5138 31 20.9995C31 15.4852 26.514 11 21 11ZM25.9565 28.1321L21.1048 25.6864L16.3381 28.2962L17.1645 22.9253L13.2104 19.2003L18.5722 18.3264L20.8952 13.4131L23.3824 18.2443L28.7738 18.9334L24.9462 22.7928L25.9565 28.1321Z" stroke="#707070" stroke-width="2"/>
<path id="Vector_3" d="M15.819 40.0676L13.9475 40.463L11.2383 48.5823L9.55005 48.0187L12.1728 40.1584C11.8907 39.9823 11.6317 39.7669 11.4444 39.4792L10.3569 37.8046C10.2001 37.5644 9.98639 37.3734 9.76046 37.2022L3.41016 54.6241L9.34894 53.8781L13.4554 57.5712L19.3255 41.5396L17.7258 40.4463C17.1672 40.0652 16.4745 39.9336 15.819 40.0676Z" stroke="#707070" stroke-width="2"/>
<path id="Vector_4" d="M25.9138 38.3272L27.8702 38.7406C28.0887 38.789 28.3097 38.6934 28.4264 38.5085L29.5138 36.8351C30.1469 35.8643 31.1624 35.1865 32.297 34.9742L34.2609 34.6068C34.4794 34.5658 34.6457 34.3982 34.6879 34.1797L35.0554 32.2159C35.2714 31.0788 35.9492 30.0658 36.915 29.4352L38.5884 28.3452C38.777 28.2236 38.8689 28.0051 38.8217 27.7879L38.4071 25.8339C38.1713 24.703 38.4071 23.5088 39.0576 22.5554L40.1873 20.9019C40.3139 20.7182 40.3139 20.4835 40.1897 20.3011L39.0576 18.6475C38.4071 17.6929 38.1713 16.4987 38.4071 15.3703L38.8217 13.4126C38.8689 13.1966 38.777 12.9781 38.5908 12.8565L36.9175 11.7678C35.9492 11.1372 35.2689 10.1229 35.0579 8.98583L34.6904 7.02196C34.6482 6.8072 34.4769 6.63589 34.2634 6.59617L32.297 6.22748C31.1624 6.01396 30.1494 5.33616 29.5188 4.36664L28.4289 2.69325C28.3072 2.5058 28.0912 2.42263 27.8702 2.46111L25.9138 2.87449C24.7792 3.11532 23.5875 2.87449 22.6341 2.22277L20.9855 1.09559C20.7968 0.966485 20.5585 0.970209 20.3797 1.09435L18.7287 2.22401C17.7778 2.87698 16.5811 3.11781 15.4514 2.87325L13.495 2.46111C13.2715 2.41642 13.058 2.5058 12.9389 2.69201L11.8489 4.3654C11.2183 5.33492 10.2053 6.01272 9.06822 6.22623L7.10435 6.59493C6.88586 6.63465 6.71952 6.80348 6.67731 7.02196L6.30986 8.98459C6.09386 10.1229 5.41606 11.1359 4.45026 11.7665L2.77439 12.8552C2.59067 12.9744 2.49632 13.1991 2.5435 13.4126L2.95812 15.3678C3.19398 16.4999 2.95812 17.6954 2.30515 18.6475L1.17797 20.2986C1.05135 20.4835 1.05135 20.7182 1.17797 20.9019L2.30515 22.5542C2.95564 23.5063 3.19398 24.7018 2.95812 25.8314L2.5435 27.7891C2.49632 28.0014 2.59067 28.2261 2.77439 28.3452L4.44778 29.4339C5.41606 30.0621 6.09386 31.0763 6.30738 32.2146L6.67483 34.1797C6.71704 34.3933 6.88835 34.5646 7.10186 34.6043L9.06822 34.973C10.2053 35.1878 11.2158 35.8655 11.8464 36.8338L12.9364 38.5085C13.0555 38.6922 13.2765 38.7816 13.495 38.7406L15.4514 38.3272C15.7394 38.2651 16.0324 38.2354 16.3229 38.2354C17.1745 38.2354 18.0186 38.4911 18.7287 38.9765L20.3797 40.1061C20.561 40.2327 20.7993 40.2327 20.9855 40.1061L22.6366 38.9765C23.5899 38.3247 24.7817 38.0889 25.9138 38.3272ZM20.6826 34.9382C12.7775 34.9382 6.3471 28.5066 6.3471 20.6002C6.3471 12.6951 12.7775 6.26348 20.6826 6.26348C28.5878 6.26348 35.0181 12.6951 35.0181 20.6002C35.0181 28.5066 28.5878 34.9382 20.6826 34.9382Z" stroke="#707070" stroke-width="2"/>
<path id="Vector_5" d="M31.0058 37.8059L29.9208 39.4792C29.4019 40.275 28.4286 40.6809 27.5026 40.481L26.1979 40.2053L28.5478 46.904L26.8695 47.4924L24.3007 40.1702C24.0722 40.2421 23.8405 40.3093 23.6394 40.4463L21.9883 41.5759C21.8757 41.6528 21.7505 41.6937 21.6299 41.7487L27.2444 57.9399L31.11 53.4076L37.3319 55.0115L31.5762 37.2302C31.3625 37.3968 31.1557 37.576 31.0058 37.8059Z" stroke="#707070" stroke-width="2"/>
</g>
</svg>
