<svg width="44" height="44" viewBox="0 0 44 44" fill="none" xmlns="http://www.w3.org/2000/svg">
<rect width="44" height="44" rx="8" fill="#EDF1F3"/>
<path d="M30.4917 22.4769C28.5067 15.9489 22.6647 8.98193 22.3677 8.62993C22.3213 8.57915 22.2649 8.53859 22.2019 8.51083C22.139 8.48308 22.071 8.46875 22.0022 8.46875C21.9334 8.46875 21.8654 8.48308 21.8025 8.51083C21.7395 8.53859 21.6831 8.57915 21.6367 8.62993C21.3397 8.98193 15.4967 15.9479 13.5107 22.4769C13.1037 23.8159 12.8457 25.1389 12.8457 26.3799C12.8457 31.4279 16.9537 35.5349 22.0017 35.5349C27.0497 35.5349 31.1557 31.4279 31.1557 26.3799C31.1567 25.1389 30.8987 23.8169 30.4917 22.4769ZM22.0027 34.5789C17.4817 34.5789 13.8037 30.9009 13.8037 26.3809C13.8037 25.1539 14.0767 23.8279 14.5127 22.4779C16.2497 17.1029 20.6957 11.3219 22.0027 9.69693C23.3097 11.3219 27.7557 17.1029 29.4907 22.4779C29.9267 23.8289 30.1997 25.1539 30.1997 26.3809C30.1997 30.9009 26.5227 34.5789 22.0027 34.5789Z" fill="#222222"/>
<path d="M16.8711 22.4766C16.3711 23.7466 16.0371 25.0186 16.0371 26.1766C16.0371 27.7587 16.6656 29.2761 17.7844 30.3948C18.9031 31.5136 20.4205 32.1421 22.0026 32.1421C23.5848 32.1421 25.1021 31.5136 26.2209 30.3948C27.3396 29.2761 27.9681 27.7587 27.9681 26.1766C27.9681 25.0186 27.6341 23.7466 27.1341 22.4766H16.8711Z" fill="#222222"/>
</svg>
