<svg width="65" height="64" viewBox="0 0 65 64" fill="none" xmlns="http://www.w3.org/2000/svg">
<rect x="0.5" width="64" height="64" rx="32" fill="#E86831"/>
<path d="M27.4612 18.79C26.7634 19.0964 26.2017 19.8453 26.2017 20.4411C26.2017 20.9006 26.1676 20.9177 25.2315 20.9687L24.2442 21.0198L24.1932 21.6496L24.1421 22.2623L22.0315 22.3304C20.074 22.3815 19.9038 22.4155 19.4953 22.79L19.0527 23.1985V33.7347C19.0527 40.9687 19.1038 44.39 19.24 44.6283C19.6655 45.4283 19.9378 45.4453 30.1166 45.4453C40.5506 45.4453 40.5846 45.4453 40.9932 44.4751C41.1123 44.1687 41.1804 43.3517 41.1464 42.3645C41.0953 40.9006 41.0612 40.7645 40.7549 40.7645C40.4485 40.7645 40.4144 40.9006 40.3634 42.4496C40.3464 43.3857 40.2272 44.2538 40.1251 44.373C39.9889 44.5432 37.9974 44.5942 30.0995 44.5942C21.4017 44.5942 20.2442 44.5602 20.0059 44.3219C19.7676 44.0836 19.7336 42.9091 19.7506 33.9049C19.7676 24.9177 19.7846 23.7091 20.0229 23.4368C20.2612 23.1985 20.6017 23.1474 22.2357 23.1474H24.1591V23.9134V24.6794H30.0315H35.9038V23.9134V23.1474H37.8272C39.1038 23.1474 39.8527 23.2155 40.04 23.3517C40.2442 23.5219 40.3293 23.8964 40.3634 24.7645C40.4144 25.8198 40.4485 25.956 40.7549 25.956C41.0612 25.956 41.0953 25.8198 41.1464 24.8325C41.2485 22.6538 40.7719 22.2964 37.7932 22.2964H35.9208L35.8698 21.6496L35.8187 21.0198L34.9336 20.9687C34.1676 20.9177 34.0315 20.8666 34.0315 20.5772C34.0315 20.0496 33.5889 19.3177 33.0612 18.9602C32.6698 18.6879 32.2102 18.6368 30.2868 18.5857C28.6017 18.5687 27.8527 18.6198 27.4612 18.79ZM32.7378 19.7602C32.9932 19.9645 33.1804 20.2708 33.1804 20.5262V20.9347L30.0825 20.9006C27.0698 20.8496 26.9676 20.8325 27.0187 20.5091C27.0527 20.3219 27.257 19.9985 27.4953 19.7772C27.8868 19.4368 28.074 19.4028 30.0995 19.4028C32.057 19.4028 32.3293 19.4368 32.7378 19.7602ZM35.2229 22.8921V23.9985H30.1166H25.0102V22.8921V21.7857H30.1166H35.2229V22.8921Z" fill="white"/>
<path d="M37.7599 25.9701C37.1641 26.5489 37.1131 26.5659 36.4833 26.3957C35.3769 26.0893 35.2578 26.1404 35.0195 27.0084C34.7982 27.7744 34.7471 27.8255 34.0663 27.9616C33.6578 28.0467 33.2833 28.217 33.2492 28.3361C33.1982 28.4723 33.2322 28.9829 33.3343 29.4595L33.5386 30.3616L32.8067 31.0936L32.0918 31.8255L32.7386 32.4893L33.4024 33.1701L33.1982 33.9701C32.9599 34.9063 33.1131 35.1446 34.1344 35.3318C34.6109 35.417 34.6961 35.5191 34.7982 36.0638C34.9684 37.1191 35.0535 37.1701 36.1258 36.9148L37.079 36.7106L37.7769 37.3233C38.1514 37.6808 38.5939 37.9531 38.7641 37.9531C38.9173 37.9531 39.2578 37.6978 39.5131 37.3744L39.9897 36.7957L40.8237 37.017C41.2833 37.1361 41.7258 37.1872 41.828 37.1191C41.9131 37.068 42.0833 36.6936 42.1854 36.3191C42.3726 35.6212 42.6109 35.3999 43.2067 35.3999C43.3599 35.3999 43.6322 35.2978 43.7854 35.1787C44.0578 34.9914 44.0578 34.8553 43.8875 34.0723L43.7003 33.1701L44.3982 32.4212C44.7897 31.9957 45.0961 31.6212 45.0961 31.5701C45.0961 31.5191 44.8237 31.1787 44.4833 30.8042C43.8875 30.1574 43.8705 30.0893 44.0407 29.4255C44.279 28.4893 44.1769 28.285 43.3429 28.1318C42.679 27.9957 42.6109 27.9276 42.3897 27.1787C42.1173 26.2935 41.9301 26.2255 40.6365 26.5318C40.0578 26.668 39.9726 26.634 39.3769 26.0212C39.0195 25.6467 38.645 25.3574 38.5429 25.3574C38.4407 25.3574 38.1003 25.6297 37.7599 25.9701ZM39.2407 26.9063C39.7003 27.3999 39.7854 27.417 40.6365 27.3148C41.5726 27.1957 41.5556 27.1787 41.7599 28.1148C41.845 28.4893 42.0152 28.6255 42.5599 28.7616C43.2918 28.9659 43.3088 28.9829 42.9514 30.1744C42.8833 30.3787 43.0535 30.651 43.462 31.0084L44.0748 31.5531L43.462 32.1829C42.8663 32.7957 42.8492 32.8467 42.9684 33.6638L43.0875 34.5318L42.3897 34.7191C41.7939 34.8723 41.6748 34.9744 41.5216 35.5701C41.3173 36.3361 41.3514 36.3191 40.4322 36.0638C39.8195 35.8936 39.7514 35.9106 39.2067 36.4382L38.628 36.9999L38.0492 36.4382C37.4875 35.8936 37.4195 35.8765 36.5343 35.9787L35.6152 36.0978L35.4961 35.417C35.3939 34.7872 35.3258 34.7191 34.7131 34.5489C33.9812 34.3616 33.9471 34.2595 34.1854 33.4084C34.3216 32.9318 34.2875 32.8297 33.7599 32.3191L33.1812 31.7574L33.7939 31.1276C34.4067 30.4978 34.4237 30.4808 34.2535 29.6297C34.0663 28.6936 34.0322 28.7616 35.0705 28.5233C35.428 28.4382 35.5641 28.285 35.6833 27.7914C35.8535 27.1106 36.0067 27.0425 36.9599 27.2808C37.3514 27.3829 37.5046 27.3148 37.879 26.8893C38.4578 26.2425 38.6109 26.2595 39.2407 26.9063Z" fill="white"/>
<path d="M37.0097 28.4105C34.865 29.3977 34.2352 32.0701 35.682 33.9935C36.1926 34.6743 37.6395 35.4062 38.4395 35.4062C40.2097 35.4062 41.8267 34.1637 42.1671 32.5637C42.5246 30.8786 41.7586 29.2105 40.2948 28.4616C39.3416 27.985 37.9629 27.968 37.0097 28.4105ZM39.7331 29.0914C41.5033 29.8914 42.065 31.968 40.9246 33.4658C40.2778 34.3169 39.5969 34.6063 38.4565 34.5211C37.299 34.436 36.5501 33.9594 36.0735 33.0233C35.2905 31.4914 35.9033 29.8403 37.5203 29.0914C38.3714 28.6999 38.865 28.6999 39.7331 29.0914Z" fill="white"/>
<path d="M39.0693 31.3338L38.0821 32.3892L37.6736 31.8955C37.4523 31.6232 37.2821 31.3509 37.2651 31.2658C37.2651 31.0445 36.6182 31.1296 36.5331 31.3679C36.431 31.6402 37.7076 33.3594 38.014 33.3594C38.3374 33.3594 40.7034 30.8402 40.6353 30.6019C40.4651 30.1083 39.9885 30.3296 39.0693 31.3338Z" fill="white"/>
<path d="M22.2363 26.3138C22.1683 26.3819 22.1172 27.9478 22.1172 29.7861C22.1172 32.2712 22.1683 33.1904 22.3385 33.3095C22.5427 33.4967 28.5853 33.5819 29.147 33.4287C29.4193 33.3436 29.4363 33.1563 29.4023 31.9478C29.3512 30.6882 29.3172 30.5521 29.0108 30.5521C28.7044 30.5521 28.6704 30.6882 28.6193 31.6074L28.5683 32.6797H25.7768H22.9683V29.7861V26.8925L26.1683 26.8584C28.8576 26.8074 29.3512 26.7733 29.3512 26.5521C29.3512 26.3308 28.8236 26.2967 25.8448 26.2457C23.9214 26.2287 22.3044 26.2627 22.2363 26.3138Z" fill="white"/>
<path d="M27.564 29.2716C26.6789 29.9184 25.8619 30.4461 25.7597 30.4631C25.6576 30.4631 25.4023 30.0716 25.181 29.612C24.9087 29.0503 24.6704 28.761 24.4661 28.761C24.0236 28.761 24.0746 29.1014 24.7044 30.378C25.0619 31.1099 25.3512 31.4844 25.5555 31.4844C26.015 31.4844 29.7597 28.7269 29.7597 28.3695C29.7767 27.8248 29.198 28.0631 27.564 29.2716Z" fill="white"/>
<path d="M21.147 35.8427C21.096 35.9789 21.13 36.1831 21.2151 36.2682C21.3002 36.3533 23.1896 36.4044 25.879 36.3874C30.2364 36.3363 30.3726 36.3193 30.3726 35.9959C30.3726 35.6725 30.2364 35.6554 25.8109 35.6044C21.7938 35.5703 21.2492 35.6044 21.147 35.8427Z" fill="white"/>
<path d="M33.5725 36.1158C33.2661 36.5073 31.2747 42.5328 31.3938 42.7201C31.581 43.0265 31.8534 42.9073 32.6193 42.1924C33.0449 41.818 33.4364 41.5456 33.4874 41.6137C33.5555 41.6648 33.6917 42.1584 33.7768 42.686C33.913 43.469 34.0151 43.6562 34.2704 43.6562C34.5427 43.6562 34.781 43.1456 35.5981 40.8477C36.1427 39.2988 36.5853 37.9031 36.5853 37.7328C36.5853 37.5626 36.4491 37.4435 36.2619 37.4435C36.0066 37.4435 35.7853 37.852 35.2066 39.469C34.4747 41.4605 34.2023 41.835 34.2023 40.8307C34.2023 40.1158 33.7768 40.0137 33.164 40.6094C32.8917 40.8648 32.6704 41.018 32.6704 40.9158C32.6704 40.8307 33.0278 39.7924 33.4534 38.5839C34.1683 36.5754 34.2874 35.9116 33.8959 35.9116C33.8108 35.9116 33.6576 36.0137 33.5725 36.1158Z" fill="white"/>
<path d="M42.9 36.0627C42.6957 36.1989 42.8149 36.6244 43.5979 38.5308C44.1085 39.8074 44.5 40.8457 44.466 40.8457C44.4319 40.8457 44.1766 40.6755 43.9213 40.4883C43.3255 40.0457 43.1213 40.1478 42.9681 40.9649L42.8489 41.6117L42.4404 40.5904C41.1638 37.5266 41.1298 37.4415 40.8064 37.4415C40.6362 37.4415 40.5 37.5606 40.5 37.6968C40.5 38.0202 42.6787 43.433 42.883 43.6372C43.1723 43.9266 43.4787 43.433 43.6489 42.3606L43.8191 41.3223L44.7213 42.0372C46.083 43.1266 46.2021 42.8202 45.266 40.5393C43.717 36.7266 43.3596 35.9095 43.2404 35.9095C43.1894 35.9095 43.0362 35.9776 42.9 36.0627Z" fill="white"/>
<path d="M21.147 38.7333C21.096 38.8695 21.13 39.0737 21.2151 39.1588C21.3002 39.2439 23.1896 39.295 25.879 39.278L30.3726 39.2269L30.4236 38.8354L30.4747 38.461H25.8619C21.8449 38.461 21.2492 38.495 21.147 38.7333Z" fill="white"/>
<path d="M21.1462 41.613C21.0952 41.7662 21.0952 41.9194 21.1292 41.9534C21.1803 42.0045 22.9675 42.0385 25.1122 42.0556C30.8143 42.0726 30.4569 42.0896 30.4569 41.6981C30.4569 41.3577 30.3377 41.3577 25.8611 41.3577C21.8611 41.3577 21.2483 41.3917 21.1462 41.613Z" fill="white"/>
</svg>
