<svg width="65" height="64" viewBox="0 0 65 64" fill="none" xmlns="http://www.w3.org/2000/svg">
<rect x="0.5" width="64" height="64" rx="32" fill="#E86831"/>
<path d="M36.1673 23.4111C36.0528 23.5255 35.9592 23.7128 35.9592 23.8272C35.9592 23.9416 36.0528 24.1289 36.1673 24.2433C36.2817 24.3577 36.4689 24.4514 36.5834 24.4514C36.7706 24.4514 36.7914 24.5242 36.7914 25.2316C36.7914 25.9702 36.781 26.0118 36.5522 26.0118C35.6471 26.0118 33.4833 26.9377 32.443 27.7803L31.798 28.3004L28.7084 28.3212L25.6083 28.3524L25.5771 28.6957C25.5147 29.3511 25.4523 29.3407 29.0829 29.3407H32.391L33.1608 28.7478C34.6484 27.6242 36.1048 27.1249 37.9357 27.1249C39.7458 27.1249 41.1814 27.6034 42.6378 28.7061C43.907 29.6736 44.9369 31.2236 45.3946 32.8777C45.6443 33.8035 45.6443 35.8113 45.3946 36.6747C44.9369 38.2248 44.2607 39.3587 43.158 40.3782C42.2737 41.2 41.5351 41.6473 40.3596 42.0634C39.4962 42.3755 39.3609 42.3963 37.9357 42.3859C36.5938 42.3859 36.3337 42.3547 35.6263 42.1154C34.4508 41.7201 33.5561 41.1792 32.5783 40.2533L31.7044 39.4315H28.3859C24.8489 39.4315 24.8281 39.4315 24.8281 39.9516C24.8281 40.4614 24.8801 40.4718 27.9802 40.4718H30.8826L31.746 41.2832C35.7407 45.0178 41.8576 44.4769 45.1345 40.0765C46.206 38.6305 46.7886 36.8204 46.799 34.9063C46.8094 33.1482 46.4245 31.6502 45.6339 30.3602L45.3114 29.8297L45.6963 29.4343C46.0604 29.0598 46.102 29.039 46.2788 29.2055C46.4245 29.3407 46.4869 29.3407 46.6221 29.2367C46.7054 29.1639 46.7782 29.0286 46.7782 28.935C46.7782 28.7061 45.5194 27.4682 45.2906 27.4682C45.0409 27.4682 44.9473 27.7595 45.1033 28.0196C45.2178 28.1964 45.1969 28.2692 44.9161 28.5397L44.604 28.8622L44.1567 28.4461C43.3452 27.6971 42.565 27.1665 41.6704 26.7504C40.8277 26.3551 39.6626 26.0118 39.2049 26.0118C38.9864 26.0118 38.976 25.9598 38.976 25.2316C38.976 24.5554 38.9968 24.4514 39.1633 24.4514C39.4962 24.4514 39.8083 24.1497 39.8083 23.8272C39.8083 23.2862 39.5378 23.203 37.8629 23.203C36.5106 23.203 36.3545 23.2238 36.1673 23.4111Z" fill="white"/>
<path d="M22.9764 31.0245C22.8204 31.1806 22.8204 31.5551 22.9764 31.7111C23.1533 31.888 30.144 31.888 30.3208 31.7111C30.4769 31.5551 30.4769 31.1806 30.3208 31.0245C30.144 30.8477 23.1533 30.8477 22.9764 31.0245Z" fill="white"/>
<path d="M39.5266 33.6298L37.4148 35.7416L36.1352 34.462C34.8037 33.1305 34.5228 32.9744 34.1483 33.3593C33.753 33.7442 33.909 33.9939 35.5735 35.6584C36.7698 36.8651 37.2275 37.25 37.4252 37.25C37.6228 37.25 38.2366 36.6986 40.0987 34.8261C41.4303 33.4946 42.5122 32.319 42.5122 32.2254C42.5122 31.9861 42.0545 31.5284 41.8256 31.5284C41.7216 31.5284 40.6917 32.4751 39.5266 33.6298Z" fill="white"/>
<path d="M18.9398 33.9621C18.9086 34.0453 18.8982 34.243 18.919 34.4094L18.9502 34.7007L24.5574 34.7319C28.6145 34.7423 30.2061 34.7215 30.2998 34.6383C30.4766 34.4926 30.487 34.1077 30.3206 33.9413C30.2269 33.8477 28.8122 33.8165 24.599 33.8165C19.8657 33.8165 18.9918 33.8373 18.9398 33.9621Z" fill="white"/>
<path d="M22.9764 36.8526C22.8204 37.0087 22.8204 37.3832 22.9764 37.5392C23.1533 37.7161 30.144 37.7161 30.3208 37.5392C30.4769 37.3832 30.4769 37.0087 30.3208 36.8526C30.144 36.6758 23.1533 36.6758 22.9764 36.8526Z" fill="white"/>
</svg>
