<svg width="65" height="64" viewBox="0 0 65 64" fill="none" xmlns="http://www.w3.org/2000/svg">
<rect x="0.5" width="64" height="64" rx="32" fill="#E86831"/>
<path d="M23.511 19.1162C23.2693 19.2726 22.9848 19.5286 22.9137 19.685C22.8142 19.8557 22.7573 21.0504 22.7573 22.7428V25.5304H21.6479C20.9795 25.5304 20.439 25.6015 20.2826 25.7153C20.0551 25.8717 20.0408 26.3979 20.0835 33.1535C20.1262 41.2033 20.0835 40.8477 21.0933 41.4593C21.5199 41.7295 21.8613 41.7437 27.8204 41.7437H34.1066L34.9315 42.1277C35.671 42.4833 35.9413 42.5259 37.1217 42.5259C38.5297 42.5117 39.3546 42.2699 40.1937 41.6157C40.535 41.3455 40.5635 41.3455 40.8053 41.5873C40.9759 41.7579 41.0328 41.9855 40.9902 42.4406C40.9333 43.0237 40.9617 43.0664 41.9857 44.1046C43.1946 45.3135 43.607 45.4273 44.3608 44.7873C44.7306 44.4886 44.8017 44.3179 44.8017 43.8202C44.8017 43.2797 44.7164 43.1517 43.8062 42.2415C42.8533 41.2886 42.7679 41.2459 42.1848 41.2744C41.7439 41.2886 41.4879 41.2175 41.3315 41.0468C41.1324 40.8193 41.1466 40.7624 41.4879 40.2504C42.8533 38.245 42.5973 35.557 40.8622 33.6228L40.407 33.1108L40.3644 26.4833L40.3217 19.8415L39.8524 19.3864L39.3973 18.917L31.6746 18.8744C24.2364 18.8459 23.9519 18.8459 23.511 19.1162ZM39.3546 19.8699C39.639 20.1402 39.6817 20.3108 39.6817 21.3633V22.5437H31.5466H23.3973L23.4684 21.2495C23.5253 20.1828 23.5822 19.9268 23.8097 19.7562C24.0515 19.5855 25.3457 19.557 31.5608 19.557H39.0275L39.3546 19.8699ZM39.6817 27.9482C39.6817 30.5224 39.6675 32.6415 39.6533 32.6415C39.6248 32.6415 39.1982 32.5135 38.7146 32.357C37.4773 31.973 36.5528 32.0015 35.3439 32.4566C34.3484 32.8406 34.3199 32.8406 29.3706 32.9117C25.0755 32.9828 24.3928 33.0255 24.3928 33.2104C24.3928 33.3953 25.0044 33.4237 28.8444 33.4664C31.2764 33.4806 33.2817 33.5375 33.2817 33.5802C33.2817 33.6228 33.0968 33.9357 32.8551 34.277C32.6275 34.6184 32.3715 35.0593 32.2862 35.2584L32.1439 35.6282H28.2328H24.3075L24.3502 35.941L24.3928 36.2682L28.1617 36.3393L31.9306 36.4104V37.1926C31.9306 37.8753 31.959 37.9748 32.215 37.9748C32.4568 37.9748 32.5137 37.8468 32.599 37.0077C32.7555 35.3295 33.7084 33.9499 35.2017 33.2104C35.7848 32.9259 36.1262 32.8548 37.1217 32.869C38.1457 32.869 38.4444 32.9259 39.0702 33.253C40.0088 33.7366 40.7199 34.4335 41.2035 35.3864C41.5448 36.0264 41.6017 36.2966 41.6017 37.3348C41.5875 38.757 41.2604 39.6104 40.3217 40.549C38.2879 42.5828 34.7466 42.1846 33.2817 39.781C33.0826 39.4397 32.8266 39.1979 32.7128 39.2264C32.3431 39.2833 32.3999 39.8095 32.8551 40.4353L33.2817 41.0326H28.6879C24.7626 41.0326 24.0515 41.0042 23.7813 40.805C23.6106 40.6913 23.4684 40.4637 23.4684 40.3215C23.4684 39.8806 23.3119 39.6104 23.0275 39.6104C22.8284 39.6104 22.7715 39.7384 22.7288 40.2788C22.6862 40.9473 22.6719 40.9615 22.1742 41.0042C21.7902 41.0326 21.5484 40.9615 21.2497 40.6913L20.8373 40.3499V33.3242V26.3126H21.7617H22.6862L22.7288 32.3144C22.7573 38.1028 22.7715 38.3304 23.0275 38.3304C23.1697 38.3304 23.3404 38.2308 23.383 38.1028C23.4257 37.9748 23.4684 34.5899 23.4684 30.565V23.2548H31.575H39.6817V27.9482ZM43.3653 42.8104C44.2186 43.6922 44.247 43.7633 44.0479 44.0619C43.9342 44.2326 43.735 44.4033 43.5928 44.4175C43.2942 44.4886 41.6728 42.9242 41.6728 42.5828C41.6728 42.2842 42.0426 41.8859 42.2986 41.8859C42.3982 41.8859 42.8817 42.2984 43.3653 42.8104Z" fill="white"/>
<path d="M24.5495 24.847C24.3646 25.1172 24.3219 25.6577 24.3219 27.9901C24.3219 31.7874 24.009 31.503 28.0908 31.503C32.1726 31.503 31.8597 31.7874 31.8597 27.9901C31.8597 25.6577 31.817 25.1172 31.6322 24.847C31.4188 24.5341 31.3619 24.5341 28.0908 24.5341C24.8197 24.5341 24.7628 24.5341 24.5495 24.847ZM30.9779 25.2168C31.1059 25.3163 31.1486 25.9705 31.1202 28.0328L31.0775 30.7208H28.0908H25.1042L25.0615 28.0328C25.033 25.9705 25.0757 25.3163 25.2037 25.2168C25.3033 25.1599 26.6117 25.103 28.0908 25.103C29.5842 25.103 30.8784 25.1599 30.9779 25.2168Z" fill="white"/>
<path d="M33.0404 25.6306C32.9408 25.6591 32.8555 25.8155 32.8555 25.972C32.8555 26.228 32.9977 26.2422 36.0412 26.2422C39.2555 26.2422 39.6252 26.1853 39.2555 25.7444C39.1132 25.5737 38.5444 25.5311 36.1408 25.5453C34.5337 25.5453 33.1257 25.588 33.0404 25.6306Z" fill="white"/>
<path d="M32.8555 29.0747C32.8555 29.217 32.955 29.3876 33.083 29.4303C33.211 29.473 34.6048 29.5156 36.1977 29.5156C38.5444 29.5156 39.1132 29.473 39.2555 29.3023C39.6252 28.8614 39.2555 28.8045 36.0412 28.8045C33.0119 28.8045 32.8555 28.8187 32.8555 29.0747Z" fill="white"/>
<path d="M36.1264 33.5339C34.8464 33.8894 33.9077 34.6859 34.3486 35.0556C34.5051 35.1836 34.6473 35.141 35.0455 34.8423C36.2544 33.9321 37.7477 33.8752 38.9993 34.7143C39.7246 35.2121 40.1086 35.2548 40.1086 34.8565C40.1086 34.6005 39.3549 34.0032 38.6722 33.7188C37.9184 33.4059 36.8517 33.3348 36.1264 33.5339Z" fill="white"/>
<path d="M32.0737 38.4744C31.9457 38.6877 32.2728 39.0433 32.5145 38.9437C32.8274 38.8299 32.7705 38.3322 32.4434 38.3322C32.287 38.3322 32.1163 38.4033 32.0737 38.4744Z" fill="white"/>
<path d="M22.7578 38.8828C22.7578 39.2526 22.9996 39.3948 23.2556 39.1815C23.5116 38.9681 23.3694 38.6126 23.028 38.6126C22.8574 38.6126 22.7578 38.7121 22.7578 38.8828Z" fill="white"/>
</svg>
