<svg width="65" height="64" viewBox="0 0 65 64" fill="none" xmlns="http://www.w3.org/2000/svg">
<rect x="0.5" width="64" height="64" rx="32" fill="#E86831"/>
<path d="M33.4985 17.3481C33.4192 17.4217 33.4645 17.5747 33.6004 17.7049L33.7364 17.8352L33.5721 18.0221C33.2946 18.3393 33.4985 18.5546 33.8157 18.2714L33.9969 18.1071L34.1725 18.277C34.4784 18.5716 34.6823 18.345 34.3821 18.0335L34.2292 17.8749L34.3878 17.7106C34.6823 17.4047 34.4388 17.1612 34.1329 17.4557L33.9686 17.6143L33.81 17.4614C33.6514 17.3084 33.5665 17.2745 33.4985 17.3481Z" fill="white"/>
<path d="M25.331 19.2469C25.3197 19.2866 25.297 19.4055 25.2914 19.5131C25.2744 19.7001 25.263 19.7114 25.0591 19.717C24.64 19.7397 24.6173 20.0116 25.0308 20.0399C25.2744 20.0569 25.2744 20.0569 25.2914 20.3005C25.3197 20.714 25.5689 20.697 25.6029 20.2778C25.6199 20.0626 25.6255 20.0569 25.8748 20.0286C26.0787 20.0059 26.1297 19.9776 26.141 19.87C26.1637 19.7397 26.1013 19.717 25.8011 19.7397C25.6822 19.751 25.6425 19.7284 25.6369 19.6491C25.6086 19.2752 25.5689 19.1789 25.4386 19.1789C25.3933 19.1789 25.3423 19.2129 25.331 19.2469Z" fill="white"/>
<path d="M29.5101 20.1076C28.8984 20.3002 28.4792 20.742 28.1677 21.5237C27.7938 22.4753 27.5276 22.6735 26.5194 22.7471C25.7377 22.8038 25.2959 22.9794 24.9107 23.3759C24.3669 23.9423 24.2197 24.6334 24.4519 25.5226C24.6728 26.3893 24.5878 26.8141 24.1064 27.2559C23.302 27.9923 23.2114 28.0886 23.0755 28.4001C22.8715 28.8533 22.8319 29.2611 22.9452 29.7142C23.0755 30.2183 23.2907 30.5242 23.8345 30.9887C24.5878 31.6288 24.7124 32.0253 24.4519 32.9655C24.146 34.0701 24.5312 35.0443 25.4545 35.4975C25.7603 35.6504 25.9133 35.6901 26.4514 35.7297C26.8026 35.758 27.0971 35.792 27.1084 35.8033C27.1198 35.8203 26.3664 37.4686 25.4318 39.4681C24.4972 41.4733 23.7495 43.1159 23.7778 43.1273C23.8005 43.1386 24.5595 43.065 25.4601 42.9743C26.3664 42.878 27.1651 42.7987 27.2387 42.7987C27.352 42.7987 27.5333 43.0366 28.3886 44.2998C28.9437 45.1268 29.4025 45.8008 29.4081 45.8008C29.4138 45.8008 30.0369 44.464 30.8016 42.8271C31.5606 41.1901 32.2006 39.8533 32.2176 39.8533C32.2346 39.8533 32.9993 41.3883 33.9113 43.2632C34.8232 45.1438 35.5879 46.6958 35.6049 46.7184C35.6219 46.7354 36.0807 46.067 36.6245 45.2287C37.2305 44.2998 37.6497 43.705 37.7007 43.705C37.7516 43.705 38.505 43.7673 39.3773 43.8466C40.2496 43.9259 41.0313 43.9882 41.1162 43.9882C41.2578 43.9882 41.2182 43.8976 39.7342 40.8559C37.8819 37.0665 37.4231 36.1149 37.4231 36.0469C37.4231 35.928 37.9329 35.7807 38.539 35.7297C39.2923 35.6617 39.6718 35.5145 40.0457 35.1406C40.6234 34.5572 40.7651 33.8775 40.5102 32.8919C40.2779 32.0083 40.3799 31.6514 41.003 31.119C41.8413 30.4053 42.0169 30.1107 42.0565 29.3687C42.0962 28.5361 41.8979 28.1282 41.1106 27.4768C40.3855 26.8764 40.2723 26.5196 40.5102 25.5793C40.6971 24.8543 40.6801 24.4578 40.4535 23.948C40.2666 23.5288 39.8701 23.138 39.4339 22.9397C39.196 22.8321 38.9751 22.7868 38.4767 22.7471C37.4684 22.6735 37.1965 22.4696 36.8 21.5123C36.5508 20.9062 36.3809 20.6627 36.0184 20.3965C35.6332 20.1189 35.2424 20.0113 34.7156 20.0396C34.2398 20.0623 33.9679 20.1699 33.2939 20.589C32.6594 20.9912 32.2346 20.9686 31.4813 20.4814C31.2377 20.3285 30.9318 20.1642 30.8016 20.1132C30.5014 20.0113 29.8386 20.0056 29.5101 20.1076ZM30.9658 20.9686C32.0194 21.6426 32.7614 21.7219 33.5487 21.2348C34.3304 20.7533 34.455 20.7023 34.8175 20.7023C35.4406 20.6967 35.9277 21.0592 36.143 21.6823C36.4319 22.5092 36.8737 23.036 37.4571 23.2569C37.6497 23.3249 38.0179 23.3929 38.3861 23.4212C39.0941 23.4778 39.3207 23.5685 39.6265 23.914C39.9834 24.3218 40.0457 24.707 39.8644 25.381C39.7002 25.9815 39.6775 26.2194 39.7398 26.5592C39.8248 27.0293 40.0174 27.3805 40.3572 27.6977C41.2295 28.5134 41.2578 28.5474 41.3541 28.8646C41.5354 29.4763 41.3371 29.9351 40.6234 30.5469C40.0797 31.017 39.8361 31.3909 39.7455 31.912C39.6775 32.3028 39.6718 32.2745 39.9324 33.396C40.057 33.9568 39.8021 34.5629 39.3207 34.8461C39.0998 34.9764 38.9355 35.0103 38.3577 35.0726C37.0946 35.2029 36.6358 35.5428 36.1996 36.6586C36.0297 37.1061 35.9504 37.2307 35.7182 37.4403C35.2254 37.8821 34.6533 37.9218 34.0472 37.5479C33.2259 37.0438 33.1239 36.9985 32.6255 36.9758C32.0364 36.9419 31.7645 37.0268 31.1018 37.446C30.5467 37.7915 30.2408 37.8708 29.833 37.7632C29.2779 37.6216 29.1136 37.4233 28.6208 36.3301C28.2583 35.5258 27.7428 35.1803 26.7686 35.0896C26.4457 35.0613 26.0719 35.0103 25.9473 34.9764C25.4375 34.8461 25.0183 34.2796 25.0183 33.7189C25.0183 33.5716 25.0693 33.2657 25.1316 33.0448C25.1939 32.8183 25.2449 32.4671 25.2449 32.2575C25.2449 31.5268 25.007 31.0793 24.3046 30.5016C23.7382 30.0314 23.5739 29.7482 23.5739 29.2611C23.5796 28.8079 23.6929 28.553 24.0441 28.2302C24.8031 27.5335 25.0013 27.2956 25.1259 26.9784C25.2789 26.5592 25.2845 25.9984 25.1316 25.4547C24.922 24.7013 25.0127 24.2199 25.4431 23.8064C25.7037 23.5515 26.0379 23.4438 26.6893 23.4042C27.2897 23.3702 27.6069 23.2683 27.9807 23.002C28.3433 22.7301 28.5358 22.4469 28.7794 21.8239C29.0513 21.1158 29.3628 20.81 29.9066 20.7137C30.2521 20.657 30.6146 20.742 30.9658 20.9686ZM27.8618 36.3075C27.9128 36.3811 28.0487 36.6643 28.1563 36.9362C28.4056 37.5593 28.5868 37.8198 28.921 38.0634C29.714 38.6355 30.5127 38.6185 31.4756 38.0124C31.9571 37.7065 32.4385 37.5309 32.4385 37.6669C32.4329 37.7745 29.3402 44.3564 29.2949 44.3564C29.2552 44.3564 27.9128 42.4249 27.7428 42.1304C27.7089 42.0737 27.437 42.085 26.3211 42.204C25.5678 42.2833 24.922 42.3399 24.8994 42.3343C24.8541 42.3173 27.6862 36.1715 27.7372 36.1715C27.7542 36.1772 27.8108 36.2338 27.8618 36.3075ZM38.8279 40.5387C39.5189 41.9604 40.0853 43.1499 40.0853 43.1782C40.0853 43.2179 38.5333 43.1159 37.5364 43.0027L37.2758 42.9743L36.5168 44.1582C36.0977 44.8096 35.7352 45.342 35.7182 45.3477C35.7012 45.3477 35.1291 44.2092 34.4494 42.8101C33.7697 41.4167 33.0729 39.9949 32.903 39.6437L32.5858 39.0093L32.8577 38.4146C33.0106 38.0861 33.1522 37.8142 33.1692 37.8142C33.1862 37.8142 33.3788 37.9331 33.5941 38.0691C34.0869 38.3863 34.3361 38.4656 34.8742 38.4599C35.7238 38.4542 36.4319 37.9388 36.7661 37.0778L36.9303 36.6586L37.2475 37.3044C37.4231 37.6612 38.1368 39.117 38.8279 40.5387Z" fill="white"/>
<path d="M31.4548 23.6873C29.2344 24.1517 27.5691 25.7151 27.0196 27.8505C26.5098 29.85 27.0989 31.8835 28.6 33.3222C29.393 34.0813 30.3332 34.574 31.4208 34.8006C32.0778 34.9366 33.392 34.8799 34.0433 34.6817C36.0598 34.0756 37.5835 32.4499 38.0253 30.4278C38.1386 29.8783 38.1556 28.7115 38.0537 28.2187C37.5892 25.9926 36.0315 24.3387 33.8678 23.7609C33.29 23.6136 32.0099 23.5683 31.4548 23.6873ZM33.4146 24.3613C35.567 24.7861 37.1361 26.4741 37.4306 28.6888C37.6175 30.0766 37.1191 31.5663 36.1108 32.6369C35.4651 33.3166 34.8363 33.7187 33.9867 33.9906C32.1968 34.5514 30.3049 34.0813 28.9625 32.7445C27.5124 31.2944 27.1103 29.074 27.9599 27.1991C28.617 25.7547 29.9141 24.7182 31.5057 24.367C31.9646 24.265 32.9048 24.265 33.4146 24.3613Z" fill="white"/>
<path d="M30.7403 27.0655C30.457 27.2128 30.2305 27.5753 30.2305 27.8812C30.2305 28.3003 30.5307 28.6798 30.9555 28.8101C31.6069 29.0027 32.2753 28.3343 32.0997 27.6716C31.9298 27.0485 31.301 26.7653 30.7403 27.0655ZM31.42 27.6716C31.4823 27.7339 31.5333 27.8302 31.5333 27.8868C31.5333 28.0284 31.3293 28.238 31.1934 28.238C31.0461 28.238 30.8535 28.0454 30.8535 27.8982C30.8535 27.7509 31.0461 27.5583 31.1934 27.5583C31.2557 27.5583 31.3577 27.6093 31.42 27.6716Z" fill="white"/>
<path d="M32.162 29.1427C31.3803 30.3209 30.7402 31.3178 30.7402 31.3518C30.7402 31.3914 30.8818 31.4141 31.1254 31.4141L31.5049 31.4084L32.921 29.2616C33.7027 28.0778 34.3371 27.0922 34.3371 27.0695C34.3371 27.0469 34.1671 27.0186 33.9632 27.0072L33.5894 26.9902L32.162 29.1427Z" fill="white"/>
<path d="M33.3507 29.7583C32.9145 29.9736 32.7276 30.574 32.9598 31.0215C33.1411 31.3783 33.396 31.5312 33.7982 31.5312C34.2003 31.5312 34.4552 31.3783 34.6365 31.0215C34.7951 30.7099 34.7724 30.3644 34.5685 30.0529C34.3249 29.6847 33.7755 29.5544 33.3507 29.7583ZM34.0587 30.4267C34.172 30.6023 34.1437 30.7269 33.9568 30.8685L33.7982 30.9875L33.6452 30.8685C33.4526 30.7269 33.4243 30.6023 33.5376 30.4267C33.5999 30.3304 33.6849 30.2851 33.7982 30.2851C33.9114 30.2851 33.9964 30.3304 34.0587 30.4267Z" fill="white"/>
<path d="M38.2341 20.3371C37.713 20.5693 37.8886 21.3906 38.4607 21.3906C38.7383 21.3906 38.8742 21.317 38.9875 21.0961C39.2367 20.6203 38.7383 20.1162 38.2341 20.3371ZM38.6363 20.6883C38.7609 20.8072 38.7496 20.9148 38.6023 21.0168C38.4494 21.1244 38.2738 21.0451 38.2738 20.8638C38.2738 20.6203 38.472 20.524 38.6363 20.6883Z" fill="white"/>
<path d="M21.9606 25.1402C21.9152 25.2365 21.8246 25.3045 21.7227 25.3271L21.5527 25.3668L21.6773 25.4971C21.768 25.5933 21.785 25.6613 21.7566 25.7746C21.7227 25.9219 21.7283 25.9219 21.8699 25.8596C21.9832 25.8086 22.0512 25.8086 22.1588 25.8539C22.2381 25.8936 22.3117 25.9219 22.3174 25.9219C22.3287 25.9219 22.3231 25.8312 22.3117 25.7236C22.2948 25.582 22.3117 25.5197 22.3797 25.4914C22.51 25.4404 22.493 25.3724 22.3287 25.3328C22.2551 25.3158 22.1531 25.2252 22.1078 25.1402L22.0285 24.9873L21.9606 25.1402Z" fill="white"/>
<path d="M42.477 25.3746C42.4317 25.4765 42.3694 25.5218 42.2675 25.5218C42.1089 25.5218 42.0862 25.5898 42.2108 25.6918C42.2561 25.7314 42.2958 25.8334 42.2958 25.924C42.2958 26.1053 42.3128 26.1166 42.4714 26.026C42.562 25.9807 42.6187 25.9863 42.7319 26.06L42.8792 26.1562L42.8396 25.9523C42.8056 25.7881 42.8226 25.7371 42.9189 25.6804C43.0718 25.5842 43.0605 25.5218 42.8962 25.5218C42.8112 25.5218 42.7149 25.4652 42.6526 25.3746L42.545 25.2273L42.477 25.3746Z" fill="white"/>
<path d="M44.175 29.7319L43.9937 29.9075L43.8351 29.7545C43.5406 29.4713 43.28 29.6413 43.5633 29.9358C43.6426 30.0208 43.7105 30.1114 43.7105 30.1397C43.7105 30.168 43.6426 30.2587 43.5633 30.3436C43.28 30.6382 43.5406 30.8081 43.8351 30.5249L43.9937 30.372L44.1523 30.5249C44.4639 30.8251 44.6905 30.6212 44.3902 30.3096L44.2203 30.1341L44.3902 29.9698C44.5828 29.7829 44.6055 29.6866 44.4582 29.6073C44.3733 29.562 44.3166 29.5903 44.175 29.7319Z" fill="white"/>
<path d="M20.7144 31.1949C20.2329 31.5234 20.4369 32.2031 21.0146 32.2031C21.3375 32.2031 21.5641 31.9879 21.5641 31.6707C21.5641 31.3875 21.4791 31.2459 21.2525 31.1496C20.992 31.0419 20.9353 31.0476 20.7144 31.1949ZM21.2072 31.5631C21.2808 31.6707 21.2752 31.699 21.1676 31.8066C21.0599 31.9142 21.0316 31.9199 20.924 31.8463C20.7654 31.7387 20.7427 31.6197 20.8617 31.5008C20.9806 31.3818 21.0996 31.4045 21.2072 31.5631Z" fill="white"/>
<path d="M40.5794 36.7691C40.5567 36.7917 40.5397 36.9107 40.5397 37.0296C40.5397 37.2449 40.5397 37.2449 40.3188 37.2449C40.0809 37.2449 39.9507 37.3468 40.0073 37.4941C40.03 37.5564 40.1149 37.5847 40.2905 37.5847H40.5397V37.8396C40.5397 38.0209 40.5681 38.1058 40.6247 38.1285C40.7663 38.1851 40.8796 38.0379 40.8796 37.8056V37.5847H41.1288C41.3044 37.5847 41.3894 37.5564 41.412 37.4941C41.4687 37.3468 41.3384 37.2449 41.1005 37.2449C40.8909 37.2449 40.8853 37.2449 40.8683 37.0013C40.8569 36.8144 40.8286 36.7577 40.738 36.7464C40.67 36.7351 40.6021 36.7464 40.5794 36.7691Z" fill="white"/>
<path d="M23.3877 36.9233C23.2857 37.0253 23.3027 37.0876 23.467 37.2575L23.6199 37.4161L23.467 37.5973C23.1894 37.9202 23.416 38.1355 23.7219 37.8409L23.8861 37.6823L24.0447 37.8352C24.226 38.0108 24.3676 38.0335 24.4186 37.8919C24.4412 37.8352 24.4016 37.7446 24.311 37.6483C24.1354 37.4614 24.1354 37.4387 24.3223 37.2405C24.4469 37.1102 24.4639 37.0592 24.4186 36.9856C24.3223 36.827 24.2373 36.8383 24.0504 37.0253L23.8692 37.2008L23.6936 37.0309C23.4896 36.8327 23.484 36.827 23.3877 36.9233Z" fill="white"/>
</svg>
