<svg width="37" height="37" viewBox="0 0 37 37" fill="none" xmlns="http://www.w3.org/2000/svg">
<rect width="37" height="37" rx="18.5" fill="#F7F7F7"/>
<path d="M11.9759 22.3035C12.2122 22.5278 12.3467 22.9296 12.3096 23.1389L12.2006 23.7465L11.7584 26.2146C11.68 26.6506 11.8603 26.8432 11.9745 26.9193C12.0325 26.9577 12.1241 27 12.2476 27C12.3675 27 12.5176 26.96 12.6953 26.8377L14.7198 25.446L15.5706 24.8612C15.7515 24.7367 16.1111 24.6675 16.3244 24.7143C16.3739 24.7257 17.5525 24.9867 18.5 24.9867C23.1868 24.9867 27 21.6255 27 17.4939C26.9999 13.3617 23.1868 10 18.5 10C13.8132 10 10 13.3617 10 17.4939C10 19.0707 10.5489 20.579 11.5878 21.8561C11.855 22.1848 11.9578 22.2864 11.9761 22.3036L11.9759 22.3035ZM18.4997 10.6119C22.8549 10.6119 26.3983 13.699 26.3983 17.4938C26.3983 21.2878 22.8553 24.3744 18.4997 24.3744C17.6185 24.3744 16.465 24.119 16.4531 24.1166C16.0768 24.0324 15.5527 24.1347 15.2334 24.3539L14.383 24.9387L12.3587 26.3303C12.3547 26.3333 12.3509 26.3359 12.3468 26.3382C12.3476 26.3339 12.3485 26.3292 12.3495 26.3245L12.7918 23.8562L12.9006 23.2484C12.9794 22.8081 12.7583 22.2092 12.3878 21.8577C12.3869 21.8565 12.295 21.7659 12.0506 21.4656C11.1022 20.2996 10.6009 18.9262 10.6009 17.4938C10.6012 13.6991 14.1441 10.6119 18.4997 10.6119Z" fill="#717171" stroke="#717171"/>
</svg>
