<svg width="80" height="80" viewBox="0 0 80 80" fill="none" xmlns="http://www.w3.org/2000/svg">
<ellipse cx="42.2608" cy="42.4572" rx="23.3623" ry="24.7619" fill="#ED885C" fill-opacity="0.9"/>
<path d="M27 46L28 44H31L36.5 60.5H25.5L24 58.5H33.5L29 46H27Z" fill="white"/>
<ellipse cx="43.362" cy="18.4383" rx="9.3913" ry="9.95392" fill="#DBDBDB"/>
<path d="M71.0143 47H49.7969V58.0599H71.0143V47Z" fill="#FBDC8C" stroke="#FBDC8C"/>
<path d="M69.2159 61.2656H49.6797V66.1197H69.2159V61.2656Z" fill="#F7F7F7" stroke="#F7F7F7"/>
<path d="M60.1152 61.6303L54.8398 57.3906L55.1297 64.5796L57.1587 63.7193L59.6514 68.2048L60.579 67.7132L58.3181 62.9206L60.1152 61.6303Z" fill="#F7F7F7"/>
<ellipse cx="42.7822" cy="41.9075" rx="3.36232" ry="3.56375" fill="white"/>
<ellipse cx="42.7822" cy="63.2825" rx="3.36232" ry="3.56375" fill="white"/>
<path d="M69.1006 39.4531H49.7383V44H69.1006V39.4531Z" fill="#FFA08E" stroke="#FFA08E"/>
<ellipse cx="42.724" cy="52.5382" rx="1.33333" ry="1.41321" fill="#F6F1F1"/>
<path d="M35.0724 5.40625L30.8984 6.26647L34.1448 9.70732L35.0724 5.40625Z" fill="#FFA08E"/>
<path d="M55.6531 30.3571L52.4067 26.9778L51.711 31.3402L55.6531 30.3571Z" fill="#FFA08E"/>
<path d="M41.4845 2.33062C40.499 2.4535 38.725 2.87132 38.3656 3.06794C38.099 3.2277 38.0758 3.47347 38.3076 3.67009C38.4352 3.79298 38.6091 3.78069 39.0961 3.62094C40.8468 3.06794 43.3627 2.92048 45.299 3.25227C50.5743 4.16164 55.0613 8.19237 56.7424 13.5503C57.2874 15.2707 57.4497 16.389 57.4381 18.4904C57.4381 20.2108 57.4033 20.6286 57.125 21.8083C56.6149 23.9712 55.6062 26.2937 54.6323 27.5103L54.3076 27.9282L53.6584 27.24C53.299 26.859 52.8816 26.4658 52.7308 26.3675C52.3714 26.1217 51.9888 26.2323 51.8381 26.6378C51.6874 27.0557 51.0149 30.9266 51.0149 31.3813C51.0149 32.0203 51.3511 32.0449 53.8439 31.5288C55.0845 31.2707 56.1511 31.0004 56.2207 30.9266C56.5221 30.6071 56.3598 30.1279 55.6526 29.3537C55.27 28.9358 54.9569 28.5672 54.9569 28.5426C54.9569 28.5057 55.1888 28.1494 55.4671 27.7315C56.7192 25.8514 57.6816 23.3813 58.0294 21.1325C58.2497 19.6332 58.2497 17.0772 58.0178 15.6639C56.9511 9.07716 52.1743 3.90358 45.9714 2.58868C44.5685 2.29375 42.7018 2.19544 41.4845 2.33062ZM55.3627 30.3245C55.2932 30.3982 51.9076 31.0864 51.8613 31.0372C51.8149 30.9881 52.3714 27.7315 52.4758 27.412C52.5105 27.2891 53.0091 27.7315 53.9714 28.7515C54.7598 29.5871 55.3859 30.2999 55.3627 30.3245Z" fill="black"/>
<path d="M32.7061 5.28251C31.3496 5.56516 30.422 5.81093 30.3641 5.90924C30.1206 6.32706 30.2597 6.69573 30.9785 7.45763C31.5235 8.0352 31.6742 8.28098 31.593 8.40387C30.2597 10.3332 29.622 11.6112 29.0423 13.43C28.4858 15.1996 28.2539 16.7234 28.2539 18.6158C28.2771 26.0383 33.0307 32.4162 39.9061 34.2349C42.0394 34.7879 44.9496 34.7756 47.1525 34.198C47.8713 34.0137 48.0568 33.8417 47.9177 33.473C47.8365 33.2518 47.767 33.2641 45.9698 33.6205C44.6133 33.8908 42.2481 33.8908 40.9264 33.6205C35.0017 32.4284 30.5843 27.8079 29.2626 21.4423C28.9843 20.1151 28.9843 16.7848 29.2626 15.5068C29.7148 13.3562 30.6075 11.1811 31.6626 9.65732L32.2423 8.82169L33.1003 9.69419C34.4916 11.132 34.6423 11.0091 35.1872 7.97376C35.4075 6.70801 35.593 5.56516 35.593 5.42998C35.593 5.20878 35.1872 4.76639 35.0133 4.80325C34.9785 4.80325 33.9467 5.02445 32.7061 5.28251ZM34.7583 5.99526C34.7235 6.11815 34.5727 6.9415 34.422 7.83858C34.2713 8.73566 34.1206 9.4607 34.0858 9.4607C34.051 9.4607 33.3785 8.77253 32.6017 7.94918L31.1641 6.42537L32.6597 6.11815C34.5496 5.71262 34.8278 5.70033 34.7583 5.99526Z" fill="black"/>
<path d="M41.6812 7.99324C38.8986 8.46021 36.2551 10.3281 34.7479 12.9088C33.7276 14.6538 33.2754 16.3988 33.2754 18.5493C33.2754 23.9441 37.1363 28.4418 42.2261 29.0071C46.6087 29.4863 50.8174 26.8197 52.4986 22.5063C53.716 19.3849 53.3797 15.6123 51.6406 12.7613C49.8435 9.81198 46.945 8.05468 43.6522 7.93179C42.9565 7.90722 42.0638 7.93179 41.6812 7.99324ZM42.8754 11.5201L42.8406 14.322L42.145 14.2851C41.3334 14.2482 39.571 14.0147 39.2812 13.9041C39.0957 13.8304 39.0957 13.7813 39.3508 13.216C40.0696 11.5816 42.1913 8.73056 42.6783 8.73056C42.8986 8.73056 42.8986 8.85345 42.8754 11.5201ZM44.6377 9.43102C45.6348 10.623 47.4435 13.6584 47.2696 13.855C47.1652 13.9656 45.3797 14.2359 44.5218 14.2851L43.6522 14.322L43.6174 11.5201C43.5942 8.82887 43.5942 8.73056 43.8145 8.73056C43.9421 8.73056 44.3015 9.03778 44.6377 9.43102ZM40.6145 9.6768C39.9305 10.5739 39.2116 11.7536 38.7247 12.7859C38.516 13.2283 38.3305 13.6092 38.3073 13.6215C38.2493 13.7075 35.9537 12.9088 35.8725 12.7736C35.6986 12.4664 37.4493 10.6968 38.7131 9.93486C39.316 9.5662 40.7189 8.98863 41.0203 8.97634C41.1015 8.97634 40.916 9.29585 40.6145 9.6768ZM46.6667 9.38187C47.1768 9.60307 48 10.0823 48.4986 10.4387C49.4261 11.1269 50.7015 12.4786 50.6319 12.7121C50.5971 12.8473 48.5681 13.6215 48.2319 13.6338C48.1276 13.6461 47.9073 13.302 47.6754 12.7859C47.2928 11.9502 46.2145 10.1684 45.6116 9.36958C45.3334 9.0132 45.3218 8.97634 45.5189 8.97634C45.6464 8.97634 46.1565 9.16067 46.6667 9.38187ZM36.6957 13.9656C37.3913 14.2114 37.9826 14.4203 37.9942 14.4326C38.0058 14.4448 37.9131 14.875 37.7971 15.3911C37.6696 15.8949 37.5305 16.6937 37.4841 17.1607L37.3913 18.0086L35.6754 18.0455L33.9479 18.0823L34.0174 17.7382C34.0406 17.5416 34.1102 17.1361 34.145 16.8043C34.2725 15.7966 35.0957 13.5232 35.3392 13.5232C35.3855 13.5232 35.9884 13.7198 36.6957 13.9656ZM51.4899 14.0393C51.8725 14.8258 52.2783 16.1776 52.3479 16.8903C52.3942 17.2344 52.4406 17.6399 52.4754 17.7874L52.5218 18.07H50.7942H49.0667L48.9855 17.3081C48.9392 16.8903 48.7768 16.0793 48.6377 15.5017C48.487 14.9241 48.371 14.4448 48.3826 14.4326C48.858 14.2482 50.8986 13.5601 51.0377 13.5478C51.1652 13.5355 51.3276 13.7075 51.4899 14.0393ZM39.7913 14.8135C40.2899 14.9118 41.1826 15.0347 41.7971 15.0716L42.8986 15.1576V16.6077V18.07H40.5102H38.1102L38.1913 17.2958C38.2841 16.4479 38.7131 14.6292 38.829 14.6292C38.8638 14.6292 39.3044 14.7152 39.7913 14.8135ZM47.8609 15.514C48 16.0055 48.1392 16.6568 48.1739 16.964C48.2203 17.2713 48.2667 17.6399 48.3015 17.7874L48.3479 18.07H45.971H43.5942V16.6077V15.1576L44.7305 15.0716C45.345 15.0224 46.1913 14.9118 46.6087 14.8258C47.0261 14.7275 47.4203 14.6538 47.4899 14.6415C47.5594 14.6415 47.7334 15.0347 47.8609 15.514ZM37.4725 19.8028C37.5305 20.2943 37.6928 21.2037 37.8551 21.8058C38.029 22.3957 38.145 22.8995 38.1218 22.9118C38.0986 22.9241 37.5652 23.1207 36.9276 23.3419C36.2899 23.5631 35.7102 23.772 35.6406 23.7966C35.4435 23.8826 34.8522 22.7398 34.5044 21.6215C34.2261 20.7367 33.9363 19.1023 34.029 18.9425C34.0522 18.9057 34.8174 18.8688 35.7334 18.8811L37.3913 18.8934L37.4725 19.8028ZM42.8406 20.5524V22.1868L41.7276 22.2728C41.1131 22.322 40.2551 22.4448 39.8145 22.5432C39.3739 22.6415 38.9797 22.6906 38.945 22.6415C38.6667 22.322 38.0406 19.3849 38.1681 19.0286C38.2145 18.9057 38.7131 18.8688 40.5334 18.8934L42.8406 18.9057V20.5524ZM48.2551 19.6922C48.2203 20.577 47.8377 22.322 47.5942 22.7152C47.5826 22.7275 47.1884 22.6538 46.7131 22.5554C46.2377 22.4448 45.3565 22.322 44.7537 22.2728L43.6522 22.1868L43.6174 20.663C43.6058 19.815 43.6058 19.0654 43.629 19.004C43.6638 18.918 44.4522 18.8811 45.9826 18.8934L48.2899 18.918L48.2551 19.6922ZM52.429 19.5078C52.4058 19.8273 52.2899 20.5155 52.1623 21.0193C51.9189 21.9779 51.1189 23.7843 50.945 23.7843C50.887 23.7843 50.2841 23.5877 49.5884 23.3542C48.6261 23.0224 48.3594 22.8872 48.4174 22.7398C48.6145 22.2114 48.9276 20.6507 48.9971 19.9379C49.0319 19.4833 49.0783 19.0531 49.1015 18.9917C49.1131 18.918 49.7623 18.8811 50.7942 18.8934L52.4638 18.918L52.429 19.5078ZM42.8986 25.6276C42.8986 27.0777 42.8522 28.2697 42.7942 28.2697C42.6203 28.2697 41.0899 26.4756 40.4638 25.5416C39.7797 24.5094 39.2696 23.514 39.3971 23.4402C39.5826 23.3296 41.6464 23.0347 42.4116 22.9978L42.8986 22.9856V25.6276ZM46.4232 23.3051C46.8754 23.4034 47.2464 23.5017 47.2696 23.5263C47.3392 23.6 46.1681 25.5662 45.6696 26.2052C44.916 27.1883 43.9073 28.2697 43.745 28.2697C43.629 28.2697 43.5942 27.6922 43.5942 25.6154V22.961L44.6145 23.047C45.171 23.0962 45.9826 23.2068 46.4232 23.3051ZM38.7594 24.1653C39.0957 24.8903 40.1739 26.5616 40.8348 27.3358L41.4493 28.0608L41.0435 27.9871C40.2667 27.815 39.0609 27.2621 38.2261 26.6722C37.4377 26.1315 36.058 24.792 36.058 24.5831C36.058 24.4602 37.9826 23.7475 38.3305 23.7352C38.4928 23.7229 38.6319 23.8581 38.7594 24.1653ZM49.3566 24.1038C49.9479 24.3127 50.4348 24.5217 50.4348 24.5708C50.4348 24.62 50.1102 25.0132 49.7044 25.431C48.5913 26.5985 47.6522 27.2129 46.2145 27.729C45.7739 27.8888 45.3681 28.024 45.3102 28.024C45.2522 28.024 45.4957 27.6676 45.8319 27.2498C46.5971 26.2912 47.2812 25.2344 47.6986 24.3619C47.8609 24.0178 48.0696 23.7229 48.1508 23.7229C48.2203 23.7229 48.7768 23.8949 49.3566 24.1038Z" fill="black"/>
<path d="M23.7688 8.76426C21.7282 10.0054 21.4963 10.2143 21.6934 10.583C21.8673 10.9517 22.1688 10.8656 23.2702 10.1529C23.8267 9.79652 24.5108 9.3787 24.7891 9.23124C25.2181 8.99775 25.2876 8.91173 25.2528 8.62909C25.1949 8.11296 24.7775 8.14982 23.7688 8.76426Z" fill="black"/>
<path d="M18.5511 12.6046C17.4265 13.6245 16.5801 14.5462 16.5801 14.7428C16.5801 14.9763 16.8004 15.2344 17.0091 15.2344C17.0902 15.2344 17.5772 14.8288 18.0873 14.325C18.5859 13.8212 19.1888 13.2682 19.4207 13.0715C19.7453 12.8135 19.8265 12.666 19.8033 12.4202C19.7453 11.8672 19.2931 11.941 18.5511 12.6046Z" fill="black"/>
<path d="M60.7538 12.2104C60.6378 12.3701 60.6494 12.4561 60.8002 12.7265C61.0204 13.0829 61.4031 13.0952 61.6117 12.7388C61.89 12.2718 61.1016 11.7803 60.7538 12.2104Z" fill="black"/>
<path d="M10.377 58.191L14.5509 46.5781H28.9857L32.9277 58.191H10.377Z" fill="#FBDC8C" stroke="#FBDC8C"/>
<path d="M13.4494 37.6105C13.7391 40.9899 18.351 49.2396 21.636 53.766C24.3026 50.0793 30.0418 41.3585 30.0418 37.6105C30.0418 32.5878 26.0998 28.947 21.636 28.7627C17.1722 28.5783 13.1118 33.6738 13.4494 37.6105Z" fill="#FFA08E" stroke="black"/>
<path d="M63.3034 14.6106C63.2455 14.7458 63.1875 14.881 63.1875 14.9178C63.1875 14.967 63.5585 15.4094 63.9991 15.9255C64.4513 16.4294 64.973 17.0684 65.1701 17.3264C65.3672 17.5845 65.6339 17.818 65.7498 17.8549C65.9933 17.9286 66.3179 17.6582 66.3179 17.4002C66.3179 17.3142 65.8194 16.6628 65.2165 15.9378C63.86 14.328 63.5585 14.1191 63.3034 14.6106Z" fill="black"/>
<path d="M14.1106 17.4723C13.3338 18.4554 12.4062 19.8563 12.4062 20.0529C12.4062 20.1512 12.4642 20.2864 12.5454 20.3724C12.8236 20.6674 13.0903 20.5199 13.5425 19.8071C13.7976 19.4262 14.2729 18.7503 14.5976 18.3202C15.2005 17.5337 15.3396 17.0422 15.0034 16.907C14.6903 16.7841 14.6439 16.8087 14.1106 17.4723Z" fill="black"/>
<path d="M67.3971 19.9942C67.3507 20.1048 67.4203 20.3874 67.5594 20.6332C67.7797 21.0387 68.6957 22.6854 69.0667 23.3121C69.2638 23.6685 69.7507 23.6931 69.8551 23.349C69.9363 23.0787 69.4725 22.1078 68.5681 20.6086C68.1623 19.945 68 19.7853 67.7681 19.7853C67.5942 19.7853 67.4435 19.8713 67.3971 19.9942Z" fill="black"/>
<path d="M10.7352 22.8848C10.6424 23.0446 10.2714 23.8188 9.91199 24.6175C9.20475 26.1905 9.16997 26.5469 9.71489 26.5469C10.0047 26.5469 10.0859 26.3994 10.8163 24.7896C11.3149 23.6836 11.5816 22.9585 11.5236 22.8234C11.4192 22.5284 10.9323 22.5653 10.7352 22.8848Z" fill="black"/>
<path d="M70.5632 25.9857C70.4009 26.1578 70.4241 26.2807 70.7487 27.19C70.9342 27.743 71.2125 28.5541 71.3516 28.9842C71.6067 29.8075 71.8386 30.0779 72.1748 29.9304C72.4647 29.8198 72.3487 29.0825 71.769 27.4481C71.1661 25.74 70.9922 25.531 70.5632 25.9857Z" fill="black"/>
<path d="M20.1159 28.5753C16.4058 29.3004 13.5536 32.4463 12.9855 36.4402C12.9043 37.0054 12.8811 37.7674 12.9159 38.222C13.0203 39.2174 13.6348 41.1959 14.2493 42.5108C14.5159 43.0515 14.7246 43.5308 14.7246 43.5554C14.7246 43.5922 14.1681 43.6414 13.4956 43.6537L12.2666 43.6905L9.24056 52.219C6.94491 58.7074 6.24926 60.7965 6.34201 60.944C6.44636 61.1283 7.83766 61.1406 21.6811 61.1406C35.8145 61.1406 36.9159 61.1283 37.0203 60.9317C37.1246 60.772 36.5101 58.9164 34.1333 52.2067L31.1072 43.6905L29.9362 43.6537L28.7768 43.6168L29.2869 42.4494C29.5768 41.7981 29.971 40.7658 30.1797 40.1514C30.5043 39.1314 30.5391 38.8733 30.5391 37.5462C30.5507 36.3419 30.4927 35.8995 30.2724 35.1498C28.9043 30.4801 24.6029 27.6905 20.1159 28.5753ZM23.4435 29.4356C23.9188 29.5339 24.7652 29.8657 25.3913 30.1975C26.3072 30.6644 26.6551 30.9471 27.4782 31.8196C28.2666 32.6552 28.5681 33.0976 28.9623 33.921C29.229 34.4985 29.5188 35.3219 29.6232 35.7643C29.8203 36.6737 29.8435 38.1483 29.6695 38.9594C29.3797 40.348 28.1159 43.2727 26.829 45.5462C25.6232 47.6844 21.913 53.4601 21.7507 53.4601C21.6811 53.4601 19.9768 50.9286 18.8753 49.2205C16.5217 45.5584 14.5623 41.6752 13.9594 39.5124C13.3797 37.3864 13.7507 35.0638 15.0145 33.0607C16.2203 31.1314 18.0869 29.8534 20.4637 29.325C21.0203 29.2144 22.6666 29.2635 23.4435 29.4356ZM15.4782 45.0054C15.6753 45.3618 15.8493 45.6936 15.8609 45.7428C15.884 45.8042 15.4898 45.8411 14.9797 45.8411H14.0406L13.7043 46.7873C10.7942 54.7996 9.49563 58.646 9.62317 58.8058C9.84346 59.0761 33.5188 59.0761 33.7391 58.8058C33.8551 58.6583 33.5072 57.6015 31.942 53.1898C30.8753 50.1913 29.8551 47.3157 29.658 46.7996L29.3217 45.8534L28.4522 45.8165L27.5942 45.7796L27.9768 45.1038L28.3594 44.4279H29.4609H30.5507L33.3565 52.3541C34.9101 56.7167 36.1739 60.2927 36.1739 60.305C36.1739 60.3296 29.6464 60.3419 21.6695 60.3419C7.89563 60.3419 7.1652 60.3296 7.24636 60.1207C7.29274 60.0101 8.49853 56.5938 9.93621 52.5385C11.3623 48.4832 12.6145 44.9932 12.6956 44.772L12.858 44.3664H13.9942H15.1304L15.4782 45.0054ZM17.113 47.8933C17.9246 49.2574 20.313 52.8826 21.0782 53.9517C21.3449 54.3203 21.6 54.5538 21.7507 54.5538C21.9246 54.5661 22.2493 54.1852 22.9797 53.116C24.5681 50.818 25.2985 49.6875 26.2609 48.0776L27.1652 46.5661L27.9884 46.603L28.8 46.6399L30.7478 52.1084C31.8261 55.1191 32.7304 57.6998 32.7652 57.8472L32.8348 58.1299H21.6927C14.9681 58.1299 10.5507 58.0807 10.5507 58.0193C10.5507 57.9333 13.6232 49.2328 14.4811 46.9102C14.5971 46.5907 14.6319 46.5784 15.4551 46.5784H16.313L17.113 47.8933Z" fill="black"/>
<path d="M20.6738 33.7371C19.3173 34.1303 18.2043 35.0888 17.6477 36.3546C17.3695 36.969 17.2767 37.2395 17.2188 38.3455C17.2767 39.5129 17.3695 39.6971 17.6709 40.373C19.039 43.3223 22.7724 43.9613 24.9637 41.6387C27.0738 39.4022 26.4941 35.5558 23.8043 34.1303C22.7608 33.565 21.7289 33.4421 20.6738 33.7371ZM23.3637 34.8062C24.7086 35.5435 25.4506 36.797 25.4506 38.3453C25.4506 39.0212 25.3811 39.4145 25.1956 39.8446C24.8477 40.6556 24.0825 41.479 23.3173 41.8722C22.7724 42.1549 22.5173 42.2163 21.7405 42.2163C20.9637 42.2163 20.7086 42.1549 20.1637 41.8722C19.3985 41.479 18.6332 40.6556 18.2854 39.8446C17.9144 38.9844 17.9376 37.6449 18.3318 36.7478C18.7956 35.7033 19.6883 34.8922 20.755 34.5235C21.3347 34.3146 22.7492 34.4744 23.3637 34.8062Z" fill="black"/>
<path d="M8.30166 29.1479C8.06978 29.5289 7.39731 32.3921 7.44369 32.7977C7.46688 33.0557 7.53644 33.1172 7.8263 33.1172H8.16253L8.6263 31.1633C9.07847 29.2708 9.09007 29.2216 8.86978 29.0496C8.56833 28.8161 8.49876 28.8284 8.30166 29.1479Z" fill="black"/>
<path d="M72.4761 32.5566C72.3253 32.6549 72.3369 32.8761 72.5108 34.191C72.8703 36.8454 72.8355 36.6857 73.2181 36.6857H73.5659L73.5311 35.6411C73.5195 35.0635 73.4152 34.1296 73.2993 33.552C73.1369 32.6795 73.0674 32.5075 72.8703 32.4706C72.7427 32.4583 72.5688 32.4952 72.4761 32.5566Z" fill="black"/>
<path d="M7.1183 35.8097C6.93279 35.9572 6.88642 36.2521 6.79366 37.7882C6.7125 39.0171 6.7241 39.6561 6.80526 39.7913C6.95598 40.0617 7.35018 40.1231 7.50091 39.9142C7.57047 39.8282 7.65163 38.8819 7.68642 37.8251C7.75598 36.0309 7.74439 35.8712 7.54729 35.7606C7.39656 35.6868 7.26903 35.6991 7.1183 35.8097Z" fill="black"/>
<path d="M41.738 37.9641C40.6945 38.3205 39.709 39.2544 39.2684 40.2867C38.8974 41.1715 38.9322 42.6093 39.3495 43.5309C40.451 45.9764 43.5003 46.6031 45.3553 44.7598C46.1901 43.9365 46.538 43.0885 46.538 41.8597C46.538 40.6676 46.2945 40.004 45.5524 39.1438C44.8104 38.2836 44.08 37.9395 42.9553 37.9027C42.4452 37.8781 41.9003 37.9027 41.738 37.9641ZM43.6626 38.7752C45.6336 39.4019 46.4452 42.0317 45.1814 43.7644C43.5235 46.0501 40.0452 45.0302 39.8017 42.1915C39.6974 40.9257 40.1959 39.7828 41.1466 39.1561C41.9814 38.5908 42.7235 38.4802 43.6626 38.7752Z" fill="black"/>
<path d="M49.3109 38.9218C49.1949 38.9586 49.1602 39.6591 49.1602 41.7851C49.1602 44.2305 49.1833 44.5992 49.3457 44.6606C49.45 44.6975 54.0065 44.7344 59.479 44.7344C68.3718 44.7344 69.45 44.7098 69.6123 44.5378C69.7747 44.378 69.7978 43.9479 69.7978 41.7236C69.7978 39.2413 69.7862 39.0815 69.5775 38.9586C69.3457 38.8358 49.6007 38.7866 49.3109 38.9218ZM68.9862 41.7851V43.8742H59.421H49.8558V41.7851V39.696H59.421H68.9862V41.7851Z" fill="black"/>
<path d="M73.0786 39.4688C73.009 39.5548 72.9278 40.5011 72.8814 41.5579C72.8119 43.3767 72.8119 43.4873 73.0206 43.6101C73.1829 43.6962 73.2988 43.6962 73.438 43.5856C73.6003 43.4504 73.6583 43.094 73.751 41.6194C73.867 39.7146 73.809 39.3214 73.4032 39.3214C73.2872 39.3214 73.1365 39.3951 73.0786 39.4688Z" fill="black"/>
<path d="M49.3109 46.2923C49.1022 46.3784 49.0906 58.3722 49.2993 58.5934C49.4036 58.704 50.1341 58.7409 51.85 58.7409H54.2616V59.0727C54.2616 59.2693 54.2964 59.7117 54.3312 60.0558L54.4123 60.7071H51.9312C50.5631 60.7071 49.3804 60.7562 49.2993 60.8054C49.1949 60.8914 49.1602 61.5673 49.1833 63.7916L49.2181 66.6672L53.7399 66.704L58.2616 66.7286L58.7833 67.7731C59.3862 68.9774 59.4558 69.002 60.3833 68.449C61.0326 68.0435 61.1254 67.7977 60.8123 67.2201C60.7196 67.0481 60.65 66.8761 60.6384 66.8146C60.6384 66.7655 62.6326 66.7286 65.079 66.7286C68.3833 66.7286 69.5544 66.6917 69.6587 66.5811C69.7631 66.4705 69.7978 65.6718 69.7978 63.767C69.7978 61.5059 69.7746 61.0635 69.6123 60.9037C69.4616 60.7317 68.8471 60.7071 64.6268 60.7071H59.8152L58.6558 59.7609C58.0297 59.2324 57.508 58.7778 57.508 58.7409C57.508 58.704 60.592 58.6917 64.3602 58.7163C69.4964 58.7409 71.2471 58.7163 71.3746 58.6057C71.6065 58.3968 71.6181 46.5504 71.3862 46.3415C71.2703 46.2555 68.0703 46.2186 60.337 46.2186C54.3544 46.2186 49.3804 46.2555 49.3109 46.2923ZM70.8413 52.4736V57.8807H63.6297H56.4181L55.5949 57.2048C55.1312 56.8361 54.679 56.5289 54.5862 56.5289C54.2732 56.5289 54.1109 56.873 54.1804 57.3891L54.2384 57.8807H52.0471H49.8558V52.4736V47.0665H60.3486H70.8413V52.4736ZM57.45 59.7731C58.3428 60.5105 59.2239 61.2478 59.3978 61.3953L59.7225 61.6779L59.108 62.0097C58.2732 62.4521 58.0877 62.6487 58.0877 63.0788C58.0877 63.3 58.4935 64.2708 59.1312 65.5735C60.1399 67.6134 60.1631 67.6994 59.9196 67.7854C59.7804 67.8223 59.6413 67.8223 59.6297 67.7609C59.6065 67.6994 59.1312 66.7409 58.5746 65.6226C57.3225 63.1157 57.2761 63.0788 56.1746 63.6441C55.7573 63.8653 55.3862 64.0251 55.3631 64.0005C55.3283 63.9759 55.2587 63.0174 55.1891 61.8622C55.1312 60.7194 55.05 59.3185 55.0036 58.7532L54.9457 57.7209L55.3862 58.065C55.6297 58.2616 56.5573 59.0358 57.45 59.7731ZM54.4239 61.8377C54.4587 61.9974 54.5051 62.6856 54.5283 63.386C54.6094 65.1925 54.7602 65.3031 56.1283 64.5658C56.5804 64.3323 56.9631 64.148 56.9862 64.1725C56.9978 64.1971 57.2065 64.5781 57.4384 65.0327L57.879 65.8684H53.8674H49.8558V63.7178V61.5673H52.1167C54.3659 61.5673 54.3775 61.5673 54.4239 61.8377ZM68.9862 63.7178V65.8684H64.5573H60.1167L59.4442 64.492C59.0732 63.7301 58.8065 63.0911 58.8645 63.0788C58.9109 63.0542 59.3399 62.8208 59.8036 62.5504C60.3949 62.194 60.6384 61.9851 60.6384 61.8131C60.6384 61.5673 60.7428 61.5673 64.8123 61.5673H68.9862V63.7178Z" fill="black"/>
<path d="M51.7332 49.39C51.6404 49.4391 51.594 49.6234 51.6172 49.7832L51.652 50.0781H53.6114C55.3738 50.0781 55.5825 50.0535 55.6984 49.8569C55.8027 49.6726 55.7796 49.5989 55.6056 49.4514C55.4317 49.3162 54.968 49.2794 53.6346 49.2794C52.6723 49.2794 51.8143 49.3285 51.7332 49.39Z" fill="black"/>
<path d="M57.2976 49.39C57.2049 49.4391 57.1585 49.6234 57.1817 49.7832L57.2165 50.0781H59.1759C60.9382 50.0781 61.1469 50.0535 61.2629 49.8569C61.3672 49.6726 61.344 49.5989 61.1701 49.4514C60.9962 49.3162 60.5324 49.2794 59.1991 49.2794C58.2368 49.2794 57.3788 49.3285 57.2976 49.39Z" fill="black"/>
<path d="M62.7941 49.477C62.6549 49.6245 62.6433 49.7228 62.7245 49.9071C62.8404 50.1283 63.0027 50.1406 65.8549 50.1406C68.7071 50.1406 68.8694 50.1283 68.9854 49.9071C69.0665 49.7228 69.0549 49.6245 68.9158 49.477C68.7651 49.305 68.3245 49.2804 65.8549 49.2804C63.3854 49.2804 62.9448 49.305 62.7941 49.477Z" fill="black"/>
<path d="M51.6759 52.0727C51.5252 52.2201 51.5947 52.6994 51.7802 52.7731C52.0585 52.8837 62.9918 52.8591 63.1657 52.7363C63.2585 52.6871 63.3049 52.5028 63.2817 52.343L63.2469 52.0481L57.4962 52.0112C54.3425 51.9989 51.7107 52.0235 51.6759 52.0727Z" fill="black"/>
<path d="M51.6739 54.7719C51.558 54.8825 51.5696 55.2757 51.6971 55.3617C51.8942 55.4846 60.5435 55.4477 60.6594 55.3249C60.729 55.2511 60.7522 55.1037 60.729 54.9808C60.6942 54.7596 60.4739 54.7473 56.2189 54.7104C53.7609 54.6981 51.7203 54.7227 51.6739 54.7719Z" fill="black"/>
<path d="M41.3924 48.8128C40.5344 49.1692 39.5257 50.2383 39.2707 51.0617C38.9228 52.1554 38.9112 52.7452 39.1779 53.6792C39.4678 54.7115 40.1866 55.6331 41.091 56.137C41.6127 56.4319 41.8098 56.4688 42.7837 56.4688C43.746 56.4688 43.9547 56.4319 44.4649 56.137C45.1837 55.7437 45.9721 54.8589 46.2968 54.097C46.633 53.2982 46.633 51.7867 46.2852 50.9757C45.9605 50.1892 45.1837 49.329 44.4649 48.9357C43.6417 48.4933 42.2852 48.4319 41.3924 48.8128ZM44.175 49.7099C45.2649 50.2998 45.8562 51.4181 45.775 52.7084C45.6823 53.9741 45.1605 54.8343 44.1286 55.3873C42.6562 56.1984 40.8359 55.5348 40.0475 53.9127C39.804 53.4211 39.7112 52.2906 39.8736 51.6638C40.1286 50.6439 41.1025 49.6731 42.1228 49.3904C42.6794 49.2429 43.5605 49.3781 44.175 49.7099Z" fill="black"/>
<path d="M41.9133 50.7538C41.0902 51.1962 40.7191 52.081 40.9394 53.0272C41.2525 54.3421 42.609 54.9566 43.7336 54.293C45.067 53.4942 45.009 51.4543 43.6409 50.7538C43.0496 50.4466 42.5047 50.4466 41.9133 50.7538ZM43.6177 51.7369C43.8843 52.1055 43.9423 52.1669 43.9076 52.6094C43.8611 53.2018 43.6177 53.3958 43.1655 53.6662C42.8409 53.8014 42.7249 53.7644 42.4119 53.6662C42.0292 53.4572 41.7278 53.1993 41.6583 52.6094C41.6583 52.2284 41.6814 52.1055 41.9481 51.7369C42.2032 51.4296 42.4003 51.3682 42.7829 51.3682C43.1655 51.3682 43.3394 51.442 43.6177 51.7369Z" fill="black"/>
<path d="M41.659 59.3992C40.5692 59.7679 39.5837 60.7633 39.2242 61.8447C37.9489 65.7894 42.4011 68.9476 45.3228 66.1581C46.459 65.0766 46.83 63.6143 46.3895 62.0413C46.1692 61.2917 46.03 61.0459 45.4735 60.4561C44.4184 59.3378 43.0156 58.9568 41.659 59.3992ZM44.2329 60.4561C46.1692 61.5743 46.3315 64.3762 44.5576 65.814C42.7257 67.2886 40.0127 65.9983 39.804 63.5528C39.6648 61.9061 40.546 60.5789 42.088 60.1365C42.7837 59.9276 43.5257 60.0382 44.2329 60.4561Z" fill="black"/>
<path d="M19.8491 67.203C19.4549 67.4611 19.768 67.8789 21.1477 68.8988C22.6549 70.0171 23.0955 70.1646 23.1651 69.5379C23.1999 69.2798 23.0955 69.1446 22.5274 68.7514C22.1564 68.4933 21.5071 68.0141 21.0781 67.6945C20.2781 67.0801 20.1158 67.0187 19.8491 67.203Z" fill="black"/>
<path d="M25.3558 70.874C25.1587 71.0707 25.2862 71.5253 25.5993 71.6974C26.3181 72.0906 28.4283 73 28.6254 73C28.9384 73 29.1703 72.6559 29.0312 72.4101C28.9036 72.2012 25.9355 70.788 25.6109 70.788C25.5065 70.788 25.3906 70.8249 25.3558 70.874Z" fill="black"/>
<path d="M53.1585 71.5038C52.7759 71.6881 52.0571 71.9953 51.5701 72.1797C51.0832 72.3763 50.6542 72.6098 50.6194 72.7081C50.5267 72.9538 50.747 73.3594 50.9672 73.3594C51.1643 73.3594 53.5759 72.3763 54.1325 72.0691C54.5035 71.8724 54.5962 71.5529 54.3528 71.2949C54.1557 71.0859 53.947 71.1228 53.1585 71.5038Z" fill="black"/>
<path d="M31.5132 73.2535C31.2697 73.4009 31.235 73.7696 31.4553 73.9539C31.5944 74.0768 32.6263 74.3472 34.1799 74.6544C35.1074 74.851 35.3625 74.7773 35.3625 74.3472C35.3625 74.0031 35.1654 73.9171 33.5422 73.573C32.7074 73.3886 31.9422 73.2166 31.8611 73.1797C31.7799 73.1551 31.6176 73.1797 31.5132 73.2535Z" fill="black"/>
<path d="M46.492 73.6866C45.8195 73.8341 45.1123 73.9693 44.9267 73.9693C44.5209 73.9815 44.2891 74.1782 44.2891 74.4854C44.2891 74.9524 44.5557 74.9892 45.9934 74.7312C47.6978 74.4239 48.2775 74.2273 48.3238 73.9447C48.3818 73.662 48.1499 73.3671 47.8949 73.3794C47.7905 73.3917 47.1644 73.5269 46.492 73.6866Z" fill="black"/>
<path d="M37.9476 74.3111C37.8664 74.3479 37.7969 74.5323 37.7969 74.7289C37.7969 75.1959 37.936 75.2204 40.0577 75.1836L41.7969 75.1467L41.8317 74.8026C41.8548 74.606 41.8085 74.4462 41.7157 74.4217C41.507 74.3479 38.1215 74.2496 37.9476 74.3111Z" fill="black"/>
<ellipse cx="21.6816" cy="38.3365" rx="3.82609" ry="4.0553" fill="white"/>
</svg>
