<svg width="44" height="44" viewBox="0 0 44 44" fill="none" xmlns="http://www.w3.org/2000/svg">
<rect width="44" height="44" rx="22" fill="#F7F7F7"/>
<path d="M30.0709 20.2973C29.89 20.2973 29.2839 20.3026 29.1131 20.3133L25.6597 20.4037C25.6418 20.4048 25.6239 20.4009 25.608 20.3925C25.5921 20.384 25.5789 20.3714 25.5698 20.3558L18.6749 11.9732C18.633 11.9179 18.5797 11.8723 18.5185 11.8396C18.4573 11.8069 18.3897 11.7878 18.3205 11.7838H16.8896L20.774 20.3505C20.7833 20.3701 20.7873 20.3918 20.7856 20.4134C20.784 20.4351 20.7767 20.4559 20.7646 20.4739C20.7525 20.4919 20.7359 20.5064 20.7164 20.516C20.697 20.5256 20.6754 20.53 20.6537 20.5288L14.1786 20.6246C14.1112 20.6266 14.0443 20.6127 13.9833 20.5841C13.9223 20.5554 13.8689 20.5128 13.8274 20.4596L11.8586 18.0652C11.699 17.8577 11.4 17.7459 11.1398 17.7459H10.1362C10.0676 17.7459 10.0777 17.8103 10.0963 17.8752L11.152 21.6754C11.2318 21.879 11.2318 22.1051 11.152 22.3086L10.0952 26.0971C10.0639 26.2009 10.0676 26.2568 10.1894 26.2568H11.143C11.5761 26.2568 11.6351 26.2004 11.8565 25.9215L13.8625 23.4899C13.9043 23.4371 13.9578 23.3948 14.0187 23.3662C14.0797 23.3375 14.1464 23.3234 14.2137 23.3249L20.6351 23.4686C20.6585 23.4691 20.6814 23.4754 20.7018 23.4867C20.7222 23.4981 20.7396 23.5143 20.7523 23.5339C20.7651 23.5536 20.7728 23.576 20.7749 23.5993C20.777 23.6226 20.7734 23.646 20.7644 23.6676L16.8896 32.2162H18.3072C18.3763 32.2122 18.4437 32.1932 18.5048 32.1606C18.5659 32.128 18.6192 32.0825 18.661 32.0273L25.5704 23.6495C25.5911 23.6176 25.6768 23.6016 25.7135 23.6016L29.1136 23.6921C29.2892 23.7027 29.89 23.708 30.0714 23.708C32.427 23.708 33.9169 23.0605 33.9169 22C33.9169 20.9396 32.4334 20.2973 30.0709 20.2973Z" stroke="#717171" stroke-width="1.38564" stroke-linecap="round" stroke-linejoin="round"/>
</svg>
