<svg width="37" height="38" viewBox="0 0 37 38" fill="none" xmlns="http://www.w3.org/2000/svg">
<path d="M14.7559 21.0976V21.8611H16.0039V21.0976C16.0039 20.8951 15.9381 20.7008 15.8211 20.5576C15.7041 20.4144 15.5454 20.334 15.3799 20.334C15.2144 20.334 15.0557 20.4144 14.9386 20.5576C14.8216 20.7008 14.7559 20.8951 14.7559 21.0976Z" fill="#A3A3A3"/>
<path d="M18.5009 24.1504C18.0044 24.1504 17.5283 24.3917 17.1772 24.8213C16.8261 25.2509 16.6289 25.8336 16.6289 26.4411V29.4955H20.373V26.4411C20.373 25.8336 20.1757 25.2509 19.8247 24.8213C19.4736 24.3917 18.9974 24.1504 18.5009 24.1504ZM17.8769 27.5865C17.7942 27.5865 17.7148 27.5463 17.6563 27.4747C17.5978 27.4031 17.5649 27.306 17.5649 27.2047C17.5649 27.1035 17.5978 27.0064 17.6563 26.9348C17.7148 26.8632 17.7942 26.8229 17.8769 26.8229C17.9597 26.8229 18.039 26.8632 18.0975 26.9348C18.1561 27.0064 18.1889 27.1035 18.1889 27.2047C18.1889 27.306 18.1561 27.4031 18.0975 27.4747C18.039 27.5463 17.9597 27.5865 17.8769 27.5865ZM19.1249 27.5865C19.0422 27.5865 18.9628 27.5463 18.9043 27.4747C18.8458 27.4031 18.8129 27.306 18.8129 27.2047C18.8129 27.1035 18.8458 27.0064 18.9043 26.9348C18.9628 26.8632 19.0422 26.8229 19.1249 26.8229C19.2077 26.8229 19.2871 26.8632 19.3456 26.9348C19.4041 27.0064 19.437 27.1035 19.437 27.2047C19.437 27.306 19.4041 27.4031 19.3456 27.4747C19.2871 27.5463 19.2077 27.5865 19.1249 27.5865Z" fill="#A3A3A3"/>
<path d="M10.0762 20.3368V29.4998H12.5722V19.5732H10.7002C10.5347 19.5732 10.376 19.6537 10.2589 19.7969C10.1419 19.9401 10.0762 20.1343 10.0762 20.3368Z" fill="#A3A3A3"/>
<path d="M20.9961 16.5146V17.2781H22.2441V16.5146C22.2441 16.312 22.1784 16.1178 22.0613 15.9746C21.9443 15.8314 21.7856 15.751 21.6201 15.751C21.4546 15.751 21.2959 15.8314 21.1789 15.9746C21.0618 16.1178 20.9961 16.312 20.9961 16.5146Z" fill="#A3A3A3"/>
<path d="M14.7559 16.5146V17.2781H16.0039V16.5146C16.0039 16.312 15.9381 16.1178 15.8211 15.9746C15.7041 15.8314 15.5454 15.751 15.3799 15.751C15.2144 15.751 15.0557 15.8314 14.9386 15.9746C14.8216 16.1178 14.7559 16.312 14.7559 16.5146Z" fill="#A3A3A3"/>
<path d="M26.3154 19.5732H24.4277V29.4998H26.9238V20.3368C26.9238 20.1376 26.8602 19.9462 26.7466 19.8035C26.6329 19.6609 26.4781 19.5782 26.3154 19.5732Z" fill="#A3A3A3"/>
<path d="M23.1951 14.2256H13.8193C13.6538 14.2256 13.4951 14.306 13.3781 14.4492C13.2611 14.5924 13.1953 14.7867 13.1953 14.9892V29.4972H16.0034V26.4429C16.0034 25.6328 16.2663 24.856 16.7344 24.2832C17.2025 23.7104 17.8374 23.3886 18.4994 23.3886C19.1614 23.3886 19.7963 23.7104 20.2644 24.2832C20.7325 24.856 20.9954 25.6328 20.9954 26.4429V29.4972H23.8035V14.9892C23.8035 14.7899 23.7399 14.5985 23.6263 14.4559C23.5126 14.3132 23.3579 14.2306 23.1951 14.2256ZM16.6274 22.2432C16.6274 22.3445 16.5945 22.4416 16.536 22.5132C16.4775 22.5848 16.3981 22.625 16.3154 22.625H14.4433C14.3606 22.625 14.2812 22.5848 14.2227 22.5132C14.1642 22.4416 14.1313 22.3445 14.1313 22.2432V21.0978C14.1313 20.6928 14.2628 20.3044 14.4969 20.018C14.7309 19.7316 15.0484 19.5707 15.3793 19.5707C15.7103 19.5707 16.0278 19.7316 16.2618 20.018C16.4959 20.3044 16.6274 20.6928 16.6274 21.0978V22.2432ZM16.6274 17.6617C16.6274 17.763 16.5945 17.8601 16.536 17.9317C16.4775 18.0033 16.3981 18.0435 16.3154 18.0435H14.4433C14.3606 18.0435 14.2812 18.0033 14.2227 17.9317C14.1642 17.8601 14.1313 17.763 14.1313 17.6617V16.5163C14.1313 16.1113 14.2628 15.7229 14.4969 15.4365C14.7309 15.1501 15.0484 14.9892 15.3793 14.9892C15.7103 14.9892 16.0278 15.1501 16.2618 15.4365C16.4959 15.7229 16.6274 16.1113 16.6274 16.5163V17.6617ZM19.7474 22.2432C19.7474 22.3445 19.7146 22.4416 19.656 22.5132C19.5975 22.5848 19.5182 22.625 19.4354 22.625H17.5634C17.4806 22.625 17.4013 22.5848 17.3428 22.5132C17.2843 22.4416 17.2514 22.3445 17.2514 22.2432V21.0978C17.2514 20.6928 17.3829 20.3044 17.6169 20.018C17.851 19.7316 18.1684 19.5707 18.4994 19.5707C18.8304 19.5707 19.1478 19.7316 19.3819 20.018C19.6159 20.3044 19.7474 20.6928 19.7474 21.0978V22.2432ZM19.7474 17.6617C19.7474 17.763 19.7146 17.8601 19.656 17.9317C19.5975 18.0033 19.5182 18.0435 19.4354 18.0435H17.5634C17.4806 18.0435 17.4013 18.0033 17.3428 17.9317C17.2843 17.8601 17.2514 17.763 17.2514 17.6617V16.5163C17.2514 16.1113 17.3829 15.7229 17.6169 15.4365C17.851 15.1501 18.1684 14.9892 18.4994 14.9892C18.8304 14.9892 19.1478 15.1501 19.3819 15.4365C19.6159 15.7229 19.7474 16.1113 19.7474 16.5163V17.6617ZM22.8675 22.2432C22.8675 22.3445 22.8346 22.4416 22.7761 22.5132C22.7176 22.5848 22.6382 22.625 22.5555 22.625H20.6834C20.6007 22.625 20.5213 22.5848 20.4628 22.5132C20.4043 22.4416 20.3714 22.3445 20.3714 22.2432V21.0978C20.3714 20.6928 20.5029 20.3044 20.737 20.018C20.971 19.7316 21.2885 19.5707 21.6195 19.5707C21.9504 19.5707 22.2679 19.7316 22.5019 20.018C22.736 20.3044 22.8675 20.6928 22.8675 21.0978V22.2432ZM22.8675 17.6617C22.8675 17.763 22.8346 17.8601 22.7761 17.9317C22.7176 18.0033 22.6382 18.0435 22.5555 18.0435H20.6834C20.6007 18.0435 20.5213 18.0033 20.4628 17.9317C20.4043 17.8601 20.3714 17.763 20.3714 17.6617V16.5163C20.3714 16.1113 20.5029 15.7229 20.737 15.4365C20.971 15.1501 21.2885 14.9892 21.6195 14.9892C21.9504 14.9892 22.2679 15.1501 22.5019 15.4365C22.736 15.7229 22.8675 16.1113 22.8675 16.5163V17.6617Z" fill="#A3A3A3"/>
<path d="M17.877 21.0976V21.8611H19.125V21.0976C19.125 20.8951 19.0592 20.7008 18.9422 20.5576C18.8252 20.4144 18.6665 20.334 18.501 20.334C18.3355 20.334 18.1767 20.4144 18.0597 20.5576C17.9427 20.7008 17.877 20.8951 17.877 21.0976Z" fill="#A3A3A3"/>
<path d="M20.9961 21.0976V21.8611H22.2441V21.0976C22.2441 20.8951 22.1784 20.7008 22.0613 20.5576C21.9443 20.4144 21.7856 20.334 21.6201 20.334C21.4546 20.334 21.2959 20.4144 21.1789 20.5576C21.0618 20.7008 20.9961 20.8951 20.9961 21.0976Z" fill="#A3A3A3"/>
<path d="M17.877 16.5146V17.2781H19.125V16.5146C19.125 16.312 19.0592 16.1178 18.9422 15.9746C18.8252 15.8314 18.6665 15.751 18.501 15.751C18.3355 15.751 18.1767 15.8314 18.0597 15.9746C17.9427 16.1178 17.877 16.312 17.877 16.5146Z" fill="#A3A3A3"/>
<path d="M17.5354 12.3179L18.4995 11.4169L19.4636 12.3179L19.0954 10.8595L20.0595 9.95844H18.8676L18.4995 8.5L18.1313 9.95844H16.9395L17.9035 10.8595L17.5354 12.3179Z" fill="#A3A3A3"/>
<path d="M24.4286 9.95844H23.2368L22.8686 8.5L22.5005 9.95844H21.3086L22.2727 10.8595L21.9045 12.3179L22.8686 11.4169L23.8327 12.3179L23.4645 10.8595L24.4286 9.95844Z" fill="#A3A3A3"/>
<path d="M14.1323 11.4169L15.0964 12.3179L14.7282 10.8595L15.6923 9.95844H14.5005L14.1323 8.5L13.7641 9.95844H12.5723L13.5364 10.8595L13.1682 12.3179L14.1323 11.4169Z" fill="#A3A3A3"/>
<rect x="0.5" y="1" width="36" height="36" rx="18" stroke="#DEDEDE"/>
</svg>
