<svg width="52" height="64" viewBox="0 0 52 64" fill="none" xmlns="http://www.w3.org/2000/svg">
<path d="M23.0002 22.9998L23.0017 23.002L22.9912 23.0092C22.5651 23.2979 22.0622 23.4521 21.5475 23.452C21.3426 23.4511 21.1393 23.4288 20.9408 23.3861C21.1224 23.423 21.3081 23.4418 21.4951 23.4418C22.0196 23.4418 22.5334 23.2937 22.9773 23.0146L22.9889 23.0074L23.0002 22.9998Z" stroke="#707070" stroke-width="2"/>
<path d="M27.9782 31.0365L27.9562 31.0456C27.3355 31.3033 26.67 31.4359 25.9978 31.4359C25.6876 31.4359 25.3787 31.4077 25.075 31.3519C25.4055 31.4148 25.7421 31.4468 26.0803 31.447L26.0849 31.447C26.7465 31.4504 27.4006 31.3068 28 31.0267L28 31.0267M27.9782 31.0365L27.5728 30.122C27.6916 30.0659 27.8203 30.0338 27.9515 30.0274C28.0827 30.0211 28.2138 30.0406 28.3375 30.085C28.4611 30.1293 28.5748 30.1976 28.6721 30.2859C28.7693 30.3741 28.8483 30.4807 28.9043 30.5995C28.9604 30.7183 28.9925 30.8469 28.9989 30.9781C29.0052 31.1093 28.9857 31.2405 28.9413 31.3641C28.897 31.4878 28.8288 31.6015 28.7405 31.6987C28.6522 31.796 28.5456 31.8749 28.4268 31.931L28.0059 31.032L28.004 31.028L28.0032 31.0263L28.0028 31.0254C28.002 31.0257 28.0012 31.0261 28.0004 31.0265C28.0003 31.0265 28.0002 31.0266 28.0001 31.0266C28.0001 31.0266 28 31.0266 28 31.0267M27.9782 31.0365L27.9997 31.0263L27.9998 31.0263L27.9999 31.0263L28 31.0263L28 31.0264L28.0001 31.0265L28 31.0266L28 31.0267M27.9782 31.0365L28 31.0267" stroke="#707070" stroke-width="2"/>
<path d="M32.0002 23.0001L32.0002 23.0001L32.0002 23.0001L32.0003 23L32.0003 23L32.0002 22.9999L32.0002 22.9999L32.0002 22.9999L32.0001 22.9999L32.0001 22.9999L31.9888 23.0074L31.9773 23.0146C31.5334 23.2937 31.0196 23.4418 30.4951 23.4418C30.4036 23.4418 30.3124 23.4373 30.2218 23.4284C30.3301 23.4406 30.4393 23.4469 30.549 23.447L32.0002 23.0001ZM32.0002 23.0001L31.9942 23.0042M32.0002 23.0001L31.9942 23.0042M31.9942 23.0042C31.5677 23.2931 31.0644 23.4474 30.5493 23.447L31.9942 23.0042Z" stroke="#707070" stroke-width="2"/>
<mask id="path-4-inside-1_246_4989" fill="white">
<path d="M34.857 41.1C34.804 41.094 34.757 41.072 34.701 41.063L32.929 36.633C32.8525 36.4601 32.7283 36.3127 32.571 36.208L32.347 34.916C34.3964 33.4127 35.8812 31.2644 36.563 28.816C36.8604 28.9375 37.1787 29 37.5 29C38.163 29 38.7989 28.7366 39.2678 28.2678C39.7366 27.7989 40 27.163 40 26.5V16C40.0015 14.2243 39.655 12.4655 38.98 10.823C38.98 10.816 38.98 10.81 38.98 10.804L36.98 0.804C36.9347 0.57739 36.8123 0.373461 36.6337 0.226887C36.455 0.0803122 36.2311 0.000139585 36 2.08457e-08H16C15.7695 -4.70301e-05 15.546 0.0795567 15.3674 0.225339C15.1888 0.371121 15.0661 0.574127 15.02 0.8L13.02 10.8C13.02 10.806 13.02 10.813 13.02 10.819C12.3445 12.4627 11.998 14.2229 12 16V26.5C12 27.163 12.2634 27.7989 12.7322 28.2678C13.2011 28.7366 13.837 29 14.5 29C14.8214 28.9994 15.1397 28.9362 15.437 28.814C16.1188 31.2624 17.6036 33.4107 19.653 34.914L19.429 36.2C19.2717 36.3047 19.1475 36.4521 19.071 36.625L17.3 41.057C17.243 41.067 17.19 41.09 17.133 41.096C9.5 41.917 0 42.938 0 52.73V63C0 63.2652 0.105357 63.5196 0.292893 63.7071C0.48043 63.8946 0.734784 64 1 64H51C51.2652 64 51.5196 63.8946 51.7071 63.7071C51.8946 63.5196 52 63.2652 52 63V52.73C52 42.938 42.5 41.917 34.857 41.1ZM26 38.882L21.394 36.582L21.5 36C22.91 36.6606 24.448 37.003 26.005 37.003C27.562 37.003 29.1 36.6606 30.51 36L30.61 36.582L26 38.882ZM38 26.5C38 26.6326 37.9473 26.7598 37.8536 26.8536C37.7598 26.9473 37.6326 27 37.5 27C37.3674 27 37.2402 26.9473 37.1464 26.8536C37.0527 26.7598 37 26.6326 37 26.5V22.5C37 22.3674 37.0527 22.2402 37.1464 22.1464C37.2402 22.0527 37.3674 22 37.5 22C37.6326 22 37.7598 22.0527 37.8536 22.1464C37.9473 22.2402 38 22.3674 38 22.5V26.5ZM38 20.051C37.6701 19.983 37.3299 19.983 37 20.051V19.29C37 19.0267 36.8962 18.774 36.711 18.5868C36.5258 18.3995 36.2743 18.2929 36.011 18.29C31.2808 18.1128 26.7274 16.4466 23 13.529V12H37.286C37.7571 13.2811 37.9988 14.6351 38 16V20.051ZM16.819 2H35.181L35.981 6H16.02L16.819 2ZM15 26.5C15 26.6326 14.9473 26.7598 14.8536 26.8536C14.7598 26.9473 14.6326 27 14.5 27C14.3674 27 14.2402 26.9473 14.1464 26.8536C14.0527 26.7598 14 26.6326 14 26.5V22.5C14 22.3674 14.0527 22.2402 14.1464 22.1464C14.2402 22.0527 14.3674 22 14.5 22C14.6326 22 14.7598 22.0527 14.8536 22.1464C14.9473 22.2402 15 22.3674 15 22.5V26.5ZM15 19.29V20.051C14.6701 19.983 14.3299 19.983 14 20.051V16C14.0011 14.6351 14.2428 13.281 14.714 12H21V13.763C19.7642 15.8329 17.8874 17.4436 15.654 18.351C15.462 18.4218 15.2964 18.5498 15.1794 18.7177C15.0625 18.8856 14.9998 19.0854 15 19.29ZM17 25.69V19.95C19.1285 18.9705 20.9556 17.4383 22.291 15.513C25.9918 18.2672 30.3996 19.9122 35 20.256V25.688C35.0377 28.1153 34.1116 30.4585 32.4245 32.204C30.7375 33.9496 28.4272 34.955 26 35C23.5728 34.955 21.2625 33.9496 19.5755 32.204C17.8884 30.4585 16.9623 28.1153 17 25.688V25.69ZM13 62V60C13 59.7348 12.8946 59.4804 12.7071 59.2929C12.5196 59.1054 12.2652 59 12 59C11.7348 59 11.4804 59.1054 11.2929 59.2929C11.1054 59.4804 11 59.7348 11 60V62H2V52.73C2 45.309 8.361 44.051 17.34 43.085C17.4895 43.0683 17.6381 43.0436 17.785 43.011L25 46.618V48H18C17.8451 47.9999 17.6924 48.0358 17.5538 48.1048C17.4151 48.1738 17.2944 48.2741 17.2012 48.3977C17.1079 48.5213 17.0446 48.6649 17.0163 48.8171C16.988 48.9694 16.9954 49.1261 17.038 49.275L20.674 62H13ZM50 62H41V60C41 59.7348 40.8946 59.4804 40.7071 59.2929C40.5196 59.1054 40.2652 59 40 59C39.7348 59 39.4804 59.1054 39.2929 59.2929C39.1054 59.4804 39 59.7348 39 60V62H22.755L19.326 50H26C26.2652 50 26.5196 49.8946 26.7071 49.7071C26.8946 49.5196 27 49.2652 27 49V46.618L34.214 43.011C34.3585 43.0436 34.5047 43.068 34.652 43.084C43.639 44.051 50 45.309 50 52.73V62Z"/>
</mask>
<path d="M34.857 41.1C34.804 41.094 34.757 41.072 34.701 41.063L32.929 36.633C32.8525 36.4601 32.7283 36.3127 32.571 36.208L32.347 34.916C34.3964 33.4127 35.8812 31.2644 36.563 28.816C36.8604 28.9375 37.1787 29 37.5 29C38.163 29 38.7989 28.7366 39.2678 28.2678C39.7366 27.7989 40 27.163 40 26.5V16C40.0015 14.2243 39.655 12.4655 38.98 10.823C38.98 10.816 38.98 10.81 38.98 10.804L36.98 0.804C36.9347 0.57739 36.8123 0.373461 36.6337 0.226887C36.455 0.0803122 36.2311 0.000139585 36 2.08457e-08H16C15.7695 -4.70301e-05 15.546 0.0795567 15.3674 0.225339C15.1888 0.371121 15.0661 0.574127 15.02 0.8L13.02 10.8C13.02 10.806 13.02 10.813 13.02 10.819C12.3445 12.4627 11.998 14.2229 12 16V26.5C12 27.163 12.2634 27.7989 12.7322 28.2678C13.2011 28.7366 13.837 29 14.5 29C14.8214 28.9994 15.1397 28.9362 15.437 28.814C16.1188 31.2624 17.6036 33.4107 19.653 34.914L19.429 36.2C19.2717 36.3047 19.1475 36.4521 19.071 36.625L17.3 41.057C17.243 41.067 17.19 41.09 17.133 41.096C9.5 41.917 0 42.938 0 52.73V63C0 63.2652 0.105357 63.5196 0.292893 63.7071C0.48043 63.8946 0.734784 64 1 64H51C51.2652 64 51.5196 63.8946 51.7071 63.7071C51.8946 63.5196 52 63.2652 52 63V52.73C52 42.938 42.5 41.917 34.857 41.1ZM26 38.882L21.394 36.582L21.5 36C22.91 36.6606 24.448 37.003 26.005 37.003C27.562 37.003 29.1 36.6606 30.51 36L30.61 36.582L26 38.882ZM38 26.5C38 26.6326 37.9473 26.7598 37.8536 26.8536C37.7598 26.9473 37.6326 27 37.5 27C37.3674 27 37.2402 26.9473 37.1464 26.8536C37.0527 26.7598 37 26.6326 37 26.5V22.5C37 22.3674 37.0527 22.2402 37.1464 22.1464C37.2402 22.0527 37.3674 22 37.5 22C37.6326 22 37.7598 22.0527 37.8536 22.1464C37.9473 22.2402 38 22.3674 38 22.5V26.5ZM38 20.051C37.6701 19.983 37.3299 19.983 37 20.051V19.29C37 19.0267 36.8962 18.774 36.711 18.5868C36.5258 18.3995 36.2743 18.2929 36.011 18.29C31.2808 18.1128 26.7274 16.4466 23 13.529V12H37.286C37.7571 13.2811 37.9988 14.6351 38 16V20.051ZM16.819 2H35.181L35.981 6H16.02L16.819 2ZM15 26.5C15 26.6326 14.9473 26.7598 14.8536 26.8536C14.7598 26.9473 14.6326 27 14.5 27C14.3674 27 14.2402 26.9473 14.1464 26.8536C14.0527 26.7598 14 26.6326 14 26.5V22.5C14 22.3674 14.0527 22.2402 14.1464 22.1464C14.2402 22.0527 14.3674 22 14.5 22C14.6326 22 14.7598 22.0527 14.8536 22.1464C14.9473 22.2402 15 22.3674 15 22.5V26.5ZM15 19.29V20.051C14.6701 19.983 14.3299 19.983 14 20.051V16C14.0011 14.6351 14.2428 13.281 14.714 12H21V13.763C19.7642 15.8329 17.8874 17.4436 15.654 18.351C15.462 18.4218 15.2964 18.5498 15.1794 18.7177C15.0625 18.8856 14.9998 19.0854 15 19.29ZM17 25.69V19.95C19.1285 18.9705 20.9556 17.4383 22.291 15.513C25.9918 18.2672 30.3996 19.9122 35 20.256V25.688C35.0377 28.1153 34.1116 30.4585 32.4245 32.204C30.7375 33.9496 28.4272 34.955 26 35C23.5728 34.955 21.2625 33.9496 19.5755 32.204C17.8884 30.4585 16.9623 28.1153 17 25.688V25.69ZM13 62V60C13 59.7348 12.8946 59.4804 12.7071 59.2929C12.5196 59.1054 12.2652 59 12 59C11.7348 59 11.4804 59.1054 11.2929 59.2929C11.1054 59.4804 11 59.7348 11 60V62H2V52.73C2 45.309 8.361 44.051 17.34 43.085C17.4895 43.0683 17.6381 43.0436 17.785 43.011L25 46.618V48H18C17.8451 47.9999 17.6924 48.0358 17.5538 48.1048C17.4151 48.1738 17.2944 48.2741 17.2012 48.3977C17.1079 48.5213 17.0446 48.6649 17.0163 48.8171C16.988 48.9694 16.9954 49.1261 17.038 49.275L20.674 62H13ZM50 62H41V60C41 59.7348 40.8946 59.4804 40.7071 59.2929C40.5196 59.1054 40.2652 59 40 59C39.7348 59 39.4804 59.1054 39.2929 59.2929C39.1054 59.4804 39 59.7348 39 60V62H22.755L19.326 50H26C26.2652 50 26.5196 49.8946 26.7071 49.7071C26.8946 49.5196 27 49.2652 27 49V46.618L34.214 43.011C34.3585 43.0436 34.5047 43.068 34.652 43.084C43.639 44.051 50 45.309 50 52.73V62Z" stroke="#707070" stroke-width="4" mask="url(#path-4-inside-1_246_4989)"/>
<path d="M30 53H40V57H30V53Z" stroke="#707070" stroke-width="2"/>
</svg>
