<svg width="20" height="20" viewBox="0 0 20 20" fill="none" xmlns="http://www.w3.org/2000/svg">
<path d="M13.9773 7.15906H15.1136C15.415 7.15906 15.7041 7.27878 15.9172 7.49189C16.1303 7.705 16.25 7.99404 16.25 8.29542V17.3863C16.25 17.6877 16.1303 17.9768 15.9172 18.1899C15.7041 18.403 15.415 18.5227 15.1136 18.5227H4.88636C4.58498 18.5227 4.29594 18.403 4.08283 18.1899C3.86972 17.9768 3.75 17.6877 3.75 17.3863V8.29542C3.75 7.99404 3.86972 7.705 4.08283 7.49189C4.29594 7.27878 4.58498 7.15906 4.88636 7.15906H6.02273" stroke="black" stroke-width="1.5" stroke-linecap="round" stroke-linejoin="round"/>
<path d="M10 1.47729V9.43184" stroke="black" stroke-width="1.5" stroke-linecap="round" stroke-linejoin="round"/>
<path d="M7.15967 4.3182L10.0006 1.47729L12.8415 4.3182" stroke="black" stroke-width="1.5" stroke-linecap="round" stroke-linejoin="round"/>
</svg>
