<svg width="80" height="80" viewBox="0 0 80 80" fill="none" xmlns="http://www.w3.org/2000/svg">
<g clip-path="url(#clip0_1918_7271)">
<path d="M24.8501 0.108433C23.402 0.286987 20.6131 0.9655 18.9862 1.51902C10.8518 4.35806 4.29067 10.9111 1.4481 19.0354C0.232411 22.5708 0 24.0528 0 28.5524C0 31.8021 0.0715111 32.8556 0.339678 34.0876C2.5744 44.4081 9.654 52.461 19.3259 55.675C23.6702 57.1392 28.9084 57.532 33.3957 56.7642C43.6397 55.0144 52.1674 47.8186 55.582 38.0337C55.9396 37.0159 56.2256 36.0874 56.2256 35.9446C56.2256 35.7303 55.9396 35.6946 54.6703 35.7303L53.1328 35.7839L52.8289 36.6767C50.2187 44.3546 43.9078 50.5505 36.2025 52.9788C31.5364 54.443 26.1194 54.4965 21.2746 53.1038C19.5941 52.6217 16.537 51.2468 15.0173 50.2826C10.9233 47.7114 7.68745 44.1046 5.54211 39.7478C3.68282 35.9446 2.94983 32.7842 2.94983 28.5524C2.94983 24.3206 3.68282 21.1602 5.52424 17.3926C9.29645 9.69688 16.3045 4.55447 24.8322 3.19745C26.6915 2.91176 30.7319 2.94747 32.7521 3.30458C37.6685 4.12594 42.2631 6.3936 45.9102 9.80402C49.003 12.6966 51.345 16.2677 52.7395 20.196L53.2222 21.553L54.7954 21.5708L56.3865 21.5887L56.1005 20.6424C53.3294 11.3039 46.375 4.16165 37.2037 1.25119C34.3432 0.340553 31.8046 -0.0165558 28.372 0.001297C26.7273 0.0191536 25.154 0.0727196 24.8501 0.108433Z" fill="#E86831" fill-opacity="0.79"/>
<path d="M24.3687 5.9883C19.7026 6.82751 15.5014 9.07732 12.1224 12.5413C10.2274 14.4876 9.13686 15.9874 8.04631 18.1301C6.38368 21.362 5.63281 24.6474 5.63281 28.5578C5.63281 34.9322 7.77815 40.1996 12.2118 44.6813C15.6086 48.0918 19.8278 50.3237 24.476 51.1451C26.5141 51.4843 30.5008 51.5022 32.521 51.1451C39.0464 50.0023 44.8924 45.9848 48.2356 40.3067C49.0043 39.039 49.9518 37.0034 50.2379 36.0928L50.3452 35.7H45.0891H39.8509L36.8117 38.3069C35.149 39.7354 33.54 41.021 33.2182 41.1638C32.7892 41.3424 31.788 41.4138 29.2672 41.4138C25.7632 41.4138 24.8872 41.2709 24.5833 40.6996C24.1542 39.9139 24.3866 39.4854 26.5319 36.9142C27.7119 35.5036 28.6058 34.3073 28.5521 34.2537C28.4806 34.2001 26.2995 33.8787 23.6894 33.5752C21.0792 33.2538 18.6657 32.8788 18.326 32.736C17.45 32.361 16.5561 31.4682 16.1092 30.5219C15.7695 29.7898 15.7338 29.3613 15.6801 25.0759C15.6086 19.7371 15.6801 19.2014 16.6277 18.8086C17.3785 18.5051 20.8647 18.4694 21.7049 18.755C22.4201 19.005 22.6346 19.4336 23.2424 21.8976C23.7251 23.8617 23.7251 23.8974 24.2078 23.826C24.4581 23.7725 25.9599 23.6475 27.5331 23.5403C29.1063 23.4332 30.4114 23.3261 30.4472 23.2904C30.4651 23.2725 29.446 21.9869 28.1588 20.4513C25.8168 17.6301 25.5844 17.2016 26.0135 16.416C26.3174 15.8446 27.1934 15.7017 30.6975 15.7017C33.2182 15.7017 34.2194 15.7732 34.6485 15.9517C34.9703 16.0946 36.8474 17.5944 38.8319 19.3086L42.4432 22.4154L46.3942 22.1119C48.5753 21.9333 50.3809 21.7726 50.4167 21.7369C50.5597 21.5941 49.0758 18.2015 48.2892 16.8802C46.1439 13.2555 42.4611 9.79154 38.7961 7.97027C37.3301 7.23819 34.7915 6.41683 32.9322 6.04187C30.8226 5.63119 26.4962 5.59548 24.3687 5.9883Z" fill="#E86831" fill-opacity="0.79"/>
<path d="M30.125 18.6544C30.125 18.708 30.9474 19.7079 31.9307 20.9042L33.7542 23.0469L35.828 22.9219C36.9722 22.8505 38.0449 22.7255 38.2236 22.6719C38.4918 22.5648 38.0985 22.1541 36.2213 20.5471L33.8972 18.5473H32.0022C30.9653 18.5473 30.125 18.6008 30.125 18.6544Z" fill="#E86831" fill-opacity="0.79"/>
<path d="M18.5039 22.8349V24.2812L19.7196 24.1563C20.3811 24.0848 20.9353 24.0313 20.9532 24.0134C20.971 23.9956 20.8459 23.4242 20.6671 22.7457L20.3632 21.4958L19.4336 21.4422L18.5039 21.3886V22.8349Z" fill="#E86831" fill-opacity="0.79"/>
<path d="M35.4878 25.6284C26.388 26.3426 18.8436 26.9319 18.7363 26.9319C18.5754 26.9497 18.5039 27.3426 18.5039 28.2889C18.5039 29.3602 18.5754 29.6995 18.8436 29.9673C19.2369 30.3602 19.0939 30.3423 25.655 31.1637L30.7502 31.7886L31.3759 31.0744C31.7156 30.6816 32.234 30.2709 32.5022 30.1816C33.1994 29.9138 42.4065 29.9138 43.1574 30.1816C44.1228 30.5209 44.3731 31.5208 43.6937 32.3778L43.3362 32.8421H52.0069C62.1078 32.8421 61.4106 32.9671 61.4106 31.0565V29.9852H60.0698C57.8887 29.9852 57.0484 29.4138 57.3702 28.1103C57.5311 27.5033 58.0675 27.2533 59.5334 27.1283L60.7849 27.039L59.8016 26.0212C58.4429 24.6464 57.2272 24.2714 54.188 24.2893C53.008 24.3071 44.5876 24.8963 35.4878 25.6284Z" fill="#E86831" fill-opacity="0.79"/>
<path d="M31.018 35.5549C29.7844 37.037 28.7654 38.3226 28.7296 38.4118C28.6939 38.4833 29.5163 38.5547 30.5711 38.5547H32.4661L35.6305 35.8406C37.3646 34.3586 38.8663 33.073 38.9736 32.9837C39.063 32.9123 37.8116 32.8409 36.2026 32.8588H33.2527L31.018 35.5549Z" fill="#E86831" fill-opacity="0.79"/>
<path d="M50.6295 50.6525L49.4316 51.8488L52.9178 55.3307L56.404 58.8125L57.6018 57.5983L58.8175 56.402L55.3313 52.9202L51.8451 49.4383L50.6295 50.6525Z" fill="#E86831" fill-opacity="0.79"/>
<path d="M59.4436 59.5326L57.5664 61.4075L66.5947 70.4424C71.5647 75.4062 75.8375 79.5844 76.1057 79.7273C77.3035 80.3522 79.1449 79.8523 79.7349 78.7452C80.0567 78.1203 80.0924 76.7275 79.8064 76.174C79.6097 75.7991 61.5889 57.6578 61.4101 57.6578C61.3565 57.6578 60.4805 58.497 59.4436 59.5326Z" fill="#E86831" fill-opacity="0.79"/>
</g>
<defs>
<clipPath id="clip0_1918_7271">
<rect width="80" height="80" fill="white"/>
</clipPath>
</defs>
</svg>
