<svg width="38" height="38" viewBox="0 0 38 38" fill="none" xmlns="http://www.w3.org/2000/svg">
<path d="M17.3778 18.5845C17.0573 18.5845 16.7973 18.8446 16.7973 19.165V20.0943C16.7973 22.3362 14.9735 24.16 12.7316 24.16C10.4897 24.16 8.66631 22.3362 8.66631 20.0943V19.165C8.66631 18.8442 8.40628 18.5845 8.08584 18.5845C7.7654 18.5845 7.50537 18.8446 7.50537 19.165V20.0943C7.50537 22.9763 9.85006 25.321 12.732 25.321C15.614 25.321 17.959 22.9763 17.959 20.0943V19.165C17.9586 18.8446 17.6986 18.5845 17.3778 18.5845Z" stroke="#707070" stroke-width="2"/>
<path d="M36.4199 6.57548H30.496V6.22664C30.496 4.85607 29.9507 3.54071 28.955 2.51739C27.9765 1.53887 26.6675 1 25.269 1C22.387 1 20.0423 3.34469 20.0423 6.22664V6.57508H14.1184C13.798 6.57508 13.5379 6.83511 13.5379 7.15555V13.5371H1.58047C1.26003 13.5371 1 13.7972 1 14.1176V36.4191C1 36.74 1.26003 36.9996 1.58047 36.9996H23.882C24.2024 36.9996 24.4625 36.7396 24.4625 36.4191V30.0379H36.4195C36.74 30.0379 37 29.7779 37 29.4575V7.15595C37.0004 6.83511 36.7404 6.57548 36.4199 6.57548ZM21.2037 6.22664C21.2037 3.98476 23.0271 2.16094 25.269 2.16094C26.3575 2.16094 27.3748 2.57899 28.1285 3.33228C28.9066 4.13198 29.3347 5.15971 29.3347 6.22624V6.57468H21.2037V6.22664ZM23.3015 35.8391H2.16134V14.6989H23.3015V35.8391ZM35.8391 28.8766H24.4629V14.118C24.4629 13.7972 24.2028 13.5375 23.8824 13.5375H14.6989V7.73682H20.0423V9.38222C20.0423 9.70306 20.3024 9.96269 20.6228 9.96269C20.9432 9.96269 21.2033 9.70266 21.2033 9.38222V7.73682H29.3343V9.38222C29.3343 9.70306 29.5943 9.96269 29.9147 9.96269C30.2352 9.96269 30.4952 9.70266 30.4952 9.38222V7.73682H35.8383V28.8766H35.8391Z" stroke="#707070" stroke-width="2"/>
</svg>
