<svg xmlns="http://www.w3.org/2000/svg" width="13" height="13" viewBox="0 0 13 13" fill="none">
  <path d="M12.9649 4.91041C12.9238 4.7757 12.8456 4.65661 12.7401 4.56798C12.6345 4.47935 12.5063 4.42511 12.3714 4.41203L8.61985 4.06056L7.1372 0.438541C7.08411 0.308451 6.99554 0.197519 6.88251 0.119546C6.76948 0.0415726 6.63697 0 6.50147 0C6.36597 0 6.23346 0.0415726 6.12042 0.119546C6.00739 0.197519 5.91882 0.308451 5.86573 0.438541L4.38308 4.06056L0.630424 4.41203C0.495191 4.42464 0.3665 4.47849 0.260378 4.56686C0.154255 4.65523 0.0753884 4.77423 0.0335977 4.90903C-0.00819296 5.04383 -0.0110613 5.18848 0.0253499 5.32496C0.0617611 5.46145 0.135843 5.58375 0.238372 5.67663L3.0748 8.27589L2.23871 12.1183C2.20854 12.256 2.21779 12.3998 2.2653 12.5321C2.31281 12.6643 2.39649 12.7791 2.50595 12.8621C2.61542 12.9452 2.74585 12.9929 2.88105 12.9993C3.01626 13.0056 3.15028 12.9705 3.26649 12.8981L6.50147 10.8752L9.73536 12.8935C9.85158 12.9663 9.98574 13.0018 10.1211 12.9956C10.2565 12.9894 10.3872 12.9417 10.4969 12.8586C10.6065 12.7755 10.6903 12.6606 10.7379 12.5281C10.7854 12.3957 10.7946 12.2516 10.7642 12.1138L9.92813 8.27137L12.7646 5.6721C12.8663 5.57893 12.9395 5.45669 12.9753 5.3205C13.0111 5.18432 13.0079 5.04017 12.966 4.90589L12.9649 4.91041Z" fill="#222222"/>
</svg>