<svg width="283" height="275" viewBox="0 0 283 275" fill="none" xmlns="http://www.w3.org/2000/svg">
<g filter="url(#filter0_f_2575_66863)">
<rect x="77.3965" y="77" width="128.102" height="120.193" rx="60.0967" fill="#FFEF9A"/>
</g>
<g filter="url(#filter1_i_2575_66863)">
<path d="M196.961 146.662C196.961 177.209 172.108 201.972 141.45 201.972C110.793 201.972 85.9395 177.209 85.9395 146.662C85.9395 116.115 110.793 91.3516 141.45 91.3516C172.108 91.3516 196.961 116.115 196.961 146.662Z" fill="url(#paint0_linear_2575_66863)"/>
</g>
<g filter="url(#filter2_b_2575_66863)">
<g filter="url(#filter3_i_2575_66863)">
<path d="M173.115 175.196C173.5 173.013 173.702 170.768 173.702 168.476C173.702 147.036 156.096 129.656 134.378 129.656C118.232 129.656 104.359 139.262 98.3031 153C93.3968 148.818 87.0304 146.293 80.0732 146.293C64.5603 146.293 51.9847 158.846 51.9847 174.33C51.9847 175.192 52.0237 176.045 52.1 176.888C44.6386 180.496 39.5009 188.066 39.5009 196.821C39.5009 209.072 49.5614 219.004 61.9717 219.004H168.084C180.494 219.004 190.555 209.072 190.555 196.821C190.555 186.277 183.103 177.451 173.115 175.196Z" fill="url(#paint1_linear_2575_66863)"/>
</g>
</g>
<defs>
<filter id="filter0_f_2575_66863" x="0.396484" y="0" width="282.102" height="274.195" filterUnits="userSpaceOnUse" color-interpolation-filters="sRGB">
<feFlood flood-opacity="0" result="BackgroundImageFix"/>
<feBlend mode="normal" in="SourceGraphic" in2="BackgroundImageFix" result="shape"/>
<feGaussianBlur stdDeviation="38.5" result="effect1_foregroundBlur_2575_66863"/>
</filter>
<filter id="filter1_i_2575_66863" x="85.9395" y="91.3516" width="111.021" height="115.617" filterUnits="userSpaceOnUse" color-interpolation-filters="sRGB">
<feFlood flood-opacity="0" result="BackgroundImageFix"/>
<feBlend mode="normal" in="SourceGraphic" in2="BackgroundImageFix" result="shape"/>
<feColorMatrix in="SourceAlpha" type="matrix" values="0 0 0 0 0 0 0 0 0 0 0 0 0 0 0 0 0 0 127 0" result="hardAlpha"/>
<feOffset dy="5"/>
<feGaussianBlur stdDeviation="9"/>
<feComposite in2="hardAlpha" operator="arithmetic" k2="-1" k3="1"/>
<feColorMatrix type="matrix" values="0 0 0 0 1 0 0 0 0 1 0 0 0 0 1 0 0 0 0.81 0"/>
<feBlend mode="normal" in2="shape" result="effect1_innerShadow_2575_66863"/>
</filter>
<filter id="filter2_b_2575_66863" x="12.5" y="102.656" width="205.055" height="143.344" filterUnits="userSpaceOnUse" color-interpolation-filters="sRGB">
<feFlood flood-opacity="0" result="BackgroundImageFix"/>
<feGaussianBlur in="BackgroundImageFix" stdDeviation="13.5"/>
<feComposite in2="SourceAlpha" operator="in" result="effect1_backgroundBlur_2575_66863"/>
<feBlend mode="normal" in="SourceGraphic" in2="effect1_backgroundBlur_2575_66863" result="shape"/>
</filter>
<filter id="filter3_i_2575_66863" x="39.5" y="129.656" width="151.055" height="99.3438" filterUnits="userSpaceOnUse" color-interpolation-filters="sRGB">
<feFlood flood-opacity="0" result="BackgroundImageFix"/>
<feBlend mode="normal" in="SourceGraphic" in2="BackgroundImageFix" result="shape"/>
<feColorMatrix in="SourceAlpha" type="matrix" values="0 0 0 0 0 0 0 0 0 0 0 0 0 0 0 0 0 0 127 0" result="hardAlpha"/>
<feOffset dy="11"/>
<feGaussianBlur stdDeviation="5"/>
<feComposite in2="hardAlpha" operator="arithmetic" k2="-1" k3="1"/>
<feColorMatrix type="matrix" values="0 0 0 0 1 0 0 0 0 1 0 0 0 0 1 0 0 0 1 0"/>
<feBlend mode="normal" in2="shape" result="effect1_innerShadow_2575_66863"/>
</filter>
<linearGradient id="paint0_linear_2575_66863" x1="133.018" y1="176.767" x2="178.443" y2="96.811" gradientUnits="userSpaceOnUse">
<stop stop-color="#FF9900"/>
<stop offset="1" stop-color="#FFEE94"/>
</linearGradient>
<linearGradient id="paint1_linear_2575_66863" x1="49.1086" y1="211.026" x2="201.1" y2="96.9525" gradientUnits="userSpaceOnUse">
<stop stop-color="white"/>
<stop offset="1" stop-color="white" stop-opacity="0.58"/>
</linearGradient>
</defs>
</svg>
