<svg xmlns="http://www.w3.org/2000/svg" width="26" height="26" viewBox="0 0 26 26" fill="none">
  <path d="M16.177 15.8113L15.7107 15.5468C14.6217 14.9292 13.6157 14.1756 12.7168 13.3042L12.7112 13.2988L12.7058 13.2932C11.8344 12.3943 11.0808 11.3883 10.4632 10.2993L10.1939 9.82453L10.6905 9.59784L11.1823 9.37333C11.549 9.19203 11.8364 8.88211 11.9894 8.50253C12.1432 8.12132 12.1506 7.69676 12.0103 7.31043C12.0102 7.3101 12.0101 7.30978 12.0099 7.30945L16.177 15.8113ZM16.177 15.8113L16.4084 15.3276L16.6457 14.8315C16.8267 14.4629 17.1374 14.1741 17.5183 14.0206C17.8991 13.867 18.3232 13.8594 18.7093 13.9993L16.177 15.8113ZM22.0582 20.576L22.0581 20.5839C22.0576 20.8048 22.0109 21.0232 21.9209 21.225C21.8309 21.4268 21.6997 21.6075 21.5357 21.7555C21.3625 21.9128 21.1566 22.0298 20.9328 22.0981C20.7097 22.1661 20.4744 22.1839 20.2437 22.1505C16.0937 21.6076 12.2371 19.716 9.26748 16.7666L9.26626 16.7654C6.29404 13.7932 4.38592 9.92309 3.8379 5.75567C3.80438 5.52487 3.82226 5.2895 3.89028 5.06638C3.95863 4.8422 4.07589 4.63599 4.2336 4.46264C4.38327 4.29705 4.56626 4.16497 4.77057 4.07507C4.97461 3.98529 5.1953 3.93961 5.4182 3.94102M22.0582 20.576L5.41649 4.44102M22.0582 20.576L22.0579 20.5681L21.9608 17.2328L22.0582 20.576ZM5.4182 3.94102C5.4189 3.94102 5.4196 3.94102 5.42029 3.94103L5.41649 4.44102M5.4182 3.94102H5.41649V4.44102M5.4182 3.94102H8.66095M5.41649 4.44102H8.66649M8.66095 3.94102C8.65873 3.94106 8.6565 3.94111 8.65427 3.94116L8.66649 4.44102M8.66095 3.94102H8.66649V4.44102M8.66095 3.94102L8.66649 4.44102M22.6523 12.5768H22.739C23.0102 12.5779 23.2719 12.4773 23.4725 12.2948C23.6731 12.1122 23.7979 11.8611 23.8223 11.591M22.6523 12.5768L22.6956 12.0787C22.6895 12.0782 22.6834 12.0776 22.6773 12.0768M22.6523 12.5768V12.0768H22.6773M22.6523 12.5768L23.8223 11.591M22.6773 12.0768H22.739H22.741C22.887 12.0774 23.028 12.0232 23.136 11.925C23.2393 11.831 23.3053 11.7032 23.3223 11.565M22.6773 12.0768C22.5305 12.0594 22.3955 11.9869 22.2999 11.8734L21.9176 12.1956L22.2999 11.8734C22.2004 11.7553 22.1518 11.6026 22.1647 11.4487L22.1665 11.4278V11.4068V11.4057V11.4046V11.4034V11.4023V11.4011V11.4V11.3989V11.3977V11.3966V11.3954V11.3943V11.3932V11.392V11.3909V11.3897V11.3886V11.3875V11.3863V11.3852V11.384V11.3829V11.3818V11.3806V11.3795V11.3784V11.3772V11.3761V11.375V11.3738V11.3727V11.3715V11.3704V11.3693V11.3681V11.367V11.3659V11.3647V11.3636V11.3625V11.3613V11.3602V11.3591V11.3579V11.3568V11.3557V11.3545V11.3534V11.3523V11.3511V11.35V11.3489V11.3477V11.3466V11.3455V11.3444V11.3432V11.3421V11.341V11.3398V11.3387V11.3376V11.3364V11.3353V11.3342V11.3331V11.3319V11.3308V11.3297V11.3285V11.3274V11.3263V11.3252V11.324V11.3229V11.3218V11.3207V11.3195V11.3184V11.3173V11.3162V11.315V11.3139V11.3128V11.3117V11.3105V11.3094V11.3083V11.3072V11.306V11.3049V11.3038V11.3027V11.3015V11.3004V11.2993V11.2982V11.297V11.2959V11.2948V11.2937V11.2925V11.2914V11.2903V11.2892V11.2881V11.2869V11.2858V11.2847V11.2836V11.2825V11.2813V11.2802V11.2791V11.278V11.2768V11.2757V11.2746V11.2735V11.2724V11.2712V11.2701V11.269V11.2679V11.2668V11.2656V11.2645V11.2634V11.2623V11.2612V11.2601V11.2589V11.2578V11.2567V11.2556V11.2545V11.2533V11.2522V11.2511V11.25V11.2489V11.2478V11.2466V11.2455V11.2444V11.2433V11.2422V11.2411V11.2399V11.2388V11.2377V11.2366V11.2355V11.2344V11.2332V11.2321V11.231V11.2299V11.2288V11.2277V11.2265V11.2254V11.2243V11.2232V11.2221V11.221V11.2199V11.2187V11.2176V11.2165V11.2154V11.2143V11.2132V11.2121V11.2109V11.2098V11.2087V11.2076V11.2065V11.2054V11.2043V11.2031V11.202V11.2009V11.1998V11.1987V11.1976V11.1965V11.1954V11.1942V11.1931V11.192V11.1909V11.1898V11.1887V11.1876V11.1865V11.1853V11.1842V11.1831V11.182V11.1809V11.1798V11.1787V11.1776V11.1764V11.1753V11.1742V11.1731V11.172V11.1709V11.1698V11.1687V11.1675V11.1664V11.1653V11.1642V11.1631V11.162V11.1609V11.1598V11.1587V11.1575V11.1564V11.1553V11.1542V11.1531V11.152V11.1509V11.1498V11.1487V11.1475V11.1464V11.1453V11.1442V11.1431V11.142V11.1409V11.1398V11.1387V11.1375V11.1364V11.1353V11.1342V11.1331V11.132V11.1309V11.1298V11.1287V11.1275V11.1264V11.1253V11.1242V11.1231V11.122V11.1209V11.1198V11.1187V11.1175V11.1164V11.1153V11.1142V11.1131V11.112V11.1109V11.1098V11.1087V11.1075V11.1064V11.1053V11.1042V11.1031V11.102V11.1009V11.0998V11.0987V11.0975V11.0964V11.0953V11.0942V11.0931V11.092V11.0909V11.0898V11.0887V11.0875V11.0864V11.0853V11.0842V11.0831V11.082V11.0809V11.0798V11.0787V11.0775V11.0764V11.0753V11.0742V11.0731V11.072V11.0709V11.0698V11.0687V11.0675V11.0664V11.0653V11.0642V11.0631V11.062V11.0609V11.0598V11.0586V11.0575V11.0564V11.0553V11.0542V11.0531V11.052V11.0509V11.0497V11.0486V11.0475V11.0464V11.0453V11.0442V11.0431V11.042V11.0408V11.0397V11.0386V11.0375V11.0364V11.0353V11.0342V11.033V11.0319V11.0308V11.0297V11.0286V11.0275V11.0264V11.0252V11.0241V11.023V11.0219V11.0208V11.0197V11.0186V11.0174V11.0163V11.0152V11.0141V11.013V11.0119V11.0108V11.0096V11.0085V11.0074V11.0063V11.0052V11.0041V11.0029V11.0018V11.0007V10.9996V10.9985V10.9974V10.9962V10.9951V10.994V10.9929V10.9918V10.9907V10.9895V10.9884V10.9873V10.9862V10.9851V10.984V10.9828V10.9817V10.9806V10.9795V10.9784V10.9772V10.9761V10.975V10.9739V10.9728V10.9716V10.9705V10.9694V10.9683V10.9672V10.966V10.9649V10.9638V10.9627V10.9616V10.9604V10.9593V10.9582V10.9571V10.956V10.9548V10.9537V10.9526V10.9515V10.9504V10.9492V10.9481V10.947V10.9459V10.9447V10.9436V10.9425V10.9414V10.9402V10.9391V10.938V10.9369V10.9358V10.9346V10.9335V10.9324V10.9313V10.9301V10.929V10.9279V10.9268V10.9256V10.9245V10.9234V10.9223V10.9211V10.92V10.9189V10.9177V10.9166V10.9155V10.9144V10.9132V10.9121V10.911V10.9099V10.9087V10.9076V10.9065V10.9053V10.9042V10.9031V10.902V10.9008V10.8997V10.8986V10.8974V10.8963V10.8952V10.894V10.8929V10.8918V10.8907V10.8895V10.8884V10.8873V10.8861V10.885V10.8839V10.8827V10.8816V10.8805V10.8793V10.8782V10.8771V10.8759V10.8748V10.8737V10.8725V10.8714V10.8703V10.8691V10.868V10.8669V10.8657V10.8646V10.8634V10.8623V10.8612V10.86V10.8589V10.8578V10.8566V10.8555V10.8543V10.8532V10.8521V10.8509V10.8498V10.8487V10.8475V10.8464V10.8452V10.8441V10.843V10.8418V10.8407V10.8395V10.8384V10.8373V10.8361V10.835V10.8338V10.8327C22.1665 8.97617 21.429 7.19569 20.1162 5.88294C18.8035 4.57018 17.023 3.83268 15.1665 3.83268H14.5923H14.5711L14.55 3.83448C14.3948 3.84767 14.2407 3.79867 14.1217 3.69827C14.0026 3.59786 13.9283 3.45427 13.9151 3.29909C13.9019 3.1439 13.9509 2.98983 14.0513 2.87077C14.1479 2.7563 14.2843 2.6832 14.4326 2.66602H14.433H14.4345H14.4359H14.4374H14.4389H14.4403H14.4418H14.4433H14.4447H14.4462H14.4477H14.4491H14.4506H14.4521H14.4535H14.455H14.4565H14.4579H14.4594H14.4609H14.4623H14.4638H14.4653H14.4667H14.4682H14.4697H14.4711H14.4726H14.4741H14.4756H14.477H14.4785H14.48H14.4814H14.4829H14.4844H14.4859H14.4873H14.4888H14.4903H14.4917H14.4932H14.4947H14.4962H14.4976H14.4991H14.5006H14.5021H14.5035H14.505H14.5065H14.508H14.5094H14.5109H14.5124H14.5139H14.5153H14.5168H14.5183H14.5198H14.5212H14.5227H14.5242H14.5257H14.5271H14.5286H14.5301H14.5316H14.533H14.5345H14.536H14.5375H14.539H14.5404H14.5419H14.5434H14.5449H14.5464H14.5478H14.5493H14.5508H14.5523H14.5537H14.5552H14.5567H14.5582H14.5597H14.5611H14.5626H14.5641H14.5656H14.5671H14.5686H14.57H14.5715H14.573H14.5745H14.576H14.5774H14.5789H14.5804H14.5819H14.5834H14.5849H14.5863H14.5878H14.5893H14.5908H14.5923H14.5938H14.5952H14.5967H14.5982H14.5997H14.6012H14.6027H14.6041H14.6056H14.6071H14.6086H14.6101H14.6116H14.613H14.6145H14.616H14.6175H14.619H14.6205H14.622H14.6234H14.6249H14.6264H14.6279H14.6294H14.6309H14.6324H14.6339H14.6353H14.6368H14.6383H14.6398H14.6413H14.6428H14.6443H14.6457H14.6472H14.6487H14.6502H14.6517H14.6532H14.6547H14.6562H14.6576H14.6591H14.6606H14.6621H14.6636H14.6651H14.6666H14.6681H14.6696H14.671H14.6725H14.674H14.6755H14.677H14.6785H14.68H14.6815H14.683H14.6844H14.6859H14.6874H14.6889H14.6904H14.6919H14.6934H14.6949H14.6964H14.6979H14.6993H14.7008H14.7023H14.7038H14.7053H14.7068H14.7083H14.7098H14.7113H14.7128H14.7142H14.7157H14.7172H14.7187H14.7202H14.7217H14.7232H14.7247H14.7262H14.7277H14.7292H14.7306H14.7321H14.7336H14.7351H14.7366H14.7381H14.7396H14.7411H14.7426H14.7441H14.7456H14.747H14.7485H14.75H14.7515H14.753H14.7545H14.756H14.7575H14.759H14.7605H14.762H14.7635H14.7649H14.7664H14.7679H14.7694H14.7709H14.7724H14.7739H14.7754H14.7769H14.7784H14.7799H14.7814H14.7828H14.7843H14.7858H14.7873H14.7888H14.7903H14.7918H14.7933H14.7948H14.7963H14.7978H14.7993H14.8007H14.8022H14.8037H14.8052H14.8067H14.8082H14.8097H14.8112H14.8127H14.8142H14.8157H14.8172H14.8186H14.8201H14.8216H14.8231H14.8246H14.8261H14.8276H14.8291H14.8306H14.8321H14.8336H14.835H14.8365H14.838H14.8395H14.841H14.8425H14.844H14.8455H14.847H14.8485H14.85H14.8514H14.8529H14.8544H14.8559H14.8574H14.8589H14.8604H14.8619H14.8634H14.8649H14.8664H14.8678H14.8693H14.8708H14.8723H14.8738H14.8753H14.8768H14.8783H14.8798H14.8813H14.8827H14.8842H14.8857H14.8872H14.8887H14.8902H14.8917H14.8932H14.8947H14.8961H14.8976H14.8991H14.9006H14.9021H14.9036H14.9051H14.9066H14.9081H14.9095H14.911H14.9125H14.914H14.9155H14.917H14.9185H14.92H14.9215H14.9229H14.9244H14.9259H14.9274H14.9289H14.9304H14.9319H14.9334H14.9348H14.9363H14.9378H14.9393H14.9408H14.9423H14.9438H14.9452H14.9467H14.9482H14.9497H14.9512H14.9527H14.9542H14.9556H14.9571H14.9586H14.9601H14.9616H14.9631H14.9646H14.966H14.9675H14.969H14.9705H14.972H14.9735H14.9749H14.9764H14.9779H14.9794H14.9809H14.9824H14.9839H14.9853H14.9868H14.9883H14.9898H14.9913H14.9927H14.9942H14.9957H14.9972H14.9987H15.0002H15.0016H15.0031H15.0046H15.0061H15.0076H15.009H15.0105H15.012H15.0135H15.015H15.0165H15.0179H15.0194H15.0209H15.0224H15.0239H15.0253H15.0268H15.0283H15.0298H15.0312H15.0327H15.0342H15.0357H15.0372H15.0386H15.0401H15.0416H15.0431H15.0445H15.046H15.0475H15.049H15.0505H15.0519H15.0534H15.0549H15.0564H15.0578H15.0593H15.0608H15.0623H15.0637H15.0652H15.0667H15.0682H15.0696H15.0711H15.0726H15.0741H15.0755H15.077H15.0785H15.0799H15.0814H15.0829H15.0844H15.0858H15.0873H15.0888H15.0903H15.0917H15.0932H15.0947H15.0961H15.0976H15.0991H15.1006H15.102H15.1035H15.105H15.1064H15.1079H15.1094H15.1108H15.1123H15.1138H15.1152H15.1167H15.1182H15.1196H15.1211H15.1226H15.124H15.1255H15.127H15.1284H15.1299H15.1314H15.1328H15.1343H15.1358H15.1372H15.1387H15.1402H15.1416H15.1431H15.1446H15.146H15.1475H15.1489H15.1504H15.1519H15.1533H15.1548H15.1563H15.1577H15.1592H15.1606H15.1621H15.1636H15.165H15.1662C17.3302 2.6688 19.4047 3.5304 20.934 5.06158C22.4633 6.59284 23.3223 8.66851 23.3223 10.8327V10.8341V10.8356V10.8371V10.8385V10.84V10.8414V10.8429V10.8444V10.8458V10.8473V10.8488V10.8502V10.8517V10.8531V10.8546V10.8561V10.8575V10.859V10.8605V10.8619V10.8634V10.8649V10.8663V10.8678V10.8693V10.8707V10.8722V10.8737V10.8751V10.8766V10.8781V10.8795V10.881V10.8825V10.8839V10.8854V10.8869V10.8883V10.8898V10.8913V10.8927V10.8942V10.8957V10.8971V10.8986V10.9001V10.9016V10.903V10.9045V10.906V10.9074V10.9089V10.9104V10.9119V10.9133V10.9148V10.9163V10.9177V10.9192V10.9207V10.9222V10.9236V10.9251V10.9266V10.9281V10.9295V10.931V10.9325V10.934V10.9354V10.9369V10.9384V10.9399V10.9413V10.9428V10.9443V10.9458V10.9472V10.9487V10.9502V10.9517V10.9531V10.9546V10.9561V10.9576V10.9591V10.9605V10.962V10.9635V10.965V10.9664V10.9679V10.9694V10.9709V10.9724V10.9738V10.9753V10.9768V10.9783V10.9798V10.9812V10.9827V10.9842V10.9857V10.9872V10.9886V10.9901V10.9916V10.9931V10.9946V10.996V10.9975V10.999V11.0005V11.002V11.0035V11.0049V11.0064V11.0079V11.0094V11.0109V11.0124V11.0138V11.0153V11.0168V11.0183V11.0198V11.0212V11.0227V11.0242V11.0257V11.0272V11.0287V11.0302V11.0316V11.0331V11.0346V11.0361V11.0376V11.0391V11.0405V11.042V11.0435V11.045V11.0465V11.048V11.0495V11.0509V11.0524V11.0539V11.0554V11.0569V11.0584V11.0599V11.0614V11.0628V11.0643V11.0658V11.0673V11.0688V11.0703V11.0718V11.0733V11.0747V11.0762V11.0777V11.0792V11.0807V11.0822V11.0837V11.0852V11.0866V11.0881V11.0896V11.0911V11.0926V11.0941V11.0956V11.0971V11.0986V11.1V11.1015V11.103V11.1045V11.106V11.1075V11.109V11.1105V11.112V11.1134V11.1149V11.1164V11.1179V11.1194V11.1209V11.1224V11.1239V11.1254V11.1269V11.1283V11.1298V11.1313V11.1328V11.1343V11.1358V11.1373V11.1388V11.1403V11.1418V11.1432V11.1447V11.1462V11.1477V11.1492V11.1507V11.1522V11.1537V11.1552V11.1567V11.1582V11.1596V11.1611V11.1626V11.1641V11.1656V11.1671V11.1686V11.1701V11.1716V11.1731V11.1746V11.1761V11.1775V11.179V11.1805V11.182V11.1835V11.185V11.1865V11.188V11.1895V11.191V11.1925V11.1939V11.1954V11.1969V11.1984V11.1999V11.2014V11.2029V11.2044V11.2059V11.2074V11.2089V11.2104V11.2118V11.2133V11.2148V11.2163V11.2178V11.2193V11.2208V11.2223V11.2238V11.2253V11.2268V11.2283V11.2297V11.2312V11.2327V11.2342V11.2357V11.2372V11.2387V11.2402V11.2417V11.2432V11.2447V11.2462V11.2476V11.2491V11.2506V11.2521V11.2536V11.2551V11.2566V11.2581V11.2596V11.2611V11.2626V11.2641V11.2655V11.267V11.2685V11.27V11.2715V11.273V11.2745V11.276V11.2775V11.279V11.2805V11.2819V11.2834V11.2849V11.2864V11.2879V11.2894V11.2909V11.2924V11.2939V11.2954V11.2968V11.2983V11.2998V11.3013V11.3028V11.3043V11.3058V11.3073V11.3088V11.3103V11.3117V11.3132V11.3147V11.3162V11.3177V11.3192V11.3207V11.3222V11.3237V11.3251V11.3266V11.3281V11.3296V11.3311V11.3326V11.3341V11.3356V11.3371V11.3385V11.34V11.3415V11.343V11.3445V11.346V11.3475V11.349V11.3504V11.3519V11.3534V11.3549V11.3564V11.3579V11.3594V11.3609V11.3623V11.3638V11.3653V11.3668V11.3683V11.3698V11.3713V11.3727V11.3742V11.3757V11.3772V11.3787V11.3802V11.3817V11.3831V11.3846V11.3861V11.3876V11.3891V11.3906V11.3921V11.3935V11.395V11.3965V11.398V11.3995V11.401V11.4024V11.4039V11.4054V11.4069V11.4084V11.4099V11.4113V11.4128V11.4143V11.4158V11.4173V11.4188V11.4202V11.4217V11.4232V11.4247V11.4262V11.4277V11.4291V11.4306V11.4321V11.4336V11.4351V11.4365V11.438V11.4395V11.441V11.4425V11.4439V11.4454V11.4469V11.4484V11.4499V11.4513V11.4528V11.4543V11.4558V11.4573V11.4587V11.4602V11.4617V11.4632V11.4646V11.4661V11.4676V11.4691V11.4706V11.472V11.4735V11.475V11.4765V11.4779V11.4794V11.4809V11.4824V11.4838V11.4853V11.4868V11.4883V11.4897V11.4912V11.4927V11.4942V11.4956V11.4971V11.4986V11.5001V11.5015V11.503V11.5045V11.506V11.5074V11.5089V11.5104V11.5118V11.5133V11.5148V11.5163V11.5177V11.5192V11.5207V11.5221V11.5236V11.5251V11.5266V11.528V11.5295V11.531V11.5324V11.5339V11.5354V11.5368V11.5383V11.5398V11.5412V11.5427V11.5442V11.5456V11.5471V11.5486V11.55V11.5515V11.553V11.5544V11.5559V11.5574V11.5588V11.5603V11.5618V11.5632V11.5647V11.565M23.3223 11.565V11.5662V11.5676V11.5691V11.5706V11.572V11.5735V11.5749V11.5764V11.5779V11.5793V11.5808V11.5823V11.5837V11.5852V11.5866V11.5881V11.5896V11.591H23.8223M23.3223 11.565C23.3231 11.5587 23.3238 11.5524 23.3243 11.546L23.8223 11.591M10.4809 3.41877C10.9829 3.83545 11.3204 4.41699 11.4332 5.05942L18.8823 13.5302C19.345 13.7037 19.8192 13.8448 20.3015 13.9527L20.1907 14.4402C20.191 14.4403 20.1912 14.4404 20.1915 14.4404C20.2242 14.4479 20.2616 14.4571 20.3029 14.4673C20.4814 14.5114 20.7313 14.573 20.9717 14.5817C21.5768 14.7105 22.1212 15.0397 22.5164 15.5166C22.9202 16.0038 23.1436 16.6153 23.149 17.248V20.496V20.4967C23.1495 20.8842 23.0681 21.2675 22.9101 21.6213C22.7522 21.975 22.5214 22.2913 22.2328 22.5496C21.7281 22.9991 21.0756 23.247 20.3997 23.246L20.3803 23.246L20.3609 23.2475C20.2499 23.2559 20.1384 23.2563 20.0274 23.2484C15.633 22.6714 11.5511 20.6622 8.41338 17.5316C5.27948 14.3906 3.26939 10.3034 2.69478 5.90376L2.69479 5.90376L2.69437 5.90069C2.64052 5.50742 2.67245 5.10715 2.78796 4.72739C2.90339 4.34788 3.09956 3.99784 3.36301 3.70128C3.62126 3.4127 3.93756 3.18192 4.29119 3.02405C4.64505 2.86608 5.02831 2.78467 5.41583 2.78518H5.41649H8.67732V2.78524L8.68459 2.78513C9.33973 2.7756 9.97674 3.0003 10.4809 3.41877ZM8.78941 9.78837C8.78751 9.7843 8.78561 9.78024 8.78371 9.77617L8.33065 9.98768L8.79315 9.79768C8.79187 9.79459 8.79063 9.79148 8.78941 9.78837ZM16.1133 17.1123C16.1102 17.111 16.1071 17.1098 16.104 17.1085L15.914 17.571L16.1255 17.118C16.1214 17.1161 16.1174 17.1142 16.1133 17.1123ZM16.8889 16.8006L16.888 16.8025L17.344 17.0077L16.8896 16.7991C16.8893 16.7996 16.8891 16.8001 16.8889 16.8006ZM18.004 11.2452C17.8946 11.1358 17.8332 10.9874 17.8332 10.8327C17.8332 10.1254 17.5522 9.44716 17.0521 8.94706C16.552 8.44697 15.8737 8.16602 15.1665 8.16602C15.0118 8.16602 14.8634 8.10456 14.754 7.99516C14.6446 7.88576 14.5832 7.73739 14.5832 7.58268C14.5832 7.42797 14.6446 7.2796 14.754 7.1702C14.8634 7.06081 15.0118 6.99935 15.1665 6.99935C16.1831 6.99935 17.1582 7.40322 17.8771 8.12211C18.596 8.841 18.9998 9.81602 18.9998 10.8327C18.9998 10.9874 18.9384 11.1358 18.829 11.2452C18.7196 11.3546 18.5712 11.416 18.4165 11.416C18.2618 11.416 18.1134 11.3546 18.004 11.2452Z" stroke="#707070"/>
</svg>