<svg width="19" height="20" viewBox="0 0 19 20" fill="none" xmlns="http://www.w3.org/2000/svg">
<path d="M4.47832 18.3825L5.52623 17.5H4.15625C2.05606 17.5 0.5 16.0814 0.5 14.5V4C0.5 3.23607 0.728009 2.6703 1.11949 2.23116C1.52085 1.78095 2.12652 1.428 2.93723 1.1627C4.57126 0.627975 6.87181 0.5 9.5 0.5C12.1282 0.5 14.4287 0.627975 16.0628 1.1627C16.8735 1.428 17.4792 1.78095 17.8805 2.23116C18.272 2.6703 18.5 3.23607 18.5 4V14.5C18.5 16.0818 16.9494 17.5 14.8438 17.5H13.4738L14.5217 18.3825L15.8488 19.5H3.15123L4.47832 18.3825ZM16.625 9.5H17.125V9V4V3.5H16.625H2.375H1.875V4V9V9.5H2.375H16.625ZM6.625 14C6.625 15.4582 7.99563 16.5 9.5 16.5C11.0044 16.5 12.375 15.4582 12.375 14C12.375 12.5418 11.0044 11.5 9.5 11.5C7.99563 11.5 6.625 12.5418 6.625 14Z" stroke="#707070"/>
</svg>
