<svg width="27" height="27" viewBox="0 0 27 27" fill="none" xmlns="http://www.w3.org/2000/svg">
<g clip-path="url(#clip0_484_744)">
<path d="M15.1875 6.1875C16.425 6.1875 17.4375 5.175 17.4375 3.9375C17.4375 2.7 16.425 1.6875 15.1875 1.6875C13.95 1.6875 12.9375 2.7 12.9375 3.9375C12.9375 5.175 13.95 6.1875 15.1875 6.1875ZM11.025 10.0125L8.145 24.5362C7.99875 25.2225 8.53875 25.875 9.2475 25.875H9.3375C9.86625 25.875 10.3162 25.515 10.44 24.9975L12.2625 16.875L14.625 19.125V24.75C14.625 25.3687 15.1313 25.875 15.75 25.875C16.3687 25.875 16.875 25.3687 16.875 24.75V18.405C16.875 17.7863 16.6275 17.2013 16.1775 16.7738L14.5125 15.1875L15.1875 11.8125C16.3912 13.2075 18.135 14.2087 20.0925 14.5238C20.7675 14.625 21.375 14.085 21.375 13.3988C21.375 12.8475 20.97 12.3863 20.4187 12.2963C18.7087 12.015 17.2913 11.0025 16.5375 9.675L15.4125 7.875C14.7825 6.87375 13.5225 6.46875 12.4313 6.93L8.1225 8.7525C7.29 9.1125 6.75 9.9225 6.75 10.8337V13.5C6.75 14.1187 7.25625 14.625 7.875 14.625C8.49375 14.625 9 14.1187 9 13.5V10.8L11.025 10.0125Z" fill="#707070"/>
</g>
<defs>
<clipPath id="clip0_484_744">
<rect width="27" height="27" fill="white"/>
</clipPath>
</defs>
</svg>
