<svg width="29" height="30" viewBox="0 0 29 30" fill="none" xmlns="http://www.w3.org/2000/svg">
<g clip-path="url(#clip0_246_4034)">
<path d="M12.3321 11.7257L12.5093 10.8323L11.6604 11.1624L9.48544 12.0083L9.16667 12.1322V12.4743V15.3743C9.16667 15.7627 8.84677 16.0826 8.45833 16.0826C8.06989 16.0826 7.75 15.7627 7.75 15.3743V12.5105C7.75 11.7343 8.2085 11.0436 8.9209 10.7348L13.5467 8.77815C14.4901 8.37943 15.5827 8.72812 16.1306 9.59832C16.1307 9.5985 16.1309 9.59869 16.131 9.59888L17.333 11.5222C18.2213 13.0796 19.8739 14.2497 21.8501 14.5747L21.8507 14.5748C22.2112 14.6337 22.4583 14.9287 22.4583 15.2655C22.4583 15.7076 22.0679 16.0399 21.6573 15.9797C19.6723 15.6596 17.9065 14.6436 16.691 13.2351L16.0228 12.4607L15.8222 13.4637L15.0972 17.0887L15.0432 17.3588L15.2426 17.5488L17.0309 19.2525L17.0315 19.253C17.4141 19.6166 17.625 20.1133 17.625 20.6426V27.4576C17.625 27.846 17.3051 28.1659 16.9167 28.1659C16.5282 28.1659 16.2083 27.846 16.2083 27.4576V21.4159V21.2016L16.0532 21.0539L13.5157 18.6372L12.8763 18.0283L12.683 18.8898L10.7263 27.6101C10.6453 27.9434 10.3606 28.1659 10.0292 28.1659H9.9325C9.47945 28.1659 9.14862 27.7486 9.23735 27.3322L9.2374 27.3322L9.23878 27.3253L12.3321 11.7257ZM18.2292 5.10343C18.2292 6.15646 17.3655 7.0201 16.3125 7.0201C15.2595 7.0201 14.3958 6.15646 14.3958 5.10343C14.3958 4.05041 15.2595 3.18677 16.3125 3.18677C17.3655 3.18677 18.2292 4.05041 18.2292 5.10343Z" stroke="#707070"/>
</g>
<defs>
<clipPath id="clip0_246_4034">
<rect width="29" height="29" fill="white" transform="translate(0 0.874268)"/>
</clipPath>
</defs>
</svg>
