<svg width="36" height="36" viewBox="0 0 36 36" fill="none" xmlns="http://www.w3.org/2000/svg">
<path d="M27.2813 20.25C26.2244 20.25 25.1912 20.5634 24.3124 21.1506C23.4336 21.7378 22.7487 22.5723 22.3443 23.5488C21.9398 24.5252 21.834 25.5997 22.0402 26.6363C22.2464 27.6729 22.7553 28.625 23.5027 29.3724C24.25 30.1197 25.2022 30.6286 26.2387 30.8348C27.2753 31.041 28.3498 30.9352 29.3262 30.5307C30.3027 30.1263 31.1372 29.4414 31.7244 28.5626C32.3116 27.6838 32.625 26.6506 32.625 25.5938C32.6206 24.1779 32.0561 22.8212 31.0549 21.8201C30.0538 20.8189 28.6971 20.2545 27.2813 20.25V20.25ZM8.71875 20.25C7.66186 20.25 6.6287 20.5634 5.74992 21.1506C4.87115 21.7378 4.18623 22.5723 3.78177 23.5488C3.37732 24.5252 3.27149 25.5997 3.47768 26.6363C3.68387 27.6729 4.19281 28.625 4.94015 29.3724C5.68749 30.1197 6.63965 30.6286 7.67624 30.8348C8.71282 31.041 9.78727 30.9352 10.7637 30.5307C11.7402 30.1263 12.5747 29.4414 13.1619 28.5626C13.7491 27.6838 14.0625 26.6506 14.0625 25.5938C14.0581 24.1779 13.4936 22.8212 12.4924 21.8201C11.4913 20.8189 10.1346 20.2545 8.71875 20.25Z" stroke="#707070" stroke-width="3.5" stroke-miterlimit="10"/>
<path d="M18 25.3125V19.2656L13.5 16.3125L19.125 10.125L21.9375 15.1875H25.875" stroke="#707070" stroke-width="3.5" stroke-linecap="round" stroke-linejoin="round"/>
<mask id="path-3-outside-1_246_4949" maskUnits="userSpaceOnUse" x="20" y="0" width="9" height="9" fill="black">
<rect fill="white" x="20" width="9" height="9"/>
<path d="M24.4976 5.99999C24.6955 6.00068 24.8915 5.96219 25.0744 5.88676C25.2573 5.81133 25.4234 5.70045 25.5631 5.56053C25.7028 5.42061 25.8133 5.25443 25.8883 5.07159C25.9633 4.88876 26.0012 4.6929 25.9999 4.49533C26.0021 4.29876 25.965 4.10372 25.8908 3.92162C25.8166 3.73952 25.7068 3.57402 25.5678 3.4348C25.4288 3.29557 25.2634 3.18541 25.0813 3.11076C24.8991 3.03612 24.7039 2.99848 24.507 3.00005C24.3097 2.99943 24.1142 3.03762 23.9317 3.11243C23.7492 3.18724 23.5833 3.29721 23.4433 3.43606C23.1607 3.71648 23.0013 4.09751 23 4.49533C22.9988 4.89315 23.1558 5.27517 23.4367 5.55735C23.7176 5.83952 24.0992 5.99875 24.4976 5.99999Z"/>
</mask>
<path d="M24.4976 5.99999C24.6955 6.00068 24.8915 5.96219 25.0744 5.88676C25.2573 5.81133 25.4234 5.70045 25.5631 5.56053C25.7028 5.42061 25.8133 5.25443 25.8883 5.07159C25.9633 4.88876 26.0012 4.6929 25.9999 4.49533C26.0021 4.29876 25.965 4.10372 25.8908 3.92162C25.8166 3.73952 25.7068 3.57402 25.5678 3.4348C25.4288 3.29557 25.2634 3.18541 25.0813 3.11076C24.8991 3.03612 24.7039 2.99848 24.507 3.00005C24.3097 2.99943 24.1142 3.03762 23.9317 3.11243C23.7492 3.18724 23.5833 3.29721 23.4433 3.43606C23.1607 3.71648 23.0013 4.09751 23 4.49533C22.9988 4.89315 23.1558 5.27517 23.4367 5.55735C23.7176 5.83952 24.0992 5.99875 24.4976 5.99999Z" fill="#707070"/>
<path d="M25.9999 4.49533L23.0001 4.4619L22.9998 4.48852L23 4.51514L25.9999 4.49533ZM24.507 3.00005L24.4976 6.00003L24.5143 6.00008L24.5309 5.99995L24.507 3.00005ZM23.4433 3.43606L25.5564 5.56564L25.5564 5.56564L23.4433 3.43606ZM24.4872 8.99997C25.0809 9.00203 25.6693 8.88656 26.2183 8.66012L23.9305 3.1134C24.1138 3.03782 24.31 2.99932 24.508 3.00001L24.4872 8.99997ZM26.2183 8.66012C26.7673 8.43367 27.2662 8.10069 27.6861 7.68018L23.4401 3.44087C23.5806 3.30021 23.7473 3.18898 23.9305 3.1134L26.2183 8.66012ZM27.6861 7.68018C28.1059 7.25967 28.4384 6.75997 28.664 6.20985L23.1126 3.93334C23.1883 3.74888 23.2997 3.58155 23.4401 3.44087L27.6861 7.68018ZM28.664 6.20985C28.8896 5.65972 29.0038 5.07024 28.9998 4.47553L23 4.51514C22.9987 4.31556 23.037 4.1178 23.1126 3.93334L28.664 6.20985ZM28.9997 4.52876C29.0064 3.93276 28.8939 3.34153 28.6691 2.78968L23.1126 5.05356C23.0361 4.86591 22.9978 4.66475 23.0001 4.4619L28.9997 4.52876ZM28.6691 2.78968C28.4442 2.23785 28.1116 1.73661 27.6908 1.31516L23.4448 5.55443C23.302 5.41143 23.189 5.2412 23.1126 5.05356L28.6691 2.78968ZM27.6908 1.31516C27.2701 0.893727 26.7696 0.560537 26.2189 0.334838L23.9436 5.88669C23.7572 5.81029 23.5876 5.69741 23.4448 5.55443L27.6908 1.31516ZM26.2189 0.334838C25.6682 0.109143 25.0781 -0.00460196 24.4831 0.000142574L24.5309 5.99995C24.3297 6.00156 24.13 5.96309 23.9436 5.88669L26.2189 0.334838ZM24.5164 6.17504e-05C23.9258 -0.00178099 23.3405 0.112535 22.7939 0.3366L25.0696 5.88826C24.888 5.9627 24.6937 6.00064 24.4976 6.00003L24.5164 6.17504e-05ZM22.7939 0.3366C22.2473 0.560667 21.7499 0.890159 21.3303 1.30649L25.5564 5.56564C25.4167 5.70427 25.2512 5.81382 25.0696 5.88826L22.7939 0.3366ZM21.3303 1.30649C20.4828 2.14739 20.0038 3.29098 20 4.48594L26 4.50472C25.9987 4.90405 25.8386 5.28558 25.5564 5.56564L21.3303 1.30649ZM20 4.48594C19.9963 5.68091 20.4682 6.82748 21.3104 7.67367L25.563 3.44102C25.8435 3.72285 26.0012 4.10539 26 4.50472L20 4.48594ZM21.3104 7.67367C22.1525 8.51971 23.2957 8.99626 24.4882 8.99998L24.507 3.00001C24.9027 3.00124 25.2826 3.15934 25.563 3.44102L21.3104 7.67367Z" fill="#707070" mask="url(#path-3-outside-1_246_4949)"/>
</svg>
