<svg width="36" height="35" viewBox="0 0 36 35" fill="none" xmlns="http://www.w3.org/2000/svg">
<path d="M23.7533 21.0225L23.7307 21.0034C22.1651 19.687 20.134 18.9531 18.0212 18.9531C15.9084 18.9531 13.8772 19.687 12.3117 21.0034L12.3016 21.0119L12.3015 21.0119C12.2551 21.0499 12.2206 21.0933 12.1973 21.1377C12.174 21.1819 12.1616 21.2275 12.1585 21.2721C12.1554 21.3166 12.1616 21.3621 12.1777 21.4067C12.194 21.4514 12.2208 21.4963 12.2595 21.5375C12.2984 21.5789 12.3485 21.6156 12.4086 21.6429L12.4087 21.6429C12.4689 21.6702 12.5364 21.6869 12.6069 21.6903L23.7533 21.0225ZM23.7533 21.0225C23.8287 21.0951 23.8644 21.1814 23.8694 21.261C23.8748 21.3476 23.8449 21.4428 23.7682 21.5244C23.6897 21.608 23.5676 21.6692 23.4242 21.6772L23.4798 22.6757L23.4242 21.6772C23.2807 21.6852 23.1482 21.6378 23.0554 21.5598L23.0554 21.5598C21.6607 20.3872 19.869 19.7463 18.0212 19.7463C16.1734 19.7463 14.3817 20.3872 12.987 21.5598L12.9869 21.5597L12.9764 21.5688C12.9315 21.6076 12.8758 21.6402 12.8115 21.662L23.7533 21.0225ZM12.8115 21.662C12.7472 21.6839 12.6774 21.6938 12.6069 21.6903L12.8115 21.662Z" stroke="#707070" stroke-width="2"/>
<path d="M7.99331 16.9671L8.00196 16.9598L8.01044 16.9522C10.7139 14.5541 14.2927 13.2139 18.019 13.2188L18.0216 13.2188C21.7479 13.2139 25.3267 14.5541 28.0301 16.9522L28.0386 16.9598L28.0472 16.9671C28.0929 17.0058 28.1264 17.0497 28.1488 17.0944C28.1711 17.1389 28.1826 17.1848 28.1847 17.2295C28.1868 17.2743 28.1796 17.32 28.1621 17.3648L29.0936 17.7285L28.1621 17.3648C28.1446 17.4097 28.1163 17.4546 28.0759 17.4955L28.787 18.1985L28.0758 17.4955C28.0353 17.5365 27.9835 17.5725 27.9219 17.5985L28.3118 18.5194L27.9219 17.5985C27.8602 17.6247 27.7916 17.6396 27.7206 17.6412C27.6496 17.6427 27.5801 17.6307 27.5165 17.607C27.4531 17.5834 27.3988 17.5493 27.3555 17.5094L27.3477 17.5021L27.3396 17.495C24.8037 15.2523 21.4719 14.0123 18.0203 14.0123C14.5686 14.0123 11.2369 15.2523 8.70093 17.495L8.6929 17.5021L8.68503 17.5094C8.64179 17.5493 8.58749 17.5834 8.52403 17.607C8.4605 17.6307 8.39093 17.6427 8.31993 17.6412C8.24893 17.6396 8.18038 17.6247 8.11869 17.5985C8.05707 17.5725 8.00525 17.5365 7.96471 17.4955C7.92429 17.4546 7.89598 17.4097 7.87844 17.3648C7.86096 17.32 7.85373 17.2742 7.85582 17.2295C7.85791 17.1848 7.86945 17.1389 7.89175 17.0944C7.91413 17.0497 7.94768 17.0058 7.99331 16.9671Z" stroke="#707070" stroke-width="2"/>
<path d="M31.84 12.4576L31.8404 12.4572C31.9296 12.5335 31.971 12.628 31.9761 12.7144C31.9812 12.801 31.951 12.896 31.874 12.9775C31.7951 13.0609 31.6728 13.1218 31.5295 13.1294C31.386 13.137 31.2538 13.0892 31.1614 13.0111L31.1604 13.0102C27.5358 9.95241 22.8583 8.26936 18.02 8.26936C13.1816 8.26936 8.50407 9.95241 4.87954 13.0102L4.87016 13.0181L4.86098 13.0263C4.81649 13.0657 4.76106 13.099 4.69676 13.1215C4.63239 13.1441 4.56236 13.1547 4.49136 13.1517L4.44983 14.1508L4.49136 13.1517C4.42037 13.1488 4.35229 13.1324 4.29146 13.1052C4.23071 13.0779 4.18005 13.0412 4.14077 12.9996L3.41432 13.6869L4.14077 12.9996C4.10162 12.9582 4.07457 12.9131 4.0582 12.8681C4.04188 12.8233 4.03572 12.7775 4.03889 12.7327C4.04207 12.6879 4.05476 12.642 4.07838 12.5975C4.10209 12.5528 4.13707 12.5092 4.18411 12.4712L4.19243 12.4645L4.20061 12.4576C7.99638 9.25392 12.915 7.47656 18.0203 7.47656C23.1256 7.47656 28.0442 9.25392 31.84 12.4576Z" stroke="#707070" stroke-width="2"/>
<path d="M19.269 26.1674C19.269 26.739 18.7625 27.2958 18.019 27.2958C17.2756 27.2958 16.769 26.739 16.769 26.1674C16.769 25.5959 17.2756 25.0391 18.019 25.0391C18.7625 25.0391 19.269 25.5959 19.269 26.1674Z" stroke="#707070" stroke-width="2"/>
</svg>
